<?xml version="1.0" encoding="UTF-8"?><svg id="uuid-1e0e29f3-63fc-49dd-a70a-6ff6a2b8a231" xmlns="http://www.w3.org/2000/svg" viewBox="0 0 500 500.62"><defs><style>.uuid-66f31d69-37dc-43f5-a1ee-b34f1d2323db{fill:#fff;}</style></defs><path class="uuid-66f31d69-37dc-43f5-a1ee-b34f1d2323db" d="M250,490.86c-64.17,0-124.5-25.02-169.87-70.45C34.75,374.97,9.76,314.56,9.76,250.31s24.99-124.66,70.37-170.1C125.5,34.78,185.83,9.76,250,9.76s124.5,25.02,169.87,70.45c45.38,45.43,70.37,105.84,70.37,170.1s-24.99,124.66-70.37,170.1c-45.38,45.43-105.7,70.45-169.87,70.45Z"/><path d="M250,19.52c31.12,0,61.3,6.1,89.7,18.12,27.44,11.62,52.09,28.26,73.27,49.46,21.17,21.2,37.8,45.88,49.41,73.36,12.02,28.44,18.11,58.67,18.11,89.83s-6.09,61.39-18.11,89.83c-11.61,27.48-28.23,52.16-49.41,73.36-21.17,21.2-45.82,37.84-73.27,49.46-28.4,12.03-58.58,18.12-89.7,18.12s-61.3-6.1-89.7-18.12c-27.44-11.62-52.09-28.26-73.27-49.46-21.17-21.2-37.8-45.88-49.41-73.36-12.02-28.44-18.11-58.67-18.11-89.83s6.09-61.39,18.11-89.83c11.61-27.48,28.23-52.16,49.41-73.36,21.17-21.2,45.82-37.84,73.27-49.46,28.4-12.03,58.58-18.12,89.7-18.12M250,0C111.93,0,0,112.07,0,250.31s111.93,250.31,250,250.31,250-112.07,250-250.31S388.07,0,250,0h0Z"/><path d="M191.89,409.34h-38.27c.31-9.29.58-29.73.81-61.31.23-31.58.35-69.59.35-114.03,0-18.12-.12-39.09-.35-62.94-.23-23.84-.5-48.07-.81-72.69h38.27c-.31,23.69-.54,50.48-.7,80.36-.16,29.88-.23,55.66-.23,77.34,0,44.59.12,78.96.35,103.12.23,24.15.42,40.88.58,50.16ZM393.02,387.95l-26.7,25.57c-36.96-35.92-72.6-69.44-106.93-100.56-34.33-31.12-53.97-48.92-58.92-53.42v-.93c9.59-9.6,30.11-30.73,61.58-63.4,31.47-32.67,62.9-66.11,94.29-100.33l26.13,23.38c-26.62,25.52-53.94,52.7-81.95,81.54-28.01,28.85-45.66,46.98-52.93,54.4l.02.65c3.56,3.41,18.85,17.54,45.87,42.39,27.02,24.85,60.2,55.09,99.53,90.7Z"/></svg>