<?xml version="1.0" encoding="UTF-8"?><svg id="uuid-1f576077-e113-4c67-865d-3e7890376f88" xmlns="http://www.w3.org/2000/svg" viewBox="0 0 1844.17 1733.18"><defs><style>.uuid-d3356268-f3db-43ad-8eee-ec09b8b89257{fill:#f7e576;}.uuid-8bdba22e-202d-42a9-b771-3e0dd06a38a9{fill:#947a97;}.uuid-9625db19-5372-4612-a80b-f5b2af1fcbb7{fill:#88c4d6;}.uuid-089b3fbe-c6fc-4363-8dbb-ff7034d9b126{fill:#ffd100;}.uuid-f24b54f2-1c01-4825-b462-6b72a73eef7a{fill:#030202;}.uuid-5d7758d0-dee7-4304-908f-b16976b4c739{fill:#444;}.uuid-eb09a906-0013-4fa6-8ec1-759bfcfd024b{fill:#fbdb4c;}.uuid-6de19b9e-6dbf-4784-8048-45579a3835a6{fill:#a1bc97;}.uuid-a694283f-66b9-4186-8352-ae6549519b21{fill:#010101;}.uuid-6166c65c-fb90-4df6-a1c6-e3e73e5b34a4{fill:#dde08c;}.uuid-2537bc63-9b53-40f9-aead-c87854806163{fill:#5994a9;}.uuid-1559f9b4-0d39-47a7-a9df-ffa238d8cabc{fill:#9eccef;}.uuid-488bfe9e-67e5-4159-9897-a83d99e80bd7{fill:#f0de8c;}.uuid-e9bf1752-54b6-42bc-80bb-93e3f701d2be{fill:#e8d794;}.uuid-cfbedc5f-1a6d-4473-b07d-2c74a83fff94{fill:#bbdec3;}.uuid-481e55a7-f3a2-4c7a-bfc1-53daefba020f{fill:#73926f;}.uuid-26196751-f07e-4b8f-9792-ce34151a94df{fill:#c7e0c6;}.uuid-eec1cded-3cfa-45a1-93d9-a6cf608fd538{fill:#4d94db;}.uuid-8a5b1bd7-6428-4eda-a9f1-de9218dd8130{fill:#e5d79c;}.uuid-2ed6de4e-2582-487e-9f62-98652b377938{fill:#ead682;}.uuid-07c00bb0-e265-4d12-bfc1-027d459565f6{fill:#f5db65;}.uuid-bf9bd430-e451-4d49-92fa-ef9f8a7555b3{fill:#f4e487;}.uuid-feb04207-12c3-4fba-9bdb-606ca7f3a317{fill:#cfe8fd;}.uuid-e6af827a-24a6-4c04-a479-cc17aa12dea9{fill:#3c97e6;}.uuid-98fe4a14-3457-46bd-b785-3574d09964a6{fill:#e0e089;}.uuid-356fc325-51ff-490a-9ef6-03b306f8f6d5{fill:#fcdc4c;}.uuid-923c0714-0bd8-4fb5-aefd-bb4d2ee84d41{fill:#d47f7f;}.uuid-03c212a9-f9b9-4faa-8084-74d37982f9d5{fill:#c7e1ba;}.uuid-ad07c442-83ad-4904-8af9-65e91d9b6b99{fill:#bab65f;}.uuid-766a19cf-b808-44a1-8d43-6b1913c72c4b{fill:#e8d892;}.uuid-0c00c082-1a2a-4469-a298-b045a58017c4{fill:#828282;}.uuid-54472242-2c17-4f41-84be-1bcd97ab4737{fill:#ac92af;}.uuid-c64abd3d-a907-45a2-a894-464ecb469a58{fill:#e9d893;}.uuid-1511bbea-7144-4673-962b-ef627147a85f{fill:#7fbdd5;}.uuid-d44272e0-9b57-4a95-97ce-b66de22af405{fill:#030917;}.uuid-a5aa6ce5-a72f-49c5-a28e-6e297cb3c802{fill:#81bdd7;}.uuid-4a55e77b-c581-49da-8e75-715c15201a2a{fill:#d0e9fe;}.uuid-d8219acd-a9ab-4f9c-b788-6ceafa40081a{fill:#bfddc7;}.uuid-1387c912-066d-4494-8994-5174999ecc16{fill:#608db5;}.uuid-79d3e303-5aa6-41bc-8e7c-393bf5bbdda5{fill:#f8e375;}.uuid-8699092c-da57-4671-942c-e5eba09c7787{fill:#b7b760;}.uuid-7c13c2ea-a126-4163-9cf2-62297281cd58{fill:#5f91e4;}.uuid-e3722abd-eefd-4917-8981-ac0bc9d7424a{fill:#c7ce8c;}.uuid-bce36c10-16ec-4118-aa77-c36ec6dc2b32{fill:#7fbcd9;}.uuid-a4bf4b94-1257-4be3-8357-95a00a2edb4f{fill:#d9e096;}.uuid-c6083a66-0f20-4779-90d5-4fa5117cf409{fill:#050202;}.uuid-e66ebe50-8434-4f65-adb9-f16c1135ab76{fill:#edda83;}.uuid-42159424-8cef-44e2-9ad7-eda84cd80c6f{fill:#22180f;}.uuid-08a24357-fad6-48cf-a052-be55829e8697{fill:#73906f;}.uuid-9c133a7c-d45d-4f95-b045-18a296d18733{fill:#000001;}.uuid-9c5e5bae-3c01-48b6-baf3-7678e10569c4{fill:#7cbed8;}.uuid-7e06baf8-28d4-4d7f-bb59-166ab85af3cf{fill:#020101;}.uuid-02ca4370-0236-4880-90d3-9d80339cac8d{fill:#060201;}.uuid-66d07d88-bb8b-4977-aa8b-a55b700fe855{fill:#f4da6d;}.uuid-6d7043b8-8e8d-4fe4-af15-2bd2981af205{fill:#5e93e6;}.uuid-347456e6-5292-4b4b-8504-dd0f321c496d{fill:#749072;}.uuid-9de467ee-bc4f-40be-97ae-490aa8d83ce6{fill:#3c96e5;}.uuid-6bb603ac-0558-4645-80bc-0169b0480349{fill:#010001;}.uuid-9b5c6cf0-1cd5-4fce-aedb-fdc5c54edca5{fill:#f8f3c6;}.uuid-01bd0038-63f3-4525-885a-7a072a2c6e51{fill:#020308;}.uuid-954a5981-a541-49a6-bdb7-1efbf47df853{fill:#c4e1c0;}.uuid-77a2fb8e-c102-4ecb-a074-fb3cf8cbdad8{fill:#d47e82;}.uuid-47bfb610-c283-4a30-8538-7b5e41c0348f{fill:#0d1733;}.uuid-7e47929c-46e4-4085-b335-b5a342515141{fill:#f2db6d;}.uuid-3b41a797-16cb-4c8d-8abe-13cfb40f3da6{fill:#020102;}.uuid-35cb86b2-d8dd-4f82-b77d-2c9196da4821{fill:#b9b760;}.uuid-597276d0-5928-48c0-9790-57fad21e5281{fill:#010002;}.uuid-b2c85291-5842-4647-96df-29c8452054c2{fill:#fff;}.uuid-60f54b49-2b36-4b96-a90b-a3579ef2218c{fill:#f8f5d1;}.uuid-250c607c-4e0c-4e7f-b3a0-80b85ee41b6b{fill:#6e8ee9;}.uuid-72c19484-c984-402a-9d95-fce9fd86f34a{fill:#699187;}.uuid-8a1f7d6c-4082-49ae-a629-4ab0f93838f0{stroke:#fff;stroke-miterlimit:10;stroke-width:5px;}.uuid-a0929458-9acf-42f2-80a4-b4d999847c87{fill:#ecd98b;}.uuid-d906c6f4-976f-47fc-bff1-b27dc0def95c{fill:#fcdb4c;}.uuid-182481e0-50d8-4421-be11-717c32ff4b2b{fill:#748eeb;}.uuid-19f7915a-c376-4dde-9c03-a0df30d7b77f{fill:#edd982;}.uuid-3c72337f-1dad-4c9a-9de6-81bff9a7c3e7{fill:#d5e09e;}.uuid-f6b23188-e1b8-436f-a404-9e1bb341adc0{fill:#ab93b0;}.uuid-17219c8b-f096-4ea8-bd21-7977004c1788{fill:#dddf90;}.uuid-9169cc37-cc46-4527-a04c-ca5028ad09b9{fill:#b8d2ad;}.uuid-c17c525b-3561-4875-98e1-aad4d694477c{fill:#5794ac;}.uuid-6b0d0057-db5e-461b-9874-00efa0b3a66a{fill:#3c97e5;}.uuid-8449d9f9-56a7-466c-8962-512d92802afb{fill:#1a1a82;}.uuid-2d42673e-a230-41a0-a0ed-e08fb52a253c{fill:#5992e9;}.uuid-effd1d14-f8d5-40e4-b970-0bb9441b47f4{fill:#bdddc7;}.uuid-1d3b1acb-d357-4361-b5cb-4951ff090b89{fill:#5294b7;}.uuid-a7d873c0-cd83-408e-8cb5-3c0588a65ade{fill:#bdddc5;}.uuid-7dd938e3-31a3-41b3-ac1e-8b228b094cc3{fill:#fefefe;}.uuid-74afb6c6-ff2e-4c66-ab6d-b59323df0544{fill:#6090e7;}.uuid-f0303a0e-dc6d-4fe7-98f7-fdda3303e137{fill:#7c9670;}.uuid-5cebef9f-462d-4829-8c9a-3c46d37d6022{fill:#b7b764;}.uuid-5a56a645-b737-4ce3-a886-7a0f2e5c7b1c{fill:#f6e789;}.uuid-f22593af-52fb-4e53-b261-8398ed80b825{fill:#d78eda;}.uuid-5fb7b77d-9878-44f3-b67c-e90cd33d08ca{fill:#739172;}.uuid-0dc1ebb3-e332-4926-863f-22ae535b7201{fill:#0c1732;}.uuid-7639e596-6aa4-4135-934d-0a2f6f3e90e0{fill:#faf7d8;}.uuid-64571768-2e8d-443b-a92b-ca61639ca77d{fill:#e9d57b;}.uuid-a3bdd57b-5f06-4c45-8d0b-f05592b5ba0a{fill:#6f9278;}.uuid-20704aba-64c9-4d45-af8a-473ad1627c9b{fill:#3f97e5;}.uuid-1ea28f01-1a6a-4902-a788-5d18cf008087{fill:#758eea;}.uuid-83c966d8-14fe-4057-88b3-d86a4a38bd50{fill:#090404;}.uuid-69442751-6215-402e-ab5e-ed16e62b8f30{fill:#8c8c8c;}.uuid-a72c8aca-dacb-4a2f-b320-8e077a8925f4{fill:#b2d9cc;}.uuid-d958d97b-cf3f-4c5e-856b-4cec3b20536a{fill:#edd980;}.uuid-956d82d2-ce17-42fc-8865-18bb5f268528{fill:#f9da4c;}.uuid-90e8adbb-eddc-4bb4-bcc9-1d13b70ad7f9{fill:#e8d98e;}.uuid-82a5661f-6f24-4e97-b030-02cc5ef26206{fill:#7aaab7;}.uuid-0f7b5df1-b992-48ca-961b-de41ee42aaaf{fill:#c4e2c3;}.uuid-f969295c-1a97-401b-8ba9-46acee6eafa1{fill:#eadb96;}.uuid-85cdeedb-c7ad-4402-a944-57b74dddc233{fill:#e9d98f;}.uuid-f623a164-c575-4e4f-9bdd-2f721c6b862d{fill:#050303;}.uuid-04f86c1a-8bdb-40f1-a187-8734aa764a7a{fill:#4e94ce;}.uuid-9716af5c-9f50-4795-ae15-2a2becfe9503{fill:#85c0d7;}.uuid-b4e8e749-74c2-48e4-b71c-955a21da13ce{fill:#937b98;}.uuid-5c714b81-1390-43de-9141-76d77a61fc03{fill:#b4b25e;}.uuid-cf2e5f47-e1e5-4f37-ad71-890d11b458f1{fill:#f9e26e;}.uuid-c77ca45e-0991-493b-a650-d5486a35cc52{fill:#71917c;}.uuid-8c70c63d-b746-45cc-b39c-2425eb7b5220{fill:#111f3a;}</style></defs><path class="uuid-9de467ee-bc4f-40be-97ae-490aa8d83ce6" d="M1299.55,77.49c17.2-3.48,36.51-9.2,54.17-10.39,70.1-4.74,177.44,8.32,238.85,43.67,80.09,46.1,120.94,146.09,44.42,218.08l-1.53,6.01c-34.33,24.06-70.55,45.27-108.65,63.62-57.62,28.87-95.74,75.98-132.19,128.28-9.57,6.71-14.99,16.54-16.27,29.48-4.69,2.68-4.56,23.63-3.15,28.27.93,3.05,7.49,11.11,9.91,13.95,10.52,9.86,43.89,41.36,38.13,57.03-.61,1.67-1.68,2.96-3.18,3.92,1.26,5.55,2.4,10.14,3.44,13.77,6.65,3.53,2.24,26.11-7.33,23.68-14.54-16.78-31.68-31.42-51.21-40.89-2.96-5.51-4.8-7.34-11.44-7.98-67.64-6.57-101.73,49.82-105.99,110.68-.82,11.65-1.66,26.76,7.25,35.04,4.85.86,5.29,9.58,0,10.33-.21,17.13,8.19,46.89,24.1,56.81,3.68.9,3.68,2.62,0,5.16l3.47,1.9c6.63,15.68,18.94,27.92,36.93,36.72l.92,4.42c4.53,5.01,6.76,11.68,6.71,20.02,5.9,10.36,9,22.27,10.34,34.1l-3.28,2.69c2.75,1.37,2.61,5.43,0,6.89.46,5.49,1.03,11.23,1.72,17.22.49-1.5,1.06-1.48,1.72,0,3.3.97,3.3,2.47,0,3.44-.49,1.5-1.06,1.48-1.72,0-.69,5.83-1.26,11.57-1.72,17.22,2.63,1.49,2.74,5.47,0,6.89l3.33,2.12c-5.05,21.39-8.91,37.54-20.46,57.84-19.37,26.94-34.2,55.48-44.49,85.61l-3.81,2.49c-.96,1.9-2.11,4.19-3.44,6.89,1.26,6.09,1.29,12.85,0,18.94.45,3.89,1.03,7.91,1.72,12.05.49-1.5,1.06-1.48,1.72,0,3.59,3.87,5.51,9.63,5.74,17.27,22.44,63.41,72.35,113.37,120.53,158.22,24.34,8.92,48.04,18.08,71.11,27.48l2.33,3.63c3.37.75,6.24,1.9,8.61,3.44,76.75,26.62,213.66,73.29,245.6,154.68,25.68,65.43-10.51,124.77-77.9,137.84-13.01,2.52-28.46,1.82-41.05,3.71-7.01,1.05-19.72,7.69-28.11,9.77-83.82,20.74-181.09,13.34-266.42,7.36-123.09-8.62-244.66-25.42-366.55-44.92-43.46-6.95-84.65-19.45-129.24-17.06-21.69,1.16-42.56,3.07-64.58,3.43h-75.75c-105.8-2-198.26-36.86-277.21-107.58-39.81-35.66-81.32-77.48-66.28-135.19,1.55-5.94,6.31-14.01,7.09-18.8.3-1.87-1.17-3.57-1.9-3.57h-48.21c-9.39,0-40.62-15.16-49.61-20.98-70.77-45.8-110.46-157.03-66.27-232.63,26.65-45.61,52.98-78.31,58.02-134.8,7.86-88.06-57.3-148.93,10.56-228.75,13.56-15.95,31.21-30.05,48.15-42.23l4.93,5.41c24.47,86.38,101.13,158.1,190.21,171.59l4.58,3.77c5.21.82,9.8,1.97,13.77,3.44l6.76-3.22,45.02.02,6.76,3.2c4.57-1.12,9.16-2.27,13.77-3.44,2.12-5.76,16.94-8.51,20.66-3.44,2.37-1.37,4.67-2.52,6.89-3.44l1.24-3.68c70.25-20.08,130.29-79.51,156.1-148.06l4.49-3.21c.59-3.34,1.74-5.63,3.44-6.89-3.14-10.33.35-25.9,6.89-34.43,1.53-3.66,2.67-8.25,3.44-13.77-4.88-17.56-4.85-37.52,0-55.09-1.04-5.58-2.18-10.17-3.44-13.77-4.7-2.13-4.67-4.75,0-6.89-.85-4.64-1.99-8.09-3.44-10.33l-4.66-5c-20.94-78.82-85.92-149.34-164.96-170.15l-2.55-3.9c-1.94-.93-4.23-2.07-6.89-3.44-.39,3.46-2.12,3.33-3.44,0-1.74-1.33-4.03-2.48-6.89-3.44-1.27,1.38-2.99,1.38-5.16,0-2.56,4.23-5.63,3.23-5.16-1.72-.08-1.4-.09-2.8.13-4.15,1.59-9.58,30.8-36.21,39.91-44.23,41.84-36.8,91.45-69.4,139.97-97.72,1.85-1.08,3.95-1.72,6.11-2.34s4.43-1.02,6.7-1.35c2.96-1.55,2.39-2.13-1.72-1.72-14.97,6.32-31.46,9.4-49.5,9.23-45.67,2.36-91.12,6.68-136.36,12.98-80.72,14.38-127.08,42.2-88.07,125.99l-1.53,5.03c-2.79,5.69-15.99,7.53-20.66,3.44-21.34-42.22-26.43-95.3,16.67-125.36,56.22-39.2,228.21-45.61,301-53.66,11.21-1.24,22.72,1.23,33.54-5.19l3,6.45c-2.95,60.58,20.64,117.77,63.57,158.86-5.44,42.51,11.72,85.37,48.37,109.37,11.03,4.81,8.73,10.13-6.91,15.98l-3.19,3.41c13.04,8.22,14.01,14.5,2.92,18.85l-2.49,2.7c10.4,7.86,10.16,14.58-.7,20.14,21.62,16.93,62.83,15.38,90.16,12.71,9.95-.97,53.17-8.35,27.8-19.07l-1.07-4.89c9.48-5.09,11.9-9.03,7.27-11.8-11.42-5.29-10.98-9.02.15-15.59,6.77-5.71-7.63-10.05-12.38-10.82-4.12-1.68-5.54-4.93-3.76-9.16,37.99-21.4,58.21-63.88,53.62-106.33l1.06-7.12c76.5-71.04,82.63-197.6,13.5-277.02l-2.02-7.17,127.4-30.99c9.28-4.67,22.28,8.18,28.03,15.76,13.54,26.56,19.9,55.92,19.09,88.1,4.92-38.46,14.33-85.26,58.91-94.08-12.43-7.62-23.49-17.47-30.14-30.81l1.58-4.79Z"/><path class="uuid-b2c85291-5842-4647-96df-29c8452054c2" d="M1637,328.85c25.45,33.66,47.43,70.1,64,109.02,27,63.41,37.18,124.25,28.83,192.99-.7,5.8-7.25,28.01-5.88,31.91,1.7,4.87,17.16,23.16,21.56,28.44,26.28,31.53,38.01,36.02,72.03,55.37,23.02,13.09,33.22,33.72,22.15,59.55-9.53,22.22-22.34,21.26-40.62,29.96-5.78,2.75-18.86,9.76-17.12,16.56,1.07,4.17,28.44,37.65,32.39,39.17-.91,5.2-4.04,10.07-9.39,14.62-16.65,25.16-34.09,49.06-61.19,63.76l-5.17-.91c-11.69,5.02-24.72,4.85-36.49.49-11.16-.16-.39,9.73,6.96,8.02l1.98,3.54c5.59,1.22,11.46.7,17.62-1.56,24.48,1.09,49.31.71,69.97-14.37l5.38.44c1.04,5.44,7.87,7.17,11.11,12.14,13.8,21.18-8.92,57.15-35.21,49.84-7.83-5.1-19.79-4.44-29.53-3.71-17.3,1.28-21.11,6.93-1.23,7.42l17.97-.12,2.46,3.3c-8.12,11.6-1.06,16.41,1.25,27.16,15,69.86-29.06,95.58-88.99,109.77-60.47,14.32-132.95,17.74-194.6,11.13-.97,3.03-3.77,3.08-8.4.16-39.81-3.61-80.39-9.69-119.2-18.76l2.36,4.59c4.77,54.23,29.68,102.74,66.11,142.73,7.15,7.85,28.58,31,36.2,34.31.49.21,1.33-.38,2.26-1.2,3.59,7.94,1.07,17.85,1.9,26.5,1.14,11.9,4.82,26.57,6.7,38.92-1.48,2.47-4.53,1.44-6.89,0-8.76-.31-6.54-3.07-8.07-3.42-11.63-2.58-16.87-5.67-26.92-9.78-11.56-4.72-28.38-8.97-40.21-14.97-4.12-2.09-58.98-58.13-65.29-65.42-14.71-17.01-28.57-38.31-38.73-56.47-4.96-8.86-15.36-26.06-17.03-33.61-1.84-8.36-3.14-13.67-3.46-22.93-1.45-4.37-1.36-9.49,0-13.77-1.42-5.44-1.52-11.8,0-17.22-2.75-.94-2.55-5.46,0-6.89,1.09-10.96,6.06-19.32,9.73-28.14,12.17-29.29,32.46-51.91,45.2-80.06,4.81-10.64,4.6-17.37,7.09-28.36.42-1.84,3.03-1.38,3.41-11.5.95-1.89,2.1-4.19,3.44-6.89-1.29-5.42-1.41-11.82,0-17.22.01-1.15.01-2.3,0-3.44-1.41-5.4-1.29-11.79,0-17.22-1.27-2.56-2.41-4.85-3.44-6.89-.41-10.84-5.09-27.13-10.27-35.65l-3.51-21.17,5.87-.91c24.46,12.47,44.61,10.16,69.43,1.27s39.21-39.65,2.07-8.67c-44.63,23.64-81.89.71-110.49-33.52-2.89-.07-5.62-.47-8.21-1.2.04-1.58-.33-3.94,0-5.16-2.18-10.88-6.38-21.38-12.59-31.5-1.49-10.18-5.33-18.62-11.51-25.31.74-2.66-.74-7.67,0-10.33-2.31-4.15-2.53-9.51-.67-16.08-3.39-53.74,24.27-122.59,85.92-125.22,8.42,2.26,16.73,3.45,24.94,3.56,7.77-2.28,9.3,2.24,10.9,2.86,17.07,6.61,25.54,19.21,39.44,31.75,1.25,1.13,2.2,6.45,4.85,2.29s3.18-14.49,3.35-19.68c-1.03-4.46-2.17-9.05-3.44-13.77-1.56-34.61-24.53-40.79-41.23-63.31-1.01-1.36-6.77-9.62-6.91-10.23-.69-3.09-.74-25.62-.03-28.58.32-1.32,3.1-1.04,3.39-2.35,1.4-6.36,3.48-16.17,7.46-22.39,1.2-1.88,7.7-5.91,9.22-7.96,6.91-9.32,13.11-17.92,20.66-27.55,16.18-20.62,34.17-46.51,56.19-64.33,12.74-10.31,36.76-25.32,51.65-34.43,35.36-21.63,87.91-42.49,116.53-69.42Z"/><path class="uuid-8449d9f9-56a7-466c-8962-512d92802afb" d="M569.58,433.87c1.12.26,2.85,1.19,5.16,1.72,3.06.66,5.93,1.81,8.61,3.44.97-2.61,2.37-2.56,3.44,0,1.14.09,2.3-.07,3.44,0,1.83.9,4.13,2.05,6.89,3.44,10.97,1.49,23.69,6.43,32.96,10.52,67.07,29.54,124.64,98.76,139.21,168.53,1.61,2.53,2.76,5.97,3.44,10.33.06,2.29-.08,4.6,0,6.89,1.27,4.17,2.41,8.76,3.44,13.77.43,18.23.39,36.86,0,55.09-.78,5.28-1.93,9.87-3.44,13.77-1.55,11.47-4.36,22.78-6.89,34.43-1.59,1.4-2.74,3.69-3.44,6.89-12.76,48.84-67.37,110.58-112.35,134.78-12.85,6.91-37.95,18.77-49.49,20.17-2.81,1.33-5.11,2.48-6.89,3.44-7.68.81-13.12,2.13-20.66,3.44-4.54,1.2-9.13,2.35-13.77,3.44-18.54.78-39.98.71-58.54,0-3.78-1.48-8.37-2.63-13.77-3.44-13.2-.63-25.14-3.62-36.59-7.28-76.89-24.63-144.07-93.28-163.12-173.49-1.99-8.37-2.85-11.77-3.44-20.66-.31-7.41-.88-9.71-1.72-6.89-1.99-9.65-1.56-15.97-1.72-25.82-1.54-6.82-1.53-13.84,0-20.66.16-9.89-.05-16.17,1.72-25.82.64-2.04,1.21-4.33,1.72-6.89,2.7-48.79,42.38-111.84,79.17-143.8,2.1-1.83,4.28-3.33,6.91-4.26,8.23,1.83,17.2,12.15,17.22,20.66l-1.58,4.92c-21.26,14.75-36.92,36.56-49.19,58.77h-4.32s-3.44,5.18-3.44,5.18l1.49,6.36c-17.84,44.97-27.8,89.05-16.29,137.17l-2.42,6.25c4.86,1.94,4.69,4.8,0,6.89,1.34,2.79,2.49,5.09,3.44,6.89l3.64,2.01c15.79,63.75,71.37,120.1,133.62,141.4l3.91,4.65c1.39,1.57,3.68,2.72,6.89,3.44.4-3.46,2.12-3.32,3.44,0,1.96.9,4.26,2.04,6.89,3.44,1.71-4.74,5.2-4.8,6.89,0,2.81,1.06,6.26,2.21,10.33,3.44l4.82-3.22c108.63,17.64,224.11-57.48,245.85-167.64l4.13-4.75c.96-4.73,2.1-9.33,3.44-13.77l-2.98-6.42c1.1-16.38.94-32.79-.06-49.17l3.05-6.39c-1.15-3.95-2.3-7.97-3.44-12.05-4.83-1.66-4.75-5.19,0-6.89-1.74-1.78-2.47-4.14,0-5.16-1.55-.66-2.69-2.38-3.44-5.16l-4.28-3.08c-21.7-73.88-82.01-133.63-159.16-149.35l-5.27-4.24c-2.65-1.57-6.09-2.71-10.33-3.44-2.19,4.5-4.81,4.52-6.89,0-5.91-2.15-12.22-3.29-18.94-3.44-4.81,5.09-15.72,4.85-20.66,0-4.2-.16-8.22.41-12.05,1.72,1.51,4.59,0,5.12-3.44,1.72-2.61,4.74-4.3,4.62-6.89,0-2,1.9-5.28,2.72-6.89,0l-8.61,3.44-2.08,3.67c-23.95,4.82-46.39,15.99-67.27,29l-6.4.04c-8.38-2.43-15.31-11.86-15.49-20.66,22.92-15.69,50.47-29.28,77.47-36.15,6.4-1.63,14.14-2.4,20.66-3.44l2.76-3.91c10.89-2.73,76.44-7.01,80.52-.41.49.79.81,1.67,1.09,2.59Z"/><path class="uuid-8a1f7d6c-4082-49ae-a629-4ab0f93838f0" d="M1094.68,134.31c66.98,68.49,71.36,190.85,11.05,264.99-3.68,4.52-18.31,16.95-19.3,20.29-2.11,7.1.21,22.78-.79,31.92-3.48,31.67-25.53,68.48-54.65,82.24-1.19,5.35,6.39,4.28,10.15,6.18,15.57,7.9,8.58,14.1-3.26,20.48,14.36,4.92,18.72,14.08,1.72,19.81,2.32,4.8,9.83,3.13,10.41,9.53.76,8.39-15.59,12.55-22.04,14.11-25.64,6.2-78.86,6.4-102.68-4.91-20.19-9.59,2.39-16.55,2.36-17.89-14.41-8.91-12.76-13.56,1.72-20.66.09-3.23-21.32-7.96-7.44-17.81l14.35-7.13c-4.64-.64-8.22-3.62-11.84-6.24-30.21-21.86-45.92-55.69-46.82-92.77-.12-5.03,3.16-9.73,1.55-15.12-1.04-3.46-14.97-14.99-18.57-19.37-32.4-39.36-49.24-96.22-44.81-147.15,12.29-141.45,170.84-231.02,278.91-120.51Z"/><path class="uuid-b2c85291-5842-4647-96df-29c8452054c2" d="M369.87,488.96c-14.31-18.24-26.47-39.22-43.18-55.82-24.38-9.83-59.5-9.42-82.91-18.67-9.35-3.69-8.75-17.63,1.21-18.62l62.9,12.17-14.56-19-85.73-19.29c-6.8-2.56-7.12-14.11-1.27-17.65,4.3-2.6,23.47,2.2,29.32,3.38,10.77,2.16,36.39,10.84,45.43,9.47,1.29-.2,7.1-3.05,7.49-3.74,3.54-6.23-6.63-60.2-6.55-72.73.1-15.38,6.38-21.37,18.65-10.08l11.67,101.98,11.03,13.9-6.53-71.11c3.53-6.52,12.62-9.18,16.99-2.15l12.81,103.46c11.29,18.44,27.54,33.93,40.45,50.74,5.14,6.69,10.38,14.03,15.49,20.66,7.1,1.56,10.69,6.47,10.33,13.77,9.19,4.92,14.76,12.26,17.22,22.38,9.43,4.43,15.26,12.16,17.22,22.38,8.48,2.31,16.97,11.9,17.22,20.66,1.29-.61,2.91-.93,3.67.04,13.84,17.62,28.1,36.27,40.71,55.1,6.89-5.43,37.35-4.86,44.13.76l1.01,4.36c17.11.07,26.66,25.18,27.63,40.33,3.53,55.57-65.32,80.87-98.07,36.92-8.87-11.91-17.31-36.77-5.31-47.98-1.49-.56-2.36-1.57-2.5-3.09l11.33-18.5c-14.31-16.91-27.77-34.5-38.09-54.16-8.21-1.99-17.28-12.12-17.22-20.66-9.92-5.06-16.47-13.23-18.94-24.1-8.95-3.13-16.46-12.93-17.22-22.38-5.57,1.32-11.11-7.12-8.61-12.05-5.51-7.03-11.92-13.92-17.22-20.66Z"/><path d="M1487.21,1182.79c-4.16,31.39-7.48,65.08-9.47,100.84-2.59,46.58-2.54,90.06-.86,129.86-15.13-24.93-30.26-49.87-45.39-74.8-11.79-17.82-23.92-38.61-35.2-62.4-20.1-42.42-31.52-81.86-38.22-114.16,39.87,5.45,79.27,14.36,119.48,17.41,3.22,1.09,6.44,2.17,9.65,3.26Z"/><path class="uuid-089b3fbe-c6fc-4363-8dbb-ff7034d9b126" d="M108.18,848.79l1.84,1.1c-.83,4.62-.29,8.84,1.61,12.67,1.85,39.44,16.35,84.61,48.87,109.46l23.42,12.75c-17.73,1.35-35.92,6.33-50.97,16.23-21.77,14.32-28.37,44.26-35.1,66.42-.55,2.77-1.69,5.07-3.44,6.89,2.39.83,1.23,3.24,0,5.16-3.01,15.21-5.66,29.37-6.89,44.76l-.99,3.03c-.52,11.9-2.49,14.34-5.89,7.3-.34-11.74-2.34-19.4-3.41-30.16-6.33-63.46-.71-115.36-68.89-142.01-6.51-4.12-2.34-5.53,3.44-6.89,2.29-.11,4.6.11,6.89,0,2.61-1.27,4.91-2.42,6.89-3.44,46.02-10.69,70.2-61.31,79.2-105.02,1.91-3.73,2.57-1.62,3.44,1.72Z"/><path class="uuid-089b3fbe-c6fc-4363-8dbb-ff7034d9b126" d="M1299.55,77.49c3.91,9.38,10.62,17.34,18.04,24.14l19.83,13.71c-58.7,4.83-61.35,67.89-67.16,113.63l-4.93-23.44c-3.21-36.74-.57-88.56-43.25-102.23l-10.32-6.87c45.96-2.78,70.49-46.28,74.02-87.82.49-1.5,1.06-1.48,1.72,0,.85,22.59,3.24,47.74,12.05,68.87Z"/><path class="uuid-5d7758d0-dee7-4304-908f-b16976b4c739" d="M1803.99,965.86c-28.52,20.69-49.35,17.6-83.52,17.25-2.91-.03-7.65,1.1-9.44-1.75l2.25-3.46c8.44-2.65,16.87-5.51,25.29-8.59,16.16-9.6,26.97-17.39,39.64-31.8,13.09-14.88,20.76-33.33,36.11-45.67,1.24.48,4.39-.18,6.91.77,9.33,3.51,14.08,21.63,13.62,30.8-.96,19.03-16.85,32.3-30.86,42.46Z"/><path class="uuid-f623a164-c575-4e4f-9bdd-2f721c6b862d" d="M1779.89,1027.84c0,6.88-5.56,6.47-10.33,6.89-5.33.47-33.67.84-35.41-1.6-2.07-2.92-.9-9.56,2.69-11.32,2.83-1.38,32.78-1.61,36.97-.81,3.65.7,6.08,3.06,6.07,6.84Z"/><path class="uuid-f969295c-1a97-401b-8ba9-46acee6eafa1" d="M111.62,862.56c-5.26-1.97-3.26-9.01-3.44-13.77-1.26-4.01-2.41-5.73-3.44-5.16,1.32-7.07,4.84-13.21,3.46-20.66,1.56.01,2.67,1.55,3.06,2.95,2.24,8.06-.09,26.82.37,36.65Z"/><path class="uuid-1387c912-066d-4494-8994-5174999ecc16" d="M748.63,1668.29h-75.75c25.13.47,50.62.4,75.75,0Z"/><path class="uuid-bf9bd430-e451-4d49-92fa-ef9f8a7555b3" d="M87.52,1124.25c-.6,7.59,3.27,18.94-6.88,20.65-.09-3.43.09-6.89,0-10.32l3.43,1.72c.84-4.99-2.67-13.52,3.46-12.05Z"/><path class="uuid-488bfe9e-67e5-4159-9897-a83d99e80bd7" d="M11.77,955.53c-3.14,1.56-4.16,3.33-3.44,6.89-13.51-5.28-9.27-6.26,3.44-6.89Z"/><path class="uuid-5a56a645-b737-4ce3-a886-7a0f2e5c7b1c" d="M25.54,952.09c1.07,5.17-2.56,3.23-6.89,3.44-1.14-5.8,3.11-2.57,6.89-3.44Z"/><path class="uuid-b2c85291-5842-4647-96df-29c8452054c2" d="M1475.16,1410.04c.09.58,1.85,2.14,1.72,3.44-2.57-.89-6.55.25-8.61-3.44,2.29.08,4.59-.05,6.89,0Z"/><path class="uuid-cf2e5f47-e1e5-4f37-ad71-890d11b458f1" d="M97.85,1072.6c-1.14,2.87-2.28,3.45-3.44,1.72.84-6.05,3.27-6.31,3.44-6.89-.14,1.69.2,3.49,0,5.16Z"/><path class="uuid-79d3e303-5aa6-41bc-8e7c-393bf5bbdda5" d="M108.18,848.79l-3.44-1.72c.21-1.04-.2-2.38,0-3.44l3.43-1.72c.1,2.28-.07,4.6.02,6.89Z"/><path class="uuid-69442751-6215-402e-ab5e-ed16e62b8f30" d="M1287.5,8.63h-1.72c.22-2.6-.97-6.78.86-8.63,1.61,0,.79,6.65.86,8.63Z"/><path class="uuid-9b5c6cf0-1cd5-4fce-aedb-fdc5c54edca5" d="M94.4,1079.49c.3-1.52-.23-3.53,0-5.16l3.44-1.72c-.33,2.74-.92,5.28-3.44,6.89Z"/><path class="uuid-7dd938e3-31a3-41b3-ac1e-8b228b094cc3" d="M934.57,895.27l6.2.68c1.12-3.83,2.17-2.35,4.13,1.04l3.34,5.93c6.12,26.92,9.16,54.93,12.15,82.5.23,2.12-.02,4.29-.3,6.5s-.82,4.45-1.41,6.65l-1.59,3.66c-93.4,20.85-85.49,72.18,13.14,83.5l3.95,4.08c1.75-4.08,12.43-4.98,13.77,0,9.47-5.58,22.93-4.46,32.71,0,1.59-4.68,3.6-4.66,5.16,0l8.67-4c118.55-8.97,147.3-78.01,16.25-90.16l-.81-3.97c-1.01-22.83,2.99-46.15,12.05-67.14,33.21,13.18,66.69,26.33,97.57,44.47,28.79,16.91,100.23,63.57,67.45,102.47-24.46,29.03-112.59,54.89-122.37,84.22-13.84,41.5,81.77,31.67,51.97,81.25-19.1,31.78-88.23,69.54-122.17,85.29-1.59,6.45-11.53,10.08-17.22,6.89-9.04,3.9-18.4,8.58-27.55,12.05-3.1,6.55-14.19,10.39-20.66,6.89-120.58,41.83-241.35,50.73-367.77,34.63-123.95-15.78-354.08-70.29-272.7-245.56,43.28-93.21,165.4-163.09,258.03-198.2,114.8-43.52,225.66-60.05,348.01-43.66Z"/><path d="M760.68,282.37c2.57-.74,3-.77,1.72,1.72-42.23,25.36-84.96,51.51-123.78,81.96-25.01,19.62-50.83,41.7-69.04,67.83-21.54-5.04-61.81-1.89-84.36,1.72-20.34-45.02-28.79-89.37,22.3-114.57,66.19-32.64,179.23-26.18,253.16-38.66Z"/><path d="M750.35,1649.33c-21.03-.89-41.77,2.4-62.82,1.72-98.13-3.16-185.24-31.35-261.67-91.26-23.95-18.77-76.25-65.26-80-95.61-2.65-21.49,3.37-40.11,12.07-59.27,20.72,2.83,40.12,12.27,55.89,25.74,32.69,27.94,41.46,71.11,68.01,104.16,51.45,64.05,154.81,89.33,231.9,105.54,11.04,2.32,28.06,1.42,36.62,8.98Z"/><path d="M1482.05,1435.87c75.89,25.95,223.05,71.29,228.96,167.88,3.05,49.92-25.54,74.2-72.29,81.74,8.77-11.3,11.21-24.51,10.3-38.7-3.76-58.16-99.6-133.33-142.35-168.41-5.47-4.49-11.03-12.02-17.73-16.69-1.19-1.45-2.44-3.12-3.67-5.02-1.24-1.9-2.26-3.73-3.1-5.4-.73-1.22-1.84-3.49-2.09-6.53-.36-4.34,1.26-7.6,1.98-8.87Z"/><path d="M1623.22,313.36c-2.46-.54-4.86-1.41-6.77-3.09-6.44-5.64-19.52-19.39-24.97-26.1-1.61-1.99-2.28-4.49-2.69-6.97,5.18-6.21-3.73-62.54-7.79-73.99-35.7-100.84-143.18-110.95-235.85-111.92-2.91-.03-7.65,1.1-9.44-1.75.18-.71,1.33-1.29,3.44-1.72,73.32-6.89,166.19.9,232.75,34.97,75.3,38.54,122.85,122.14,51.32,190.57Z"/><path class="uuid-089b3fbe-c6fc-4363-8dbb-ff7034d9b126" d="M1275.45,1348.06c.25,5.9,1.24,10.25,1.72,15.49-1.32,3.86-1.51,8.21,0,12.05.49-1.5,1.06-1.48,1.72,0,.38,7.5,1.95,15.08,3.44,22.38l1.72,8.61c9.05,34.21,27.86,58.96,60.26,74.03,1.5.49,1.48,1.06,0,1.72-1.84,1.03-4.53,1.31-8.09.86l1.2.86c1.5.49,1.48,1.06,0,1.72-2.28.14-4.6-.11-6.89,0-3.04.62-5.34,1.77-6.89,3.44-8.18,1.39-20.24,6.19-27.01,10.88-21.98,15.21-34.29,60.5-39.65,86.87-3.27,16.06-4.02,32.32-5.64,48.59-.61,3.97-1.76,5.12-3.44,3.44-1.51-2.53-1.32-6.01,0-8.61-.49-3.13-1.06-6.57-1.72-10.33-.49,1.5-1.06,1.48-1.72,0-.07-2.86.13-5.75,0-8.61-1.4-2.55-3.04-5.87-1.72-8.61-1.62-1.29-1.04-3.64,0-5.16,1.38-3.85,1.54-8.21,0-12.05-.49,1.5-1.06,1.48-1.72,0-.03-3.44.05-6.89,0-10.33-.47-3.31-1.04-6.75-1.72-10.33v-1.72c-.49-5.16-1.33-9.89-1.72-15.49-.47-4.56-1.04-9.15-1.72-13.77-.49,1.5-1.06,1.48-1.72,0-3.37-36.67-28.83-61.43-60.05-73.35-2.96-1.13-9.95-1.89-8.81-5.83,4.72-.18,9.52.54,14.23-.4,8.94-1.8,17.37-6.64,24.2-9.36,35.59-14.15,57.58-57.17,64.86-93.55l3.44-10.33c.18-2.27-.12-4.61,0-6.89.49-1.5,1.06-1.48,1.72,0,.48,4.28,1.05,8.87,1.72,13.77Z"/><path class="uuid-7dd938e3-31a3-41b3-ac1e-8b228b094cc3" d="M1113.62,721.39c-8.13,2.27-41.94-5.68-46.17-10.6-.81-.94-1.45-2.04-2.04-3.18,2.49-21.05-2.6-50.76.02-74.88,1.92-17.63,7.59-36.82,11.14-54.29l4.4-.99c9.23,4.37,72.34,12.66,74.98,16.47-3.14,44.74-20.05,88.62-42.33,127.46Z"/><path class="uuid-9c133a7c-d45d-4f95-b045-18a296d18733" d="M1080.9,816.08c-5.2,36.22-12.32,72.2-18.94,108.46-4.08,22.33-7.88,44.83-12.05,67.14-1.04,25.93-4.95,51.8-11.71,77.63.92,12.32-3.21,19.15-12.39,20.51-1.72.08-3.45-.08-5.16,0-11.54-1.07-10.96-7.92-10.01-17.84,5.01-25.26,9.95-50.52,14.84-75.78l3.77-4.51c-.09-24.72,4.61-49.35,13.77-72.31,4.77-26.77,19.46-83.09,18.94-106.74,4.67-3.78,16.21-2.06,18.94,3.44Z"/><path class="uuid-7dd938e3-31a3-41b3-ac1e-8b228b094cc3" d="M1043.03,919.37c-4.31,24.2-8.9,48.3-13.77,72.31-3.8,2.03-8.74,2.56-14.82,1.6l-27.01,3.43c-5.45.71-8.73-.97-9.81-5.03l-4.33-5.97c-2.6-12.62-12.98-75.03-9.83-81.95.54-1.18,1.29-2.27,2.1-3.32l77.47,18.94Z"/><path class="uuid-4a55e77b-c581-49da-8e75-715c15201a2a" d="M1113.62,721.39c.86.28,2.35-.23,3.44,0l-31.03,96.41c-1.96.55-3.85-1.54-5.12-1.72-6.37-.94-12.75-1.56-18.94-3.44-.76-34.56-.66-70.36,3.44-105.02,15.67,5.86,32.31,8.67,48.21,13.77Z"/><path class="uuid-9c133a7c-d45d-4f95-b045-18a296d18733" d="M965.55,895.27c.07,1.72-.09,3.45,0,5.16,1.48,28.26,8.09,62.51,12.05,91.25,1.25,2.53,2.44,5.09,3.39,7.73.95,2.61,1.85,5.21,2.27,7.88,3.95,25.28,7.79,50.81,10.18,75.11.17,4.8-1.67,7.28-5.51,7.41-5.4-.02-5.94,1.16-13.77,0l-4.3-2.21c-6-27.87-10.31-56.25-12.94-85.15l1.75-3.88c-4.7-33.84-7.86-68.02-13.77-101.58,1.05-5.65,19.77-8.46,20.66-1.72Z"/><path class="uuid-7dd938e3-31a3-41b3-ac1e-8b228b094cc3" d="M929.4,843.62c-6.94-24.82-18.79-48.45-15.48-75.74l51.64-5.19c1.2,18.09,5.5,36.06,3.56,54.36-.59,5.6-2.96,8.29-3.56,14.51-2.68,6.14-17.18,9.95-24.28,11.72-5.24,2.98-9.2,3.09-11.88.33Z"/><path class="uuid-089b3fbe-c6fc-4363-8dbb-ff7034d9b126" d="M1480.33,1556.38c.89,4.65,1.27,9.07,1.72,13.77.74,8.18,1.31,9.9,1.72,5.16,2.2,7.5,6.42,19.03,11.5,25.41s7.02,3.94,10.35,6.1c.98.63,1.97,3.3,3.98,4.65,4.32,2.61,4.32,4.33,0,5.16-6.34.52-12.75,2.59-18.53,6.34-7.54,4.89-9.86,12.84-13.05,20.64-5.84,14.29-7.89,25.13-9.74,41.89-.49,1.5-1.06,1.48-1.72,0-.49,1.5-1.06,1.48-1.72,0-1.39-.85-1.02-2.1,0-3.44-.49-3.29-1.06-6.73-1.72-10.33-.49,1.5-1.06,1.48-1.72,0-.62-14.18-1.89-33.73-7.04-46.85-.92-2.34-17.6-16.83-20.51-18.57-4.57-2.74-5.72-5.04-3.44-6.89,16.32-2.71,32.61-16.46,38.9-30.76,2.96-6.73,3.85-14.47,7.58-20.89,2.24,1.01,3.38,3.88,3.44,8.61Z"/><path class="uuid-a694283f-66b9-4186-8352-ae6549519b21" d="M1254.79,793.69c-9.21.88-9.85-9.81-10.39-16.3-5.09-61.18,30.6-136.95,100.85-133.55,7.79.38,24.74,1.1,19.72,12.11-.27.08-.89,2.98-4.31,3.49-6.63.98-13.8-3.62-20.65-3.61-48.34.04-78.1,53.16-81.76,95.69-1.48,17.19,1.28,25.15-3.46,42.16Z"/><path class="uuid-b2c85291-5842-4647-96df-29c8452054c2" d="M1588.79,277.2c12.61,10.89,24.43,22.85,34.43,36.15-24,22.96-54.34,35.36-82.64,49.93-.5,2.3-2.96,2.58-3.44,0,12.08-12.52,26.35-35.51,34.6-50.2,4.21-7.49,12.26-20.66,13.59-26.72.56-2.59-.58-5.64-.02-8.05.42-1.78,3.36-.97,3.48-1.11Z"/><path class="uuid-3b41a797-16cb-4c8d-8abe-13cfb40f3da6" d="M1320.21,909.04c-10.23-5.37-23.17-14.73-31.03-23.2-5.92-6.38-10.53-10.97-10.29-19.84,2.62-.94,5.37-4.23,8.56-2.68,4.88,2.37,18.05,19.28,24.13,24.22,24.8,20.13,55.71,26.23,84.28,10.21,6.98-3.91,19.84-19.83,26.08-12.1,7.47,9.26-18.11,23.87-25.05,26.9-26.93,11.77-50.95,9.99-76.68-3.51Z"/><path class="uuid-a694283f-66b9-4186-8352-ae6549519b21" d="M989.66,1341.18c-8.02,36.69-11.58,74.64-20.81,110.89-9.47,6.39-17.07,3.71-17.2-8.46-.21-19.7,11.11-46.05,10.87-66.74l6.49-28.81c6.7-2.32,14.1-4.4,20.66-6.89Z"/><path class="uuid-feb04207-12c3-4fba-9bdb-606ca7f3a317" d="M965.55,831.57c-1.75,17.94-.74,45.18,0,63.7-7.05-1.47-14.41,1.37-20.66,1.72-5.47.31-7.37-1.32-10.33-1.72,5.98.12,8.13,1.68,6.79-5.91-2.38-13.45-8.15-32.12-11.96-45.74l36.15-12.05Z"/><path class="uuid-6bb603ac-0558-4645-80bc-0169b0480349" d="M1034.42,1322.24c2.27,1.98,2.92,5.05,3.28,7.91,2.73,21.32,7.72,42.7,10.35,63.68,2.25,17.97-6.38,29.49-18.74,11.86l-12.1-76.56c5.59-2.41,11.73-4.34,17.22-6.89Z"/><path class="uuid-f24b54f2-1c01-4825-b462-6b72a73eef7a" d="M1278.89,860.84c-8.17,6.14-14.44-10.34-17.24-16.33-4-8.56-12.26-28.83-10.22-37.48.38-1.59,3.2-2.43,3.36-3,11.87.06,11,15.03,14.71,24.03,2.67,6.48,13.9,25.3,12.59,29.88-.57,1.99-3.14,2.69-3.2,2.9Z"/><path class="uuid-a5aa6ce5-a72f-49c5-a28e-6e297cb3c802" d="M1480.33,1534c1.59,7.09,1.34,15.14,0,22.38-.42-2.18-2.92-6.32-3.44-8.61-.46-2.03-2.1-13.18-1.69-13.73.87-1.15,3.88-1.44,5.13-.05Z"/><path class="uuid-eec1cded-3cfa-45a1-93d9-a6cf608fd538" d="M1471.72,1447.92c.23.17,1.69-.27,2.95.52,2.03,1.29,3.63,7.42,7.38,6.37,3.97.26,3.78,2.15,0,3.44-.89-.37-3.71.39-6.36-.56-2.21-.79-5.46-7.03-3.97-9.77Z"/><path class="uuid-2537bc63-9b53-40f9-aead-c87854806163" d="M1480.33,1556.38v-22.38c2.2,2.45,1.61,2.98,1.81,5.91.17,2.44.16,18.98-1.81,16.47Z"/><path class="uuid-98fe4a14-3457-46bd-b785-3574d09964a6" d="M1430.4,1599.42l3.44,6.89c-1.96-1.17-11.86-3.48-8.6-6.88,1.66-.2,3.57.25,5.15,0Z"/><path class="uuid-9de467ee-bc4f-40be-97ae-490aa8d83ce6" d="M1266.84,1189.67c1.13.51,1.11,1.08,0,1.72-.49,1.5-1.06,1.48-1.72,0-.19-6.22-.28-12.73,0-18.94.49-1.5,1.06-1.48,1.72,0,1.16,5.73,1.22,11.51,0,17.22Z"/><path class="uuid-a4bf4b94-1257-4be3-8357-95a00a2edb4f" d="M1509.59,1611.47c3.58,2.41,16.1,3.84,0,5.16v-5.16Z"/><path class="uuid-f6b23188-e1b8-436f-a404-9e1bb341adc0" d="M1337.43,1010.62c-.49,1.5-1.06,1.48-1.72,0-1.85-4.88-1.21-11.76,0-17.22h1.72c-.06,5.71.26,11.52,0,17.22Z"/><path class="uuid-b4e8e749-74c2-48e4-b71c-955a21da13ce" d="M1335.71,1010.62c-.49,1.5-1.06,1.48-1.72,0,.04-5.41-1.43-13.24,1.72-17.22v17.22Z"/><path class="uuid-54472242-2c17-4f41-84be-1bcd97ab4737" d="M1337.43,989.96h-1.72c-1.25-5.47-1.79-12.15,0-17.22.49-1.5,1.06-1.48,1.72,0,.26,5.69-.05,11.51,0,17.22Z"/><path class="uuid-8bdba22e-202d-42a9-b771-3e0dd06a38a9" d="M1335.71,989.96c-3.15-3.97-1.68-11.81-1.72-17.22.49-1.5,1.06-1.48,1.72,0v17.22Z"/><path class="uuid-ad07c442-83ad-4904-8af9-65e91d9b6b99" d="M1275.45,1348.06c-3.44-2.97-1.18-9.46-1.72-13.77.49-1.5,1.06-1.48,1.72,0,.1,4.58-.19,9.2,0,13.77Z"/><path class="uuid-03c212a9-f9b9-4faa-8084-74d37982f9d5" d="M1237.57,1547.77c-1.68-.46-1.61-1.99-1.72-3.44-1.39-3.16-1.48-7.36,0-10.33,3.32,2.68,1.42,9.44,1.72,13.77Z"/><path class="uuid-923c0714-0bd8-4fb5-aefd-bb4d2ee84d41" d="M1333.99,965.86c5.15-1.08,3.25,2.56,3.44,6.89h-3.44c-.02-2.29.09-4.6,0-6.89Z"/><path class="uuid-ad07c442-83ad-4904-8af9-65e91d9b6b99" d="M1268.56,1351.51c.7-3.47-.77-7.92,3.44-10.33-.3,3.87.43,7.89-3.44,10.33Z"/><path class="uuid-9c5e5bae-3c01-48b6-baf3-7678e10569c4" d="M1244.46,1611.47c-3.29-2.03-3.12-5.23-3.44-8.61.49-1.5,1.06-1.48,1.72,0,.11,1.54,1.54,4.59,1.72,8.61Z"/><path class="uuid-6de19b9e-6dbf-4784-8048-45579a3835a6" d="M1275.45,1327.4c.08,2.29-.05,4.59,0,6.89h-3.44c.12-2.28-.09-4.6,0-6.89.49-1.5,1.06-1.48,1.72,0,.49-1.5,1.06-1.48,1.72,0Z"/><path class="uuid-77a2fb8e-c102-4ecb-a074-fb3cf8cbdad8" d="M1337.43,1010.62c-.19,4.33,1.71,7.96-3.44,6.89.09-2.29-.02-4.6,0-6.89h3.44Z"/><path class="uuid-5c714b81-1390-43de-9141-76d77a61fc03" d="M1251.35,1635.58c-.45,4.56,2.13,9.96-3.44,8.6-.28-1.05.31-2.73,0-3.44v-1.72l3.44-3.44Z"/><path class="uuid-9de467ee-bc4f-40be-97ae-490aa8d83ce6" d="M1268.56,1203.45h-1.72c-1.34-3.66-1.63-8.76,0-12.05v-1.72c.49-1.5,1.06-1.48,1.72,0,.04,4.58-.16,9.2,0,13.77Z"/><path class="uuid-9de467ee-bc4f-40be-97ae-490aa8d83ce6" d="M1268.56,1165.57c-.22,2.25.11,4.61,0,6.89-.49,1.5-1.06,1.48-1.72,0h-1.72c.19-4.33-1.71-7.96,3.44-6.89Z"/><path class="uuid-a3bdd57b-5f06-4c45-8d0b-f05592b5ba0a" d="M1239.3,1564.99c1.36,3.09,1.57,7.57,0,10.33-2.85-2.18-2.85-9.88,0-12.05.05.57-.06,1.15,0,1.72Z"/><path class="uuid-effd1d14-f8d5-40e4-b970-0bb9441b47f4" d="M1277.17,1365.28c1.38,3.08,1.53,7.55,0,10.33-2.85-2.18-2.85-9.88,0-12.05.05.57-.06,1.15,0,1.72Z"/><path class="uuid-1d3b1acb-d357-4361-b5cb-4951ff090b89" d="M1275.45,1318.8c-.49,3.01-1.06,5.88-1.72,8.61h-1.72c.12-3.17.5-17.84,3.44-8.61Z"/><path class="uuid-9de467ee-bc4f-40be-97ae-490aa8d83ce6" d="M1266.84,1203.45c-3.12-2.08-1.61-8.3-1.72-12.05h1.72v12.05Z"/><path class="uuid-a7d873c0-cd83-408e-8cb5-3c0588a65ade" d="M1247.9,1639.02v1.72c-.26-.59-1.64-1.22-1.72-1.72-1.32-2.66-1.64-6.14,0-8.61.49-1.5,1.06-1.48,1.72,0,.07,2.87-.05,5.74,0,8.61Z"/><path class="uuid-08a24357-fad6-48cf-a052-be55829e8697" d="M1463.11,1682.06c-.49,1.5-1.06,1.48-1.72,0-.05-3.43.15-6.9,0-10.33h1.72c1.39,3.39,1.36,6.89,0,10.33Z"/><path class="uuid-c17c525b-3561-4875-98e1-aad4d694477c" d="M1463.11,1692.39c-2.9-1.88-1.67-7.08-1.72-10.33h1.72c1.29,3.39,1.2,6.9,0,10.33Z"/><path class="uuid-1511bbea-7144-4673-962b-ef627147a85f" d="M1464.83,1685.5c1.54,1.53,1.12,4.89,0,6.89h-1.72c-.02-3.44.03-6.89,0-10.33.49-1.5,1.06-1.48,1.72,0,.06,1.14-.05,2.3,0,3.44Z"/><path class="uuid-c77ca45e-0991-493b-a650-d5486a35cc52" d="M1278.89,1375.61h-1.72c-.24-3.39.35-6.98,0-10.33,2.98,1.91,1.56,7.07,1.72,10.33Z"/><path class="uuid-04f86c1a-8bdb-40f1-a187-8734aa764a7a" d="M1333.99,92.99c-3.34,3.25-6.76,2.41-10.33,0h10.33Z"/><path class="uuid-cfbedc5f-1a6d-4473-b07d-2c74a83fff94" d="M1241.02,1575.32h-1.72c-.23-3.39.34-6.98,0-10.33,2.89,1.87,1.68,7.08,1.72,10.33Z"/><path class="uuid-347456e6-5292-4b4b-8504-dd0f321c496d" d="M1246.18,1630.41c.1,2.74-.41,6.13,0,8.61-2.9-1.88-1.67-7.08-1.72-10.33.49-1.5,1.06-1.48,1.72,0,1.18.37,1.12.95,0,1.72Z"/><path class="uuid-72c19484-c984-402a-9d95-fce9fd86f34a" d="M1344.32,1484.07c-.07-2.46,2.47-2.07,3.44,0-3.63,2.85-6.19,1.47-10.33,1.72v-1.72c1.87-1.28,5.04-1.34,6.89,0Z"/><path class="uuid-82a5661f-6f24-4e97-b030-02cc5ef26206" d="M1330.54,1485.79c-1.62,2.62-4.14,2.98-6.89,3.44-1.07-5.17,2.56-3.23,6.89-3.44Z"/><path class="uuid-e3722abd-eefd-4917-8981-ac0bc9d7424a" d="M1466.55,1695.83c-2.42.08-1.5-1.89-1.72-3.44-.3-2.09.1-4.65,0-6.89h1.72c1.39,1.88,1.38,7.66,0,10.33Z"/><path class="uuid-f0303a0e-dc6d-4fe7-98f7-fdda3303e137" d="M1235.85,1544.33c-3.08-1.94-1.42-7.1-1.72-10.33h1.72c.18,3.42-.26,6.93,0,10.33Z"/><path class="uuid-35cb86b2-d8dd-4f82-b77d-2c9196da4821" d="M1466.55,1695.83v-10.33h1.72c-.34,3.04.3,6.36-.01,9.46l-1.71.87Z"/><path class="uuid-9625db19-5372-4612-a80b-f5b2af1fcbb7" d="M1347.76,1484.07h-3.44c-1.5-.49-1.48-1.06,0-1.72v-1.72c1.82.85,6.84.78,3.44,3.44Z"/><path class="uuid-26196751-f07e-4b8f-9792-ce34151a94df" d="M1483.77,1575.32c-1.72,8.45-1.24-.22-1.72-5.16,1.85,1.41,1.25,3.56,1.72,5.16Z"/><path class="uuid-5cebef9f-462d-4829-8c9a-3c46d37d6022" d="M1242.74,1594.26c-.49,1.5-1.06,1.48-1.72,0-.09-2.86.03-5.74,0-8.61h1.72c1.06,2.64,1.96,6.57,0,8.61Z"/><path class="uuid-481e55a7-f3a2-4c7a-bfc1-53daefba020f" d="M1242.74,1597.7c.14,1.7-.12,3.46,0,5.16h-1.72c-.27-2.79.09-5.78,0-8.61h1.72c1.07.45,1.07,1.6,0,3.44Z"/><path class="uuid-a72c8aca-dacb-4a2f-b320-8e077a8925f4" d="M1284.06,1406.6l-1.72-8.61c.53,2.57,1.21,6.68,1.72,8.61Z"/><path class="uuid-bce36c10-16ec-4118-aa77-c36ec6dc2b32" d="M1275.45,1327.4h-1.72c.1-2.76-1.07-7.14,1.72-8.61.53,1.68-.09,6.2,0,8.61Z"/><path class="uuid-8699092c-da57-4671-942c-e5eba09c7787" d="M1246.18,1628.69h-1.72c-.05-2.87.07-5.74,0-8.61h1.72c1.15,2.59,1.73,6.48,0,8.61Z"/><path class="uuid-1559f9b4-0d39-47a7-a9df-ffa238d8cabc" d="M760.68,282.37c2.07-.35,5.96-5.1,5.16,1.72-1.02.28-2.89-.32-3.44,0l-1.72-1.72Z"/><path d="M1638.72,528.56c12.28,11.74,24.67,23.95,35.96,36.73.5.57.43,1.64.2,2.86-1.57,1.67-1.82,3.29-4.52,4.91-10.51,6.32-57.94,5.4-73.64,7.32-28.42,3.49-60.21,11.98-86.26,23.93-15.3,7.01-28.69,17.08-43.91,24.08,9.98-43.02,44.3-70.5,84.12-85.44,21.29-7.99,52.49-15.37,75.15-16.11,5.64-.19,7.63.07,12.89,1.72Z"/><path class="uuid-7e06baf8-28d4-4d7f-bb59-166ab85af3cf" d="M1333.97,764.43c1.67-1.54,7.92-28.98,11.97-33.66,5.06-5.84,13.19-1.53,11.85,6.52-2.16,12.95-13.48,29.89-16.31,43.49l36.3,56.05c4.14,12.33-3.19,15.59-12.23,7.93l-68.51-107.98c-3.18-5.81,1.03-14.16,7.64-11.16,5.66,2.57,18.71,29.33,24.41,35.93,1.53,1.78,1.67,3.61,4.87,2.87Z"/><path class="uuid-7e06baf8-28d4-4d7f-bb59-166ab85af3cf" d="M1562.46,684.04c2.27,1.88,5.52,7.58,9.09,10.68,34.62,30.1,74.9,46.55,117.96,21.51,5.6-3.26,30.98-26.46,26.72-4.33-.83,4.3-19.47,16.28-24.34,18.76-39.49,20.11-80.32,11.75-115.01-13.73-4.67-3.43-24.28-20.17-25.61-24.31-3.13-9.72,4.65-13.99,11.19-8.58Z"/><path class="uuid-c6083a66-0f20-4779-90d5-4fa5117cf409" d="M1640.44,528.56c-.88-5.09,2.29-3.69,5.6-3.05,23.66,4.58,41.57,20.58,39.14,46.09-2.12-1.44-5.08-3.46-6.87-5.16l-2.43.15c-12.22-12.45-24.04-25.12-35.45-38.03Z"/><path class="uuid-83c966d8-14fe-4057-88b3-d86a4a38bd50" d="M1738.57,969.3c-9.17,5.44-15.02,12.42-27.55,12.05-5.91-.17-17.5-1.41-16.82-9.19.99-11.37,13.21-3.39,19.39-2.85,8.04.71,16.83-.52,24.98-.01Z"/><path d="M1678.31,566.44c-1.76-.16-2.38.58-3.44,1.72-11.85-13.38-26.31-24.4-36.15-39.6.56.17,1.29-.21,1.72,0,8.49,4.01,29.41,29.8,37.88,37.88Z"/><path class="uuid-9de467ee-bc4f-40be-97ae-490aa8d83ce6" d="M1268.56,1189.67h-1.72v-17.22h1.72c-.29,5.67-.04,11.53,0,17.22Z"/><path class="uuid-e6af827a-24a6-4c04-a479-cc17aa12dea9" d="M555.8,459.7c1.95-.31,4.74-.02,6.89,0,4.29.68,7.74,1.83,10.33,3.44,14.77,1.87,27.97,5.47,39.86,10.51,22.05,9.33,43.68,24.87,62.9,38.27,12.88,8.98,41.3,49.3,48.53,62.87,6.94,13.03,14.13,30.1,17.44,45.03,1.81,1.62,2.56,4.41,0,5.16,1.59.66,2.74,2.38,3.44,5.16.12,2.28-.12,4.6,0,6.89,1.14,3.96,2.29,7.98,3.44,12.05,1.49,22.02,1.78,39.92,0,61.98-1.35,4.51-2.5,9.1-3.44,13.77-9.35,78.53-86.06,153.09-157.22,168.74-3.24.71-15.03,5.7-21.06,6.78-29.73,5.33-48.17,1.25-76.53.09-2.83-1.08-6.27-2.22-10.33-3.44-2.29-.07-4.6.12-6.89,0-1.96-.89-4.26-2.04-6.89-3.44-1.14-.06-2.3.06-3.44,0-3.36-.55-5.65-1.7-6.89-3.44-53.75-13.69-107.94-65.78-130.67-115.09-4.23-9.17-9.95-23.09-10.5-32.97-1.31-2.58-2.46-4.88-3.44-6.89-.21-2.21.36-4.85,0-6.89-.74-5.44,10.15-10.86,13.77-6.89l3.76,1.4c19.1,78.9,84.55,145.26,167.16,156.63l4.69,3.81c11.97,3.71,37.78,3.83,53.37,0l3.88-3.78,27.39-5.58,4.89,2.47c2.33-1.36,4.63-2.51,6.89-3.44l1.21-3.9c186.88-71.35,168.11-341.13-24.86-384.66l-3.89-3.98c-4.2-.92-8.22-2.06-12.05-3.44-2.86,4.79-9.28,4.94-12.05,0-1.5-.49-1.48-1.06,0-1.72-5.76-1.77-.43-16.08,5.16-13.77-.7-4.08,2.92-4.61,5.16-1.72Z"/><path d="M387.08,509.62c3.14,4,5.8,8.46,8.61,12.05l.23,5.24c-35.33,31.97-61.44,74.66-67.04,122.78l-3.78,4.55c-2.71,16.5-2.94,33.44,0,49.93,5.24,1.17,4.67,15.53,0,17.22l-13.77,6.89c-12.46-70.69-4.78-84.48,17.22-149.78l3.44-5.16c4.18-5.04,6.61-12.12,10.65-17.76,11.81-16.49,26.6-36.19,44.44-45.94Z"/><path d="M478.33,463.14c.36-.8.96-.71,1.72,0,5.62.85,12.36,8.76,8.61,13.77l-5.08,5.14c-22.79,6.96-45.51,15.18-65.2,28.46l-5.47-.88c-3.52-4.56-6.85-9.26-10.33-13.77,10.46-6.88,22.15-13.81,33.58-18.93,12.16-5.45,30.35-12.96,42.17-13.78Z"/><path d="M536.87,456.25l3.16.8c11.55-.82,15.09.64,10.61,4.37-1.5,1.6-4.97,10.82-5.16,13.77-10.69,1.31-23.58,1.24-34.43,0-5.27,1.58-13.81-11.16-10.33-15.49,1.61-.17,3.07-1.69,3.44-1.72,3.86-1.29,7.88-1.87,12.05-1.72,6.74-.41,13.87-.03,20.66,0Z"/><path class="uuid-20704aba-64c9-4d45-af8a-473ad1627c9b" d="M500.71,459.7l10.33,15.49c1.5.49,1.48,1.06,0,1.72-2.78,5.01-19.35,4.42-22.38,0l-8.61-13.77c.69-2.43,2.21-2.3,3.44,0,3.43-1.11,6.88-2.26,10.33-3.44,2.26-.2,4.64.24,6.89,0Z"/><path class="uuid-6d7043b8-8e8d-4fe4-af15-2bd2981af205" d="M493.83,459.7c-1.56,4.77-6.47,3.2-10.33,3.44-2.27-1.2-1.12-2.34,3.44-3.44,2.27-.18,4.62.2,6.89,0Z"/><path class="uuid-1ea28f01-1a6a-4902-a788-5d18cf008087" d="M311.33,735.16c5.2-1.07,3.2,2.57,3.44,6.89-5.35,1.07-3.04-2.64-3.44-6.89Z"/><path class="uuid-74afb6c6-ff2e-4c66-ab6d-b59323df0544" d="M745.18,624.97c.25,1.55-.09,3.48,0,5.16-2.84-.84-3.04-2.58-3.44-5.16-.18-3.44,2.22-2.91,3.44,0Z"/><path class="uuid-9de467ee-bc4f-40be-97ae-490aa8d83ce6" d="M862.26,242.77c1.53,1.99,2.68,4.86,3.44,8.61l3.9,4.74c3.26,17.88,7.33,35.6,12.22,53.16l-2.35,5.8c1.31,2.64,2.46,4.93,3.44,6.89l3.71,1.91c11.05,44.87,31.84,90.27,68.6,118.6,1.38,2.68,1.25,5.89,0,8.61,3.35,11.31,1.94,27.86,0,39.6l2.49,1.53c2.53,14.21,9.56,27.15,20.23,36.9l-.34,2.89c-43.42,9.45-84.59-49.65-86.15-88.59-.3-7.59,2.96-22.25,1.44-27.27-1.1-3.64-15.73-15.71-19.47-20.14-36-42.59-49.01-94.65-42.16-149.8,3.21-6.44,20.23-16.85,27.17-19.04l3.82,1.82c1.36,4.17,1.23,9.85,0,13.77Z"/><path class="uuid-6b0d0057-db5e-461b-9874-00efa0b3a66a" d="M1079.18,139.47c66.5,62.06,73.95,173.53,19.65,246.05-4.76,6.36-26.55,27.38-27.53,31.06-1.35,5.04,1.9,26.33.86,35.23-3.78,32.02-28.88,64.2-58.4,76.75-1.01,5.83-6.23,3.24-6.74-2.09,5.37-17.01,7.06-34.79,5.07-53.36l1.67-1.36c-1.64-7.59-2.21-15.05-1.72-22.38.43-5.98,1.4-7.71,7.47-6.58,42.57-23.6,75.45-69.18,83.45-117.35l3.77-3.47c1.21-3.27,1.78-6.71,1.72-10.33l-2.77-6.76c4.65-56.37-17.91-112.91-61.31-148.57l.38-4.78c6.85-8.01,24.21-14.95,34.43-12.05Z"/><path d="M1079.18,139.47c-11.7,3.18-22.96,8.34-34.43,12.05-.75,8.02-6.87,2.17-10.14-2.25-60.07-39.67-149.24-7.64-165.08,62.75l-3.82,3.2c-.79,5.15-1.94,9.74-3.44,13.77l-30.99,17.22c15.21-122.56,148.92-199.12,247.92-106.74Z"/><path class="uuid-9de467ee-bc4f-40be-97ae-490aa8d83ce6" d="M1005.15,451.09c2.56-2.24,3.51-1.24,1.72,1.72,1.8,7.27,3.42,15.08,1.72,22.38,1.37,13.1,1.37,26.3,0,39.6,1.27,4.36-.2,17.56-6.89,17.22-6.94.21-14.72.73-20.66-3.44-6.06,1.43-13.66-11.21-16.75-17.05-2.8-5.29-8.66-17.03-3.91-20.82-1.6-13.67-1.6-27.45,0-41.32-1.2-.36-1.13-.95,0-1.72.49-1.5,1.06-1.48,1.72,0,4.29-1.57,6.65-1.69,11.7.37,10.22.88,20.25,1.07,30.09.57l1.25,2.5Z"/><path class="uuid-597276d0-5928-48c0-9790-57fad21e5281" d="M1013.76,471.75c.87,10,.88,27.02.01,37.03-.51,5.89-4.29,11-3.63,17.27.46,4.32,2.94,1.95,3.61,2.52,2.17,1.83-.53,5.32.36,6.49,2.06,2.72,5.52-.79-.39,7.26-3.63-.61-3.15-7.52-3.42-10.31l-6.86,8.62c1.6-2.81-1.75-8.06-1.74-8.61.02-.94,5.8-12.01,6.89-17.22.52-13.31,1.09-26.51,1.72-39.6-1.27-4.73-2.52-11.43,0-15.49,2.51,2.04,3.66,6.06,3.44,12.05Z"/><path class="uuid-d44272e0-9b57-4a95-97ce-b66de22af405" d="M958.67,490.69c.49-1.5,1.06-1.48,1.72,0,1.05,12.64,10.2,30.51,20.66,37.88-.94.81-2.53,3.24-3.44,3.44-12.21-11.88-20.56-23.74-22.38-41.32.55-4.57,2.13-4.37,3.44,0Z"/><path class="uuid-8449d9f9-56a7-466c-8962-512d92802afb" d="M511.04,476.91c11.36-1.5,23.07-1.48,34.43,0,4,.06,8.07-.23,12.05,0,3.94,1.35,7.96,2.5,12.05,3.44,48.18,5.17,105.65,47.86,130.12,86.75,7.46,11.86,17.37,30.91,21.25,41.95,36,102.55-11.86,216.25-109.46,257.55-4.04,1.71-8.13,4.83-14.37,6.29-2.78,1.33-5.08,2.47-6.89,3.44-12.63,2.59-23.19,6.12-36.15,6.89-15.35,3.29-35.05,3.18-51.22,1.9-.76-.06-1.46-.87-2.15-1.9-56.72-3.14-118.63-46.98-147.88-94.4-8.92-14.46-25.16-51.51-27.73-67.44-.78-4.86.17-11.88,0-17.22-2.94-16.48-2.72-33.42,0-49.93,1.91-37.08,22.42-79.46,46.53-107.56,7.51-8.75,17.14-15.7,24.06-25.01,5.65,7.22,11.5,15,17.22,22.38l-.73,3.49c-45.38,39.04-67.46,102.07-59.53,160.07l2.45.06c8.45,79.44,80.37,142.05,160.68,147.69l5.59,3.75c3.47,2.84,7.46,2.37,12.05,0,4.21-4.29,7.83-4.26,12.05,0,1.84-2.67,5.15-2.78,6.89,0,4.76-1.1,8.21-2.25,10.33-3.44l3.83-3.98c55.84-11.39,112.69-59.21,126.5-114.95l3.96-1.58,3.44-5.16-2.72-4.97c7.1-30.43,9.89-59.3-.1-89.31l2.83-3.86c-1.3-2.65-2.44-4.95-3.44-6.89l-3.92-2.63c-14.85-50.77-63.39-96.33-114.07-110.57l-2.52-3.87c-2.02-.93-4.32-2.08-6.89-3.44-1.14,1.91-3.43,1.91-6.89,0-4.74-.68-9.33-1.83-13.77-3.44-10.84,4.94-28.52,6.01-39.6,1.72l-5.33,4.01c-26.07,3.69-50.7,12.11-73.86,25.25-5.8-7.42-11.47-14.94-17.22-22.38,7.56-4.01,14.6-9.22,22.31-12.98,16.84-8.21,36.45-14.66,53.44-19.73,3.86-1.15,16.9.12,22.38,0Z"/><path class="uuid-9de467ee-bc4f-40be-97ae-490aa8d83ce6" d="M545.47,559.55l4.61-2.79c44.38,8.62,85.05,41.61,97.65,85.73l-2.4,4.86c1.8,1.63,2.56,4.41,0,5.16,1.68.93,2.83,3.23,3.44,6.89l3.69,4.91c8.02,66.08-35.14,125.3-99.41,139.21l-4.13-2.94c-1.05,2.58-2.45,2.61-3.44,0-11.13,3.23-27.72,3.52-37.88,0l-3.78,3.05c-33.65-1.82-93.52-49.88-95.1-83.39-.12-2.49-.17-4.08,2.47-5.74-1.34-2.79-2.49-5.08-3.44-6.89-3.47-.41-3.31-2.12,0-3.44-1.49-3.77-2.64-8.36-3.44-13.77-1.54-.32-1.48-.9,0-1.72.26-1.27.84-1.84,1.72-1.72l1.95-4.21c44.94-13.91,67.41-20.87,67.41-20.87l2.95,2.69c-14.05,48.34,41.53,87.54,81.74,55.05,26.39-21.32,24.16-67.3-5.98-84.32l.43-3.75c30.6-15.86,14.05-37.02-3.48-55.27-6.58-6.71-8.43-12.29-5.55-16.74Z"/><path class="uuid-8449d9f9-56a7-466c-8962-512d92802afb" d="M535.14,532c5.29-5.28,23.1-2.16,27.55,3.44,1.96.9,4.25,2.05,6.89,3.44,2.07-4.73,5-4.91,6.89,0,1.18,1.63,2.9,2.78,5.16,3.44,1.22-.43,2.44-.79,3.69-.92,9.08-.97,37.24,20.36,45.21,27.55,79.58,71.73,57.67,201.11-35.83,247.75-10.45,5.21-28.9,13.92-38.9,7.97-5.42.83-10.01,1.98-13.77,3.44-6.93,4.13-15.43,5.2-25.48,3.21-10.16.61-18.31-1.61-24.45-6.65-2.79-.77-4.52-1.91-5.16-3.44-.56,2.93-4.41,1.25-6.89,0l-5.4,1.08c-46.8-18.67-82.62-57.41-94.02-106.91l3.01-4.35c-1.26-4.12-2.41-7.56-3.44-10.33-3.24-.72-2.67-1.76,0-3.44l-3.54-4.66c-2.84-46.66,12.79-94.3,49.62-124.6l5.57.14c5.42,7,11.76,13.59,17.22,20.66l-.73,3.49c-19.91,16.87-33.93,41.5-38.46,67.39l-3.85,3.16c-.59,4.95-1.16,13.56-1.72,25.82.01.57-.01,1.15,0,1.72.79,5.46,1.94,10.05,3.44,13.77.09,1.13-.06,2.3,0,3.44,1.3,2.59,2.44,4.88,3.44,6.89,5.38,40.49,56.27,82.7,96.41,86.08,7.61,2.74,18.24,3.38,31.88,1.92l2.56,1.52c2.83-.87,5.12-2.02,6.89-3.44,35.33-3.53,75.18-36.39,89.35-66.88,11.29-24.31,11.96-47.04,10.5-74.29-1.41-2.42-2.55-5.43,0-6.89-1.55-.66-2.7-2.38-3.44-5.16-9.12-44.13-55.66-82.09-99.86-87.8l-5.96,2.8c-23.66-2.42-47.38,1.71-68.39,12.99l-6.57-.3c-5.45-6.96-11.7-13.59-17.22-20.66,4.5-8.38,20.66-14.4,30.34-17.49,9.08-4.48,16.76-4.96,23.03-1.45,9.19-.77,11.48-1.34,6.89-1.72,4.89-7.5,20.47-6.9,27.55-1.72Z"/><path d="M545.47,559.55c6.97,23.08,43.75,38.28,24.09,64.55-3.44,4.59-9.85,9.71-15.48,11.2-12.48-7.05-33.18-6.48-46.54-2.49-13.01-18.41-27.38-35.79-41.28-53.52-1.19-1.52-1.28-3.69-1.71-4.25,25.62-14.88,51.59-19.28,80.92-15.49Z"/><path d="M412.91,544.06c6.23,8.04,12.68,16.02,18.94,24.1-19.75,13.96-35.33,38-43.39,60.77-8.63,24.4-8.82,42.73-8.26,68.35,1.23,4.63-22.69,13.08-24.07,12.7-1.45-.4-2.63-1.08-3.48-2.37-.3-.35-3.09,1.41-3.59-2.45-7.42-57.08,14.83-118.12,56.94-156.84,2.12-1.95,3.54-4.31,6.91-4.27Z"/><path d="M449.06,588.82c13.63,17.65,27.32,35.3,41.07,52.88,1.13,4.24-9.97,16.56-11.81,22.87l-72.31,22.38c-1.04-7.49-1.68-16.74,0-24.1,2.28-24.11,17.86-53.04,36.13-69.76,2.13-1.95,3.54-4.31,6.91-4.27Z"/><path d="M509.32,502.74c5.04-.54,25.79,22.04,26.79,25.15.43,1.34-.28,2.83-.96,4.11-9.88-.53-18.19-.21-27.55,1.72-2.17.52-4.47,1.09-6.89,1.72-19.83,1.31-35.72,10.59-53.37,18.94-5.78-7.41-11.44-14.99-17.22-22.38-.78-3.7,1.93-3.78,4.25-5.13,24.76-14.41,46.82-21.6,74.94-24.14Z"/><path d="M564.07,1016.3c21.12-1.45,73.92,1.05,86.48,20.95,14.29,22.63-24.95,35.6-40.72,38.59-23.3,4.42-92,2.99-104.69-20.59-14.61-27.15,41.82-37.78,58.93-38.95Z"/><path class="uuid-0c00c082-1a2a-4469-a298-b045a58017c4" d="M818.86,1240.11c21.38-1.38,49.1.4,68.68,9.51,24.92,11.59,26.79,28.95,1.44,41.67-28.36,14.23-85.3,13.59-113.98.28-9.06-4.2-21.52-12.54-18.37-24.06,5.44-19.85,44.85-26.28,62.23-27.4Z"/><path class="uuid-8449d9f9-56a7-466c-8962-512d92802afb" d="M498.99,1191.39c-19.15,5.59-60.42,1.81-79.64-5.58-33.46-12.86-29.61-35.47,2.17-46.93,25.14-9.07,60.23-9.67,86.16-3.52,15.28,3.63,46.18,14.71,36.91,35.33-4.89,10.87-29.53,18.16-40.43,18.97-7.01.83-8.73,1.4-5.16,1.72Z"/><path class="uuid-089b3fbe-c6fc-4363-8dbb-ff7034d9b126" d="M669.43,983.07c.24-.29-.06-1.8.74-2.7,25.97-29.3,106.55-27.05,138.97-7.42,7.98,4.84,9.95,12,8.26,21.23-1.97,10.76-20.37,16.5-29.18,19.88-1.25.79-2.23,1.3-3.44,0l-6.89,3.44c-30.81,5.5-83.11,6.07-106.03-18.88-1.83-2-1.85-4.45-2.44-5.23-2.81-.96-2.87-8.73,0-10.33Z"/><path class="uuid-9de467ee-bc4f-40be-97ae-490aa8d83ce6" d="M1049.92,991.68c6.38,2.85,13.33.9,19.67,1.85,17.35,2.6,53.71,14.09,65.45,27.52,13.73,15.7,3.18,31.87-11.25,41.92-25.29,17.61-67.74,25.51-97.97,26.85,10.39-5.81,7.2-12.13,9-21.12,5.09-25.4,10.29-51.32,15.1-77.01Z"/><path d="M596.27,1233.68c22.57-.74,58.21.94,76.46,15.54,16.74,13.39,9.24,27.1-7.29,35.46-26.52,13.42-75.59,13.71-103.5,4.75-13.57-4.36-30.92-11.42-28.6-28.39,2.57-18.81,47.05-26.83,62.93-27.35Z"/><path class="uuid-9de467ee-bc4f-40be-97ae-490aa8d83ce6" d="M958.67,998.57c1.79,12.88,4.9,26.04,6.71,38.91,2.41,17.11,1.46,36.49,8.78,52.34-19.81-2.93-44.17-7.25-62.05-16.28-63.66-32.14,9.13-70.9,46.56-74.96Z"/><path class="uuid-6b0d0057-db5e-461b-9874-00efa0b3a66a" d="M1029.26,991.68c-1.28,27.07-14.21,59.15-15.54,85.29-.39,7.59,1.2,8.59,6.93,12.84-10.79.51-21.9.03-32.71,0,5.27-11.43-.26-23.1-1.55-33.75-2.62-21.63-5.82-42.89-8.78-64.39,16.5,5.77,34.81-6.57,51.65,0Z"/><path class="uuid-7639e596-6aa4-4135-934d-0a2f6f3e90e0" d="M669.43,983.07v10.33c-.33-.43-2.92,1.68-3.58-2.5-1.54-9.81,3.16-7.33,3.58-7.83Z"/><path class="uuid-f22593af-52fb-4e53-b261-8398ed80b825" d="M504.15,1189.67c-1.18,2.31-3.61,1.27-5.16,1.72-2.64-.21-5.78,1.12-5.16-1.7,3.41-.22,6.92.24,10.32-.02Z"/><path class="uuid-60f54b49-2b36-4b96-a90b-a3579ef2218c" d="M788.23,1014.06c-1.19.46-.57,2.61-6.89,3.44-1.64-1.18-.49-2.32,3.44-3.44,1.15-.04,2.3.03,3.44,0Z"/><path class="uuid-d3356268-f3db-43ad-8eee-ec09b8b89257" d="M784.78,1014.06l-3.44,3.44c-1.1.14-2.38-.19-3.44,0,1.08-3.54,3.72-3.33,6.89-3.44Z"/><path class="uuid-17219c8b-f096-4ea8-bd21-7977004c1788" d="M1242.74,1597.7c-.09-1.13,0-2.31,0-3.44v-8.61c2.99,1.94,2.74,9.98,0,12.05Z"/><path class="uuid-6166c65c-fb90-4df6-a1c6-e3e73e5b34a4" d="M1247.9,1630.41h-1.72c-.02-.57,0-1.15,0-1.72v-8.61c3.01,1.59,1.64,7.11,1.72,10.33Z"/><path class="uuid-d8219acd-a9ab-4f9c-b788-6ceafa40081a" d="M1344.32,1482.35v1.72c-2.27,0-4.63.16-6.89,0-1.14-.08-2.3.08-3.43-.02v-1.69s10.32-.02,10.32-.02Z"/><path class="uuid-954a5981-a541-49a6-bdb7-1efbf47df853" d="M1464.83,1682.06h-1.72c-.03-3.44.02-6.89,0-10.33,3.07,1.62,1.56,7.09,1.72,10.33Z"/><path class="uuid-089b3fbe-c6fc-4363-8dbb-ff7034d9b126" d="M865.7,215.22c2.88-35.14,36.36-66.59,66.88-78.6,34.41-13.55,72.75-10.2,103.97,9.82,4.73,3.03,2.12,7.05,8.2,5.08,6.79,8.21,17.51,15.69,24.02,23.71,30.64,37.79,45.66,86.71,39.68,136.4.1,3.63-.48,7.08-1.72,10.33-2.94,43.94-43.36,102.98-85.68,123.87-2.75,1.36-5.91-2.24-9.01,3.53-5.56-6.94-5.31-19.74-1.72-27.55-1.25-3.28-1.83-6.73-1.72-10.33-5.7-6.69-5.78-21.12-3.44-29.27.65-5.27,1.22-10.44,1.72-15.49-1.57-12.43-1.71-25.46,0-37.88-1.56-2.37-1.26-5.97,0-8.61-.83-.47-1.6-.99-2.2-1.67-1.44-1.64,2.14-27.11,8.92-22.89,13.87,14.69,22.66,17.67,40.39,6.39,36.47-23.2-31.26-36.12-42.24-12.48-1.35.87-2.64.64-4.1.35s-21.92-17.82-22.64-19.11c-1.27-2.27-.24-5.3.98-7.49,33.36-34.92-24.37-25.47-23.8-14.86.25,4.6,13.35,14.44,18.38,15.8,2.18,2.05,2.56,4.22,1.58,6.98-.74,2.1-32.4,25.86-37.36,21.95-5.97-14.08-13.54-27.6-29.1-32.6l-1.79-4.07c-3.89-3.71-14.09-4.78-17.22,0l1.97,3.68c-7.8,23.7,25.15,43.38,46.81,36.71,3.78,1.35,10.88,38.06,9.35,42.44-.37,1.05-1.76,1.39-3.04,1.53,1.22,3.84,1.8,7.85,1.72,12.05,3.8,2.41,5.43,17.73,1.72,20.66,1.38,5.6,1.67,11.75,0,17.22,1.51,12.53,1.37,25.38,0,37.88,1.34,4.47,1.4,9.31,0,13.77-4.05.93-4.57-.07-7.32-1.9s-21.21-20.46-23.59-23.53c-14.57-18.78-39.11-71.86-41.41-95.08-1.29-2.84-2.44-5.13-3.44-6.89-3.9-21.2-12.28-42.27-13.77-63.7-1.55-2.7-2.92-7.05,0-8.61-2.23-9.19-2.23-18.37,0-27.55Z"/><path class="uuid-01bd0038-63f3-4525-885a-7a072a2c6e51" d="M958.67,449.37c1.27,13.69,1.27,27.46,0,41.32h-3.44c-1.25-12.05.2-27.06,0-39.6l1.72-5.16c2.25-3.46,3.44.79,1.72,3.44Z"/><path class="uuid-42159424-8cef-44e2-9ad7-eda84cd80c6f" d="M956.95,445.92c-.08,1.89.53,4.33-1.72,5.16-.05-2.87.03-5.74,0-8.61-.05-4.58.05-9.19,0-13.77.49-1.5,1.06-1.48,1.72,0,2.72,4.66,2.84,12.63,0,17.22Z"/><path class="uuid-9169cc37-cc46-4527-a04c-ca5028ad09b9" d="M879.47,315.08c5.36-1.07,3.02,2.65,3.44,6.89-5.66,1.1-2.71-2.91-3.44-6.89Z"/><path class="uuid-5fb7b77d-9878-44f3-b67c-e90cd33d08ca" d="M863.98,242.77c-.49,1.5-1.06,1.48-1.72,0-.37-4.1-.24-9.6,0-13.77.89-.52,1.64-.88,1.92-.65.84.68,1.1,12.64-.2,14.42Z"/><path class="uuid-9716af5c-9f50-4795-ae15-2a2becfe9503" d="M865.7,242.77c.11,2.85-.2,5.77,0,8.61-3.27-2.02-3.14-5.23-3.44-8.61h1.72c.49-1.5,1.06-1.48,1.72,0Z"/><path class="uuid-47bfb610-c283-4a30-8538-7b5e41c0348f" d="M1013.76,471.75c-.16-1.86-2.02-11.81-3.44-12.05-.28,5.12.08,10.36,0,15.49-.49,1.5-1.06,1.48-1.72,0-.26-7.6-1.49-14.82-1.72-22.38,1.63-1.19,2.78,1.11,3.44,6.89-3.07-6.96-2.5-10.4,1.72-10.33.69,7.43,1.73,14.9,1.72,22.38Z"/><path class="uuid-3c72337f-1dad-4c9a-9de6-81bff9a7c3e7" d="M1106.73,321.96c.3-4.54,1.39-7.58,1.72-10.33-.25,3.24,1.32,8.4-1.72,10.33Z"/><path class="uuid-0f7b5df1-b992-48ca-961b-de41ee42aaaf" d="M865.7,242.77h-1.72c-.54-3.43,1.54-13.69-1.72-13.77.27-4.55.41-10.07,3.44-13.77-.68,8.28-.33,19.09,0,27.55Z"/><path class="uuid-356fc325-51ff-490a-9ef6-03b306f8f6d5" d="M953.5,311.63c-3.06.67-7.76-15.2-7.39-16.11,12.96-5.92,24.73-15.01,35.75-24.55,1.32-.58,2.67-.63,4.08-.34,1.62.33,23.22,20.43,23.87,22.5-5.73,15.9-7.59,33.13-7.82,50.59l-3.72.62c-1.02,1.83-2.28,11.27,0,6.89,6.21,8.49,5.44,24.26,3.44,34.43-1.3,4.99-1.3,10.15,0,15.49,4.64.9,5.92,13.48,1.72,15.49l1.72,25.82c5.7-2.81,6.15,10.71,0,8.61-5.26-1.24-15.76,2.15-23.22,1.69-5.95-.36-14.38-2.48-19.83-5.14.52-1.86,2.37-.56,2.23-.56-4.54-.16-3.77-6.45-2.23-9.77-1.86-17.56-1.39-35.77,0-53.37-.47-9-1.04-18.18-1.72-27.55-.49,1.5-1.06,1.48-1.72,0-1.24-.92-2.24-1.88-2.41-2.97-.82-5.08-3.73-31.16-3.06-33.36.36-1.19,1.14-2.25,2.03-3.28-.73-8.11-1.3-9.83-1.72-5.16Z"/><path class="uuid-02ca4370-0236-4880-90d3-9d80339cac8d" d="M913.91,256.54c16.39,3.92,28.46,18.47,32.73,34.43,2.89,2.04,31.23-18.01,32.68-21.54s-7.71-4.97-9.73-6.59c-.62-.49-9.74-10.81-10.07-11.5-6.62-14.3,32.49-21.08,38.86-11.25s-11.49,22.84-10.58,29.2l21.43,18.12c5.51-5.01,13.04-12.65,20.81-13.73,20.07-2.79,56.97,8.38,28.02,29.74-8.88,6.56-19.82,10.55-31.03,8.17-1.06-.22-15.94-14.51-16.69-13.73-2.41,8.06-2.99,14.13-3.46,22.38-.61,2.96-1.18,5.83-1.72,8.61,1.11,12.51,1.23,25.38,0,37.88,1.78,4.73,1.14,10.49,0,15.49.58,9.5,2.68,19.69,3.44,29.27-.12,3.63.45,7.07,1.72,10.33.81,8.92.86,18.22,1.72,27.55-2.48,4.62-1.46,5.59-1.72,10.33-2.82-.87-1.15-4-3.44-6.89-.23-.29-1.6-1.69-1.72-1.72,3.81-3.61.08-7.28,0-8.61l-1.72-25.82c-.31-6.01-.87-9.74-1.72-15.49-1.33-5.34-1.33-10.51,0-15.49-.89-11.16-2.38-23.48-3.44-34.43-1.33-2.07-1.2-4.78,0-6.89,3.55-6.73,1.11-15.48,1.94-23.02.58-5.29,6.6-26.15,6.33-27.53-.91-4.66-17.73-15.85-21.34-20.11-5.62-.63-26.76,23.16-36.86,22.48,2.98,4.77,3.55,10.17,5.17,15.47.75,1.11,1.32,2.83,1.72,5.16,1.04,13.32,3.04,26.16,3.44,39.6.48,3.73,1.06,7.74,1.72,12.05,1.84,3.88,1.3,11.17,0,15.49,1.39,17.72.98,35.63,0,53.37,1.1,3.36,1.49,7.16,0,10.33,0,.57,0,1.15,0,1.72-.49,1.5-1.06,1.48-1.72,0-.11-1.46-.05-2.98-1.72-3.44.24-5.69-.02-11.51,0-17.22-1.35-12.58-1.24-25.29,0-37.88-.43-5.5-1-11.24-1.72-17.22-.28-7.99-.64-12.92-1.72-20.66.06-4.16-.51-8.18-1.72-12.05-.09-1.49,1.21-3.83.93-6.96-.39-4.53-6.55-33.19-7.98-34.22-19.57,4.33-32.47-.64-44.56-16.54-7.37-9.69-9.54-15.71-3.49-26.64,2.66-4.74,13.16-3.74,17.22,0Z"/><path class="uuid-0dc1ebb3-e332-4926-863f-22ae535b7201" d="M960.39,490.69h-1.72c-.75-13.49,1.02-27.97,0-41.32h1.72c.16,13.3-1.08,28.36,0,41.32Z"/><path class="uuid-8c70c63d-b746-45cc-b39c-2425eb7b5220" d="M1008.6,514.79c-.32-13.16.45-26.45,0-39.6h1.72c-.22,13.59,1,26.54-1.72,39.6Z"/><path class="uuid-8a5b1bd7-6428-4eda-a9f1-de9218dd8130" d="M962.11,437.31c.11,2.33-.59,5.49-.04,7.45.35,1.27,8.01,2.55.04,2.88h-1.72c-.04-3.44.03-6.89,0-10.33.49-1.5,1.06-1.48,1.72,0Z"/><path class="uuid-e6af827a-24a6-4c04-a479-cc17aa12dea9" d="M548.92,501.02l13.77,3.44c3.46.36,5.75,1.51,6.89,3.44,1.5-2.59,5.46-2.72,6.89,0,44.95,5.71,114.03,69.85,120.51,117.07,1.31,2.82,2.45,5.12,3.44,6.89,1.6,10.5,5.93,23.25,6.98,33.48,2.42,23.71-3.78,42.33-6.98,64.65-.98,1.98-2.13,3.7-3.44,5.16-.48.65-2.38,12.83-3.62,15.83-20.35,49.29-78.53,98.93-130.67,104.68-1.73,2.69-5.21,2.74-6.89,0-4.73,1.13-8.17,2.27-10.33,3.44-4.01.07-8.04,0-12.05,0-3.69,2.2-9.03,3.39-12.05,0-74.09-2.74-142.4-52.86-164.69-123.69-2.37-7.52-3.11-26.74-4.03-27.82l27.55-10.33c.02,1.15-.03,2.3,0,3.44,1.24,4.16,2.38,7.61,3.44,10.33,1.46,19.19,10.38,33.04,20.15,48.73,22.82,36.65,38.59,41.82,76.26,61.45,3.23.53,5.52,1.67,6.89,3.44.17-2.69,3.48-1.78,5.16,0,17.34,3.22,31.84,4.21,49.93,3.44,3.97-1.45,8.57-2.6,13.77-3.44,44.78-3.73,90.58-44.1,107.32-85.52,11.55-28.57,17.53-56.74,9.36-92.28-11.17-48.64-44.74-85.29-90.86-104.55-2.66-.44-4.38-1.59-5.16-3.44-1.99-.36-4.68.15-6.89,0-1.96-.9-4.25-2.05-6.89-3.44-9.91-.71-17.1-2.88-27.55-3.44l-25.82-29.27c12.7-1.15,26.36-2.24,39.6-1.72Z"/><path class="uuid-2d42673e-a230-41a0-a0ed-e08fb52a253c" d="M569.58,504.46v3.44c-4.45-.63-4.71-2.46-6.89-3.44,2.28.14,4.6-.12,6.89,0Z"/><path class="uuid-250c607c-4e0c-4e7f-b3a0-80b85ee41b6b" d="M700.42,729.99c-1.31,9.14-2.22,3.51-3.44,5.16.01-2.53.95-4.42,3.44-5.16Z"/><path class="uuid-182481e0-50d8-4421-be11-717c32ff4b2b" d="M648.77,652.52c.31,2.07-.12,4.65,0,6.89-2.58-1.62-3.02-4.14-3.44-6.89-.18-3.44,2.22-2.91,3.44,0Z"/><path class="uuid-7c13c2ea-a126-4163-9cf2-62297281cd58" d="M486.94,821.24c2.82,1.15,3.33,3.04,0,3.44-6.44-.81-4.74-2.33-6.89-3.44,2.17.27,4.88-.4,6.89,0Z"/><path class="uuid-766a19cf-b808-44a1-8d43-6b1913c72c4b" d="M956.95,428.71h-1.72c-.14-12.6.2-25.28,0-37.88.49-1.5,1.06-1.48,1.72,0,.06,12.6.05,25.28,0,37.88Z"/><path class="uuid-7e47929c-46e4-4085-b335-b5a342515141" d="M1006.87,366.73c-.49,1.5-1.06,1.48-1.72,0-.38-12.51-.25-25.36,0-37.88.49-1.5,1.06-1.48,1.72,0-.39,12.57.08,25.29,0,37.88Z"/><path class="uuid-07c00bb0-e265-4d12-bfc1-027d459565f6" d="M896.69,256.54c.39-.71-1.1-3.04,1.02-3.53,3.16-.73,18.31-1.43,16.19,3.53-5.85-1.4-11.16-3.62-17.22,0Z"/><path class="uuid-42159424-8cef-44e2-9ad7-eda84cd80c6f" d="M956.95,390.83h-1.72c-.09-5.72.2-11.5,0-17.22,3.15,3.96,1.69,11.82,1.72,17.22Z"/><path class="uuid-85cdeedb-c7ad-4402-a944-57b74dddc233" d="M1005.15,382.22c-.31-5.11.16-10.36,0-15.49h1.72c-.03,4.85,1.39,12.1-1.72,15.49Z"/><path class="uuid-e9bf1752-54b6-42bc-80bb-93e3f701d2be" d="M953.5,352.95c-.55-3.93-1.41-6.86-1.72-12.05,3.27,2.44,1.32,8.28,1.72,12.05Z"/><path class="uuid-90e8adbb-eddc-4bb4-bcc9-1d13b70ad7f9" d="M1010.32,421.82c-3.04-1.93-1.47-7.09-1.72-10.33.18,2.26,1.37,6.48,1.72,10.33Z"/><path class="uuid-c64abd3d-a907-45a2-a894-464ecb469a58" d="M1006.87,328.85h-1.72c.05-2.76-1.03-7.16,1.72-8.61-.16,2.85.09,5.75,0,8.61Z"/><path class="uuid-42159424-8cef-44e2-9ad7-eda84cd80c6f" d="M962.11,437.31h-1.72c-.15-17.76,0-35.61,0-53.37.49-1.5,1.06-1.48,1.72,0,.13,17.66-.8,35.78,0,53.37Z"/><path class="uuid-2ed6de4e-2582-487e-9f62-98652b377938" d="M962.11,383.94h-1.72v-15.49c-1.29-3.68-1.65-8.75,0-12.05,3.21,7.42,1.65,18.77,1.72,27.55Z"/><path class="uuid-19f7915a-c376-4dde-9c03-a0df30d7b77f" d="M1005.15,442.48c-3.49-7.21-1.29-17.52-1.72-25.82,3.55,7.22,1.21,17.52,1.72,25.82Z"/><path class="uuid-a0929458-9acf-42f2-80a4-b4d999847c87" d="M1001.71,401.16c-.58-3.9-4.67-11.12,0-15.49.4,5.09-.28,10.38,0,15.49Z"/><path class="uuid-66d07d88-bb8b-4977-aa8b-a55b700fe855" d="M998.27,344.35c.24,2.25-.22,4.63,0,6.89l-1.7,1.72-.03-12.91,1.71-.86c.16,1.69-.16,3.47.02,5.15Z"/><path class="uuid-42159424-8cef-44e2-9ad7-eda84cd80c6f" d="M960.39,368.45c-3.05-2.38-1.61-8.25-1.72-12.05h1.72v12.05Z"/><path class="uuid-d958d97b-cf3f-4c5e-856b-4cec3b20536a" d="M955.23,316.8c-1.85-1.4-1.24-3.58-1.72-5.16,1.64-8.36,1.32.06,1.72,5.16Z"/><path class="uuid-eb09a906-0013-4fa6-8ec1-759bfcfd024b" d="M1029.26,280.65c6.73-1.76,13.91-1.83,20.66,0,29.42,3.59,4.06,26.06-12.93,25.98-5.46-.03-22.13-8.92-23-13.29-1.32-6.67,10.01-12.15,15.27-12.69Z"/><path class="uuid-d906c6f4-976f-47fc-bff1-b27dc0def95c" d="M920.18,264.22c.42.21,4.67,2.35,4.9,2.55,8.33,7.04,14.04,17.56,18.1,27.63-12.9,2-19.24,2.78-30.08-5.2-18.44-13.57-23.32-40.16,7.08-24.98Z"/><path class="uuid-956d82d2-ce17-42fc-8865-18bb5f268528" d="M972.44,242.77c6.7-1.7,13.99-1.89,20.66,0,2.84.82,1.55,1.72,1.06,3.62-.87,3.45-8.8,17.16-12.23,17.14-2.49-.01-30.02-18.02-9.49-20.76Z"/><path class="uuid-64571768-2e8d-443b-a92b-ca61639ca77d" d="M993.1,242.77c-2.3-.67-17.43-.43-20.66,0,4.94-2.93,16.07-2.87,20.66,0Z"/><path class="uuid-e66ebe50-8434-4f65-adb9-f16c1135ab76" d="M1049.92,280.65c-5.17-.63-15.39-.54-20.66,0,4.94-2.93,16.07-2.87,20.66,0Z"/></svg>