<?xml version="1.0" encoding="UTF-8"?><svg id="uuid-2740d360-30aa-4e89-ad11-4bd3ee86b1e3" xmlns="http://www.w3.org/2000/svg" viewBox="0 0 1874.25 1882.44"><defs><style>.uuid-ae6fa201-d1f1-4d68-a006-5b1826e33731{fill:#5f8db8;}.uuid-8cff2034-e17b-42f2-bbf9-06c64566f330{fill:#6991b4;}.uuid-ab5bbba4-0e29-4b6d-985a-21f3c007f9f0{fill:#ffd100;}.uuid-5fa7fe9f-c55e-43d8-b7ff-4f0f488250e9{fill:#f6da64;}.uuid-a918f714-943e-46f7-889d-2bd5d3a0d20a{fill:#191107;}.uuid-29bb4e4a-ea14-4d1c-adb7-8340083dafa2{fill:#d2f1f9;}.uuid-c98a261f-99fe-4656-8280-634db11697f3{fill:#37100a;}.uuid-5a7ed346-e507-4357-a39f-7d9b46fdc783{fill:#e0e4bc;}.uuid-f7382ee0-0368-42a7-8728-83cf845c16a9{fill:#699ac4;}.uuid-dac84742-07a5-40c2-90c3-7ea81064222a{fill:#e9d891;}.uuid-b6514eda-2ee0-4a50-a4e0-77cdd083cd58{fill:#e9d795;}.uuid-21977802-8712-41a8-8723-c445b19030b1{fill:#d8f3f9;}.uuid-d0aa2af5-848c-44d9-9465-03148fa4c300{fill:#f9f3d3;}.uuid-0f0fbe34-0d79-4baa-bd37-b63c03d03eb8{fill:#eed981;}.uuid-9157d849-efa9-4341-a40e-22123e052656{fill:#dcf1f8;}.uuid-b91b39ec-2e99-4b2f-af40-d7bb5e74d395{fill:#07080d;}.uuid-b1421ec4-68d2-4fd5-b2f9-d1e7b1f8692b{fill:#23180e;}.uuid-ee198fcc-7c70-4fba-825b-2bae48e4d8fe{fill:#3c97e6;}.uuid-31687a3b-1b30-4c13-a3a7-8b414d4aa9d8{fill:#240b05;}.uuid-5e9acc68-4cc0-4ac9-8679-90d4da74dfc4{fill:#ecfcfd;}.uuid-489b336b-1563-4f52-940c-e7b8fde6c11c{fill:#0f0903;}.uuid-7f5a8f2d-73cf-40eb-b43e-19df57545532{fill:#5b8fba;}.uuid-2ec065b3-19e3-495e-8707-7aa939041ad6{fill:#628db4;}.uuid-ad5d14f2-238e-4d2a-9328-8604a32c4414{fill:#f6eca9;}.uuid-217673d6-9172-47dd-be0c-1f95dd08fef9{fill:#3d97e4;}.uuid-4d9fd0de-f1c7-4465-af0b-9cb6b8f929f9{fill:#0b0202;}.uuid-80892f95-b582-455d-8273-5b16efa925b3{fill:#d8e7d7;}.uuid-d1869b0b-89dc-48b8-a1b2-0cb38f812c06{fill:#140d03;}.uuid-7b86d01f-f05c-49d5-acb8-ddd64787f946{fill:#6fa1ce;}.uuid-b2fff0e0-9d41-49da-8884-f37b46adea35{fill:#ebd88d;}.uuid-37d54008-4f0b-4e0a-b694-096b36313bcf{fill:#d0e9fe;}.uuid-5df9fe31-6889-4590-a1f1-3b635e5bee62{fill:#e8f7fb;}.uuid-f016bef1-8411-4963-a24f-2346ba7bcd79{fill:#230b05;}.uuid-0536d4fe-0af7-4e68-989e-0a5358ea9516{fill:#ddf4fa;}.uuid-92c8f2e4-7548-473d-8064-4c79fdf351ed{fill:#e4f7fb;}.uuid-6178d389-dc9b-4be3-b50d-214f7086a26d{fill:#5e8db7;}.uuid-327d05c7-42ed-4797-9789-7b97e977ce5e{fill:#d9f4fa;}.uuid-73a868d2-859f-4694-a121-fc53a9ba4094{fill:#06070c;}.uuid-c19533f3-3612-4903-9725-562009395e2a{fill:#f2db6b;}.uuid-0ee06778-2041-47d8-9c52-bd1ae670878a{fill:#d5f4fb;}.uuid-ec686d37-2477-4c7c-b209-e12da81b9ce6{fill:#140c04;}.uuid-f76b013a-ee9d-4e2e-a589-c03b078fc6de{fill:#d0edf4;}.uuid-b7838f10-9207-426e-a245-bcf6e18be25b{fill:#cfe7fa;}.uuid-643167ea-c861-435e-965d-08b47a47e51b{fill:#edd981;}.uuid-154f923c-fa35-4679-8f4b-4ff1a3099410{fill:#4498e2;}.uuid-496a905b-cf21-4cad-87e6-acbe5bc90f01{fill:#e3f9fc;}.uuid-821a4ecd-884b-40c5-9cf2-b353da743f93{fill:#e8d895;}.uuid-609f088c-126c-41e2-9610-4334d3ee860b{fill:#ecd887;}.uuid-b8586581-a4ec-411c-94ab-19f495ee926e{fill:#180f04;}.uuid-3a60cd53-9ebe-4ff3-bc19-3a0dd804e2e9{fill:#ede18e;}.uuid-f93f2c29-6329-46ab-9c57-e160e8765947{fill:#def4fa;}.uuid-eeee2933-59eb-4f1e-b569-e75d52a8aefc{fill:#5c8ebb;}.uuid-b7774fd7-5692-4f08-8dc6-e8cf14f99d9f{fill:#f2da70;}.uuid-22eec614-73ee-4597-bb4a-ea7e68be5375{fill:#0b0602;}.uuid-8d86c935-ae0f-4328-b98e-ecacde4a6d48{fill:#e7f9fc;}.uuid-84542412-2ca8-46e4-8d72-91960e157c42{fill:#efda77;}.uuid-488565bb-1ace-4b83-96a7-93d1fd70eac8{fill:#e9da86;}.uuid-a23a5b6f-a4a4-450b-9f50-a77c59a38854{fill:#2c0f09;}.uuid-5d041363-29b6-4f9e-8997-f03e7590b863{fill:#47140c;}.uuid-901f89d7-6ec2-4a77-ba58-fd8eb3109182{fill:#ebd98d;}.uuid-4d9d3e4f-7bc6-4036-87b5-206a56bee708{fill:#221c03;}.uuid-dc091349-7e2c-41da-b524-a3491694f537{fill:#e3f6fa;}.uuid-72e8d108-e8c1-4805-becd-4a51a0ffb3d2{fill:#eed882;}.uuid-e0a8478a-e7d6-4bbb-bc41-f51f1ad76217{fill:#fdfdfc;}.uuid-fc95090f-2df7-4e39-b5ea-057d6babea8f{fill:#ebd98f;}.uuid-7a061300-a3a8-432e-ad52-e9bda910bfe3{fill:#efd981;}.uuid-f3708a90-90a3-42ca-808c-325e282899e0{fill:#020308;}.uuid-f07dcb28-ff36-4424-8c0b-ef717fbfa3b6{fill:#d7f7fb;}.uuid-2d507b79-994a-4efb-9e9a-154cc426816f{fill:#0c0202;}.uuid-19d34ed3-597d-472e-9844-d69a094b59a4{fill:#1c1206;}.uuid-980b5eb1-df69-4a77-a7a7-8d92c760ce04{fill:#d9f1f8;}.uuid-7281433f-9059-4fa5-bc3b-703fd6370762{fill:#618db5;}.uuid-5d00e4a8-622f-4892-8286-0cb375c388b3{fill:#e58c7d;}.uuid-a7a6ab63-e058-4adf-89b2-3f8837441fb5{fill:#f6f0be;}.uuid-ebcf32bf-5678-4bf5-8598-c773d2cb2404{fill:#f6f1bb;}.uuid-9514eb50-0c5d-4b4f-a23b-3f00bf3bbbf9{fill:#f1da75;}.uuid-9f07ef0c-ee22-40b7-9cd6-5724b73d4228{fill:#d0eef7;}.uuid-32d311c9-1a9a-444d-a551-31f28a4940f7{fill:#5e8fb4;}.uuid-c09dab6c-814c-4118-8139-3d226b3db435{fill:#dcce8a;}.uuid-6394eaa3-97e3-41e3-91fc-8d6f43e43bb0{fill:#e9fbfd;}.uuid-46c94712-010b-46e1-a50d-06a086f509f6{fill:#ecda81;}.uuid-8e75f5ef-e392-42ac-89b5-e19b5dd5bb77{fill:#fff;}.uuid-62ef00e4-c13e-4046-a478-54f69826b3c6{fill:#c2dcef;}.uuid-f962bb4b-4d8b-4141-aecb-43cdd155dd70{fill:#250b05;}.uuid-dc148b9a-cdbb-44f8-bd8f-529cf69e732a{fill:#fee5dc;}.uuid-82c25f3f-3d90-41b4-b366-ac1cacbe062b{fill:#f4e48a;}.uuid-46abd655-5d43-4e70-9083-32ce3363996e{fill:#f4e388;}.uuid-a8dae074-9a9a-4b43-ac8a-ce8c7eca66e9{fill:#f5f0b8;}.uuid-0c454f1c-592f-498d-9c13-ca019fefc3ed{fill:#f2d976;}.uuid-76813641-0767-40f1-97bd-d3f2873b0a8c{fill:#fae16f;}.uuid-0516fe75-2836-4832-8000-221ac5ccf367{fill:#f8f4ca;}.uuid-5a0c4d68-4ea6-4856-8128-da126ca9fc29{fill:#5f8eb9;}.uuid-47160be5-1738-4833-a281-c005dd028fd7{fill:#0e0803;}.uuid-e643d5de-5ed2-4478-b67f-5e16afc1131c{fill:#f8f4cc;}.uuid-7a10ed76-11b5-4831-bece-ffa2a51404e2{fill:#edd982;}.uuid-835c4ee9-1af0-405f-91f5-b6714bb9491d{fill:#608db6;}.uuid-775b3bcb-6be4-4674-963d-a2ed5607e8d8{fill:#fafafa;}.uuid-e66b02a8-a8bb-4858-a2e8-9e2dfefa3306{fill:#220b05;}.uuid-dfb270d2-880a-4576-bdf8-cd7ea7e0fea0{fill:#0f0802;}.uuid-209bf757-2bde-4ef6-a17f-8fd9d7bbf955{fill:#efd880;}.uuid-6fbc179b-bd4d-4655-b2f3-b5b8fba9d385{fill:#3c97e5;}.uuid-887fa086-3c04-4a90-be93-f40f8be5b084{fill:#0f0803;}.uuid-cc605934-3107-4d2c-9ba2-6844a1f5a96f{fill:#efd97e;}.uuid-88c05a57-6d1d-42df-8de6-00d0e1dd4231{fill:#141620;}.uuid-08af5252-838e-41f9-86d8-e7735cea9dab{fill:#ebd986;}.uuid-6f62e32d-4d2d-47ac-bf30-6ff3909b7aac{fill:#0d0602;}.uuid-13349cb9-17be-4e5e-a336-e6521d28fb00{fill:#efd973;}.uuid-6e2e0160-9e3e-4c2c-86b1-63f7d95a2ded{fill:#e3f8fc;}.uuid-5c50c90d-8f58-4ece-a0bc-9efe7982f622{fill:#e2e4b3;}.uuid-c06f49b9-6c24-44c5-923a-ff6f2ad2dab0{fill:#dcf6fa;}.uuid-1e11e2ff-1678-4484-95e3-9f8e7980945b{fill:#0a0501;}.uuid-993149f5-d055-457c-8ab0-974939679763{fill:#faf6d5;}.uuid-f4f8d7cb-60fb-4423-aee9-edcef6cdcaaa{fill:#e8fbfd;}.uuid-35e62c8e-af10-4be9-90d4-30b2cdf1e02e{fill:#f3da6d;}.uuid-08f09332-e729-4e1a-a1e4-cbdd23421707{fill:#f8d5ce;}.uuid-31e39def-b2ea-4273-934e-cfc464dd9934{fill:#f6eca8;}.uuid-ddf03bc2-9e31-460c-aeb5-9b7ad6ec6aa3{fill:#181302;}.uuid-0f0a9c8b-02d2-4f8d-a327-05c09c10f072{fill:#f2df78;}.uuid-0e47fc0c-6b77-4370-be7f-94325748a6b4{fill:#3d97e5;}.uuid-9fbd60ad-27d6-4c68-b223-efbf5dfa700e{fill:#628db3;}.uuid-c1a85b55-fc9c-4131-aa6f-b0ebfc2f25c6{fill:#638db2;}.uuid-ee9693f5-b755-465e-9222-efa7a03f166d{fill:#f5e387;}.uuid-9f29d3d5-8ab7-4263-b4ae-eb5d39701a87{fill:#ecf9fc;}.uuid-ab254435-db79-43a6-ac3b-085974682274{fill:#eed880;}.uuid-36cae034-0462-4ecf-bf71-c03d8b0388ed{fill:#e5d37b;}.uuid-00639543-0acb-4c1e-881e-03c9302ffce2{fill:#3e97e4;}.uuid-bc233177-ce36-4752-9d98-c2da172713b6{fill:#eed883;}.uuid-2a882c92-90eb-47f1-818f-34cb7f8baae2{fill:#e4e4b0;}.uuid-4e9886ab-d42f-4563-9a43-61acfce9d32c{fill:#f3da6c;}.uuid-8c9b60d2-ca32-4500-a9eb-fb12127bd8b5{fill:#edd980;}.uuid-62e25699-a93e-4d49-81f6-dd53b8a69131{fill:#f8e47b;}.uuid-9f3bc51f-7eb5-4e87-beb4-c0f16009285b{fill:#2b0f08;}.uuid-6fa2a120-3b73-431f-bdd7-8b2a89fa481f{fill:#eeda7a;}.uuid-b8335df7-1b4d-4a8e-b46e-c03fbacc22e8{fill:#dee5cf;}.uuid-5906df06-27e2-412b-94c4-1c69d386e564{fill:#04060a;}.uuid-d991f059-80ee-446c-9ebe-b3ec1e0f7d0f{fill:#f0d97c;}.uuid-c7dca5d3-fbbc-47a9-a651-412fc52f38b5{fill:#5b9cd2;}.uuid-9f0ac95f-f62f-4dfe-9a8b-15df333a1e7a{fill:#191105;}.uuid-3e80f3c8-1d64-4039-a018-41a8dfa3d43b{fill:#f7f0b6;}.uuid-421a2da3-6c04-4d3a-becb-43d5291fd705{fill:#100a02;}.uuid-50d887e2-03fd-42aa-9c12-c162aeb43d15{fill:#5c8eb9;}.uuid-b27346ff-c889-4e30-95d2-c382327c2d08{fill:#edd97f;}.uuid-4edf8b65-07b9-4efa-adb0-b34163b992fd{fill:#efd97d;}.uuid-87714642-03cb-4033-8543-458408b8e458{fill:#ead98e;}.uuid-b62977c1-f30e-4da8-81c9-20a467abbabc{fill:#e8da8e;}.uuid-8ef7d8d1-eb61-42d4-88af-ce4f82ff7076{fill:#390c08;}.uuid-e288ccbc-40b7-43ce-8e9e-f5978ee9afb6{fill:#e3e4b2;}.uuid-9e2db62a-f9bc-4a97-9c4e-bd1bd99e4074{fill:#e3f7fb;}.uuid-904e8c45-7f80-4d68-8d7a-80f62032f760{fill:#5b9bd1;}.uuid-494021e3-ca4a-4282-a251-1500a7fbfe68{fill:#effdfd;}.uuid-af819b3b-913b-40fb-a10a-a67920e249a8{fill:#100902;}.uuid-384eca9a-d0e7-4f63-8c42-11a807d0c5db{fill:#5f8eb3;}.uuid-938becd8-f118-4529-848a-a34e4631226a{fill:#e9e29f;}.uuid-6798b0f9-966a-45d3-99da-115145e0faa5{fill:#d6ecf5;}.uuid-ba64f273-75f3-4284-a142-58c6e3d3a2ec{fill:#ebdb82;}.uuid-818429bc-c0f8-47ac-ba20-e51752cc796f{fill:#f5de70;}.uuid-7568fcb3-aff5-45fa-a13b-53f5d506d294{fill:#f2de7a;}.uuid-ac74b2b9-8e0c-43dd-ab8e-9d72559e8c31{fill:#f0db73;}.uuid-7a03e2bb-20fc-452a-bc03-aa5adc60cb69{fill:#e5f9fd;}.uuid-df74c8ec-499c-4f66-958d-f38b482496bf{fill:#e0f8fc;}.uuid-6f38f1eb-8cb7-4d80-a85c-aeb6f4be814c{fill:#ebda83;}.uuid-d60862a0-75f4-4517-9692-1cd9cbd848e0{fill:#edf6fb;}.uuid-ef1d7e7c-d01b-4de7-8a62-0f9cc115a2a4{fill:#f4db69;}.uuid-4b040229-bc0c-45fc-9113-cbfd541ba9b3{fill:#618eb2;}.uuid-a8ee9425-3244-42bb-acda-0348973be447{fill:#5593c9;}.uuid-1fdefb5e-9ca9-4096-a3b5-201082e9dfe1{fill:#628eb0;}.uuid-85cdd835-f6d1-4327-bb88-7ec335c68a21{fill:#d9e7d7;}.uuid-2d6f809f-881e-4c70-a222-56343a1e2f60{fill:#e8f9fc;}.uuid-3040f195-4720-42ea-8aa2-75e09a368b32{fill:#fdfdfd;}.uuid-5dcfa3c6-90f7-4ae2-999f-1b8a808959de{fill:#100a03;}.uuid-e744e7f6-094b-4930-9c44-6378d0dc9f81{fill:#3d180a;}.uuid-658047bb-0a45-4a78-ac55-2840d576bac9{fill:#f0db6e;}</style></defs><path d="M848.84,848.33c-18.47-4.17-36.27-11.36-53.88-18.29-6.27-2.47-14.32-8.48-20.75-10.2-11.77-3.14-31.54-1.89-45.76-5.03-36.46-8.04-72.88-27.22-72.8-69.95.06-32.52,24.86-30.11,39.18-46.2,7.24-8.13,17.29-31.38,16.52-42.25-.23-3.3-4.81-19.37-6.87-21.09-1.76-1.47-16.15-6.11-20.88-8.69-31.03-16.91-56.4-42.78-57.44-80.09-1.48-53.25,63.25-62.17,93.11-91.25,10.82-10.54,21.87-30.36,33.88-42.64,7.8-7.97,34.22-26.03,37.8-30.89,3.09-4.19,5.17-17.58,12-27.14,32.14-45.02,80.35-46.74,127.55-63.75,45.84-16.52,65.48-41.3,118.27-24.19,21.59,7,42.7,22.37,42.04,47.54,23.51,3.7,39.25,15.98,55.46,32.34,18.64,18.81,25.97,23.04,46.72,38.5,10.91,8.13,30.99,27.39,40.32,32.72,11.57,6.62,43.59,11.8,58.93,17.59,60.66,22.92,74.91,80.5,27.92,126.91-10.04,9.91-21.26,22.22-31.3,31.3-8.9,8.05-53.33,34.38-53.35,43.45,0,3.12,4.14,6.85,6.86,8.21,19.51,9.76,37.98-6.81,56.67-11.49,6.41-1.6,26.54-5.32,30.71-1.12,6.58,6.62,10.14,61.57,9.55,72.31-3.48,62.98-90.29,90.63-142.24,101.19-8.47,1.72-18.52,1.2-26.6,2.97-16.89,3.69-38.55,20.93-57.28,23.59-2.93-3.79-5.84-5.93-8.99-11.01-21.06-33.91-29.15-73.9-32.79-113.24.4-3.13,24.91-24.19,29.66-29.62,16.93-19.35,30.9-44.07,38.23-68.73l3.46,5.21,3.71,1.15c5.8,18.08,34,7.87,26.95-10.06l2.39-3.27c19.8-17.3,21.94-56.4,5.79-76.22-7.75-.59-17.65-2.13-24.91-4.65-14.8-5.13-29.29-17.44-36.52-30.43-3.45.52-5.19-2.38-5.22-8.7-7.36-15.38-13.09-31.6-20.87-46.96-7.45-3.09-14.04-16.5-12.17-24.35-9.56-17.16-21.2-33.87-32.13-50.23-26.48,15.25-50.59,15.6-78.09,3.06-13.33-6.08-36.71-26.64-51.43-17.96-9.49,5.6-8.25,29.29-10.95,39.47-5.23,19.69-21.91,33.53-40.94,39.06-9.62,2.79-19.39-.71-23.3,9.66-12.61,33.41,1.19,51.95,3.58,82.37,2.77,35.41-26.77-4.73-38.9-4.73-10.47,0-22.38,20.46-24.74,29.34-4.66,17.54-2.55,42.33,9.96,56.04l2.06,3.6c-9.61,19.61,21.68,29.15,27.31,9.86l3.67-1.28c10.08-4.83,10.03,8.97,13.61,16.82,13.97,30.65,33.9,58.31,61.2,78.32-1.34,49.54-16.95,108.14-53.94,143.12Z"/><path class="uuid-8e75f5ef-e392-42ac-89b5-e19b5dd5bb77" d="M849.37,850.26c-6.17-.63-12.07-2.21-18.05-3.68-12.62-3.27-24.99-7.56-37.29-11.78-6.76-2.21-13.1-6.65-19.53-8.86-4.43-1.46-10.42-1.49-15.38-1.75-10.67-.33-21.46-.05-32.27-1.94-19.16-3.55-38.27-9.82-54.32-21.88-14.78-11.03-25.08-28.15-27.35-46.57-1.58-12.53-.84-26.21,6.74-37.08,4.19-6.27,10.63-11.02,16.6-14.64,7.36-4.56,12.11-6.59,16.78-11.98,1.39-1.8,2.6-3.94,3.7-5.96,3.55-6.88,6.68-14.77,8.14-22.42.27-1.49.47-2.86.39-4.3,0-.06,0,.04,0,.07,0,0,0,.14,0,.14,0,0,.02.14.02.14,0,.04-.02-.05-.02-.08,0,0-.05-.23-.05-.23-1.01-4.27-2.51-8.89-4.13-12.92,0,0-.15-.37-.15-.37,0,0-.13-.28-.13-.28,0,0-.13-.28-.13-.28l-.06-.14s-.03-.05-.03-.05l-.06-.1s-.07-.14.03.07c.63,1.08,1.47,2.08,2.45,2.86.49.45.99.8,1.56,1.13.25.14.1.06.16.11.03.03.07.05.1.06,0,0-.22-.08-.22-.08l-.63-.25c-5.84-2.27-11.81-4.05-17.75-6.69-.2-.09-.47-.22-.75-.35,0,0-.8-.4-.8-.4l-.4-.2s-.26-.14-.26-.14c0,0-.51-.28-.51-.28,0,0-4.11-2.25-4.11-2.25-1.38-.73-2.72-1.56-4.07-2.37-29.88-17.59-53.68-45.26-57.24-80.86-3.46-28.82,8.43-51.78,31.04-68.92,20.75-16.31,45.36-24.45,64.11-40.74,5.49-5.12,9.19-10.59,13.97-17.17,6.04-8.44,12.56-17.93,19.98-25.76,1.21-1.33,2.76-2.79,4.09-3.99,10.63-9.5,22.29-17.17,32.89-26.22.12-.1.17-.15.22-.2,0,0,.16-.16.16-.16,0,0,.33-.3.33-.3-.49.44-.74.9-1.15,1.5,0,0-.14.25-.14.25-.04.08-.03.04-.04.07-.02.02-.03.05-.04.07,0,0-.03.09-.01.04,0,0,.07-.17.07-.17.05-.13.09-.17.18-.43,2.55-6.97,4.98-15.19,9.03-22.16,13.42-22.22,35.85-39.47,59.33-49.24,27.5-11.73,56.01-15.84,83.45-25.45,10.43-3.62,20.29-8.17,30.57-12.79,17.1-7.92,36.03-15.29,55.48-14.97,38.48.67,89.89,22.47,88.03,67.57,0,0-9.34-11.22-9.34-11.22,5.57,1.04,11.11,2.57,16.45,4.63,15.47,5.79,29.27,16.95,40.23,28.33,7.1,7.34,13.41,14.24,20.97,20.75,8.06,7.06,19.25,15.27,27.76,21.95,12.3,9.78,23.27,21.17,35.67,30.63,5.51,4.18,11.58,5.81,18.48,7.93,14.54,4.4,29.83,7.1,44.08,12.71,52.81,20.67,76.18,72.02,41.63,120.98-1.15,1.69-3.5,4.69-4.82,6.37,0,0-2.6,3.01-2.6,3.01-.67.78-1.94,2.23-2.66,2.95-9.77,9.9-19.19,20.19-29.08,30.02-1.79,1.81-3.84,3.7-5.71,5.44-10.06,8.24-20.91,14.98-30.97,22.61-3.96,2.94-7.87,5.93-11.48,9-2.7,2.42-5.58,4.75-7.44,7.65-.13.21-.11.3,0,.02,0,0,.09-.32.09-.32.07-.37.11-.77.1-1.14-.06-.31-.02-.48-.12-.73,0-.05-.02-.1-.03-.15-.03-.06-.02-.06-.02-.08,0,0-.02-.03,0-.01.08.09.44.59.96,1.04.57.53,1.3,1.05,1.89,1.33,4.01,1.86,8.15,2.38,12.76,1.61,8.75-1.58,17.28-6.49,25.95-10.32,4.93-2.23,10.54-4.27,15.91-5.42,10.32-2.05,29.23-6.6,36.87,2.49,1.16,1.32,1.67,2.29,2.4,3.6.72,1.32,1.11,2.54,1.63,3.81,0,0,.38,1.12.38,1.12,0,0,.37,1.11.37,1.11,5.17,18.92,6.75,38.15,8.31,57.45,6.72,67.35-63.58,103.02-118.39,119.71-10.67,3.26-21.42,6.11-32.28,8.5-8.54,1.89-17.55,1.55-25.81,3.3-8.17,2.26-16.75,7.64-25.03,11.87-10.59,5.44-20.43,10.81-33.35,12.9,0,0-9.46,1.5-9.46,1.5,0,0-6.72-8.07-6.72-8.07-3.02-3.41-6.99-7.34-9.6-11.53-3.83-6.03-7.67-12.73-10.79-19.16-16.14-32.51-23.09-69.3-26.61-104.53.3-2.83.88-5.69,2.14-8.26.79-1.69,1.75-3.1,2.82-4.52,3.37-4.32,7.39-8.1,11.12-11.77,6.08-5.94,12.18-11.36,17.93-17.28,9.49-11.15,17.58-23.66,23.96-36.85,3.9-8.08,7.17-16.49,9.65-25.05,0,0,11.88-40.85,11.88-40.85,1.93,2.71,26.39,39.04,27.54,40.65,0,0-10.78-8.07-10.78-8.07,0,0,3.72,1.12,3.72,1.12,0,0,13.2,13.08,13.2,13.08-.9-3.2-6.23-6.21-9.16-3.79-1.87,1.27-3.07,5.42-2.2,7.42,0,0,2.53-19.66,2.53-19.66.57-.85,2.91-4.01,3.51-4.9,12.91-9.98,14.62-36.62,4.84-49.07,0,0,14.81,7.74,14.81,7.74-15.03-1.07-31.17-4.25-44.41-12.08-14.31-8.39-25.64-18.98-34.18-33.68,0,0,21.96,10.79,21.96,10.79-.62.09-1.24.15-1.86.21,0,0-.93.06-.93.06-.24.01-.79.03-1.03.02-8.92.22-17.87-5.11-22.08-12.93-2.73-4.63-3.67-10.14-3.94-14.69-.06-.92-.06-1.67-.08-2.52l2.1,9.2c-7.51-15.7-13.21-31.69-20.65-46.51,0,0,10.93,10.14,10.93,10.14-1.48-.72-3.31-1.51-4.62-2.39-1.18-.82-2.55-1.63-3.64-2.58-11.26-9.37-18.25-24.51-17.3-39.19.07-1.5.47-3.46.78-5,0,0,2.13,15.39,2.13,15.39-9.25-16.67-20.29-32.63-31.02-48.89,0,0,28.19,6.59,28.19,6.59-5.45,3.02-11.14,5.85-17.26,8.17-27.36,10.66-56.07,7.09-81.75-5.62-10.11-5.14-19.29-12.59-29.14-16.69-1.73-.68-2.84-.95-3.76-1.14.09.01.3-.06.72-.15,1.48-.31,3.64-2.45,4.01-3.02.4-.55.41-.7.32-.56-.09.16-.28.63-.48,1.21-2.46,8.54-2.36,18.28-4.48,27.35-.25,1.12-.68,2.53-1.03,3.63-1.02,3.45-2.46,7-4.06,10.21-9.72,19.84-28.58,33.8-49.45,39.67-1.82.56-4.25,1.03-6.15,1.35-2.76.48-8.84.82-9.89.99-.05.02-.1.02-.16.01.05,0,.14-.03.19-.06.08-.08.2-.08.32-.14,1.24-.63,2.49-1.51,3.26-2.74.21-.2.34-.48.44-.74.08-.1.13-.21.13-.35,0,0-.13.36-.13.36-8.02,20.19-3.14,33.83.75,54.19,1.03,5.55,1.99,11.4,2.44,17.43.55,5.37.71,11.92-.8,17.99-2.37,10.08-11.22,17.63-21.74,17.04-13.09-.88-22.09-10.97-31.77-17.94-.86-.64-1.67-1.21-2.35-1.65-.67-.44-1.24-.75-1.3-.79-.05-.04.1.02.53.11.6.15,1.8.19,2.26.17,1.2-.08,1.82-.39,1.96-.48.16-.12-.1-.02-.47.23-5.32,4.12-9.65,11.44-12.11,17.6-3.99,14.16-3.28,33.53,6.82,44.76,0,0,.44.82.44.82,0,0,1.97,3.65,1.97,3.65,0,0,3.57,6.62,3.57,6.62,0,0-3.16,5.95-3.16,5.95-.36.68-.52,1.15-.59,1.25-.06.11-.11-.18-.26-.38-.14-.21-.28-.22-.17-.04.59.87,2.54,1.21,3.48.98.64-.13.71-.36,1.14-1.24,0,0,2.7-6.48,2.7-6.48,2.3-.73,6.44-2.07,8.66-2.78,0,0-1.23.51-1.23.51,6.93-3.4,15.58-2.68,20.96,3.16,4.85,4.95,6.2,13.15,7.84,18.89.24.88.78,1.95,1.12,2.77,12.26,28.65,30.39,55.13,54.96,74.55,0,0,3.6,2.86,3.6,2.86,0,0-.24,4-.24,4-3.51,52.08-20.71,110.04-61.64,144.82h0ZM848.31,846.41c34.03-38.4,46.31-91.17,46.25-141.41,0,0,3.36,6.85,3.36,6.85-9.07-6.27-17.59-13.37-25.39-21.18-16.48-16.64-29.87-36.19-40.26-57.12-2.66-4.64-3.91-10.83-5.72-14.97-.23-.53-.48-.53.23.29.34.37,1.09,1.04,2.05,1.47,1.06.59,3.26.86,4.27.57.09,0,.12,0,.16-.03-.02.03-.05.05-.08.06,0,0-1.23.51-1.23.51l-3.64,1.38s7.66-8.07,7.66-8.07c-.91,3.24-2.44,6.64-4.82,9.68-12.12,15.89-39.35,12.26-47.16-6.19-3.27-7.26-2.2-16.06.97-22.64,0,0,.41,12.57.41,12.57,0,0-2.16-3.55-2.16-3.55,0,0,1.74,2.38,1.74,2.38-16.32-17.94-19.53-45.36-14.55-68.09,2.19-8.9,6.3-16.36,11.32-23.78,6.41-8.91,14.83-17.58,27.03-18.3,7.47-.47,14.74,3.55,20.43,7.42,5.87,3.83,11,8.55,16.92,11.51.09.03.05-.02-.22-.1-.32-.1-.88-.27-1.96-.32-1.11-.06-2.93.05-4.94.86-3.39,1.29-6.04,4.26-6.93,7.07.11-6.22-1.5-13.77-2.92-20.44-2.52-11.17-5.6-21.2-6.72-33.09-.88-9.57-.31-19.79,2.02-29.27,0,0,1.17-4.7,1.17-4.7.53-1.59,1.82-5.72,2.38-7.34,3.71-10.06,11.74-16.96,22.23-19.13,5.63-1.31,9.28-.88,13.17-2.07,10.93-3.37,21.63-11.54,25.71-21.77,0,0,.4-1.13.4-1.13.13-.38.31-.74.41-1.13,0,0,.32-1.16.32-1.16,0,0,.17-.57.17-.57,0,0,.09-.29.09-.29,0,0,.02-.13.02-.13,0,0,.03-.13.03-.13,2.24-15.38,1.41-32.93,12.67-45.74,7.62-8.67,20.44-11.96,31.42-10.23,8.1,1.13,14.57,3.94,21.22,7.2,8.9,4.42,15.67,9.34,23.75,13.5,4.03,1.92,8.85,3.54,13.16,4.83,26.6,7.26,41.6-4.75,63.57-16.94,14.84,22.33,31.01,44.23,44.31,67.85,0,0,2.13,15.39,2.13,15.39.08-.25.14-.5.18-.76.05-.23.04-.59.07-.68.07-.25,0-.5.03-.74,0-.3-.03-.3,0-.16.06.29.31,1.07.67,1.77.35.7.82,1.34.98,1.5.07.09.06.03-.24-.2-.62-.47-1.36-.93-2.14-1.2,0,0,10.93,10.14,10.93,10.14,8.62,16.91,14.59,34.27,22.61,50.6,0,0,.58,6,.58,6,.01.13,0,.36.01.4.01.03,0,.16,0,.06-.04-.15-.03-.56-.54-2-.27-.72-.62-1.5-1-2.16-3.37-6.11-11.03-9.9-17.95-8.77,0,0,21.96,10.79,21.96,10.79,4.8,8.51,14.21,16.44,23.42,20.22,9.18,3.5,20.18,4.12,30.09,4.98,0,0,5.59,6.94,5.59,6.94,12.18,15.22,16.36,35.24,15.01,54.04-1.43,18.79-8.87,38.28-23.66,51.08,0,0,3.07-3.35,3.07-3.35,0,0-2.42,3.25-2.42,3.25s2.53-19.66,2.53-19.66c7.31,18.28-2.04,38.33-20.51,45.06-18.48,7.01-38.93-2.29-44.75-21.33,0,0,13.2,13.08,13.2,13.08l-3.7-1.19-6.98-2.24c-1.8-2.83-5.42-8.27-7.21-11.07,0,0,35.92-5.38,35.92-5.38-3.33,10.8-7.63,21.19-12.72,31.21-8.42,16.47-18.81,31.82-31.22,45.55-8.74,8.9-19.01,17.02-27.28,25.73,1.51-2.18,2.48-4.81,2.79-7.45,0,0,.07-4.15.07-4.15,2.69,31.61,7.83,62.17,20.96,90.54,2.19,4.87,5.15,10.28,7.86,14.91,2.13,3.7,5.21,6.12,7.98,9.89,0,0-16.18-6.57-16.18-6.57,12.4-2.08,24.62-10.02,36.67-15.43,5.52-2.5,12.43-5.49,19.62-6.99,9.48-2.03,19.1-1.05,28.33-2.81,43.88-8.39,117.32-28.45,130.7-76.36.46-1.97.96-4.08,1.21-6.1.3-1.91.56-4.23.58-6.13.13-16.77-.89-34.39-3.1-50.87-.51-3.43-1.01-6.57-1.9-9.79-.18-.64-.47-1.57-.68-2.11-.03-.07,0,0,0-.03-.04-.12.17.26.37.45.34.28.64.65,1.04.88.26.21.65.38.74.43.37.14.28.08.18.04-.18-.05-.44-.11-.8-.17-1.44-.23-3.61-.26-5.76-.17-6.49.37-13.64,1.28-20.05,3.13-12.4,3.86-23.32,10.89-36.97,12.61-7,.94-14.62-.07-21.02-3.23-8.4-3.93-15.94-13.6-9.91-22.62,2.96-4.47,7.07-7.86,11.01-11.09,13.72-11.06,29.32-19.84,43.06-30.31,8.84-7.76,18.2-17.69,26.58-26.02,0,0,5.4-5.37,5.4-5.37l2.5-2.56,1.25-1.28s1.18-1.34,1.18-1.34l2.36-2.67s2.21-2.78,2.21-2.78c0,0,1.11-1.39,1.11-1.39.36-.47.68-.96,1.03-1.44,23.06-31.37,18.21-67.86-14.11-90.56-8.76-6.03-18.5-10.73-28.69-13.82-12.01-3.49-24.26-5.87-36.43-9.12-7.85-2.16-16.31-4.48-23.03-9.43-12.9-9.2-24.28-20.16-36.93-29.49-13.77-9.79-29-19.83-41.32-31.44-17.43-16.6-33.42-32.14-58.09-34.94,0,0-9.16-1.16-9.16-1.16l-.18-10.06c.04-13.73-10.06-23.91-21.89-29.75-13.03-6.4-29.55-9.92-43.41-9.25-9.89.57-18.84,3.36-28.06,7.47-9.56,4.25-19.61,9.9-30.49,15.06-10.78,5.22-22.52,9.87-33.89,13.6-32.81,11.02-63.38,15.69-88.63,36.64-6.24,5.29-11.77,11.47-16.39,18.25-1.58,2.68-2.56,4.99-3.76,8.28-1.73,4.79-3.19,10.3-6.07,15.62-1.49,2.57-3.33,4.8-5.47,6.78-2.46,2.33-5.29,4.58-7.9,6.64-9.29,7.35-18.75,13.86-27.37,21.5-2.99,2.96-5.52,6.04-8.19,9.47-18.73,24.94-24.4,36.55-53.3,52.76-14.23,8.16-30.74,15.8-42.99,24.85-12.88,9.37-20.7,20.69-19.28,37,.51,12.75,5.31,24.97,12.9,35.24,9.17,12.35,21.79,21.91,35.08,29.62,5.03,2.55,11.42,4.72,16.79,7.1.65.26,1.48.69,2.12.98,3.41,1.56,6.46,4.4,8.16,7.69.85,1.61,1.49,3.09,2.1,4.76,2.28,6.44,4.02,12.68,5.16,19.39,1.89,14.63-9.02,38.18-17.6,49.92-1.7,2.35-3.81,4.67-5.96,6.61-5.88,5.59-15,10.1-20.64,13.08-5.51,3.01-10.07,5.79-12.22,11.63-1.39,3.86-1.86,8.54-1.76,12.95.1,7.1,1.47,14.27,4.5,20.68,3.96,8.53,10.78,15.91,19.23,21.82,12.54,8.81,29.13,14.88,44.32,18.15,13.38,2.5,27.9,2.06,41.24,5.92,7.66,2.52,13.57,7.78,20.48,11.13,12.08,5.38,24.14,10.89,36.51,15.51,4.01,1.48,8.04,2.89,12.11,4.16,1.32.48,1.97.62,3.12,1.25h0Z"/><path class="uuid-ab5bbba4-0e29-4b6d-985a-21f3c007f9f0" d="M770.58,884.86l3.82.09c5.91,11.74,12.81,23.18,20.72,34.32l-.2,3.85c3.06.68,4.47,1.4,1.74,3.48,1.45.01,2.12.2,1.74,1.74,3.07,3.01,6.08,6.06,8.9,9.29s5.59,6.44,7.91,9.95c54.05,82.1,113.68,172.86,162.8,249.36,60.06-85.74,120.98-171.17,182.7-256.41l11.6-12.19c-2.33-2.53-1.17-4.27,3.48-5.22l.04-3.98c8.43-10.84,15.75-22.05,21.97-33.62l4.08-.67c1.22-.94,25.83-9.19,29.13-10,100-24.58,176.45,48.58,190,142.17,2,5.08,3.16,10.88,3.48,17.39.3,17.57-.62,28.2,3.88,43.92,10.62,37.06,32.25,86.42,37.85,123.03.61,3.02,1.77,5.34,3.48,6.96,1.6,6.95,3.75,13.8,3.49,20.88,10.31,1.04,5.37-1.12,7.03-5.6,14.26-38.43,43.15-83.38,58.92-120.95l26.22-99.54c.36-4.77,8.92-1.15,12.14.49,25.24,14.25,50.57,27.33,75.98,39.23l.57,3.75c-1.83,6.07-2.8,9.38-3.48,15.65-.93,1.84-2.09,4.16-3.48,6.96-1.06,7.8-2.89,12.67-3.48,20.87-.94,1.82-2.1,4.14-3.48,6.96-.93,6.04-2.25,13.09-3.48,19.13l-3.48,6.96c-1.58,5.09,13.19,88.98,13.99,105.14,2.3,46.95-7.18,85.41-10.51,129.63-.72,4.38-1.88,7.85-3.48,10.43-7.84,40.33-24.14,80.97-41.91,116.78-19.86,39.99-75.11,133.74-125.04,144.08-3.02.6-5.34,1.76-6.96,3.48-90.2,14.24-156.39-111.7-177.39-182.6-2.9-3.58-5.21-2.43-6.96,3.48-2.63,8.76-4.25,18.64-6.96,26.09-1.94,1.07-3.1,2.81-3.48,5.22-15.28,37.58-36.68,75.77-62.71,108.19-4.06,5.06-11.1,8.68-13.81,15.28-.27.81-.6,1.54-1.15,2.02-7.1,6.21-29.5,12.35-40.08,14.99-8.67,3.8-15.79,3.92-21.38.38-2.59,1.34-4.91,2.5-6.96,3.48-.52,3.34-1.89,3.14-3.48,0-1.15,2.77-5.7,2.6-6.96,0-2.56,1.3-4.88,2.46-6.96,3.48-2.56,4.41-4.4,4.4-6.96,0-1.15,2.77-5.7,2.6-6.96,0-2.56,1.3-4.88,2.46-6.96,3.48-.98,3.33-2.5,3.33-3.48,0-1.87,2.7-5.2,2.81-6.96,0-5.34.84-9.98,2-13.91,3.48.13,5.34-25.72,7.2-27.15,5.75-.63-.64-1.11-1.43-1.54-2.27-.02,1.34-.27,3.34-1.17,3.48-13.69,2.08-49.85,1.14-64.61,0l-2.04-3.48-2.41,3.42c-1.58.78-32.34-2.36-33.24-6.89-5.27-.81-9.91-1.97-13.91-3.48-.53,3.3-1.91,3.11-3.48,0-1.92-.96-4.24-2.12-6.96-3.48-2.22,2.71-8.3,2.91-10.43,0-2.16,4.71-4.8,4.74-6.96,0-2.85-1.07-6.33-2.23-10.43-3.48-1.68,4.84-5.3,4.9-6.96,0-1.98-.9-4.3-2.06-6.96-3.48l-4.81,3.08c-20.75-4.61-41.23-10.41-61.44-17.4l-3.27-3.39c-7.09-.03-7.79-.26-10.48-6.63-15.04-12.1-33.83-41.01-44.64-57-6.84-10.12-14.95-20.47-21.23-31.43-8.47-14.81-14.6-31.94-24.56-45.47-12.1,33.99-28.71,61.94-45.92,91.5-32.37,44.88-77.02,92.01-138.21,69.14-62.03-23.18-121.17-140.39-142.83-198.9-.4-2.38-1.56-4.12-3.48-5.22-2.44-7.17-5.94-20.35-6.96-27.83-1.32-2.85-2.48-5.17-3.48-6.96-1.75-12.81-5.67-23.06-6.96-36.52-1.25-3.37-2.41-6.84-3.48-10.43-.07-1.15.04-2.32,0-3.48-1.91-2.27-2.93-5.62,0-6.96-.93-5.34-2.09-9.4-3.48-12.17-.05-2.32.08-4.64,0-6.96l-1.83-.95c.48-7.91-.07-15.71-1.64-23.4-.45-44.68-.1-89.25,7.04-132.95,1.01-6.2,7.12-23.01,7.03-27.95-.22-12.35-14.18-46.39-17.14-61.32-.54-2.73-.17-4.94-.41-7.34-.68-3.09-1.84-5.41-3.48-6.96-.13-1.05-.08-2.41,0-3.48-4.94-1.91-3.14-4.88,5.4-8.91,23.36-12.24,47.27-23.89,71.13-35.16,1.48-.7,3.2-.91,4.97-1.11s3.62-.16,5.45-.04c2.88,9.14,5.88,18.48,6.96,27.83.82,4.4,1.98,7.88,3.48,10.43,1.41,5.31,2.67,7.96,3.48,13.91,1.32,2.85,2.48,5.17,3.48,6.96,2.09,15.32,7.66,30.87,12.88,45.38l59.3,125.04c4.33-14.42,9.83-28.71,14.3-43.09,9.45-30.43,21.16-66.59,28.3-99.5,1.62-1.41,2.77-3.73,3.48-6.96,1.39-5.91,6.09-15.21,6.86-20.1,1.6-10.13-.32-24.64.1-35.55,1.11-4.67,2.27-9.31,3.48-13.91,1.34-11,3.38-20.63,6.96-31.3,1.61-1.26,2.77-3.57,3.48-6.96,7.13-34.37,50-78.98,82-92.78,30.72-13.25,63.23-15.31,95.84-7.67,4.35,1.02,25.58,7.53,27.37,10.02Z"/><path class="uuid-8e75f5ef-e392-42ac-89b5-e19b5dd5bb77" d="M1081.88,411.82l.65,5.04c-1.87,3.46-41.48,3.83-45.86-1.56-4.33,2.8-6.65,2.8-6.96,0-4.36,3.48-6.34,6.44-5.46,12.91-3.15,2.24-4.17,12.09-1.49,14.92,1.47.4,3.21,1.56,5.22,3.48l4.26-4.77c10.24-3.42,52.02-12.98,59.18-8.1.98.67,1.83,1.53,2.65,2.44,11.53,10.46,19.64,31.37,20.87,46.96,2.45,6.11,3.1,10.53-3.48,5.22l-2.76.72c-22.21-17.43-54.24-13.05-67.46,12.75l-2.82.44c-1.42,3.32.18,5.1,3.48,3.48-2.88-3.04,2.86-12.62,6.96-12.17l4.73.4c7.39,24.76,44.03,16.02,28.81-8.79l1.25-3.79c10.04-5.52,24.45,7.03,31.69,15.05l3.09-1.14c-3.63-3.29-3.05-5.47,1.74-3.48l4.48.73c13.26,20.69,34.78,29.57,58.55,31.49,14.66,16.22,15.83,43.54,7.69,63.21-2.56,6.19-7.77,17.98-15.07,15.88l-3.89.08c-9.25-13.22-26.95-5.94-25.87,9.49l-3.28,2.6c-14.4,37.8-38.31,68.03-68.04,93.68,3.79,45.41,13.96,82.2,39.45,119.44.86,1.26.07,3-.97,4.27.46.6.42,2.84,1.68,4.34,22.66,27.11,53.23,40.05,87.02,47.83-.42.32-2.74,7.74-4.18,9.75-7.02,9.8-15.09,19.02-21.91,28.51-10.16,1.93-11.32,3.67-3.48,5.22-29.22,40.55-57.69,81.45-85.9,122.8-37.19,49.35-71.67,99.96-108.02,150.25l-3.12-2.17-23.86-38.3c-52.81-75.65-101.87-155.22-153-232.57,2.34-1.31,5.82-1.31,10.43,0l2.4-1.69c44.99,8.5,89.37,9.6,133.15,3.33-33.83.91-68.07,0-101.99-1.49-1.83-.08-3.64-.64-5.48-1.25s-3.68-1.47-5.47-2.38l-24.35-1.74c-.53,3.38-9.56,2.01-12.17,0-6.72-10.14-14.71-19.84-21.36-30.03-1.56-2.39-2.09-7-2.98-8.23,17.12-4.84,38.19-8.91,53.91-17.39,2.72-.18,4.46-1.34,5.22-3.48,5.6-3.53,14.17-10.96,19.13-15.65l1.59-6.47c34.22-36.33,45.92-86.84,49.46-135.22-31.48-22.19-54.66-56.87-66.51-92.77l-5.42-3.79-3.4-1.97c-.31-13.35-17.04-20.93-25.78-9.84l-3.86-.37c-12.06-1.21-15.31-24.6-15.68-35.57-.64-19.01,13.36-62.09,38.19-50.77,23.72,21.05,32.78,21.37,27.2.96l-6.87-34.74c-2.93-23.31-3.35-57.28,28.23-55.54,30.89-9.42,41.82-29.1,43.04-59.76,2.72-24.55,22.11-25.44,40.12-14.85,31.65,22.18,65.22,30.67,101.51,11.27,6.74,2.92,30.82,42.54,31.2,52.92Z"/><path d="M848.84,848.33c-18.47-4.17-36.27-11.36-53.88-18.29-6.27-2.47-14.32-8.48-20.75-10.2-11.77-3.14-31.54-1.89-45.76-5.03-36.46-8.04-72.88-27.22-72.8-69.95.06-32.52,24.86-30.11,39.18-46.2,7.24-8.13,17.29-31.38,16.52-42.25-.23-3.3-4.81-19.37-6.87-21.09-1.76-1.47-16.15-6.11-20.88-8.69-31.03-16.91-56.4-42.78-57.44-80.09-1.48-53.25,63.25-62.17,93.11-91.25,10.82-10.54,21.87-30.36,33.88-42.64,7.8-7.97,34.22-26.03,37.8-30.89,3.09-4.19,5.17-17.58,12-27.14,32.14-45.02,80.35-46.74,127.55-63.75,45.84-16.52,65.48-41.3,118.27-24.19,21.59,7,42.7,22.37,42.04,47.54,23.51,3.7,39.25,15.98,55.46,32.34,18.64,18.81,25.97,23.04,46.72,38.5,10.91,8.13,30.99,27.39,40.32,32.72,11.57,6.62,43.59,11.8,58.93,17.59,60.66,22.92,74.91,80.5,27.92,126.91-10.04,9.91-21.26,22.22-31.3,31.3-8.9,8.05-53.33,34.38-53.35,43.45,0,3.12,4.14,6.85,6.86,8.21,19.51,9.76,37.98-6.81,56.67-11.49,6.41-1.6,26.54-5.32,30.71-1.12,6.58,6.62,10.14,61.57,9.55,72.31-3.48,62.98-90.29,90.63-142.24,101.19-8.47,1.72-18.52,1.2-26.6,2.97-16.89,3.69-38.55,20.93-57.28,23.59-2.93-3.79-5.84-5.93-8.99-11.01-21.06-33.91-29.15-73.9-32.79-113.24.4-3.13,24.91-24.19,29.66-29.62,16.93-19.35,30.9-44.07,38.23-68.73l3.46,5.21,3.71,1.15c5.8,18.08,34,7.87,26.95-10.06l2.39-3.27c19.8-17.3,21.94-56.4,5.79-76.22-7.75-.59-17.65-2.13-24.91-4.65-14.8-5.13-29.29-17.44-36.52-30.43-3.45.52-5.19-2.38-5.22-8.7-7.36-15.38-13.09-31.6-20.87-46.96-7.45-3.09-14.04-16.5-12.17-24.35-9.56-17.16-21.2-33.87-32.13-50.23-26.48,15.25-50.59,15.6-78.09,3.06-13.33-6.08-36.71-26.64-51.43-17.96-9.49,5.6-8.25,29.29-10.95,39.47-5.23,19.69-21.91,33.53-40.94,39.06-9.62,2.79-19.39-.71-23.3,9.66-12.61,33.41,1.19,51.95,3.58,82.37,2.77,35.41-26.77-4.73-38.9-4.73-10.47,0-22.38,20.46-24.74,29.34-4.66,17.54-2.55,42.33,9.96,56.04l2.06,3.6c-9.61,19.61,21.68,29.15,27.31,9.86l3.67-1.28c10.08-4.83,10.03,8.97,13.61,16.82,13.97,30.65,33.9,58.31,61.2,78.32-1.34,49.54-16.95,108.14-53.94,143.12Z"/><path class="uuid-37d54008-4f0b-4e0a-b694-096b36313bcf" d="M777.54,1601.36c5.2,4.18,7.35,2.31,12.73,3.5,1.32.29,1.04,3.15,2.36,3.44,21.55,4.75,42.75,16.19,64.9,17.41,1.98.9,4.3,2.06,6.96,3.48,2.31.12,4.64-.07,6.96,0,2.85,1.07,6.33,2.23,10.43,3.48,2.32.07,4.64-.06,6.96,0,2.04,1.84,5.19,2.41,9.44,1.72l1,1.76c1.23-2.63,5.8-2.78,6.96,0,1.15.06,2.32-.05,3.48,0,3.8,1.5,8.44,2.66,13.91,3.48,11.83.27,26.75,3.48,35.65,3.48h67.82c5.86,0,19.64-3.07,28.69-3.48,2.26-2.84,8.37-2.96,10.43,0,4.77-1.14,8.25-2.3,10.43-3.48,1.16-.02,2.32.03,3.48,0,1.15-2.77,5.7-2.6,6.96,0,2.56-1.3,4.88-2.46,6.96-3.48,2.32-.06,4.64.06,6.96,0,1.15-2.77,5.7-2.6,6.96,0,2.56-1.3,4.88-2.46,6.96-3.48,1.16-.03,2.33.07,3.48,0,2.59-1.34,4.91-2.5,6.96-3.48,18.75-1.04,36.32-9.9,54.45-13.94.7-.16,2.22-5.94,8.16-3.45,51.03,56.34,92.67,122.59,117.31,194.86,2.67,7.84,15.89,49.81,14.63,54.34-1.57,5.64-32.95,19.17-39.81,21.19-42.62,12.56-93.36-10.36-138.23-12.98-162.07-9.49-304.4,53.69-462.04-17.95-5.38-2.44-26.15-11.68-29.2-14.27-4.51-3.82,4.1-24.45,6.13-30.32,24.29-70.08,68.73-143.23,119.22-197.36,1.66-1.78,5.35.57,1.57-4.46Z"/><path class="uuid-8e75f5ef-e392-42ac-89b5-e19b5dd5bb77" d="M1565.34,1003.11c-11.37-32.52-31.19-63.75-39.18-97.34-3.52-14.79-12.71-62.63,16.41-44.24,19.6,12.37,20.25,44.98,29.67,60.76,11.45,19.17,23.52-.47,29.91-11.93,28.54-51.15,40.94-121.48,59.77-176.75,4.31-12.65,20.68-38.64,26.1-12.35,3.75,18.19-11.6,53.47-16.15,72.73-4.97,21.04-7.31,42.14-9.3,63.63,8.26,7.04,14.78-2.16,18.77-8.95,16.01-27.22,25.4-66.93,40.73-96.66,4.34-8.43,29.63-55.88,35.9-24.17,6.39,32.32-22.33,66.94-35.86,95.51-6.35,13.41-10.85,26.74-15.91,40.61-.35,2.87.23,4.03,1.74,3.48,17.84-21.18,36.53-53.5,52.21-77.35,3.06-4.66,14.57-26.99,18.23-27.2,14.45-.86,15.32,16.5,10.9,26.77-18.53,31.63-38.93,62.41-57.01,94.29-2.18,3.85-12.52,21.91-11.98,24.01.21.82,9.55,13.53,12.04,10.83,10.19-12.93,21.62-24.79,31.98-37.58,6.8-8.4,24.55-37.1,32.35-40.69,13.63-6.28,11.9,15.21,9.94,23.85-4.8,21.12-52.91,64.7-68.09,84.95-20.89,27.88-24.88,58.37-54.35,81.3-5.25,4.09-24.27,16.28-30.14,15.95-2.85-.16-21.82-10.17-26.37-12.38-17.31-8.43-34.5-18.38-51.62-27.44l-10.7-3.65Z"/><path class="uuid-8e75f5ef-e392-42ac-89b5-e19b5dd5bb77" d="M269.72,865.73c-6.62-18.67-13.97-36.79-22.83-54.56-9.65-19.35-29.49-45.15-31.04-66.33-.75-10.3.68-34.74,16.31-25.01,6.42,3.99,22.51,36.16,26.59,44.7,11.49,24.05,23.06,67.81,36.39,87.08,3.94,5.7,14.97,15.06,16.4,2.9,4.97-42.2-28.82-96.65-24.46-134.03.99-8.48,7.03-13.59,14.94-7.91,11.29,8.11,16.21,45.89,20.39,59.6,10.19,33.46,22.48,71.47,35.22,103.91,5.01,12.75,24.67,70.01,43.28,48.66,5.32-6.11,10.84-32.7,16.87-44,13.24-24.85,36.4-38.1,34.53,3.24-1.83,40.39-29.71,81.8-43.45,119.14-26.61,12.72-54.44,26.73-79.4,38.86-.56.27-.48,2.12-1.96,2.81-3.72,1.73-5.1-2.95-5.59,3.55-17.11-7.84-34.59-17.57-46.92-32.21-14.47-17.19-20.17-39.5-32.37-58.06-17.91-27.23-74.58-73.91-75.53-103.73-.25-7.79,1.23-17.27,10.98-14.36,8.93,2.66,51.64,71.58,66.45,79.63l10.69-13.01c-16.14-27.69-32.18-55.48-48.41-83.13-7.71-13.14-27.1-35.09-23.65-50.4,1.51-6.7,9.78-13.63,16.15-8.17,19.48,30.8,39.02,61.6,59.62,91.66,2.66,3.88,6.89,7.7,9.08,10.92,1.05-.05,1.6-.65,1.74-1.74Z"/><path class="uuid-6fbc179b-bd4d-4655-b2f3-b5b8fba9d385" d="M778.31,232.24c-19.77-4.21-22.32-16.25-17.39-34.78h-68.69c-.18,0-2.61-2.42-2.61-2.61v-53.04c0-1.56,19.28-1.64,20.98-19.89s-6.89-22.07-20.98-29.68v-47.82h68.69c3.94,0,.67-9.79.76-12.97.57-20.41,14.1-30.65,34.39-23.91,6.65,2.21,14.59,14.92,14.59,22.1,0,5.97-3.75,9.16-3.66,14.78h69.56v48.69c0,.88,10.74.43,16.54,5.19,13.36,10.94,9.93,38.18-7.4,43.09-2.65.75-9.14-.04-9.14.42v55.65h-69.56c7.91,15.81,1.04,30.27-15.65,34.78-3.4,1.4-6.99,1.12-10.43,0Z"/><path class="uuid-ee198fcc-7c70-4fba-825b-2bae48e4d8fe" d="M1631.43,380.52c3.2,2.66,3.78,2.08,1.74-1.74-.75-1.11-3.89-4.9-3.48-5.2h34.77s-17.38,6.96-17.38,6.96c-.69,4.13.68,4.01,4.26,3.39,15.19-2.66,18.03-11.89,38.42-10.42,29.92,2.17,52.4,16.4,76.9,30.83,11.02,6.49,22.62,12.61,33.54,20.42.42.3,6.82,5.53,3.41,6.2.02,1.44-.49,2.56-1.7,2.47-4.66-.81-11.63-1.92-16.13-1.63-.13,0,.1,1.16.44,2.64l15.65,1.74c2.64-1.26,5.54-1.26,8.7,0,3.22,2.27,7.27,7.05,8.7,10.43l2.6.45c.42,4.34,1.78,16.27,6.09,13.46-2.34-6.4-1.76-8.72,1.74-6.96,4.5,4.75,9.87,10.81,15.65,13.91.91.53.88,1.11,0,1.74-.12,2.17-2.44,3.33-6.96,3.48l.2,2.43c-5.79.66-22.44,9.65-15.17,13.91,25,3.24,48.47,18.08,44.06,46.29l2.22,1.72c3.87-6.73,4.6,2.22,3.48,6.96-4.97,37.29-35.63,49.13-69.56,52.17-.81-3.12-1.39-3.12-1.74,0-11.96,1.07-29.98-1.79-36.52,12.17-2.13,8.4-10.25,2.8-10.95-4.13,6.72-30.04-.39-38.25-27.48-48.54-4.83-.55-19.11-3.57-20.08-8.42-.29-1.45,3.62-25.65,4.55-28.98,8.23-17.87,13.47-36.03,15.74-54.48.32-.95,17.46,2.34,19.08,3.68,4.72.83,9.36,1.41,13.91,1.74,11.07-5.56,14.94,8.88,8.7,15.65l1.74,10.43c1.57.97,3.3-.77,5.22-5.22l-1.74-19.13c-3.58-.21-9.87-2.65-12.17-5.22-5.55,1.16-32.29.02-34.75-2.22-1.73-1.57-5.22-7.26-2.28-8.02,14-3.16,34.78-14.02,34.09-30.62-.16-3.8-1.6-10.98-4.01-6.1,1.29,4.01,1.27,8.15,0,12.17,6.94,5.06-8.29,15.01-13.98,18.31-2.45,1.41-15.23,7.52-16.38,7.67-4.42.58-30.11-11.7-25.29-19.02-5.73-.45-4.77-6.56-1.44-10.3-.27-3.59.21-7.69,1.44-12.31-.36-3.88-1.81-2.7-4.36,3.55l-2.59-.07c-1.51,3.09-2.71,3.48-3.48,0l-2.08-1.37c1.78-33.06-36.04-29.79-53.16-11.83l-2.15-.71-2.1-.5c-2.11-6.08-5.46-9.97-10.07-11.67l-2.36.85c-6.49-6-4.41-3.54,6.24,7.39,6.36,14.09,14.16,26.74,23.39,37.96,21.55,8.95,40.28,28.67,30.12,52.93-2.44,9.42-13.23,16.23-20.87,20.87-.09,3.12-3.49,1.69-5.22,0l-2.35,1.22c-7.86-4.71-17.11-7.99-26.27-6.23-3.29-.67-5.21-1.25-5.73-4.74-18.64-17.52-37.18-40.34-33.52-67.69l-1.7-2.55c-1.76,7.83-12.61,1.23-5.22-3.48.04-6.72,15.29-10.53,21.34-10.51,9.1.02,12.9,2.4,20.31,7.27,6.68,4.4,19.04,17.66,15.75,24.98,1.06.14,1.88.31,1.9.53.28,3.88,1.38,34.23.38,35.71-.42.62-1.28.93-2.27,1.16.27-.73.56-1.44.95-2.1,1.81-3.12,2.07-32.73-.1-39.82-5.85-19.08-37.55-33.43-55.28-39.5l-1.22-3.79c-4.7-.9-9.33-1.48-13.91-1.74-2.5,2.08-3.46,1.1-1.74-1.74,1.05-5.2-.69-8.91-5.21-11.14-.73-3.39,6.33-13.21,10.43-9.73,19.18-11.78,35-4.14,56.17-4.87,1,.3,7.15,5.48,8.18,6.61Z"/><path class="uuid-6fbc179b-bd4d-4655-b2f3-b5b8fba9d385" d="M1403.61,540.52c5.11-8.25,13.59-14.2,25.44-17.84,6.49-2.53,9.88-6.19,10.17-10.99,1.13-1.66,34.8-16.29,36.66-15.52,3.25,1.34,4.64,7.13.77,7.83l1.74,8.7c7.79,3.11,6.77,16.38-3.99,18.67-3.31.08-5,1.06-5.08,2.94-27.75-2.69-54.18,9.14-58.43,39.31-.67,4.78-2.66,19.53,3.15,15.6-1.41-5.56-1.41-11.35,0-17.39-4.86-6.28,4-18.29,9.18-23.62,12.33-12.68,25.79-14.3,42.58-13.9,5.36-1.34,12.83-4.14,16.84-8.51l2.7.81c2.45.3,5.55,2.49,5.22,5.22l13.25.27c1.62,11.74,7.26,19.17,16.93,22.27l-2.35,3.55c-1.45,11.49-20.21,14.32-30.16,14.4-3.59-2.08-8.03-2.25-13.32-.49-3.51,2.63-8.69,5.79-13.62,5.74-4.2,2.71-8.36,4.85-12.47,6.44-7.4,9.34-18.64,25.48-12.28,35l1.85-1.95c-1.25-2.88-1.23-5.78,0-8.7-5.28-6.14,5.55-20.22,12.17-22.61,2.02-4.8,16.46-13.96,17.7-5.13,9.41,6.83,19.9,12.65,31.47,17.46,5.6,9.06,7.35,10.64,5.25,4.73.29-11.83,2.97-19.79,17.48-14.67,17.87,8.82,35.54,10.74,55.05,9.79,14.29-10.35,28.42-20.63,32.41-39.82l2.37-1.92c-2.77-.7-2.28-5.24,0-6.96l3.53-2.3c2.26-7.8,5.02-14.25,14.1-11.04,9.48,8.76,16.16,14.29,29.16,16.76,20.24.68,41.69,3.13,53.43,22.07,8.94,18.14,20.38,32.86,42.62,31.07l2.83,5.38c2.32-1.65,2.45.31.41,5.89,1.14,6.93-.43,16.51,1.52,24.12-4.63,2.89-10.64,2.89-15.25,4.76-9.76,3.97-18.43,9.84-27.49,14.22-16.6,8.03-14.97,11.47-33.99,5.16-17.79-5.9-27.29-13.96-46.53-16.95-4.34-1.2-4.36-2.03,0-3.48,7.72-2.79-10.62-5.78-10.43-1.74,1.03,2.69-4.39,3.05-6.86,1.98l1.64,1.49c.13,1.63-6.94,3.47-9.13,5.16-3.41,2.63-1.6,5.56-8.26,7.01-.84,2.52-3.19,3.61-7.05,3.29-42.75,13.67-84.52,25.35-126.86,7.14-.46-.74.11-2.41-1.75-4.33-1.22-1.25-3.65-1.73-5.21-2.63-4.15,1.15-5.8.76-4.94-1.17l-27.39-8.82c-4.62-1.33-7.76-3.8-9.4-7.4-22.39-15.53-33.02-83.05-17.39-104.35Z"/><path class="uuid-ab5bbba4-0e29-4b6d-985a-21f3c007f9f0" d="M1515.58,310.71l-166.46-10.69,39.62-51.2c-72.55-70.71-155.88-128.91-246.55-174.2L1176.14,0l6.54.03c95.77,47.99,185.67,108.69,261.42,184.72l40.55-49.01,30.93,174.97Z"/><path class="uuid-ab5bbba4-0e29-4b6d-985a-21f3c007f9f0" d="M253.21,233.74c1.26-.5,4.27.34,6.07-.02,5.23,29.97,2.64,60.08,3.97,90.17.99,22.48,6.56,44.95,4.12,67.71-3.08.7-4.83-.76-7.3-1.89-4.34-1.98-14.18-11.42-18.47-14.25-8.38-5.53-18.5-10.39-26.81-16.24-1.86,10.28-11.65,15.87-16.88,22.76-37.08,48.8-74.87,112.68-100.29,169.2-8.39,18.66-14.4,38.92-22.34,57.83-.81,2.08-2.69,1.06-4.23,1.2-2.78-.77-4.81-2.12-6.07-4.05-.76-.6-6.07.46-8.1,0-1.46-2.02-3.49-3.37-6.07-4.05-8.69-3.29-17.6-5.78-26.31-8.1-1.61-1.9-4.31-3.25-8.1-4.05-5.46-1.29-10.12-4.66-16.1-4.14-.28-2.88-.51-6.02.04-8.88,3.61-18.98,26.78-62.15,35.59-80.8,21.31-45.14,47.05-91.46,77.01-134.4,6.55-9.39,25.06-36.43,33.01-43.01,2.51-2.65,2.51-5.35,0-8.1-9.23-3.66-19.45-11.63-26.8-16.82-2.37-1.68-17.05-10.57-17.69-11.56-3.1-4.82,3.75-3.77,4-4.01,3.4-1.01,6.1-2.36,8.1-4.05,34.75-4.95,71.29-23.7,105.25-28.34,3.31-1.54,6.01-2.89,8.1-4.05,6.33-.86,12.13-2.36,18.22-4.05,2.15-2.24,5.13-3.35,8.1-4.05Z"/><path class="uuid-6fbc179b-bd4d-4655-b2f3-b5b8fba9d385" d="M466.1,708.46c-3.88-1.53-3.59-7.56-4.29-11.1-3.53-17.76-7.82-35.79-7.92-53.87-2.47-.4-4.22,2.95-4.83,3.07l-36.68,6.89,61.4-122.99,4.3-1.16,100.6,85.33-41.33,12.27c-.66,3.55-.45,7-.04,10.58,4.32,37.3,17.23,72.88,24.97,109.33,3.04,10.83,4.26,13.49,3.67,7.99,4.82,11.73,11.21,28.42,14.16,40.74,2.64,8.79,3.73,10.76,3.28,5.89,8.79,17.7,15.21,36.72,25.3,53.81l-74.53,37.17c-5,.14-12.3-21.91-14.68-26.9-1.84-8.89-3.07-11.56-3.67-7.99-8.44-18.65-16.33-34.53-21.11-54.63-2.99-10.93-4.21-13.59-3.67-7.99-3.03-7.4-3.76-10.52-5.64-18.47-3.38-13.58-5-18.34-4.85-14.28-3.2-10.73-5.6-19.49-8-31.05-2.95-8.3-4.95-16.86-5.99-25.67l-.44,3.01Z"/><path class="uuid-6fbc179b-bd4d-4655-b2f3-b5b8fba9d385" d="M1518.39,394.43c.36-3.58,6.72-3.14,6.88-.41-8.68,20.49-19.7,39.43-33.08,56.81-3.82,5.99-7.94,14.06-7.42,21.36.55,7.8,16.23,38.53,22.27,43.79,13.47,11.72,32.4,14.56,47.74,4.73,7.7-.99,18.24,7.52,19.75,15.56,26,19.37,1.91,43.71-16.44,57.14-.29.21-.13,1.05.15,2.06-11.01,2.33-22.81-.09-35.4-7.23-13.5-3.42-15.29-1.9-18.19,11.72-9.21-4.69-18.98-9.07-29.3-13.14-13.17-8.47-11.06-16.19,3.04-11.52l7.83-.76c1.07-2.22,1.93-1.85,2.6.76l12.17-1.74.36-2.52c7.05-2.3,13.31-5.52,18.77-9.65l-1.54-7.5c-10.91-4.36-13.51-14.05-14.11-23.81-9.65.37-15.44-1.37-17.39-5.22l-4.18-.49c-.18-4.38-3.91-27.15-7.12-27.77-11.52,3.63-22.79,8.11-33.81,13.43-2.62-.35-7.46-1.34-7.83-3.59l8.04-16.86c2.06-23.22,11.78-40.6,29.16-52.13l-1.66-1.28c-6.16,2.83-7.6,2.44-3.48-3.48,14.17-13.18,34.16-31.43,52.17-38.26Z"/><path class="uuid-ee198fcc-7c70-4fba-825b-2bae48e4d8fe" d="M1539.26,389.22c5.1-1.53,10.46-1.68,16.08-.43,3.07-2.46,7.12,3.71,6.16,8.86-.54,2.94-3.99.81-1.07,1.2.5.07.97.4,1.43.8.56.1,1.33,1.69,1.74,1.74,1.52.49,1.5,1.07,0,1.74.2,1.47.07,3.27-1.14,3.81-13.28,5.99-27.55,12.27-40.6,17.06-3.56,7.1-4.69,11.9,0,19.13,8.3,5.73,9.44,19.07-3.49,19.38,6.27,12.36,22.37,11.72,33.74,6.67,4.9-.34,3.21,17.7-1.01,20.94-.33,10.22,30.05,24.74,39.06,26.85,2.42,3.73-15.34,14.96-19.85,11.42-10.41-10.27-15.27-8.51-27.76-3.27l-1.56-1.98c-4,1.29-8.15,1.26-12.17,0-5.08,4.97-20.73-4.94-24.9-10.06-2.4-2.94-17.78-32.27-18.38-35.53-1.58-8.58-.11-13.88,3.63-21.6,14.26-19.52,27.13-39.76,35.36-62.09l2.56.6c1.74-1.66,9.47-4.83,12.17-5.22Z"/><path class="uuid-494021e3-ca4a-4282-a251-1500a7fbfe68" d="M1518.39,394.43c-1.43-5.7,6.69-4.85,8.7,0-4.08,3.87-10.2,22.96-14.25,30.1-8.31,14.65-26.69,30.88-25.86,49.01.21,4.47,15.78,33.94,19.24,38.27,6.34,7.95,13.36,9.49,22.6,11.31,4.06,1.23,8.11,1.25,12.17,0,4.46-1.05,17.07-6.87,18.02-6.69,1.94.38,4.83,4.87,7.45,6.43,8.78,5.24,15.75,3.32,21.49-4.94-2.74-.91-6.6-.9-9.03-1.94-7.95-3.4-23.44-13.44-28.24-20.8-5.53-8.46.6-6.53,2.16-11.55,1.17-3.79,0-8.69.33-12.69-3.06,2.36-16.74,2.86-17.38,3.47-.83.81.4,13.58-4.88,22.07-1.09,1.75-9.47,11.91-9,4.88.08-1.19,10.96-10.36,10.35-20.75s-15.82-8.89-17.17-17.73c-.9-5.87,9.62-3.52,10.27-4.13,2.2-2.08-.98-12.46-3.48-15.65-2.3-2.44-1.33-3.34,1.74-1.74,11.08.59,13.39,17.16,4.37,23.7,0,0,7.82.79,23.46,2.38.11-4.99,1.27-7.31,3.48-6.96.9.79.9,1.95,0,3.48,8.14,5.64,5.59,18.53,2.36,26.84,3.04,5.99,14.79,16.59,17.28,6,7.73-8.25,13.58,1.89,7.64,9.85.3,5.87,25.89,6.12,29.67-.96-11.76-11.08-23.34-23.61-29.71-38.78-3.89-9.28-9.71-27.64-1.15-34.26l5.21-3.47c-6.81,21.75,4.32,42.92,18.25,59.14,1.99,2.32,13.29,14.06,14.83,14.74,8.49,3.76,18.47,2.08,31.28,9.59,2.03,1.28,3.77,1.28,5.22,0,6.09-8.04,14.13-13.65,20.87-20.87,2.28-1.28,2.86-.12,1.74,3.48,2.05,3,1.16,5.95-2.67,8.84,1.94,4.09,1.67,6.94-.8,8.55,2.98,6.69-2.63,9.61-3.48,0-7.58-4.74-14.1,6.43-3.2,9.98l-.28,3.93c2.95,2.57,2.95,3.73,0,3.48l-3.42,1.74c-11.02-9.39-22.97-15.95-35.85-19.66-17.18,5.51-33.53,12.66-49.06,21.47,23.68,19.15,6.92,44.2-12.26,58.84,2.94.19,5.17,1.43,6.67,3.7,3.42-.81,4.58-.23,3.48,1.74-7.6,2.22-20.44,2.81-28.59,1.63s-32-14.43-38.99-10.08c-1.38.86-2.38,8.75-2.02,10.96.64,3.97,5.05,5.87,6.23,9.54,1,3.12.39,10.17.76,10.56.62.66,14.48-.3,18.09.17,11.18,1.47,23.64,6.7,34.94,6.89,29.11.48,59.76-30.74,49.6-60.98,4.26-1.24,4.6,3.2,5.03,6.21,4.8,33.96-27.73,60.52-59.89,58.18-14.84-1.08-29.68-8.73-44.88-7.09-3.94,11.89-7.7,19.28-22,17.46-.98-5.88,6.47-2.45,11.12-5.39,6.21-3.91,7.55-24.64-.68-27.65-1.63,32.61-43.68,22.2-49.6-3.48,3.72-3.69,5.82,5.55,7.84,7.83,7.98,9.01,12.28,12.85,25.27,11.33s13.93-11.36,9.63-21.96c-3.17-7.83-19.4-9.98-25.64-13.44-1.84-1.02-7.79-9.08-10.37-9.6-1.43-.29-11.3,5.42-12.8,6.71-2.44,2.3-3.34,1.33-1.74-1.74,9.69-8.33,13.62-9.89,26.09-12.17,13.65-3.98,22.36,2.6,3.48,3.48-2.23.13-13.29-.76-8.72,4.37,7.07,7.96,25.34,11.26,33.95,18.23,1.9-29.06,34.55-1.3,46.26-2.53,9.35-.98,32.38-25.88,34.23-35.27,2.73-13.87-6.43-16.28-12.97-23.64-1.05-1.18-.99-3.97-2.28-5.46-14.67-17.03-18.7-.73-33.95-.73-7.7,0-30.38-10.99-34.73-17.62-2.95-4.5-2.93-10.33-5.63-15.16-1.98-3.55-8.57-9.01-10.16-14.27-7.26-23.93,9.04-35.27,19.78-51.69,7.56-11.55,11.17-25.16,19.42-36.24,1.19-4.14-3.79-1.38-5.2-.84Z"/><path class="uuid-6394eaa3-97e3-41e3-91fc-8d6f43e43bb0" d="M1761.86,465.74c2.54,2.54,1.57,3.42-1.74,1.74-4.04,1.81-9.59,1.45-13.91,0-6.03-.2-11.46-.31-17.38-1.73,1.46,18.53-10.91,34.68-15.18,51.78-1.05,4.18-4.28,25.64-3.5,28.87,1.25,5.14,11.09,5.49,15.18,8.04-7.65-19.17,7.8-27.77,14.63-41.91,2.06-4.27,2.86-8.72,4.33-13.14.9-2.71-1.52-4.97,3.65-4.07,4.12,17.61-20.75,32.51-20.46,47.3.38,19.34,18.53,14.44,27.17,26.87,8.01,11.53.89,27.77,3.97,39.51,1.3,4.96,4.85.49,6.73-.64-.48,1.02.61,4.66-.01,5.19-1.63,1.37-8.59-2.74-6.94,3.51-2.05-12.51-11.11-8.12-19.52-10.91-23.39-7.77-22.06-36.29-48.85-46.8-16.17-6.34-26.03-2.28-39.15-6.07-5.45-1.58-14.12-9.2-19.9-12.8-1.87-1.16-.66-5.32-6.98-3.11s-6.4,13.9-3.14,18.11c5.94,7.66,31.7,6.93,38.41,17.24.25,1.34-1.58,1.03-2.61.88-6.98-1.02-33.58-10.7-38.2-15.72-2.19-2.38-2.18-7.29-6.14-8.65-1.54-.32-1.47-.91,0-1.74,1.57-24.87,19.22-20.93,33.37-5.58l7.62,3.63c32.29,3.09,59.73,6.58,71.89,40.73,1.79,5.71,20.16,16.26,24.2,13.65.85-.55,1.46-18.21,1.08-20.12-1.86-9.48-10.43-12.86-18.79-15.99-23.37-4.52-43.15-13.75-59.33-27.7-6.08,2.08-11.31-3.83-4.39-6.02v-3.48c-1.3-6.76-.15-11.4,3.48-13.91.67,1.03,1.9,3.59,2.61,3.5,1.83.09.41-2.88.87-3.5.44-1.57,1.02-1.53,1.74,0,.6,6.35,1.18,12.73,1.74,19.13l3.43-1.32c2.03,2.06,18.96,12.18,20.82,10.95,1.53-19.49,6.54-38.28,15.05-56.36,5.53-11.13,5.41-19.29-.36-24.47-7.96-2.18-31.09-15.74-23.13-25.05,2.18-2.55,4.58-.81,5.05,2.34,1.72,8.03,17.48,15.9,25.07,15.56s26.48-11.03,30.02-17.87c1.03-1.98.26-3.4.56-4.65,1.24-4.11,1.26-8.08,0-12.17-2.55-9.48-4.99-11.11-12.17-17.37,10.81-1.57,18.39,14.46,18.22,23.49-.36,19.19-20.06,27.77-35.57,33.01,9.8,9.03,23.76,5.3,36.49,7.83Z"/><path class="uuid-5e9acc68-4cc0-4ac9-8679-90d4da74dfc4" d="M1469.69,436.17c7.01-4.62,17.35-10.14,25.52-11.9,3.32-.72,3.24,2.21,2.3,3.18s-21.26,9.3-25.5,11.91c-29.27,17.96-19.87,40.34-35.36,66.36,9.15,5.1,36.31-13.43,40.69-12.08s5.84,25.84,9.75,31.23c.53,1.69-.05,2.27-1.74,1.74-4.86,3.81-8.79,7.89-15.65,6.97.19,6.45,6.18,8.03,7.06,14.68,1,7.53-.93,13.05-6.21,18.34-5.9,1,.8-7.06-.86-8.68-16-.62-27.37,3.9-38.23,15.64-.4-9.2,16.01-17.85,23.56-19.02,6.48-1,15.28,3,17.16-5.32.62-2.75-3.63-10.2-5.95-11.32-6.73-3.25-23.07-.16-29.98,3.09-13.4,6.3-19.56,17.1-22.21,30.83-1.4,6.03-1.4,11.82,0,17.39.22,3.02-.02,5.85.38,9.12.45,3.66,6.91,8.74-.36,11.74-4.75-17.3-9.8-31.14-2.62-48.68,4.23-10.34,20.41-25.47,31.4-27.74,8.81-1.81,37.18-.07,38.23-11.32.37-4.04-2.29-7.36-2.68-9.65l-1.74-8.7c-.71-2.46,1.96-5.81-2.58-5.22-1.53.2-27.07,10.46-28.65,11.38-2.71,1.59-5.24,7.13-8.91,10.22-8.51,7.18-26.12,10.89-32.9,20.14-1.59-2.49-.41-3.46,0-5.22,1.52-3,3.26-4.74,5.22-5.22-1.37-2.19.4-3.87,2.43-5.25l20.24-9.86c-2.78-2.6-3.83-5.54-3.15-8.83,7.88-14.05,12.3-26.96,14.79-43.1,1.21-3.6,3.1-5.6,5.69-5.99,1.47-8.02,12.83-19.92,20.87-20.87Z"/><path class="uuid-0e47fc0c-6b77-4370-be7f-94325748a6b4" d="M1448.82,457.04c-4.66,9.52-4.66,21.98-7.79,31.34-1.98,5.92-8.92,14.39-9.62,19.97-.7,5.56,9.11-.01,6.96,5.18-2.06,4.97-24.04,12.94-29.55,16.55-2.02,1.93-2.6.77-1.74-3.48,12.79-33.76,16.3-45.3,40-73.04,2.45-1.91,3.03-.75,1.74,3.48Z"/><path class="uuid-00639543-0acb-4c1e-881e-03c9302ffce2" d="M1854.03,477.91c7.33,10.18,11.2,19.31,15.65,29.56l3.48,8.7c1.59,10.12,1.3,18.06,0,27.83,2.23-7.72-3.22-6.56-3.48-6.96l-2.36-.36c5.27-29.66-19.15-44.64-45.42-48-5.13-5.06,11.79-12.67,16.88-13.66,3.42-.67,10.19-1.39,10.54.55l4.71,2.35Z"/><path class="uuid-9e2db62a-f9bc-4a97-9c4e-bd1bd99e4074" d="M1845.34,467.47c6.44,3.45,1.42,2.09,3.89,6.55.32.57,3.14,1.58,4.81,3.89-10.74-3.2-23.19.11-31.27,7.83,7.9,4.11,18.05,4.37,26.16,8.59,7.34,3.81,18.73,16.76,20.37,24.85.82,4.08-.27,16.86.39,17.87l-5.24,2.59c8.28-31.08-18.67-48.48-46.95-47.81-1.33-11.21,12.38-15.54,20.88-19.12,3.72-.15,6.04-1.31,6.96-3.48v-1.74Z"/><path class="uuid-7a03e2bb-20fc-452a-bc03-aa5adc60cb69" d="M1803.6,596.17c-.58.05-1.16-.05-1.74,0-2.12-2.64-.69-4.57.91-6.82,15.86-22.32,44.85-19.86,57.28-34.98,1.8-2.2,2.4-6.66,2.69-6.89.67-.53,3.54,1.62,3.2,4.03-2.4,16.57-57.4,23.1-62.35,44.66Z"/><path class="uuid-f76b013a-ee9d-4e2e-a589-c03b078fc6de" d="M1803.6,430.95c.13.08-.42,2.48.51,2.92,2.12,1.01,4.03.6,6.44,2.29-2.9.01-5.8-.02-8.7,0l-15.65-1.74c-3.32-1.11-7.82-3.75-10.56-6.01-1.14-.94-8.78-9.23-6.83-11.37s9.97,9.47,13.89,11.31c6.59,3.08,19.98,2.03,20.88,2.6Z"/><path class="uuid-6798b0f9-966a-45d3-99da-115145e0faa5" d="M1567.08,378.78c-6.24-2.94-10.22,7.79-10.22,7.79,1.15,3.09,10.68,5.73,5,13.08-.32-.06-3.53,3.44-5.21-.88-.58-1.49,3.3-.35,3.56-1.75,1.76-9.58-15.3-8.61-20.96-7.81,2.3-4.01,15.86-.39,17.38-1.75"/><path class="uuid-904e8c45-7f80-4d68-8d7a-80f62032f760" d="M1466.21,432.69c-.42,3.7-.22,3.9,3.48,3.48-7.24,4.77-17.04,13.05-20.87,20.87l-1.74-3.48c6.96-8.15,10.68-13.01,19.13-20.87Z"/><path class="uuid-9157d849-efa9-4341-a40e-22123e052656" d="M1824.47,446.61c1.67,4.59,2.83,9.23,3.48,13.91-.1.91.71,11.17-3.45,6.95-1.36-1.38-3.82-17.49-5.24-20.86,3.19-2.28,3.12-1.94,5.22,0Z"/><path class="uuid-993149f5-d055-457c-8ab0-974939679763" d="M1421,1017.03c5.81-1.74,3.38,11.74,3.48,17.39-3.5-4.83-2.69-11.95-3.48-17.39Z"/><path class="uuid-7f5a8f2d-73cf-40eb-b43e-19df57545532" d="M1636.64,644.86v3.48c-4.99-.78-9.9-2.99-15.65-1.74-.02-.25-1.54-.92-1.76-1.7,2.61,1.17,6.16-1.74,6.98-1.77,1.99-3.68,9.07-1.99,10.43,1.74Z"/><path class="uuid-a8ee9425-3244-42bb-acda-0348973be447" d="M1829.68,453.56c-2.76,1.24-1.49,4.73-1.74,6.96-1.42-3.34-6.56-11.87-3.48-13.91,1.75,1.62,3.46,5.1,5.22,6.96Z"/><path class="uuid-62e25699-a93e-4d49-81f6-dd53b8a69131" d="M1281.87,1450.06l-3.42-1.73-3.53,5.2c1.08-3.58,1.7-7.02,3.5-10.43,4.04.74,2.75,4.57,3.46,6.95Z"/><path class="uuid-a8dae074-9a9a-4b43-ac8a-ce8c7eca66e9" d="M551.45,1027.46c.18-4.81-1.17-10.7,3.48-13.91-.57,4.66,1.46,10.71-3.48,13.91Z"/><path class="uuid-76813641-0767-40f1-97bd-d3f2873b0a8c" d="M419.28,1041.37c-5.84,1.43-2.92-5.56-3.48-10.43,4.38,2.35,2.63,7.25,3.48,10.43Z"/><path class="uuid-a7a6ab63-e058-4adf-89b2-3f8837441fb5" d="M1636.64,1357.89c-.37,4.91,2.2,11.89-3.48,10.43.69-3.53-.76-7.99,3.48-10.43Z"/><path class="uuid-08f09332-e729-4e1a-a1e4-cbdd23421707" d="M269.72,865.73c1.06,3,4.58,6.12,3.46,10.43-4.29-.69-3.92-6.82-5.2-8.7l1.74-1.74Z"/><path class="uuid-31e39def-b2ea-4273-934e-cfc464dd9934" d="M1650.56,1062.24c-.46,4.26,1.97,8.04-3.48,6.96.57-4.19-2.08-8.05,3.48-6.96Z"/><path class="uuid-21977802-8712-41a8-8723-c445b19030b1" d="M1633.17,378.78c1.01,1.49,5.04,2.04,3.47,6.95-4.96,1.49-3.18-2.97-5.21-5.21l1.74-1.74Z"/><path class="uuid-ad5d14f2-238e-4d2a-9328-8604a32c4414" d="M422.76,1055.29c5.56-1.09,2.91,2.77,3.48,6.96-5.55,1.09-2.91-2.77-3.48-6.96Z"/><path class="uuid-ebcf32bf-5678-4bf5-8598-c773d2cb2404" d="M1643.6,1090.07c-.31,4.34,1.83,8.04-3.48,6.96.64-4.13-2.14-8.05,3.48-6.96Z"/><path class="uuid-dc148b9a-cdbb-44f8-bd8f-529cf69e732a" d="M1707.95,867.46c-1.48,1.76-2.52,4.71-5.2,5.22-1.6-4.14,2.8-6.88,3.46-8.7l1.74,3.48Z"/><path class="uuid-f7382ee0-0368-42a7-8728-83cf845c16a9" d="M1408.82,530.08c-1.05.69-2.48,4.85-5.22,5.22.95-4.09,2.33-5.66,3.48-8.7l1.74,3.48Z"/><path class="uuid-d0aa2af5-848c-44d9-9465-03148fa4c300" d="M1633.17,1123.11c-.28-3.09.26-6.03,3.48-6.96-1.19,5.87-3.35,6.55-3.48,6.96Z"/><path class="uuid-3e80f3c8-1d64-4039-a018-41a8dfa3d43b" d="M1469.69,1208.33c-5.62,1.1-2.85-2.82-3.48-6.96,2.77,1.64,2.85,4.22,3.48,6.96Z"/><path class="uuid-0516fe75-2836-4832-8000-221ac5ccf367" d="M544.5,1083.11c-.89,3.81,2.39,8.11-3.48,6.96.62-2.85.83-5.09,3.48-6.96Z"/><path class="uuid-9e2db62a-f9bc-4a97-9c4e-bd1bd99e4074" d="M1873.16,516.17l-3.48-8.7c1.41,3.25,2.32,1.29,3.48,8.7Z"/><path class="uuid-46abd655-5d43-4e70-9083-32ce3363996e" d="M321.89,1051.81c5.42-1.08,3.05,2.67,3.48,6.96-2.55-1.63-3.14-4.19-3.48-6.96Z"/><path class="uuid-ee9693f5-b755-465e-9222-efa7a03f166d" d="M565.37,975.29c-.81,3.92,2.31,8.09-3.48,6.96.86-2.56.63-5.15,3.48-6.96Z"/><path class="uuid-82c25f3f-3d90-41b4-b366-ac1cacbe062b" d="M1466.21,1629.18c-1.87,2.49-4.05,3.02-6.96,3.48-1.13-5.79,3.03-2.67,6.96-3.48Z"/><path class="uuid-5d00e4a8-622f-4892-8286-0cb375c388b3" d="M829.71,863.99c.88,4.27-1.49,3.84-5.22,3.48.41-.22,3.78-2.57,5.22-3.48Z"/><path class="uuid-e643d5de-5ed2-4478-b67f-5e16afc1131c" d="M1267.96,1479.62c-1.38,3.78-3.35,4.91-3.48,5.22-.07-4.11-1.17-6.03,3.48-5.22Z"/><path class="uuid-9f3bc51f-7eb5-4e87-beb4-c0f16009285b" d="M1175.79,923.12c-1.2,1.66-2.23,3.49-3.48,5.22-50.28,3.89-106.28,19.55-154.7.79-2.05-.79-6.99-1.75-7.03-4.25,55.08,4.69,110.2-.35,165.2-1.76Z"/><path class="uuid-a23a5b6f-a4a4-450b-9f50-a77c59a38854" d="M807.1,923.12l24.35,1.74c36.7.26,73.58,3.15,110.5,1.81,6.93-.25,14.22-3.22,21.66-1.79l-15.71,7.74c-35.98,11.13-101.91,2.89-139.06-4.28l-12.17-1.74c-.88-1.33-1.23-2.71-1.74-3.48h12.17Z"/><path class="uuid-22eec614-73ee-4597-bb4a-ea7e68be5375" d="M1462.74,1290.06c-1.26,2.64-1.84,5.53-1.74,8.7-.38,1.9-1.2,4.04-1.74,6.96.09,4.38-.49,8.44-1.74,12.17-.33,1.9-1.3,5.18-1.74,8.7.06,4.89-.52,9.53-1.74,13.91,1.4,3.74,1.27,11.05-1.74,13.91-.88,18.42-.25,37.86,1.74,55.65l1.74,19.13c-.13,4.05.12,8.14,0,12.18-1.59-.27-4.04.42-5.21-.01l-1.74-10.43c-.24-6.44-1.08-11.75-1.74-17.39-.85-4.92-.85-9.55,0-13.91-1.68-11.71-1.63-26.21,0-38.26-.87-4.26-.87-8.9,0-13.91.65-5.57,1.31-11.18,1.74-17.39,1.2-4.49,1.78-9.13,1.74-13.91,2.43-14.32,5.57-29.74,9.2-43.84.7-2.71,9.71-35.78,13.39-32.68.31,13.37-6.53,27.93-9.63,41.7-.72,3.17-.27,6.39-.78,8.73Z"/><path class="uuid-6f62e32d-4d2d-47ac-bf30-6ff3909b7aac" d="M534.06,1333.54c-4.3-27.38-11.56-52.24-22.28-77.72-2.54-6.03-14.96-20.57-3.83-21.41,9.97,23.46,22.01,46.58,26.14,72.15.33.86.88.98,1.71.89.78,2.01,1.35,4.33,1.74,6.96.55,3.01,1.16,5.78,1.74,8.7-.08,3.14.5,6.04,1.74,8.7.58,3.09,1.35,8.86,1.74,12.17-.26,4.67.35,9.44,1.74,13.91.89,19.03-.66,38.34,0,57.39-1.2,1.12-4.93,1.57-5.92.74-1.62-1.37-.51-35.36.7-40.74-.45-4.37-1.03-9.01-1.74-13.91-.25-6.81-1.01-11.23-1.74-17.39.16-3.74-.42-7.22-1.74-10.43Z"/><path class="uuid-47160be5-1738-4833-a281-c005dd028fd7" d="M1327.09,1255.28l-1.74,8.7c-6.97,31.12-15.21,77.44-25.19,106.11-.87,2.51-1.18,5.18-3.53,6.91-4.25.79-2.6-3.31-2.37-5.85,2.89-31.62,18.08-68.75,22.39-101.96.57-2.47,1.15-4.79,1.74-6.96,1.8-8.49,4.56-15.49,5.22-24.35-.05-2.92.53-5.24,1.74-6.96.83.08,1.37-.03,1.71-.89,1.46-5.81,2.75-24.95,6.98-27.83,1.56-1.06,3.26.98,3.46,1.84.61,2.54-8.9,44.4-10.41,51.23Z"/><path class="uuid-1e11e2ff-1678-4484-95e3-9f8e7980945b" d="M1220.13,1436.18c1.83-.11,3.62,5.13,1.82,6.98l-66.17,133.81-1.82-6.98c21.83-39.04,37.76-82.91,58.84-122.04,1.08-2,6.23-11.7,7.32-11.77Z"/><path class="uuid-489b336b-1563-4f52-940c-e7b8fde6c11c" d="M648.84,1291.8c-1.64-12.95-2.28-26.13-4.93-38.96.4-1.9,3.56-3.74,4.91-2.77,1.15.83,4.64,23.94,5.23,27.82-.14,3.74.44,7.22,1.74,10.43,1.88,12.6,3.51,25.63,5.22,38.26-.15,3.68.43,7.15,1.74,10.43,2.18,16.06,3.63,32.54,5.21,48.69-4.86.78-5.91-6.69-6.95-10.43-.05-4.2-.63-8.25-1.74-12.17-.43-4.22-1.29-8.57-1.74-12.17.14-4.24-.44-8.3-1.74-12.17-.43-4.22-1.29-8.56-1.74-12.17.13-3.67-.45-7.15-1.74-10.43-.54-4.73-1.13-9.24-1.74-13.91.14-3.67-.44-7.15-1.74-10.43Z"/><path class="uuid-5dcfa3c6-90f7-4ae2-999f-1b8a808959de" d="M1344.48,1050.07l-1.74,19.13c-.74,6.32-1.28,12.37-1.74,19.13-1.32,5.07-1.9,10.29-1.74,15.65-.56,7.56-1.33,14.93-1.74,22.61-1.23,6.27-1.81,12.64-1.74,19.13-.02.17-1.42,1.06-1.7,2.63-1.26,7.18,2.7,23.39-6.99,25.19-.1-4.04.1-8.13,0-12.17l1.74-19.13c.72-6.22,1.13-12.6,1.74-19.13,1.3-3.88,1.88-7.93,1.74-12.17.78-8.09.93-16.43,1.74-24.35,1.31-3.87,1.89-7.93,1.74-12.17.51-4.93,2.22-30.38,3.5-31.3,3.95-2.84,5,4.94,5.2,6.95Z"/><path class="uuid-ddf03bc2-9e31-460c-aeb5-9b7ad6ec6aa3" d="M909.71,1434.41c1.48,3.07,1.36,8.93,0,12.17v26.09c-.66,9.46-1.24,18.74-1.74,27.83,1.26,9.26,1.36,18.58,0,27.83.95,7.64.95,15.76,0,24.35-.02.23-1.52,1.53-1.84,4.16-.68,5.59,1.5,17.96.1,21.92-1.35.96-4.82,1.67-5.92.73-1.48-1.26-.47-29.14.7-33.78.69-9.17,1.53-18.28,1.74-27.83.73-9.45,1.31-18.72,1.74-27.83-1.28-8.1-1.29-16.27,0-24.35-1.19-.37-1.12-.96,0-1.74.65-8.92,1.23-17.62,1.74-26.09.13-1.72-.11-3.49,0-5.21,3.1-.97,3.23,1.66,3.47,1.73Z"/><path class="uuid-af819b3b-913b-40fb-a10a-a67920e249a8" d="M1629.69,1130.07c-6.7,1.81-14.11,1.28-20.87,0-17.1-1.93-42.25-9.53-56.22-21.17-1.17-.98-7.69-5.87-2-6.66,2.82-.39,14.85,8.92,18.79,10.74,12.69,5.87,26.64,9.78,40.53,11.65,5.28.71,21.17-2.44,19.78,5.44Z"/><path class="uuid-dfb270d2-880a-4576-bdf8-cd7ea7e0fea0" d="M375.81,1121.37c7.99-1.98,14.56-2.9,22.58-6.12,6.85-2.75,23.09-14.06,26.96-14.79,3.62-.68,3.54,2.93,2.25,4.92-1.11,1.7-21.48,12.39-25.08,14-16.36,7.3-31.52,10.46-49.3,12.41-.07-2.37-.67-4.58,1.68-6.13.58-.38,9.45-1.95,12.22-2.56l8.7-1.74Z"/><path class="uuid-887fa086-3c04-4a90-be93-f40f8be5b084" d="M822.74,1599.61l-5.67-2.17c-8.96-21.88-22.59-42.02-32.05-63.57-3.67-8.36.47-10.1,5.6-2.12,12.54,19.49,21.95,46.75,32.12,67.86Z"/><path class="uuid-421a2da3-6c04-4d3a-becb-43d5291fd705" d="M1055.79,1523.1l-1.74,8.7c-4.93,12.83-8.49,34.91-13.54,44.72-1.26,2.46-2.34,4.6-5.58,3.97-2.38-2.82,17.29-62.24,18.21-71.33,9.6-5.33,3.92,9.36,2.65,13.95Z"/><path class="uuid-a918f714-943e-46f7-889d-2bd5d3a0d20a" d="M688.84,1434.41l1.74,12.17c.46,5.26,3.26,23.76-5.22,15.65l-1.74-12.17c-.36-5.03-1.27-8.45-1.74-12.17l-1.74-12.17c.03-1.88.25-17.18,4.38-10.47,3.3,5.37.73,13.84,4.32,19.16Z"/><path class="uuid-d1869b0b-89dc-48b8-a1b2-0cb38f812c06" d="M867.97,1583.97c-1.74-.01-2.8.89-3.51-1.15-1.52-4.35-10.27-37.75-9.97-39.78.25-1.74,3.57-3.43,4.77-2.54,1.37,1.02,7.8,28.71,8.72,33.04,3.65,1.32,4.26,9.52,0,10.43Z"/><path class="uuid-ec686d37-2477-4c7c-b209-e12da81b9ce6" d="M629.72,1131.81c3.09-.61,4.35,1.51,5.98,3.57s15.46,26.04,15.9,27.61c.65,2.28-.03,5.34-1.89,5.3-2.16-.05-22.47-33.76-19.99-36.48Z"/><path class="uuid-9f0ac95f-f62f-4dfe-9a8b-15df333a1e7a" d="M617.53,1107.45c-10.23,1.2-5.52-1.16-7.36-7.36-1.41-4.73-9.03-24.38-6.54-27.4,3.71-.71,4.04,1.74,5.31,4.24,4.08,8.06,5.38,21.65,8.59,30.52Z"/><path class="uuid-b8586581-a4ec-411c-94ab-19f495ee926e" d="M1281.71,1441.21c-.62.4-4.86.31-5.04.14-1.05-.98,6.75-24.17,8.17-27.47.9-2.1,1.39-6.2,4.84-5.56,3.94.74,1.24,4.29.85,6.01-.76,3.32-7.62,26.12-8.82,26.88Z"/><path class="uuid-19d34ed3-597d-472e-9844-d69a094b59a4" d="M979.27,1570.06c-.84,2.11-5.39,16.91-10.43,12.16-1.11-1.04,10.46-29.99,13.9-26.07.02,2.31.02,4.63,0,6.95-.3,3.6-1.46,5.92-3.48,6.96Z"/><path class="uuid-13349cb9-17be-4e5e-a336-e6521d28fb00" d="M539.28,1375.28c.09,11.52-.89,24.46,0,35.74.42,5.34-.86,4.48,5.22,4.26.46,2.34-6.51,2.16-6.95,1.75-1.51-1.44.1-35.82,0-41.75.49-1.52,1.07-1.5,1.74,0Z"/><path class="uuid-ac74b2b9-8e0c-43dd-ab8e-9d72559e8c31" d="M901.01,1545.71c.53,9.42-.74,19.43,0,28.78.42,5.34-.86,4.48,5.22,4.26-.88,2.5-6.46,2.22-6.95,1.75-1.11-1.06-.55-27.23-.11-30.62.33-2.54,1.82-3.94,1.84-4.17Z"/><path class="uuid-901f89d7-6ec2-4a77-ba58-fd8eb3109182" d="M1447.08,1399.63c-.49,1.52-1.07,1.5-1.74,0-.52-12.11-.52-26.15,0-38.26.49-1.52,1.07-1.5,1.74,0v38.26Z"/><path class="uuid-b7774fd7-5692-4f08-8dc6-e8cf14f99d9f" d="M904.49,1463.97c0,.58,0,1.16,0,1.74-.49,1.52-1.07,1.5-1.74,0,.02-8.84-1.48-20.05,1.74-27.83,1.29,8.68,1.5,17.43,0,26.09Z"/><path class="uuid-b1421ec4-68d2-4fd5-b2f9-d1e7b1f8692b" d="M909.71,1500.49c-.49,1.52-1.07,1.5-1.74,0,.02-8.84-1.48-20.05,1.74-27.83,0,9.25.1,18.58,0,27.83Z"/><path class="uuid-b1421ec4-68d2-4fd5-b2f9-d1e7b1f8692b" d="M902.75,1517.88c.21-9.24-.01-18.58,0-27.83.49-1.52,1.07-1.5,1.74,0-.02,8.84,1.48,20.05-1.74,27.83Z"/><path class="uuid-87714642-03cb-4033-8543-458408b8e458" d="M909.71,1528.32c-.49,1.52-1.07,1.5-1.74,0,0-9.25-.02-18.57,0-27.83h1.74c-.1,9.25.24,18.59,0,27.83Z"/><path class="uuid-4d9d3e4f-7bc6-4036-87b5-206a56bee708" d="M904.49,1463.97c.02-8.67-.02-17.41,0-26.09h1.74c-.64,8.38,1.94,18.79-1.74,26.09Z"/><path class="uuid-0f0a9c8b-02d2-4f8d-a327-05c09c10f072" d="M1069.7,1636.14c2.72,1.4,1.56,2.55-3.48,3.48-3.47.1-6.97-.16-10.43,0-1.71-5.71,8.63-3.32,13.91-3.48Z"/><path class="uuid-b8335df7-1b4d-4a8e-b46e-c03fbacc22e8" d="M923.62,1639.62c-5.27-.12-15.64,2.2-13.91-3.48,4.83.23,10.68-1.21,13.91,3.48Z"/><path class="uuid-dac84742-07a5-40c2-90c3-7ea81064222a" d="M904.49,1490.06h-1.74c.01-8.1-.02-16.25,0-24.35h1.74c-.02,8.1.02,16.25,0,24.35Z"/><path class="uuid-c19533f3-3612-4903-9725-562009395e2a" d="M907.97,1552.66v-24.35h1.74c-.22,8.72-.84,16.17-1.74,24.35Z"/><path class="uuid-5a7ed346-e507-4357-a39f-7d9b46fdc783" d="M899.27,1632.66c4.62.55,4.42,2.15,0,3.48-4.89-.16-11.94,2.02-10.43-3.48,3.47.09,6.97-.17,10.43,0Z"/><path class="uuid-2a882c92-90eb-47f1-818f-34cb7f8baae2" d="M871.45,1629.18c4.88.15,11.94-2.01,10.43,3.48-4.88-.15-11.94,2.01-10.43-3.48Z"/><path class="uuid-87714642-03cb-4033-8543-458408b8e458" d="M1629.69,1130.07c-.46,2.6-11.57,2.15-14.99,1.86-3.13-.26-5.25-1.79-5.88-1.86h20.87Z"/><path class="uuid-7a10ed76-11b5-4831-bece-ffa2a51404e2" d="M1335.78,1145.72c.81-6.03-2.03-14.42,1.74-19.13-.37,6.9-.96,12.72-1.74,19.13Z"/><path class="uuid-d991f059-80ee-446c-9ebe-b3ec1e0f7d0f" d="M1342.74,1069.2c.81-6.03-2.03-14.42,1.74-19.13.77,7.64-1.01,12.85-1.74,19.13Z"/><path class="uuid-84542412-2ca8-46e4-8d72-91960e157c42" d="M1455.78,1429.19c-3.77-4.71-.93-13.1-1.74-19.13.73,6.51,1.98,11.54,1.74,19.13Z"/><path class="uuid-b27346ff-c889-4e30-95d2-c382327c2d08" d="M1327.09,1161.37c-.21-7.6.98-12.57,1.74-19.13-.81,6.03,2.03,14.42-1.74,19.13Z"/><path class="uuid-35e62c8e-af10-4be9-90d4-30b2cdf1e02e" d="M911.45,1434.41c.33-.63-.22-2.41.02-3.47l1.73.86-.03,16.52-1.72-1.74c-1.48-3.07-1.36-8.93,0-12.17Z"/><path class="uuid-85cdd835-f6d1-4327-bb88-7ec335c68a21" d="M1076.66,1636.14c1.51,5.49-5.55,3.33-10.43,3.48l3.48-3.48c2.31-.07,4.64.04,6.96,0Z"/><path class="uuid-fc95090f-2df7-4e39-b5ea-057d6babea8f" d="M544.5,1357.89c-2.26-2.6-3.04-10.42-1.74-13.91.53,4.44,1.47,8.17,1.74,13.91Z"/><path class="uuid-5fa7fe9f-c55e-43d8-b7ff-4f0f488250e9" d="M1455.78,1340.5c0,5.19,2.1,15.69-3.48,13.91.16-3.44,1.36-9.36,1.74-13.91.49-1.52,1.07-1.5,1.74,0Z"/><path class="uuid-6f38f1eb-8cb7-4d80-a85c-aeb6f4be814c" d="M1339.26,1103.98c.66-4.91-1.87-12.09,1.74-15.65-.38,5.53-1.41,11.3-1.74,15.65Z"/><path class="uuid-3a60cd53-9ebe-4ff3-bc19-3a0dd804e2e9" d="M1107.96,1629.18c4.62.55,4.42,2.15,0,3.48-2.31.12-4.64-.06-6.96,0-1.08-5.25,2.6-3.23,6.96-3.48Z"/><path class="uuid-ef1d7e7c-d01b-4de7-8a62-0f9cc115a2a4" d="M867.97,1573.53c4.52-1.94,4.39,5.68,3.52,9.4-.43,1.82-1.91,1.05-3.52,1.04,3.41-4.12.74-6.94,0-10.43Z"/><path class="uuid-9514eb50-0c5d-4b4f-a23b-3f00bf3bbbf9" d="M1459.26,1305.71l-.03,13.94-1.7-1.76c.69-3.94.93-7.78,1.74-12.17Z"/><path class="uuid-7a061300-a3a8-432e-ad52-e9bda910bfe3" d="M1448.82,1330.06c.41-5.84.86-8.73,1.74-13.91-.55,4.35,1.74,10.91-1.74,13.91Z"/><path class="uuid-5c50c90d-8f58-4ece-a0bc-9efe7982f622" d="M1094.05,1632.66c1.08,5.25-2.6,3.23-6.96,3.48-4.62-.55-4.42-2.15,0-3.48,2.31-.12,4.64.06,6.96,0Z"/><path class="uuid-7568fcb3-aff5-45fa-a13b-53f5d506d294" d="M1087.09,1632.66v3.48c-2.3.13-4.65-.05-6.96,0-1.08-5.24,2.59-3.25,6.96-3.48Z"/><path class="uuid-818429bc-c0f8-47ac-ba20-e51752cc796f" d="M899.27,1632.66c4.37.22,8.04-1.74,6.96,3.48-2.31-.11-4.64.07-6.96,0v-3.48Z"/><path class="uuid-80892f95-b582-455d-8273-5b16efa925b3" d="M1114.92,1629.18c1.08,5.24-2.59,3.25-6.96,3.48v-3.48c2.3-.13,4.65.06,6.96,0Z"/><path class="uuid-c09dab6c-814c-4118-8139-3d226b3db435" d="M1455.78,1340.5h-1.74c.43-5.13,1.17-9.36,1.74-13.91,0,4.63,0,9.28,0,13.91Z"/><path class="uuid-35e62c8e-af10-4be9-90d4-30b2cdf1e02e" d="M1447.08,1413.54c-.51-4.39-1.49-8.14-1.74-13.91h1.74v13.91Z"/><path class="uuid-e288ccbc-40b7-43ce-8e9e-f5978ee9afb6" d="M857.53,1625.71c4.36.24,8.04-1.77,6.96,3.48-4.37-.23-8.04,1.75-6.96-3.48Z"/><path class="uuid-4e9886ab-d42f-4563-9a43-61acfce9d32c" d="M1447.08,1361.37h-1.74c.25-5.77,1.22-9.52,1.74-13.91v13.91Z"/><path class="uuid-938becd8-f118-4529-848a-a34e4631226a" d="M1125.35,1625.71c1.08,5.25-2.6,3.23-6.96,3.48-1.08-5.25,2.59-3.24,6.96-3.48Z"/><path class="uuid-b2fff0e0-9d41-49da-8884-f37b46adea35" d="M539.28,1375.28h-1.74c-.08-4.62.17-9.3,0-13.91,3.1,2.88,1.71,9.56,1.74,13.91Z"/><path class="uuid-b6514eda-2ee0-4a50-a4e0-77cdd083cd58" d="M1330.57,1123.11c.42-4.47,1.43-8.97,1.74-12.17-.41,3.81,1.56,9.71-1.74,12.17Z"/><path class="uuid-ab254435-db79-43a6-ac3b-085974682274" d="M661.02,1375.28c-1.52-5.46-1.19-6.8-1.74-12.17,3.3,2.46,1.33,8.37,1.74,12.17Z"/><path class="uuid-e744e7f6-094b-4930-9c44-6378d0dc9f81" d="M808.84,928.33h-10.43c-.22-.33-1.11-.79-1.74-1.74,4.85-1.47,8.99,1.13,12.17,1.74Z"/><path class="uuid-36cae034-0462-4ecf-bf71-c03d8b0388ed" d="M657.54,1350.93c-.44-3.59-1.31-7.97-1.74-12.17,3.3,2.46,1.33,8.37,1.74,12.17Z"/><path class="uuid-821a4ecd-884b-40c5-9cf2-b353da743f93" d="M1334.04,1086.59c.45-4.38,1.4-8.9,1.74-12.17-.41,3.81,1.56,9.71-1.74,12.17Z"/><path class="uuid-643167ea-c861-435e-965d-08b47a47e51b" d="M681.89,1437.89c-.48-3.76-1.84-6.37-1.74-12.17,3.3,2.46,1.33,8.37,1.74,12.17Z"/><path class="uuid-46c94712-010b-46e1-a50d-06a086f509f6" d="M685.36,1462.23c-3.22-3.08-1.44-8.06-1.74-12.17,3.3,2.46,1.33,8.37,1.74,12.17Z"/><path class="uuid-bc233177-ce36-4752-9d98-c2da172713b6" d="M690.58,1446.58c-3.3-2.46-1.33-8.37-1.74-12.17,3.21,3.04,1.38,8.09,1.74,12.17Z"/><path class="uuid-4d9d3e4f-7bc6-4036-87b5-206a56bee708" d="M911.45,1446.58h-1.74v-12.17c.23.06,1.7.08,1.74,0v12.17Z"/><path class="uuid-488565bb-1ace-4b83-96a7-93d1fd70eac8" d="M1450.56,1441.36c-3.05-1.12-1.62-7.31-1.74-10.43,3.08,1.95,1.49,7.16,1.74,10.43Z"/><path class="uuid-08af5252-838e-41f9-86d8-e7735cea9dab" d="M655.8,1288.32c-3.08-1.95-1.49-7.16-1.74-10.43.48,3.1,1.22,6.93,1.74,10.43Z"/><path class="uuid-ba64f273-75f3-4284-a142-58c6e3d3a2ec" d="M650.58,1302.24c-.36-2.78-1.25-6.58-1.74-10.43,3.08,1.95,1.49,7.16,1.74,10.43Z"/><path class="uuid-72e8d108-e8c1-4805-becd-4a51a0ffb3d2" d="M654.06,1326.58c-.34-2.71-1.28-6.45-1.74-10.43,3.08,1.95,1.49,7.16,1.74,10.43Z"/><path class="uuid-b62977c1-f30e-4da8-81c9-20a467abbabc" d="M535.8,1343.97c-.28-2.38-1.23-7.2-1.74-10.43,3.08,1.95,1.49,7.16,1.74,10.43Z"/><path class="uuid-609f088c-126c-41e2-9610-4334d3ee860b" d="M662.76,1337.02c-3.08-1.95-1.49-7.16-1.74-10.43.4,2.96,1.25,6.86,1.74,10.43Z"/><path class="uuid-4edf8b65-07b9-4efa-adb0-b34163b992fd" d="M541.02,1331.8c-2.82-1.49-1.64-5.91-1.74-8.7.58,2.9,1.18,5.72,1.74,8.7Z"/><path class="uuid-658047bb-0a45-4a78-ac55-2840d576bac9" d="M982.75,1563.1c-.01,4.39,1.55,8.06-3.48,6.96.96-2.41,1.44-5.1,3.48-6.96Z"/><path class="uuid-0c454f1c-592f-498d-9c13-ca019fefc3ed" d="M537.54,1314.41c-.26-1.39-3.05-4.07-1.74-6.96.26-.03.9-1.55,1.7-1.76l.03,8.72Z"/><path class="uuid-8c9b60d2-ca32-4500-a9eb-fb12127bd8b5" d="M1461,1298.76c.1-2.79-1.08-7.21,1.74-8.7-.61,2.78-1.17,5.88-1.74,8.7Z"/><path class="uuid-209bf757-2bde-4ef6-a17f-8fd9d7bbf955" d="M1318.39,1262.24c-.43,2.05,1.09,5.69-1.74,6.96.36-2.81-.28-5.86.02-8.7l1.72,1.74Z"/><path class="uuid-6fa2a120-3b73-431f-bdd7-8b2a89fa481f" d="M1325.35,1263.98l1.74-8.7c-.63,2.87-1.07,5.73-1.74,8.7Z"/><path class="uuid-209bf757-2bde-4ef6-a17f-8fd9d7bbf955" d="M1054.05,1531.8c-1.38-3.77,1.05-6.22,1.74-8.7,1.14,3.96-.62,5.78-1.74,8.7Z"/><path class="uuid-cc605934-3107-4d2c-9ba2-6844a1f5a96f" d="M1325.35,1230.93l-1.74,6.96c.21-2.88-.19-5.84.03-8.72.81.21,1.44,1.74,1.7,1.76Z"/><path class="uuid-0f0fbe34-0d79-4baa-bd37-b63c03d03eb8" d="M375.81,1121.37l-8.7,1.74c2.96-.65,6.36-1.16,8.7-1.74Z"/><path class="uuid-e66b02a8-a8bb-4858-a2e8-9e2dfefa3306" d="M1055.79,716.16v32.17c0,2.66-11.25,22.61-13.95,26.04-34.09,43.28-107.56,29.32-121.22-24.78-1.37-5.41-5.66-32.15,1.82-31.46,25.6,13.11,51.95,26.13,81.23,19.81,17.78-3.84,36.46-12.72,52.12-21.79Z"/><path d="M1034.96,620.51c.47.35,13.21-7.66,10.38-.89-1.18,2.81-6.47,4.18-6.7,4.59-.27.48,1.5,3.38,1.08,5.37-6.54,31.04-44.76,55.76-74.62,37.27-19.05-11.79-19.25-23.32-28.52-39.31-2.18-3.76-8.99-4.38-9.51-9.62,3.8-3.1,7.01,3.43,10.96,2.42,2.62-.67,9.35-9.46,12.58-11.96,23.68-18.38,63.19-15.3,82.61,7.82,1.34,1.6,1.55,4.17,1.73,4.31Z"/><path class="uuid-31687a3b-1b30-4c13-a3a7-8b414d4aa9d8" d="M946.12,434.1c4.89-1.17,6.46,1.23,3.48,5.22.35,2.11-.23,3.27-1.74,3.48,4.87,5.37,4.87,9.43,0,12.17-6.58-.2-15.71-5.21-22.17-6.53-26.93-5.5-54.92-4.95-82.18-2.18,7.3-10,19.68-20.57,32.28-22.48,8.99-1.36,54.15-1.68,62.46-.07,6.81,1.32,5.71,6.56,7.86,10.4Z"/><path class="uuid-e66b02a8-a8bb-4858-a2e8-9e2dfefa3306" d="M1094.05,436.17c-22.48-1.28-44.6,4.51-66.09,10.43-5.65-.21-3.99-14.6,0-17.39-1.57-.18-1.47-.78,0-1.74-.72-5.38,3-11.84,8.7-12.17,12.34-.42,25.26.8,37.48.1,3.24-.19,6.52.39,7.73-3.58,4.16,7.47,8.21,16.54,12.17,24.35Z"/><path class="uuid-e0a8478a-e7d6-4bbb-bc41-f51f1ad76217" d="M1175.79,603.12c12.39,26.44-30.16,36.93-33.04,12.17s24.99-29.35,33.04-12.17Z"/><path class="uuid-3040f195-4720-42ea-8aa2-75e09a368b32" d="M827.97,610.08c-2.2,25.95-48.97,16.47-33.04-12.17,9.07-16.32,34.69-7.25,33.04,12.17Z"/><path class="uuid-f016bef1-8411-4963-a24f-2346ba7bcd79" d="M1083.61,481.39c16.88,17.19-3.37,39.83-23.18,27.53-7.79-4.84-6.27-9.49-11.6-15.36-.35-5.49,11.7-11.13,17.4-13.25,4.47-1.66,15.76-3.84,17.38,1.07Z"/><path class="uuid-f016bef1-8411-4963-a24f-2346ba7bcd79" d="M937.53,497.04c-5.54,3.96-2.61,9.69-8.78,14.7-18.51,15.06-41.82-7.65-26.01-26.88,7.91-6.3,33.52,1.47,34.78,12.17Z"/><path class="uuid-f962bb4b-4d8b-4141-aecb-43cdd155dd70" d="M1007.09,891.82c-6.26,21.88-36.84,24.92-50.42,7.81,5.4-3.07,48.52-9.53,50.42-7.81Z"/><path class="uuid-2d507b79-994a-4efb-9e9a-154cc426816f" d="M902.75,484.87c-5.56.55-9.96,2.71-14.82,5.18-4.35-.25-18.01,17.85-19.95,15.69-3.8-4.24,11.66-16.78,15.08-18.81,23.48-13.94,57.36-6.27,67.41,20.66,1.33,3.57,1.44,10.14-2.47,6.84-1.02-.86-6.67-13.48-10.47-17.38-8.64-8.89-22.56-13.39-34.78-12.17Z"/><path class="uuid-4d9fd0de-f1c7-4465-af0b-9cb6b8f929f9" d="M1111.44,488.34c4.02-.1,7.02,2.99,6.96,6.96-1.06,13.5-1.5,6.4-5.98,1.71-7.98-8.36-17.02-14.67-28.8-15.62-4.42-.36-10-.33-14.36.42-3.6.62-17.74,9.13-20.42,11.75-1.92,1.88-5.41,9.37-6.96,12.17-4.69,5.47-6.86,2.49-3.48-3.48,13.98-28.92,48.84-34.73,73.04-13.91Z"/><path class="uuid-c98a261f-99fe-4656-8280-634db11697f3" d="M1003.61,578.8c3.83,3.97-12.79,6.89-14.86,6.98-16.6.75-24.61-9.23-3.16-10.38,2.47-.13,17.24,2.59,18.02,3.4Z"/><path class="uuid-31687a3b-1b30-4c13-a3a7-8b414d4aa9d8" d="M945.57,434.57c5.38-2.88-2.18-10.13-1.74-10.42,8.91-5.73,14.19,27.21,10.41,33.01-3.02.72-1.1-2.64-1.86-3.32-.42-.37-3.68,1.63-5.08,1.59.21-4.03-.3-8.16,0-12.17,1.15.06,1.73-1.1,1.74-3.48-.73-1.68-2.49-3.46-3.48-5.22Z"/><path class="uuid-5d041363-29b6-4f9e-8997-f03e7590b863" d="M1029.7,415.3l2.26.98c-2.79,3.61-4.12,7.35-4,11.2-.06.57.05,1.16,0,1.74-1.98,3.81-3.72,8.45-5.22,13.91l-3.47,5.21c-1.27-5.37,2.05-30.21,5.51-32.78,1.13-.84,3.42-.14,4.91-.25Z"/><path class="uuid-e66b02a8-a8bb-4858-a2e8-9e2dfefa3306" d="M1027.96,429.21c-.43,5.08-4.55,12.69,0,17.39-.29.08-1.32,2.49-3.46,1.74.9-1.99-1.74-4.82-1.76-5.22-.03-.99,1.35-13.35,1.75-13.92.22-.32,2.72.19,3.47.01Z"/><path class="uuid-8e75f5ef-e392-42ac-89b5-e19b5dd5bb77" d="M1120.14,491.82c-1.7.47-1.62,2.01-1.74,3.48-3.54-.99-4.98-5.26-6.96-6.96,4.65.81,3.55-1.1,3.48-5.22,1.07,2.23,3.69,5.95,5.22,8.7Z"/><path class="uuid-e66b02a8-a8bb-4858-a2e8-9e2dfefa3306" d="M1036.66,415.3c-4.56,3.01-6.61,7.3-8.7,12.17.02-.2-1.95-1.16-1.5-3.83.43-2.53,3.33-5.27,3.23-8.34,2.29-.17,4.65.08,6.96,0Z"/><path class="uuid-e744e7f6-094b-4930-9c44-6378d0dc9f81" d="M831.45,924.85c-7.7-.06-17.78,1.51-24.35-1.74,7.67,0,17.8-1.47,24.35,1.74Z"/><path class="uuid-8ef7d8d1-eb61-42d4-88af-ce4f82ff7076" d="M1038.4,502.26c-.42,3.7-.22,3.9,3.48,3.48-1.08,1.95-3.23,8.81-6.95,5.21-2.38-2.3,2.78-7.26,3.47-8.69Z"/><path d="M1200.13,796.16c-3.18.85-4.34.27-3.48-1.74,39.51-25.8,79.82-47.59,109.51-86.13,10.51-13.64,29.95-40.5,7.02-52.14l-33.05-7.79c6.46-1.22,38.11-12.55,41.76-9.55,4.42,3.63,7.37,25.26,8.2,31.88,2.19,17.38,2.93,39.6-3.9,55.89-15.34,36.57-89.62,63.51-126.06,69.58Z"/><path d="M1313.18,554.41c8.4-37.39-20.92-74.38-44.32-100.87-2.29-2.59-22.27-20.37-20.01-22.58,31.12,9.57,66.55,15.34,82.63,46.92,9.85,19.36,12.28,37.44,1.17,56.88-1.84,3.21-16.28,22.23-19.46,19.65Z"/><path d="M751.45,808.34h-5.22c-18.68-.22-49.27-10.16-63.42-22.66-21.28-18.81-29.3-56.98,2.54-69.51-6.28,44.45,34.82,70.32,66.1,92.17Z"/><path d="M695.79,622.24c-51.52-18.44-91.26-88.41-30.41-123.45,2.92,1.83-.78,3.8-1.75,5.2-8.92,12.84-20.15,22.25-21.71,39.15-3.37,36.47,30.81,49.3,50.41,73.02,1.62,1.96,4.22,2.81,3.47,6.08Z"/><path d="M1200.13,796.16c-1.4.23-4.02,3.01-6.96,1.72.02-2.03,2.15-2.59,3.48-3.46l3.48,1.74Z"/><path d="M751.45,808.34c.49.34,2.43-.22,3.47.02v1.7s-8.68-1.72-8.68-1.72c1.74.02,3.48-.01,5.22,0Z"/><path class="uuid-f3708a90-90a3-42ca-808c-325e282899e0" d="M958.4,1681.36c-55.92-1.69-118.94-15.19-170.38-37.45-5.08-2.2-14.05-5.24-18.04-8.05-1.65-1.16-4.89-3.06-1.99-4.96,20.41,5.85,39.44,15.61,59.61,22.13,104.64,33.79,214.12,31.4,318.98,0,13.89-4.16,27-11.92,41.37-13.4,4.38,3.78-22.16,12.2-24.38,12.99-46.98,16.76-103.22,27.4-153,28.74-3.53.99-7.26,1.27-11.19.83-.8,16.75-.54,33.28.76,49.6,2.26.73,10.51,0,13.91,0l15.65-1.74c3.45-.17,7,.29,10.43,0,3.07.04,5.96-.54,8.7-1.74,20.63-2.16,40.79-6.23,61.3-9.13l79.56-23.9c.76,3.82-1.85,3.94-4.26,5.29-23.1,12.9-86.68,26.19-113.99,29.49l-20.87,3.48c-2.86.19-5.82-.04-8.7,0l-10.43,1.74c-4.05.06-8.12-.07-12.17,0-7.71.15-14.44,1.02-20.19,2.6.71,35.13.48,70.2-.68,105.22-1.03,1.29-.42,2.52-3.47,1.73v-107.81c-10.29-.88-20.72-1.46-31.31-1.74-1.16,0-2.32,0-3.48,0l-19.13-1.74c-45.01-1.44-90.14-14.52-132.17-29.56-.87-2.55,1.45-3.13,6.96-1.74,30.09,10.93,58.81,17.59,90.43,22.61,2.7,1.26,5.6,1.84,8.7,1.74,14.17,1.91,25.55,3.33,40,3.48l15.65,1.74c8.1.05,16.26-.04,24.36,0-2.36-11.77,3.15-39.04,0-48.7-12.01-.87-24.19-1.45-36.52-1.74Z"/><path class="uuid-b91b39ec-2e99-4b2f-af40-d7bb5e74d395" d="M1036.26,1754.71c14.53-1.89,25.04,20.21,8,29.02-20.34,10.52-31.82-25.92-8-29.02Z"/><path class="uuid-5906df06-27e2-412b-94c4-1c69d386e564" d="M815.8,1702.23l-6.96,1.74c-8.61-3.08-34.98-10.84-40.04-16.49-1.94-2.16-.99-4.13.95-4.39,2.47-.33,39.47,16.75,46.05,19.14Z"/><path class="uuid-88c05a57-6d1d-42df-8de6-00d0e1dd4231" d="M1019.27,1735.27c-2.92,4.05-17.8.39-19.14,1.73-3.74,3.76,4.67,98.09-1.73,106.09v-107.83c6.93-.07,13.93.12,20.87,0Z"/><path class="uuid-88c05a57-6d1d-42df-8de6-00d0e1dd4231" d="M1010.57,1681.36c-1.47,3.46-9.61.93-10.45,1.73-1.76,1.68,1.35,42.39.01,48.7-2.49-.81-1.69-2.32-1.82-4.25-.98-15,.89-31.08.07-46.19,4.05-.08,8.14.12,12.18,0Z"/><path class="uuid-88c05a57-6d1d-42df-8de6-00d0e1dd4231" d="M994.92,1683.1c-11.74-1.04-25.37,2.23-36.52-1.74,10.59.32,24.05-1.32,34-.05,1.76.23,1.94.02,2.52,1.79Z"/><path class="uuid-88c05a57-6d1d-42df-8de6-00d0e1dd4231" d="M994.92,1737.01c-9.97-1.02-21.98,2.22-31.3-1.74,8.75.02,20.6-1.09,28.79-.05,1.39.18,2.61.08,2.52,1.79Z"/><path class="uuid-5906df06-27e2-412b-94c4-1c69d386e564" d="M960.14,1735.27c-6.01-.03-14.55,1.46-19.13-1.74,6.09.2,14.47-1.58,19.13,1.74Z"/><path class="uuid-88c05a57-6d1d-42df-8de6-00d0e1dd4231" d="M970.57,1731.79c-4.9-.03-12.22,1.41-15.65-1.74,4.91.05,12.21-1.42,15.65,1.74Z"/><path class="uuid-88c05a57-6d1d-42df-8de6-00d0e1dd4231" d="M1029.7,1730.05c-3.42,3.13-10.77,1.73-15.65,1.74,3.51-3.3,10.67-1.5,15.65-1.74Z"/><path class="uuid-73a868d2-859f-4694-a121-fc53a9ba4094" d="M1071.44,1730.05c-6.21,2.64-14.16,3.03-20.87,3.48,5.97-4.12,14.39-2.7,20.87-3.48Z"/><path class="uuid-73a868d2-859f-4694-a121-fc53a9ba4094" d="M1041.88,1733.53c-1.89,2.93-7.15,1.69-10.43,1.74,1.89-2.92,7.15-1.7,10.43-1.74Z"/><path class="uuid-5906df06-27e2-412b-94c4-1c69d386e564" d="M914.92,1726.57c-2.79-.1-7.21,1.08-8.7-1.74,3.04.48,6.63,1.46,8.7,1.74Z"/><path class="uuid-73a868d2-859f-4694-a121-fc53a9ba4094" d="M1048.83,1728.31c-1.49,2.82-5.91,1.64-8.7,1.74.94-.08,5.39-1.39,8.7-1.74Z"/><path class="uuid-6fbc179b-bd4d-4655-b2f3-b5b8fba9d385" d="M1699.25,415.3l3.47,4.34c-8.84,6.18,2.82,5.93-.06,9.52-.76.95-5.48-.93-3.41,8.75h-4.35c1.47,3.12,2.84,6.16,5.14,8.81,6.42,7.4,21.09,9.21,24.31,15.56,5.13,10.1-12.06,43.47-15.1,56.04-2.14,8.85-3.5,18.24-3.05,27.41-2.23,2.34-25.43-9.9-27.82-13.91-.5-6.44-1.08-12.81-1.74-19.13-.57.12-1.59-.21-1.74,0-5.29-12.62-1.72-8.78,3.48-17.39,3.69-24.55-2.49-43.25-26.37-53.05-1.18-2.52,11.26-8.87,14.35-10.34,7.07-3.38,17.39-4.85,23.49-3.48,2.69-3.92,4.95-8.24,6.79-12.97l2.61-.15Z"/><path class="uuid-ee198fcc-7c70-4fba-825b-2bae48e4d8fe" d="M1575.78,429.21c-.92,4.28,1.54,3.8,5.22,3.48-4.8,28.56,13.5,52.34,33.14,70.38,4.91,4.61-6.26,10.21-10.08,10.95-2.39.46-15.49.26-17.96-.32-3.71-.86-6.52-3.95-10.31-4.52,2.85-4.11,6.51-6.22,5.21-12.14-5.58-1.29-2.04,3.2-4.55,5.34-6.79,5.78-13.94.26-18.99-5.26-7.34-8.03-1.57-8.71-.74-16.56.71-6.7-1.67-11.5-1.8-16.57l1.74-17.39c-3.54-1.46-1.39-6.42,1.74-6.96-4.74-6.21,12.48-14.81,17.39-10.43Z"/><path class="uuid-ee198fcc-7c70-4fba-825b-2bae48e4d8fe" d="M1619.25,392.69c2.91.94,4.41-6.22,6.11-1.75,1.8,4.71,3.26,9.38,6.06,13.93l3.68-.88c23.7-21.08,61.85-14.16,48.88,23.74-10.58,1.22-20.77,4.35-29.11,11.13-1.99,7.38-12.27-2.53-15.07-7.36l-14.62-27.26c-3.62-4.14-5.6-7.98-5.93-11.54Z"/><path class="uuid-f4f8d7cb-60fb-4423-aee9-edcef6cdcaaa" d="M1619.25,392.69c9.68,9.73,15.76,29.54,23.58,39.9,9.72,12.89,13.59,1.23,23.11-3.14,3.53-1.62,15.07-3.42,15.7-3.93.55-.44,3.12-11.51,2.95-13.75-2.07-26.44-38.06-18.89-50.56-3.45-1.4-.79-1.84-2.2-2.61-3.45,6.5-8.74,26.25-16.32,36.55-14.95,13.13,1.74,24.02,15.55,20.84,28.86,1.12.83,2.28.79,3.48,0,3.97-7.33,8.77-17.52,14.79-22.6,1.35,6.34-4.83,12.85-7.84,19.12-7.09,14.79-12.45,22.08-5.56,39.48,2.33,5.89,7.73,10.06,9.03,16.17-1.39,1.45-9.23-6.48-9.91-7.48-2.53-3.72-6.4-18-6.85-23.22-.25-2.92,1.71-6.17,1.09-9.27-2.4-3.59-28.4,5.3-31.27,8.7-2.37,2.81,1.09,3.1,2.18,3.95,3.85,3,9.09,4.35,12.68,8.1,9.46,9.89,15.04,31.47,7.73,43.57.17-1.28-1.71-3.03-1.74-3.48-.48-6.44.95-12.02-.49-19.52-4.6-23.89-16.62-20.37-31.7-32.64-10.9-8.87-16.94-32.94-27.83-43.46-5.64-5.44-35.45-12.93-40.87-9.61-2.08,1.28-5.65,15.07-8.67,11.32-1.65-2.06,3.66-10.87,5.46-12.77,7.78-8.23,9.97-2.43,18.15-1.27,10.13,1.43,20.15.38,28.55,8.83Z"/><path class="uuid-2d6f809f-881e-4c70-a222-56343a1e2f60" d="M1577.52,403.13c18.27,3.08,53.93,25.62,58.74,44.74,2.25,8.96.52,17.86.63,25.92.09,6.33,4.38,17.28-3.72,14.56v-37.39c0-8.11-12.33-22.03-19.96-25.26-15.88-6.72-23.3-2.93-37.43,3.52-5.55,2.53-13.61,4.65-17.39,10.43-2.67,2.11-3.6,1.13-1.74-1.74l-3.53,2c-10.89-3.07-20.73-7.8-29.51-14.18-2.44,2.3-3.34,1.33-1.74-1.74,6.26-6.76,32.81-19.35,41.74-20.87,3.64-1.89,9.69-1.56,13.91,0Z"/><path class="uuid-496a905b-cf21-4cad-87e6-acbe5bc90f01" d="M1816.04,519.92c-.87.56-.81,4.5-3.26,6.79-6.98,6.54-15.18,3.52-21.89,5.07-1.52.35-2.38,4.32-4.71,6.07-7.64,5.73-14.57,6.06-20.84-1.69,13.3,1.39,22.03,3.01,24.36-13.03,4.32,4.33,14.85,5.02,19.7,1.89,2.88-1.86,3.79-11.61,4.71-12.28,1.77-1.29,8.51,3.51,12.17.95,2.41-1.69,3.5-12.51,7.75-14.87,4.08,2.92,1.54,2.92.56,5.72-.85,2.44-4.36,9.93-5.86,11.55-4.64,4.98-10.36,2.33-12.69,3.84Z"/><path class="uuid-92c8f2e4-7548-473d-8064-4c79fdf351ed" d="M1831.42,531.83v5.22c-12.62-4.82-11.95,8.16-17.68,16.23-7.17,10.09-24.48,17.79-36.55,19.14-1.54.17-6.71,1.93-6.61-1.46.06-2.04,22.98-6.98,27.34-9.07.77-.37,10.31-7.63,10.94-8.34,8.52-9.48,3.81-24.73,22.55-21.72Z"/><path class="uuid-f07dcb28-ff36-4424-8c0b-ef717fbfa3b6" d="M1775.77,443.13c19.83,5.8,26.69,8.2,27.83,29.56-1.35,5.66-1.35,11.45,0,17.39.51,2.11.2,3.98,1.31,6.44,1,2.23,7.39,7.45,5.64,9.2-3.31,3.32-11.32-11.34-12.16-13.9l-1.74-33.04c-3.83-9.57-10.14-6.41-17.89-9.14-2.19-.77-2.78-2.97-2.98-3.04-4.58-.71-4.44-2.11,0-3.48Z"/><path class="uuid-c06f49b9-6c24-44c5-923a-ff6f2ad2dab0" d="M1774.03,470.95l1.74,19.13c.53,3.35-.04,6.15,1.19,10.1.87,2.8,6.59,11.66,5.76,12.5-4.06,4.15-11.58-15.36-12.16-17.38l-1.74-10.43c-.99-10.8,4.54-14.46-8.7-15.65-1.52-.49-1.5-1.07,0-1.74.82-.12,1.55-.9,1.74-1.74,4.41.88,8.78.37,12.17,5.22Z"/><path class="uuid-0536d4fe-0af7-4e68-989e-0a5358ea9516" d="M1741,542.25c-3.36-3.44,8.08-10.36,9.48-12.2,3.16-4.16,8.24-13.11,8.02-18.19-.26-6.32-7.19-9.29-2.73-13.04,15.28,10.5,1.6,30.99-8.09,40.57-1.51,1.5-4.56,5.04-6.68,2.87Z"/><path class="uuid-32d311c9-1a9a-444d-a551-31f28a4940f7" d="M1798.38,491.82c-3.45-10.42-1.09-21.96-1.74-33.04,3.89,9.72.77,22.38,1.74,33.04Z"/><path class="uuid-980b5eb1-df69-4a77-a7a7-8d92c760ce04" d="M1775.77,443.13v3.48c-1.88-.66-9.7.02-10.44-2.63-1.48-5.24,7.01-1.86,10.44-.85Z"/><path class="uuid-c7dca5d3-fbbc-47a9-a651-412fc52f38b5" d="M1692.3,418.78c-.82,1.52-1.89,8.64-4.35,8.66-6.3.04.75-8.15.87-8.66h3.48Z"/><path class="uuid-5a0c4d68-4ea6-4856-8128-da126ca9fc29" d="M1775.77,490.08c-.96-6.08-2.92-12.34-1.74-19.13,3.71,5.31.98,12.84,1.74,19.13Z"/><path class="uuid-9fbd60ad-27d6-4c68-b223-efbf5dfa700e" d="M1803.6,490.08c-1.27-5.29-4.24-12.53,0-17.39.31,5.75-.21,11.63,0,17.39Z"/><path class="uuid-ae6fa201-d1f1-4d68-a006-5b1826e33731" d="M1801.86,436.17c-6.75.04-9.33.37-15.65-1.74,4.91.66,12.09-1.87,15.65,1.74Z"/><path class="uuid-50d887e2-03fd-42aa-9c12-c162aeb43d15" d="M1577.52,403.13c-2.75-.46-11.17-.47-13.91,0v-1.74c4.39.49,10.91-1.7,13.91,1.74Z"/><path class="uuid-62ef00e4-c13e-4046-a478-54f69826b3c6" d="M1760.12,467.47v1.74c-4.41-.4-10.92,1.63-13.91-1.74,4.13.14,10.08.54,13.91,0Z"/><path class="uuid-384eca9a-d0e7-4f63-8c42-11a807d0c5db" d="M1754.9,430.95v-12.17c.45,1.68,1.99,2.52,1.98,6.09s-1.6,4.51-1.98,6.09Z"/><path class="uuid-8cff2034-e17b-42f2-bbf9-06c64566f330" d="M1845.34,469.21c2.03.55,2.04,1.38,1.73,3.47h-8.69c2.33-.97,4.85-2.03,6.96-3.47Z"/><path class="uuid-eeee2933-59eb-4f1e-b569-e75d52a8aefc" d="M1770.55,495.3c-1.37-4.73-1.29-5.46-1.74-10.43,3.08,1.95,1.49,7.16,1.74,10.43Z"/><path class="uuid-7b86d01f-f05c-49d5-acb8-ddd64787f946" d="M1655.77,512.69c-.46.61.99,3.6-.89,3.5-2.79.88-3.4-2.95-4.33-3.5h5.22Z"/><path class="uuid-5df9fe31-6889-4590-a1f1-3b635e5bee62" d="M1706.8,623.4c8.41,8.43,23.33,8.16,34.18,5.82.99,4-1.72,4.16-4.74,4.73-11.6,2.16-24.01.42-32.47-8.38-11.24-11.69-6.4-21.56-8.41-35.06-.43-2.9-6.82-17.25-9.18-18.67-3.76-2.25-4.23,11.64-7.84,14.74-8.07,6.93-28.45,4.27-37.05-.81-2.35-1.39-.93-3.11-1.17-5.23,8.55,4.68,31.65,9.89,37.3-.09,2.6-4.59,1.05-17.01,9.65-12.99,16.75,7.84,7.25,43.46,19.72,55.95Z"/><path class="uuid-8d86c935-ae0f-4328-b98e-ecacde4a6d48" d="M1593.17,648.34c6.99-1.72,8.75-2.78,14.76-6.97,2.95,3.11-3.77,6.84-5.82,8.09-19.63,11.95-29.06-3.88-39.02-.85-5.36,1.63-8.4,15.69-17.89,17.09-10.94,1.61-24.12-12.53-32.98-12.05-4.92.27-20.6,23.86-26.86,6.88,11.94,5.14,19.17-9.44,25.3-10.47,11.74-1.96,28.82,17.4,37.99,10.58,1.51-1.12.72-3.83,1.56-4.72,2.27-2.4,11.23-11.44,13.35-12.08,4.78-1.44,12.73,3.07,19.19,4.5,3.49,1.35,6.9,1.11,10.43,0Z"/><path class="uuid-dc091349-7e2c-41da-b524-a3491694f537" d="M1638.37,601.38c1.37,1.47-.78,10.87,6.11,12.22,10.27,2.01,23.5-9.83,29.93-7.47,8.79,3.24,9.55,19.78,15.4,28.18,4.43,6.36,13.35,14.02,21.17,15.34l16.07,1.3c-7.21,8.01-19.95,3.47-27.68-1.85-16.4-11.3-15.4-17.78-21.14-34.16-5.25-14.99-29.39,14.29-40.67-1.42-3.59-5-3.44-16.68.81-12.14Z"/><path class="uuid-9f29d3d5-8ab7-4263-b4ae-eb5d39701a87" d="M1504.47,530.08c4.39,1.36,2.44,10.72,5.09,14.91,10.51,16.71,50.28-4.6,52.29-2.73,5.25,4.86-23.3,11.65-25.39,11.98-3.37.52-13.39-.51-14.41.4-.46.4-.7,4.79-1.93,6.75-3.29,1.89-3.87.74-1.74-3.48-2.1-6.42-2.79-2.67-6.86-6.15-7.76-6.65-8.14-17.42-9.02-17.97-1.4-.86-7.43.08-11.94-1.97-1.34-4.67,9.81-2.93,13.91-1.74Z"/><path class="uuid-f93f2c29-6329-46ab-9c57-e160e8765947" d="M1626.21,643.12c-1.23-1.45-20.61-12.57-17.38-15.64,6.92.55,10.89,7.53,16.97,9.97,18.78,7.53,33.13-6.36,39.27-4.59,3.94,1.14,5.24,10.81,6.65,11.73,2.45,1.61,7.96-2.36,6.66,3.74-14.56,2.5-8.23-3.61-14.72-11.9-9.69,3.95-16.11,8.28-27.01,8.44-3.53.05-6.89-1.89-10.43-1.74Z"/><path class="uuid-6e2e0160-9e3e-4c2c-86b1-63f7d95a2ded" d="M1450.56,585.73c-7.26,6.22-10.54,13.61-12.17,22.61-1.19,3.01-1.2,5.68,0,8.7,3.69,13.55,11.5,16.24,22.63,23.52,2.04,1.33,4.48-.42,3.45,4.3-6.4-.94-23.39-11.01-26.54-16.15-11.32-18.5-4.17-31.75,10.89-44.71l1.74,1.74Z"/><path class="uuid-df74c8ec-499c-4f66-958d-f38b482496bf" d="M1608.82,554.43l3.48,1.74c-2.42,16.62-18.43,36.97-34.78,41.74l-3.48-1.74.1-3.71c15.15-8.81,27.14-18.53,30.8-36.68l3.89-1.34Z"/><path class="uuid-327d05c7-42ed-4797-9789-7b97e977ce5e" d="M1520.13,561.39c-4.17,6.69-11.8,10.11-19.13,12.17l-12.17,1.74c-3.45.22-6.98-.2-10.43,0l8.69-1.76v-1.7s-12.17-.02-12.17-.02c.56-.1,1.96-1.47,4.2-1.82,13.51-2.07,30.11,2.19,39.27-12.1.41,1.25-.19,3.04,1.74,3.48Z"/><path class="uuid-d60862a0-75f4-4517-9692-1cd9cbd848e0" d="M1608.82,554.43c-4.99-.87-4.32-17.59-1.97-19.42,8.29-6.48,9.37,6.53,5.45,12.47.02.58.02,1.16,0,1.74-.06,2.25.3,4.88,0,6.96-3.56,2.22-3.78,2.9-3.48-1.74Z"/><path class="uuid-0ee06778-2041-47d8-9c52-bd1ae670878a" d="M1504.47,530.08c-2.42-.75-12.22-.71-13.91,1.74-2.39-1.09-4.12-2.84-5.22-5.22.64-.5,1.19-1.14,1.74-1.74,4.18,5.76,13.04,1.38,17.39,5.22Z"/><path class="uuid-7281433f-9059-4fa5-bc3b-703fd6370762" d="M1414.04,589.21c-4.45-4.78-.97-12.38,0-17.39.29,5.75-.42,11.66,0,17.39Z"/><path class="uuid-4b040229-bc0c-45fc-9113-cbfd541ba9b3" d="M1593.17,648.34c-1.52.37-2.37,2.12-6.06,1.94-2.49-.12-3.65-1.77-4.37-1.94h10.43Z"/><path class="uuid-1fdefb5e-9ca9-4096-a3b5-201082e9dfe1" d="M1478.39,512.69l-1.74-8.7c1.12,3.91,1.12,5.05,1.74,8.7Z"/><path class="uuid-c1a85b55-fc9c-4131-aa6f-b0ebfc2f25c6" d="M1438.39,617.04c-.23-.85-1.92-1.74-1.91-4.34s1.8-3.73,1.91-4.35v8.7Z"/><path class="uuid-8e75f5ef-e392-42ac-89b5-e19b5dd5bb77" d="M414.8,493.58l-48.75-54.7,129.65-122.63c-22.08-40.23,8.76-91.64,55.67-88.54,77.64,5.12,69.58,126.62-10.35,117.9-9.42-1.03-17.96-6.05-27.09-7.73l-81.36,78.32c-.44,5.51,29.98,28.92,30.75,33.31s-13.97,12.1-16.39,16.25c-3.56,0-25.11-29.49-30.45-32.25-3.58-1.85-14.14,9.92-13.77,12.04.5,2.86,29.5,28.36,29.5,33.28,0,3.99-15.18,16.26-17.4,14.75Z"/><path d="M543.01,254.08c35.93-4.66,52.3,41.99,22.58,60.84-15.64,9.92-38.16,5.77-47.26-10.97-11.4-20.96.77-46.76,24.68-49.86Z"/><path class="uuid-2ec065b3-19e3-495e-8707-7aa939041ad6" d="M1501,573.56c-5.41,1.52-6.53,1.37-12.17,1.74,2.46-3.3,8.37-1.33,12.17-1.74Z"/><path class="uuid-9f07ef0c-ee22-40b7-9cd6-5724b73d4228" d="M1523.6,425.74c1.38,5.49,1.38,10.71,0,15.65l-1.74,1.74c-.14-.18-2.29.83-3.48-1.21-4.29-7.35-1.36-12.7,3.48-17.92l1.74,1.74Z"/><path class="uuid-6178d389-dc9b-4be3-b50d-214f7086a26d" d="M1540.99,523.13c-1.5.35-2.52,1.99-6.09,1.98s-4.77-1.72-6.09-1.98h12.17Z"/><path class="uuid-ee198fcc-7c70-4fba-825b-2bae48e4d8fe" d="M1667.95,530.08c.27.23-.52,2.76.21,3.35,1.03.84,4.11-1.84,4.8-1.41,1.18.74,9.99,9.75,12.91,11.45,15.39,9,32.13,11.02,49.08,17.87,25.17,10.17,18.37,18.38,18.23,41.78-8.52,1.14-16.77-1.79-23.48-6.97-15.48-11.96-9.33-27.42-33.92-39.12-19.29-9.18-36.02-1.74-52.07-12.28-5.48-3.6-8.66-10.54-16.6-11.32-12.76-1.25-8.48,6.92-14.81,14.04-.1-3.62,2.14-12.03-3.47-10.43-.54,5.54.71,12.02,0,17.38-.49,3.69-6.47,18.68-8.61,21.87-2.78,4.15-21.82,19.05-26.18,19.87-4.02.75-11.52.17-15.64-.86,15.37-12.36,39.36-31.6,25.09-52.93-2.66-3.98-10.53-7.29-5.92-11.38,9.99-8.87,22.78-11.34,34.74-15.7,10.58-3.85,11.74-10.1,26.78-4.17,3.72,1.47,25.45,16.03,28.87,18.95Z"/><path class="uuid-217673d6-9172-47dd-be0c-1f95dd08fef9" d="M1523.6,425.74c5.21-4.7,8.21,2.49,10.08,3.33,6.86,3.08,16.85,5.03,22.96,8.84-2.82,9.47-4.56,19.32-5.22,29.56-6.59,4.82-22.27,4.29-28.71-1.73-2.13-2.23,3.39-2.29,5.17-5.28,5.88-9.9-.62-12.37-4.28-19.08-2.78-5.1-5.3-10.87,0-15.65Z"/><path class="uuid-154f923c-fa35-4679-8f4b-4ff1a3099410" d="M1671.43,512.69l-.02,15.65c-.24.35-2.74-1.31-3.46-1.74-2.22-1.31-10.62-6.84-10.27-9.28.18-1.24,6.25-9.2,7.91-9.65,5.86-1.61,4.61,3.12,5.83,5.02Z"/><path class="uuid-29bb4e4a-ea14-4d1c-adb7-8340083dafa2" d="M1558.39,439.65c-.66,1.01-1.27,5.18-1.74,6.96-.26,4.94-.84,9.58-1.74,13.91-2.19,1.8-1.13,5.24-3.48,6.96-.69-11.46-4.11-20.27,5.22-29.56.6.38,1.08,1.3,1.74,1.74Z"/><path class="uuid-eeee2933-59eb-4f1e-b569-e75d52a8aefc" d="M1554.91,464c-.03-1.16.04-2.32,0-3.48-.23-6.43.27-8.31,1.74-13.91-.75,5.46,1.97,13.26-1.74,17.39Z"/><path class="uuid-835c4ee9-1af0-405f-91f5-b6714bb9491d" d="M1678.38,531.82c-3.46-5.81-1.17-12.63-1.74-19.13,3.56.86.99,14.69,1.74,19.13Z"/><path class="uuid-775b3bcb-6be4-4674-963d-a2ed5607e8d8" d="M1019.27,630.96c.7,3.94-.19,2.78-2.22,3.88-16.71,9.13-47.57,8.81-62.13-3.88,10.81,1.03,21.73-5.22,32.19-5.37s21.38,5.68,32.16,5.36Z"/><path class="uuid-31687a3b-1b30-4c13-a3a7-8b414d4aa9d8" d="M949.6,439.32c1,2.3,2.21,4.25,1.72,6.95h-1.7s-1.76-3.47-1.76-3.47c.11-1.47.05-3.01,1.74-3.48Z"/><path class="uuid-b7838f10-9207-426e-a245-bcf6e18be25b" d="M1036.19,1759.9c13.53-2.04,15.24,20.41,1.35,20.46-11.41.04-12.9-18.71-1.35-20.46Z"/><path class="uuid-217673d6-9172-47dd-be0c-1f95dd08fef9" d="M1598.38,415.33c4.13,4.31-7.46,3.38-9.15,3.86-3.6,1.04-9.56,3.03-12.92,4.47-4.56,1.96-12.78,8.62-15.41,9.06-5.69.95-26.29-6.1-28.6-11.34,15.07-8.26,31.57-16.13,49.45-12.94,1.08.19,15.99,6.24,16.61,6.88Z"/></svg>