<?xml version="1.0" encoding="UTF-8"?><svg id="uuid-6995c75b-2d12-4f4d-93ad-48a241865217" xmlns="http://www.w3.org/2000/svg" viewBox="0 0 2012.67 1845.43"><defs><style>.uuid-4edceced-7753-43a5-aa76-b389f6ac4192{fill:#d1e0fc;}.uuid-8c0d6529-79d8-4903-89c3-06542edcb39f{fill:#ffd100;}.uuid-9cf3ebf1-83c9-4aee-9c9d-206d623fc00f{fill:#bde2fe;}.uuid-72ee4a33-428a-496f-997e-ab13320b35f8{stroke-linejoin:round;}.uuid-72ee4a33-428a-496f-997e-ab13320b35f8,.uuid-94b972aa-29a7-4da1-b00f-6fb67ade4127{stroke:#fff;stroke-width:6px;}.uuid-34644920-8cac-4a1e-8574-0cbd3e1ddc6b{fill:#92c5f9;}.uuid-0cd31d0a-e51e-4495-baf0-09e0fb410444{fill:#2f1430;}.uuid-4a274a64-b871-4bdd-b346-8d67aba5cfd6{fill:#92c4fa;}.uuid-ad5222e4-ea25-4c14-9aef-b3a071971bcc{fill:#160817;}.uuid-8e951a3c-a290-4bab-8079-07fc33272753{fill:#acd7fc;}.uuid-a980559f-48dc-49f8-931d-df1afb79a97b{fill:#f1d976;}.uuid-a91f13da-3e4e-4938-a1b1-a40ee4cf7998{fill:#1c091d;}.uuid-b11b1bec-fa01-4aad-b794-75c051ac90c7{fill:#0c020c;}.uuid-78749b33-cd60-44a4-9764-80d3da8c2793{fill:#dde6d8;}.uuid-98b67690-0e50-4ac8-8acd-792635d055b8{fill:#569cd8;}.uuid-edfd680c-37e1-43e1-a396-9f0cac6e081f{fill:#93c5f6;}.uuid-6d260ef1-ce77-4a69-a94b-41a91c99db72{fill:#add2f5;}.uuid-16acabc1-9fa3-49b9-b1a5-d85d8e954640{fill:#d2e8fb;}.uuid-a4cd7125-b096-4676-a428-4bb01141e2f6{fill:#e3eff7;}.uuid-ed210d02-042e-45df-a4cd-1434befee24a{fill:#161103;}.uuid-ef410187-db61-4461-8f0b-bf542be4f41b{fill:#d0e8fd;}.uuid-d99d5440-29e6-480c-8cce-b352d35748f3{fill:#92c3f9;}.uuid-485f88dc-7170-4f76-97ed-791ad9d7eb1b{fill:#dd98ea;}.uuid-d5d24674-8f5e-4138-9378-803f88c73195{fill:#d0e9fe;}.uuid-953ff35f-854a-406e-af0e-b36615ead53a{fill:#d1e9fd;}.uuid-42a446f4-5687-4529-8c91-7a895dbd6740{fill:#fff;stroke:#000;stroke-width:5px;}.uuid-42a446f4-5687-4529-8c91-7a895dbd6740,.uuid-94b972aa-29a7-4da1-b00f-6fb67ade4127{stroke-miterlimit:10;}.uuid-32aa17ea-48a7-48b3-8b31-3ce1d79ec338{fill:#afd5f9;}.uuid-b61dd61c-ec54-47b1-98f4-6164e98e91cb{fill:#100610;}.uuid-d989857c-e19a-490a-9c29-3e5f418e9297{fill:#c4dcef;}.uuid-4db1fca4-ce7d-47fb-abad-2c720c3b12cf{fill:#95c6f8;}.uuid-f921e143-775e-4c39-921f-63d3c7b6044b{fill:#c2e3fb;}.uuid-1128fde5-0892-42b5-ac6a-aae092b19f7b{fill:#000001;}.uuid-c9a97792-55b3-4958-8d23-019ad8692522{fill:#c8def1;}.uuid-e14a9c4b-dde4-4b21-b335-19b1b710e792{fill:#f2da70;}.uuid-fbd1897f-7410-433c-9c04-aa0910751794{fill:#c9e5fc;}.uuid-3278ef7e-7dd6-4931-93d8-e19edfb2a5e1{fill:#aed6fc;}.uuid-bcbf181d-5d9e-4ce8-9d64-a365bce98ac2{fill:#3c96e5;}.uuid-b6ed1ec8-be92-4747-8049-e1fcb2cec610{fill:#cfe9fe;}.uuid-a88a6a4b-1f05-4d3e-a28c-416eb80ff370{fill:#afd6fc;}.uuid-c3eaa9b3-2c1d-4733-a955-b696e8cdfa16{fill:#f6de75;}.uuid-93687f1a-9fb0-465f-878a-0c6dc24158bf{fill:#add5fa;}.uuid-14349ce1-68d4-462c-b659-11b088322d05{fill:#add6fd;}.uuid-57efe81e-6182-4f66-b116-9d2b29c30d22{fill:#100311;}.uuid-b3dc6a37-b364-44ed-9d16-d0749b2ba5b5{fill:#c6dbec;}.uuid-65ab4da6-cbaa-4e74-b737-b0a036cb21cc{fill:#d0e7fc;}.uuid-b16b83de-9341-4291-91eb-bc68a7e3e39f{fill:#dce6d0;}.uuid-0d061316-bffa-436a-8a23-1bba682b40b0{fill:#230d23;}.uuid-e56d9a97-b381-4af3-a021-adc6319ab268{fill:#afd6fa;}.uuid-c073420e-06fa-467c-9f5e-b676d6d39ca3{fill:#d0e9fd;}.uuid-098bcef7-e7ec-48fc-8ff5-9481f1233072{fill:#747474;}.uuid-fbf48922-4d70-485a-a835-5719c9f2450d{fill:#b2d7f9;}.uuid-f0d56b97-414b-4461-a6c2-0e4d3abab393{fill:#dbe7cb;}.uuid-1f9477f2-e6ce-473c-9edb-0b5c3c01ce2b{fill:#acd6fc;}.uuid-cc8b6616-7cbe-492c-af07-327f8558aa5b{fill:#d1e9fe;}.uuid-5c1059bf-14dd-4c1c-bbca-1f4b13a9bb47{fill:#94c8fb;}.uuid-87af4f0e-38a7-415b-ba70-67a2c1292b27{fill:#e9d890;}.uuid-99cbb867-dcda-4b30-8bf4-bcc300cde4a9{fill:#96c7f8;}.uuid-908d4d5c-505f-49cd-a068-fed2c3a2e531{fill:#c9e6fd;}.uuid-89efbabe-bbdf-4b62-8276-9a0d6bc574e3{fill:#607589;}.uuid-f75bc329-0260-486e-b676-70fcf54d5a2d{fill:#92c6fb;}.uuid-01d5180a-debf-417c-ad09-19737339303d{fill:#1e0b1f;}.uuid-4cf6511a-5f0b-4648-b564-4b62f52b02dc{fill:#add6fc;}.uuid-72f40531-9700-4d2f-959e-e6f2fc7e5978{fill:#c0daef;}.uuid-714316c9-e035-484d-ae9c-d51c7b41d3de{fill:#d297d0;}.uuid-553ffff6-4566-4cc0-b023-781b06333937{fill:#94c5f9;}.uuid-090fa647-0937-4223-a229-74015066608a{fill:#c8e8fe;}.uuid-cd932166-4c52-4928-9a6b-97461fb625c7{fill:#130513;}.uuid-88aa8dcb-fd38-480c-a280-5aea6298d782{fill:#bad1e4;}</style></defs><polygon class="uuid-42a446f4-5687-4529-8c91-7a895dbd6740" points="147.18 566.39 329.98 562.73 380.1 486.9 356.83 389.5 147.18 566.39"/><rect class="uuid-8c0d6529-79d8-4903-89c3-06542edcb39f" x=".52" y="557.3" width="656.61" height="124.39" rx="42.41" ry="42.41" transform="translate(-21.59 11.95) rotate(-2.02)"/><path class="uuid-42a446f4-5687-4529-8c91-7a895dbd6740" d="M1052.49,1743.53c7.7,16.73,30.61,60.4,80.21,84.03,62.04,29.56,140.53,15.72,199.81-35.02,14.69-52.18,29.38-104.36,44.07-156.54,103.69-56.76,207-114.22,309.93-172.37,75.34-42.57,150.47-85.5,225.38-128.79,17.97-83.86,36.34-150.14,49.65-194.8,19.56-65.61,35.28-113.41,36.29-183.34.45-31.29,1.45-100.89-16.99-105.86-18.91-5.1-64.26,56.06-183.53,367.5-37.21,12.73-74.41,25.46-111.62,38.2l-155.43,58.87c61.61-103.76,148.85-270.48,98.26-321.5-.98-.99-2.02-1.94-3.1-2.84-11.3,4.51-23.05,10.18-34.92,17.33-65.01,39.17-96.16,100.28-110.23,135.45-25.11,20.41-63.48,50.92-111.55,86.43-95.78,70.76-123.36,82.55-155.82,114.09-39.71,38.58-85.39,105.44-102.22,228.27-19.4,56.96-38.8,113.92-58.2,170.87Z"/><path class="uuid-72ee4a33-428a-496f-997e-ab13320b35f8" d="M1974.86,962.75c6.06,6.5,13.94,9.17,19.8,10.39,12.32-35.02,14.78-63.86,15-82,.14-12.25-.63-28.94-7.1-48.02-2.35-6.91-10.09-29.74-16.73-28.98-5.81.66-5.77,18.7-12.18,68.21-6.31,48.72-11.02,67.27,1.22,80.4Z"/><path class="uuid-42a446f4-5687-4529-8c91-7a895dbd6740" d="M521.8,1754.37c26.12-21.15,65.87-46.09,116.27-49.03,32.59-1.9,48.31,6.64,74.48,7.64,36.74,1.4,89.5-12.27,156.6-82.12-6.47-73.66-12.95-147.31-19.42-220.97,12.36-43.69,23.66-104.91,18.28-177.35-12.22-164.62-102.38-276.43-139.43-317.64-65.86-81.58-131.73-163.15-197.59-244.73-16-54.09-32-108.18-48-162.26,1.28-8.72,9.73-73.82-36.93-122.49-27.13-28.3-59.41-36.97-73.43-39.84l-18.11,118.37c1.14,41.59,2.28,83.19,3.41,124.78,10.97,48.57,22.62,97.88,35,147.89,14.89,60.17,30.25,118.96,45.97,176.36-33.57-27.24-67.14-54.48-100.71-81.72,6.02-34.24,12.04-68.49,18.07-102.73,11.44-1.93,22.89-3.85,34.33-5.78-3.48-12.86-6.96-25.72-10.44-38.58-90.36,4.27-180.71,8.54-271.07,12.81.65,44.87,5.03,99.28,17.75,159.92,10.82,51.58,25.29,96.35,39.82,133.49,94.12,130.98,188.25,261.96,282.37,392.94l72.8,371.04Z"/><path class="uuid-d5d24674-8f5e-4138-9378-803f88c73195" d="M1911.89,534.65c12.42-.64,5.4,9.81,6.13,17.58,1.35,14.46,15.86,45.25,20.05,62.23,9.87,39.93,10.86,67.97-4.83,106.74-18.56,45.84-54.75,79.56-91.98,110.42,27.46,21.07,48.65,49.71,51.53,84.98-4.33,3.17-6.84,1.24-7.64-3.82-5.78-3.13-7.78-11.92-3.82-17.19-5.11.72-4.99.41-1.91-3.82-6.87-1.54-8.19-5.72-5.73-11.46-5.41,1.3-7.01-3.26-3.82-7.64-5.84-1.68-11.96-4.43-9.55-11.46-5.56,1.73-8-2.63-5.73-7.64-8.95-1.01-24.61-12.9-20.77-22.52-8.64,1.12-14.45-.28-17.43-4.22-15.18-2.24-35-3.04-49.5,2.04-22.17.68-44.31,2.31-66.24,5.8-3.24-1.72-6.67-2.45-10.31-2.12-32.12,9.18-64.06,18.82-95.52,30.37l-11.43.18c-52.13,22.74-103.41,49.79-145.7,88.66l-5.18,1.1.38,4.65-28.08,24.08c-2.07,1.32-6.48,7.64-4.04,9.41,33.96,24.65,68.96,47.86,105.9,67.79,7.97,5.13,15.72,10.56,23.24,16.29-.29.45.29,1.46,0,1.91-.16,3.29-1.43,5.2-3.82,5.73-15.38,23.46-24.89,41.44-45.83,61.11-6.45,1.83-16.27-4.65-18.6-10.23l-8.14-6.96c-2.65-1.85-5.1-3.91-7.64-5.73-8.04,1.2-17.19-5.71-19.1-13.37-.78-.57-1.32-1.5-1.91-1.91-8.68-1.12-13.13-4.94-13.37-11.46-.54-.16-1.25.09-1.91,0-8.64-2.08-13.1-5.9-13.37-11.46-1.7-1.44-2.75-2.9-3.82-3.82-3.41.11-5.36-1.93-6.96-4.71l-2.57.9c-3.3-3.9-6.49-7.72-9.57-11.46-.53-.73-2.56-2.32-3.82-3.82-5.33.77-8.22-2.1-8.67-8.61-8.01-2.02-15.89-8.08-18.07-16.22-.73-.47-1.3-1.6-1.91-1.91-2.69,1.57-5.87,1.57-9.55,0-1.23.15-2.6-.18-3.82,0l-27.06,9.84c-1.77-2.76-4.85-3.49-9.23-2.2-3.03.4-6.49-.37-9.55,0-1.81,4.95-6.84,3.3-9.55,0-1.23-.65-2.63-1.51-2.82-2.82-.63-4.26.32-35.41.96-40.43,1.45-11.51,4.01-24.86,9.5-35.05-.71-10.09,16.54-11.27,23.55-5.49,17.25,24.15,48.2,21.32,43.61-12.93.19-7.14,2.62-10.55,7.31-10.23l3.6-3.03,20.49,1.36c35.4,1.79,55.86-22.29,31.29-51.8-10.3-6.75,5.44-26.02,15.99-27.2,13.97,1.97,25.41-.91,29.63-15.57l4.03-1.15c-1.51-6.32,18.85-45.85,21.12-47.13,3.38-2.34,6.21-3.47,8.35.23,8.13,57.51,84.51,51.6,111.83,12.14,42.17-4.79,59.58-44.26,71.17-80.3,7.52-7.15,28.75,6.03,35.73,10.89,52.21,44.04,143.04,78.01,98.1-30.41-11.28-13.2-11.03-20.83.77-22.9,32.76-2.18,90.24-7.31,94.29-48.17-3.21-3.49-5.19-6.88-5.93-10.16-4.32-16.2-2.74-39.01,5.73-53.47l2.12-4.79c7.76-4.05,10.87-12.64,9.34-25.77-1.69-.52-1.66-1.16,0-1.91Z"/><path class="uuid-d5d24674-8f5e-4138-9378-803f88c73195" d="M1025.75,744.72c4.04,1.27,5.87,6.14,5.49,14.61,2.75,3.89,3.47,7.29,2.15,10.21,7.66,8.38-2.02,25.98-7.98,34.54-9.78,14.04-24.6,24.18-39.22,32.65-30.71,14.07-60.51,29.53-89.41,46.39-8.78,6.53-28.2,22.8-19.98,33.47,3.24-3.62,5.16-4.57,7.64,0-9.97,4.06-22.62,1.16-33.4,1.93-8.39.6-18.26,3.47-26.68,3.88-37.64,1.85-84.69-12.95-115.62-34.46-6.51-4.52-6.01-8.88-11.46-15.28l-3.82-5.73c-7.54-25.22-57.13-77.23-76.39-99.31-5.92-17.89.22-44.75,6.63-62.72l4.83-4.13,4.35,1.84c12.91-12.75,26.79-25.22,42.57-7.56-2.79,15.83-8.01,31.35-15.67,46.55-14.32,32.71,4.44,53.71,22.33,15.15,13.26-30.68,43.35-98.45,76.01-43.45-.26,21.29-3.98,42.49-11.18,63.6-4.12,28.9-3.78,47.18,30.5,33.36,50.15-20.22,93.89-49.68,138.19-80.37,33.05-18.62,59.79-25.72,93.98-5.89,6,3.48,20.64,13.78,16.15,20.71Z"/><path class="uuid-d5d24674-8f5e-4138-9378-803f88c73195" d="M1083.04,884.13l-5.7,3.54c-13.06-.6-50.64-1.12-56.27,13.76-5.99,15.82,18.62,42.56,28.87,53.15,23.93,24.71,50.8,46.57,78.49,67.92,2.14,2.53,3.55,5.44,4.27,8.69-2.72.65-14.22-.84-17.38-2l-9.36-7.54c-77.57-33.93-117.11-100.56-210.08-103.13l-9.55-1.91c-.64-.02-1.27,0-1.91,0-2.54-.04-5.09.06-7.64,0-1.14-14.77,18.22-29.72,30.05-38.16,26.31-15.17,53.4-28.92,81.29-41.24,24.71-13.03,46.54-30.81,52.1-59.2l4.62-2.72c15.76-4.55,19.93,22.24,12.16,33.51-31.67,20.76-20.4,46.93,15.44,45.51,11.99,3.31,23.63,24.31,10.6,29.84Z"/><path class="uuid-d5d24674-8f5e-4138-9378-803f88c73195" d="M1079.22,891.77l2.93,3.27c-6.15,14.7.97,28.38,17.33,29,18.52-6.22,40.21-12.18,46.85,12.33.82,23.38,4.71,46.79,33.12,31.27,15.48-17.93,31.39-20.79,45.32.05,6.05,17.82,18.07,30,35.54,17.92l4.15,1.64c3.16-2.46,4.81-1.28,5.48,2.49l-3.42,27.42c-2.69,11.12-.83,18.98,5.58,23.57l-2.59,4.17c-6.56-2.99-15.13-1.3-22.35,1.42l-1.79-1.78c-14.56.7-29.35-.5-43.92,0l-12.88-1.04c-7.2,4.01-16.25-.64-23.48-4.37-1.51,2.78-4.26,3.22-8.25,1.33-7.42,5.23-19.79,2.13-18.42-7.39.81-3.34,2.76-3.75,5.54-3.29-26.77-18.98-53.23-38.74-77.29-61.83-41.15-39.51-75.28-79.16,9.35-79.9l3.2,3.69Z"/><path class="uuid-d5d24674-8f5e-4138-9378-803f88c73195" d="M895.89,918.51c-3.06-.08-7.93,1.16-9.55-1.91,3.06.08,7.93-1.16,9.55,1.91Z"/><path class="uuid-d5d24674-8f5e-4138-9378-803f88c73195" d="M1142.25,104.95l.96,4.62c-12.98,12.29-1.33,18.72,34.95,19.28,59.77,19.02,45.37,41.58-43.19,67.68-28.53,10.85-13.25,31.84,6.4,42.29l31.65,17.79c5.66,3.2,6.77,8.2,1.46,11.95-38.35,2.45-48.14,53.05-51.28,84.43-7.22,72.1,25.68,103.87,81.95,142.89,54.46,36.42,23.88,74.15-24.81,38.25-28.85-27.22-61.22-48.12-97.09-62.7-51.31-19.31-105.53,32.33-38.88,59.48,22.52,8.14,44.34,17.8,65.45,28.97,9.37,5.9,37.81,25.87,17.16,28.25l-1.63,4.1c-16.72,4.68-16.31,20.15-11.08,34.47,3.16,15.29-9.4,28.57-24.54,28.21-12.58-3.97-22.86-2.05-30.83,5.76l-4.5-1.88c-12.78,14.01-20.59-7.2-16.28-19.88l7.87-24.08c.1-6.64,1.63-11.72,4.6-15.24l2.81-3.97c4.64,1.42,50.43-2.13,48.77-8.22-17.13-8.33-36.67-10.02-58.64-5.09l-2.49-3.73-5.64-2.36c-7.69-13.01-22.16-16.71-36.43-16.74-20.42,2.96-39.03.92-55.83-6.1-13.83-11.98-26.04-22.21-44.2-11.09-8.59,8.77-14.27,9.74-17.05,2.92l-1.38-28.04c-12.03-26.11,10.76-37.15,33.49-34.6,52.95,10.88,136.04,12.89,94.33-66.06l-21.39-39.93c-10.71-17.79-15.66-42.93,13.18-25.88l52.93,37.3c25.37,12,19.9-28.37,14.48-41.55-10.69-25.94-24.93-41.77-45.43-60.39-15.31-16.08-37.95-44.87-6.12-56.68,34.29-7.03,75.03-28.16,23.98-56.1-3.35-7.05-7.44-11.36-12.29-12.93,1.08-7.96,7.48-4.81,14.14-7.82,32.97-14.86,60.91-42.3,100.44-47.57Z"/><path class="uuid-d5d24674-8f5e-4138-9378-803f88c73195" d="M1860.32,404.78c4.35,10.38-4.32,27.63-9.88,37.73-9.89,17.95-29.76,38.74-51.23,38.66.54,3.85-1.07,4.69-3.82,1.91-.14,1.58-.55,3.37-1.86,3.85-14.7,5.35-46.05,135.14-50.25,155.98-4.64,34.34-21.25,35.89-50.77,35.27-11.87,7.28-19.46,19.76-22.78,37.44l-7.05,10.26c-2.28,31-24.84,66.06-57.38,70.84-51.45,7.55-63.23-63.73-67.35-101.24-15.74-70.13-48.36-39.05-62.8,8.21-13.29,18.1-44.51-1.74-33.07-22-6.23-5.75-6.82-16-1.91-22.92l-4.28-6.85c1.65-36.88-13.96-37.65-46.62-35.13-1.48-3.04-2.34-6.87-2.58-11.5l-4.36-.47c-8.48-21.69-25.91-12.96-41-3.04-8.25,4.28-25.77.46-23.39-9.86.13-4.88,10.33-18.36,14.54-21.82l4.56.81,3.32-3.29c6.74,1.1,13.22-.33,18.4-5.06,17.97-22.05,39.04-22.25,56.27.56,5.26,1.78,8.55,4.38,9.87,7.79l6.3,3.02c16.36,26.93,35.6,17.66,53.42-2.3l37.88-45.66c20.02-10,26.82,19.82,26.53,35.11-7.82,118.86,53.98,137.04,132.97,57.66,41.54-41.75,69.27-101.91,45.96-160.51-.91-4.55,1.73-6.07,6.06-6.65,32.41,11.31,74.7,24.96,53.74-27.99-9.24-15.19-15.09-30.86-17.56-46.99,5.42-9.97,52.41-2.08,63.46-.11.02-2.27,1.72-3.4,3.75-4.19,7.47,7.65,3.13,3.54,7.19,12.86,1.95,4.48,6.87,12.84,9.6,17.13,1.94,3.04,2.15,5.78,6.12,2.47Z"/><path class="uuid-d5d24674-8f5e-4138-9378-803f88c73195" d="M1835.49,370.4l-1.67,3.67c-23.8-2.69-47.35-4.85-70.66-6.47,8.3,18.66,14.68,37.48,19.14,56.43-6.82,36.35-36.31,30.72-62.9,20.93,36.34,63.38,3.32,133.13-45.28,178.96-75.73,71.41-129.95,45.45-125.02-60.79,2-5.39-8.45-58.25-16.67-51.76l-42.65,52.95c-10.08,11.38-36.73,26.61-48.47,10.68-1.85-2.51-1.82-3.31.76-6,.48-3.89,2.4-8.1,5.75-12.64,3.13-19.98,7.88-40.83,32.84-40.05,23.89,5.47,44.77-3.92,35.37-31.21l2.43-3.95c.54-14.59,11.48-32.64,21.01-43.92-4.63-3.78,2.33-13.58,7.64-11.46,5.63-25.13,29.44-41.85,53.62-26.54,49.98,31.64,23.59,87.74-3.36,125.17-19.43,26.37-12.58,68.67,26.7,46.16,68.76-39.42,87.45-150.85,55.97-219.55-4.82-17.05,15.35-10.99,24.35-5.39,25.61,23.05,57.89,20.03,47.82-21.42-2.55-10.64-11.19-48.43-4.51-56.08,1.57-1.79,3.14-2.95,5.58-2.84,4.25,2.01,8.1,2.03,11.55.08,25.21,31.23,46.81,77.4,70.66,105.04Z"/><path class="uuid-14349ce1-68d4-462c-b659-11b088322d05" d="M1144.16,104.95c15.04-5.71,20.58,1.77,6.68,11.61,48.48-1.94,117.33,37.19,39.49,70.25-22.29,6.16-42.75,14.66-61.37,25.48-2.19,7.81,53.09,41.63,56.44,40.5,44.47-46.18,124.76-109.93,190.08-68.45,12.11-11.82,26.65-20.84,43.64-27.06,8.93-3.18,12.4-10.02,10.4-20.52l4.93-1.26c1.24.16,2.58-.16,3.82,0,15.55,4.76,8.96,28.7-4.67,33.48-1.6-.29-50.88,25.87-44,28.32,36.58-7.12,75-.02,107.8,17.33,5.41-16.34,19.59-24.14,35.64-27.71,24.53-1.35,45.01-8.44,61.45-21.28-3.86-5.77-3.73-9.45.38-11.03,3.46-3.08,8.09-.64,11.46,1.91,6,2.42,7.1,5.95,5.54,12.37-6.06,24.88-47.98,30.5-68.83,32.99-7.68-1.29-36.2,14.98-28.53,21.75,27.58,15.12,49.83,40.2,57.42,71.36,9.2-18.65,23.75-35.27,42.64-44.26,6.15-21.12,18.49-31.95,38.11-40.79,10.29-5.68,10.42-13.63,7.17-23.92-.15-9.17,4.73-7.93,11.41-4.68,1.34,1.05,2.73,5.04,3.82,5.73,10.83,10.2,2.33,27.03-8.39,34.06-2.59,1.21-33.49,19.34-30.04,22.55,18.67.92,31.01,13.11,32.77,31.42.26,15.13,2.17,29.88,5.74,44.25,4.67,6.59,12.97,10.56,24.9,11.89,21.16,15.64,51.98,33.67,42.89-10.41l-9.52-29.05c-6.01-16.58,6.53-44.8,25.68-32.15,1.62,1.93,3.81,3.35,5.73,5.73-.08,10.54-11.04,2.26-13.3,3.85-2.59,1.82-2.06,19.41-1.73,23.6,1.46,18.57,19.96,60.69-5.54,69.43-27.61,9.46-35.75-20.17-61.54-18.56-1.92,1.92,9.17,27.07,10.56,32.39,14.2,54.36,1.09,129.05-36.33,171.97-12.04,13.8-49.75,47.09-66.79,26.64-22.22-26.67,11.21-59.61,22.63-82.26,13.77-27.33,20.75-61.89-5.56-83.77-28.04-23.32-44.3-8.43-60.12,17.15-4.05-2.3-5.15-15.9-1.91-19.1l-.56-4.3c8.76-7.81,18.52-13.2,29.28-16.18,1.82-4.73-18.86-87.72-23.45-98.28-19.12-44.05-65.77-66.21-111.06-74.66-48.31-9.02-55.98-2.7-59.77,42.62-1.7,6.23-5.29,18.13-10.14,20.94-5.21,3.91-11.93-6.41-11.46-11.46,4.8-15.03,8.03-29.49,8.57-45.52.42-12.46.69-25.22-13.48-28.63-58.06-13.98-113.18,31.87-151.56,70.62,23.5,11.58,45.97,32.44,57.17,57.01,3.71,4.35-1.52,13.6-7.64,11.46-1.57.39-3.41.43-4.28-.8-16.21-22.98-46.36-65.41-79.88-49.38-23.19,11.09-31.59,48.35-34.11,71.77-7.52,69.93,23.56,97.4,78.16,137.16,15.02,12.28,48.45,43.21,40.27,64.43-3.76,9.76-16.13,17.13-24.98,11.72l-4.44.75c-5.38-6.38-12.36-10.03-20.67-7.38l-3.54-2.91c-32.67-26.05-67.27-49.34-103.79-69.88-13.12-6.57-33.3-16-46.11-5.34-11.16,9.29-30.05,32-6.24,37.56,40.42,15.31,85.82,32.66,109.61,71.81l-1.21,5.95c-3.33,2.19-7.87,1.1-13.64-3.27-4.97.21-8.06-1.25-9.28-4.37.92-2.44,7.17-.47,4.78-3.82-21.68-30.41-73.6-40.25-103.48-56.95-27-15.09-23.31-46.47,3.77-58.03,43.31-18.48,89.3,13.72,122.56,38.64,19.99,14.98,38.05,41.11,66.43,35.77,19.29-3.63,7.59-20.53-1.17-29.42-36.54-37.06-83.09-50.94-98.11-109.1-9.02-34.92-.89-124.64,40.09-138.38,4.46-1.49,12.97.27,12.85-4.3-15.99-13.11-69.96-29.17-57.46-57.52,8.12-18.42,91.77-29.49,93.82-49.53,1.43-13.99-25.63-21.31-35.83-23.36-17.89-3.58-59.66,1.16-32.97-27.18.62-.08,1.28.03,1.91,0Z"/><path class="uuid-d5d24674-8f5e-4138-9378-803f88c73195" d="M1027.66,160.33c3.14,3.19,6.12,7.4,8.93,12.61l16.67,12.87c17.78,14.53,3.78,29.94-13.42,34.14l-25.4,7.39c-30.07,8.97-15.45,38.68,1.39,54.06,21.94,20.3,49.52,51.05,54.51,81.41,2.75,16.71-8.35,32.04-24.06,19.39l-47.09-34.13c-27.11-14.81-30.15-2.16-9.11,37.95l17.39,32.67c38.57,73.61-41.5,72.24-92.34,60.96-15.15-.71-27.5.85-37.11,13.59l-5.46.45c-10.97-13.93-25.3-19.28-42.58-20.17-12.25,3.62-16.34,3.38-21.62-8.71-19.36-7.4-20.75-31.25-7.96-44.76-.62-.8.02-1.44,1.91-1.91-4.53-5.01,1.72-21.3,5.61-26.42,7.5-9.87,18.65-11.38,27.39-2.55,13.88,18.61,31.07,32.59,51.57,41.93,79.58,22.79,60.42-14.43,34.21-60.36-13.16-39.56,7.54-48.9,43.72-50.74,20.01-1.25,27.44-8.4,22.28-21.45-15.43-36.13-16.66-69.22-14.18-108.44l3.19-4.97.79-1.87c5.77,1.16,11.11-1.03,14.48-5.77,12.63-4.91,24.08-11.51,36.29-17.19Z"/><path class="uuid-d5d24674-8f5e-4138-9378-803f88c73195" d="M727.83,439.16c9.99-5.57,27.79,18.32,21.01,26.74l2.12,28.35c3.34,4,5.81,8.55,7.43,13.66,1.85,1.15,2.37-.44,1.56-4.77l2.26-.96,3.1-4.83c42.98-21.41,102.89-43.11,113.91,24.64.02,14.06.71,28.01,2.05,41.85,19.27-25.09,33.55-32.51,59.78-8.05,17.7,5.89,36.95,7.39,57.73,4.51,10.9.59,32.37,5.48,30.8,18.27-63.23,8.12-127.3,10.92-190.98,7.64l-4.56-3.71c-11.51-62.99-64.87-30.57-87.2,5.54l-5.64,1.99c-3.32,5.67-17.25,7.7-21.01,1.91l-3.7-2.68c.62-20.86,1.29-55.32-19.81-66.61-23.25-12.44-41.43,14.81-49.05,33.01-1.15,7.59-7.05,2.59-8.59-3.87-5.32-.35-8.95-4.47-6.69-9.5,6.05-10.16,2.54-22.55,3.84-33.4,3.05-25.59,11.29-52.84,19.08-77.36l4.06,2.63c11.98,18.24,31.6,19.39,58.85,3.45l9.65,1.56Z"/><path class="uuid-d5d24674-8f5e-4138-9378-803f88c73195" d="M964.64,188.98c3.09-3.18,4.36-1.9,3.82,3.82,3.92.06,4.73,1.56,4.41,5.06-6.57,34.01-2.73,67.73,11.54,101.16,3.12,8.91-1.49,14.94-10.42,17.31l-34.08,5.11c-44.79,7.71-19.06,60.44-3.58,84.81,23.77,53.31-68.25,22.14-83.21.12-22.43-35.88-44.06-37.02-57.39,6.08l-4.87,1.88c-6.82,4.41-16.61-3.49-22.41-8.27-13.28-10.93-23.71-31.81-19.61-49.03-3.48-2.45-2.74-7.34-1.91-11.46-4.23-7.94,8.06-19.34,14.53-24.47,20.21-16.05,48.06-16.02,68.36-.34,34.88,29.43,52.21,43.08,65.77-10.68,7.93-31.44-.36-74.88-30.65-90.47l-1.51-3.9,101.22-26.74Z"/><path class="uuid-d5d24674-8f5e-4138-9378-803f88c73195" d="M1434.44,135.5c-4.6,6.05,1.34,12.35-2.65,17.24-9.95,12.17-47.59,18.8-55.6,38.11-31.56-30.12-79.87-13.61-113.67,4.77-27.47,14.93-54.49,37.23-74.43,61.28l-2.55.64c-10.4-8.09-64.04-31.13-60.22-46.2,3.82-15.04,88.44-26.29,94.75-50.52,6.74-25.88-28.36-34.61-46.87-38.13-5.95-1.13-23.9-1.64-27.17-3.39-6.28-3.36,11.63-9.92,9.57-14.34-3.79.13-7.66-.22-11.45-.01,1.52-4.67,4.28-3.59,7.98-3.39,92.83,4.98,189.54,22.06,282.3,33.94Z"/><path class="uuid-d5d24674-8f5e-4138-9378-803f88c73195" d="M1892.79,949.07c-4.76,37.86-45.12,88.46-76.39,108.86-31.05,20.25-122.51,47.55-159.56,51.47-1.94.2-6.58.9-6.55,2.96.05,4.36,66.64,48.06,68.52,53.8,1.22,3.74-27.03,70.25-30.36,72.35-3.13,1.97-25.09-6.04-30.47-7.84-25.38-8.44-49.71-19.81-74.57-29.51,13.58-30.76,24.72-63.67,38.2-93.58,4.93-.18,10.13-.15,15.61.09-.16-6.68,6.29-9.5,19.34-8.47,72.75-15.7,150.63-33.55,200.43-93.47,7.45-13.9,14.36-28.16,20.73-42.77l5.52-2.42,3.47-6.2c-.31-6.47.65-11.09,6.08-5.26Z"/><path class="uuid-d5d24674-8f5e-4138-9378-803f88c73195" d="M821.4,234.81l3.38,3.41c-4,36.08,28.57,73.49,64.78,51.4,8.24-.19,6.76,8.7,5.33,14.88-11.05,56.49-37.87,38.24-68.73,11.03-56.51-32.89-100.75,25.66-90.9,80.8l-1.71,12.27c4.46,10.36-13.58,22.31-23.73,23.49l.82,1.33c3.73,7.06-14.67,10.81-20.6,11.71-13.61,2.06-32.32,1.58-30.18-17.04-.95,1.3-2.48,1.81-4.6,1.51-3.21-10.06,5.44-12.72,7.56-16.81,43.59-84.21,72.28-131.13,158.59-177.99Z"/><path class="uuid-8c0d6529-79d8-4903-89c3-06542edcb39f" d="M1869.87,339.85c4.32,56,38.48,113.65,99.3,118.43l-27.32,13.71c-20.28,13.14-27.67,26.83-33.78,49.29.27,11.79-1.79,23.11-5.73,34.38,4.02,3.95,2.63,8.55-1.91,11.46-2.74,17.75-3.9,35.69-5.73,53.47,5.14,3.36,3.9,9.81-1.91,11.46,1.41,8.94-10.67,2.19-3.82-3.82-3.73-3.06-3.71-6.47,0-9.55l-3.95-3.98c-1.06-11.93-3.24-23.68-6.55-35.23l2.86-4.71c-5.61.15-6.83-7.22-1.91-9.55l-4.59-2.67c-2.32-13.54-6.61-26.33-12.9-38.38l.3-6.7c-6.27.57-10.37-5.63-9.55-11.46l-5.45.19c-12.69-11.37-29.24-15.9-45.31-20.26l-2.72-4.75c37.06-15.22,51.36-38.04,61.11-76.39,5.72-22.49,7.07-41.93,7.64-64.93.54-1.67,1.18-1.64,1.91,0Z"/><path class="uuid-8c0d6529-79d8-4903-89c3-06542edcb39f" d="M683.89,276.84l-26.14,12.98c-50.47,30.99-41.58,101.18-48.97,152.97-.35,2.45-.01,9.61-3.16,9.72-2.64-22.36-5.29-44.92-10.5-66.85-11.39-47.93-26.37-76.49-79.18-82.83-3.31-.4-5.41.46-2-3.06.68-.7,14.38-5.68,17.83-7.98,41.66-27.76,49.09-84.97,50.94-131.45l10.51,40.07c14.89,41.54,44.61,73.18,90.68,76.43Z"/><path class="uuid-d5d24674-8f5e-4138-9378-803f88c73195" d="M1759.1,259.64c-11.66-1.99-20.93,4.55-22.79,16.35-3.57,22.7,19.69,47.98,10.37,67.7-10.95,23.18-34.91-2.69-48.3-9.01-15.19-7.17-22.98.82-28.55-19.19-7.7-27.64,7.29-67.48-38.71-68.27,7.94-28.69,52.85-20.53,43.95-60.14,35.42,22.38,56.78,40.1,84.03,72.57Z"/><path class="uuid-d5d24674-8f5e-4138-9378-803f88c73195" d="M1671.25,181.34c-13.44-2.55-5.09,8.1-5.59,16.19-1.11,17.74-25.57,18.65-37.39,33.45-5.73,7.18-7.85,19.26-11.02,22.41-2.18,2.16-9.83,4.84-13.75,8.21-14.27,12.26-27.39,26.58-30.59,45.78-5.08-9.17-6.4-19.8-10.79-29.32-6.18-13.43-19.01-29.01-30.26-38.49-6.28-5.3-15.58-9.29-20.61-13.67-8.26-7.19,9.52-20.49,16.03-23.33,16.74-7.3,36.72-5.45,54.63-12.21,13.27-5.01,33.22-16.75,24.41-33.84,15.32,3.11,53.1,15.53,64.93,24.83Z"/><path class="uuid-d5d24674-8f5e-4138-9378-803f88c73195" d="M1594.86,154.6c-1.42,7.85,10.86,8.97-3.95,19.92-23.3,17.24-67.1,8.45-84.96,31.54-3.43,4.44-3.38,9.71-7.53,13.43-33.4-18.65-76.24-26.62-113.63-17.16-.59-6.95,5.45-13.15,10.5-17.17,9.89-7.89,38.66-18.23,44.95-25.72,3.64-4.33,4.3-20.84-1.98-23.94,51.41,6.58,105.75,11,156.6,19.1Z"/><path class="uuid-14349ce1-68d4-462c-b659-11b088322d05" d="M1835.49,370.4c.56.65,1.29,1.28,1.91,1.91l.99,9.49c-9.45-3.92-60.95-9.39-65.09-3.82,2.24,22.83,30.65,53.43,22.94,76.36-7.68,22.85-50.11,5.13-65.78.1,18.5,42.95,9.27,87.69-13.75,126.62-27.93,47.22-127.81,141.78-164.21,54.19-12.79-30.78-3.53-54.29-7.46-84.21-1.08-8.22-8.98-29.94-20.03-22.26-12.93,15.4-25.98,33.61-39.94,47.9-23.62,24.19-42.31,25.6-60.18-5.76,1.31-5.31,13.74-5.48,17.19-1.91,9.6,20.28,38.34,1.82,47.7-10.55l40.53-50.15c10.81-6.25,16.43,16.5,18.23,23.94,8.49,35.16-2.52,81.68,19.91,111.86,34.13,45.93,100.36-15.9,123.75-45.56,29.95-37.97,48.4-80.83,33.91-129.29-1.37-4.58-11.27-23.49-10.94-25.3,1.63-8.85,24.95,3.9,29.71,4.6,8.99,1.33,14.77.77,21.89-4.61,30.76-23.27-8.75-54.58-7.68-81.21l76.4,7.65Z"/><path class="uuid-14349ce1-68d4-462c-b659-11b088322d05" d="M746.92,345.58c.13,2.31-.51,3.58-1.91,3.82-1.98,13.26-3.88,26.67-3.82,40.11,5.05,5.06-.46,18.97-7.64,19.1-12-52.51,11.83-114.86,75.32-104.92,34.28,5.37,62.72,71.2,80.34,7.53,1.74-6.29,3.55-12.44,2.84-19.11-39.85,26.29-77.32-17.06-70.64-57.29,1.41-.77,2.35-2.12,5.73-3.82,3.53-1.33,7.19-2.59,7.79,1.61-1.42,24.08,5.93,57.56,36.96,52.67,36.32-5.72-.81-49.42-14.19-63.06-1.42-4.04,0-4.76,3.81-6.5.59-.1,1.29,0,1.91,0,10.73-.12,19.15,11.81,24.45,20.43,10.42,16.94,17.12,40.12,14.74,59.83-1.6,13.21-13.4,53.31-28.83,55.33-16,2.09-41.61-27.69-57.33-34.19-28.55-11.8-56.8,1.86-69.52,28.46Z"/><path class="uuid-94b972aa-29a7-4da1-b00f-6fb67ade4127" d="M372.61,345.58c4.85,19.29,13.22,40.52,15.08,60.36.54,5.76,1.11,38.25-.7,40.91-5.08,7.46-24.89,4.7-25.85,5.66-.68.69-6.85-9.93-7.65-18.12-1.25-12.86-4.23-27.59-5.71-41.08-1.33-12.13-11.13-80.75-3.65-85.75,2.12-1.42,6.25-.05,8.41,1.75,8.29,6.91,13.05,27.7,20.07,36.26Z"/><path class="uuid-d5d24674-8f5e-4138-9378-803f88c73195" d="M861.51,215.71c-2.3,8.69,3.43,7.3,6.77,11.33,9.12,11,21.98,31.25,23.49,45.51s-23.24,19.53-34.93,15.63c-22.26-7.43-25.19-31.01-25.88-50.59-.13-3.67,1.94-7.66-3.82-6.59,9.03-4.55,24.96-13.64,34.38-15.28Z"/><path class="uuid-3278ef7e-7dd6-4931-93d8-e19edfb2a5e1" d="M655.25,429.61c.25-1.36,5.98-16.14,9.53-13.36,4.65,3.65-9.04,19.08,5.25,24.34,12.08,4.44,23.99-.39,35.5-3.76,2.42-.71,4.78-3.33,5.1-3.4,3.99-6.83,17.58-1.93,17.19,5.73-15.98,2.37-32.21,14.91-48.7,13.46-10.01-.88-24.25-10.08-23.87-21.1.02-.62-.11-1.32,0-1.91Z"/><path class="uuid-d5d24674-8f5e-4138-9378-803f88c73195" d="M1892.79,918.51c.08,1.26-.06,2.55,0,3.82,1.76,4.91,1.77,10.35,0,15.28-.03.64.04,1.28,0,1.91-2.38,1.75-2.38,3.66,0,5.73-.11,1.25.16,2.58,0,3.82-6.24-1.3-2.54,3.1-4.33,7.13-.23.52-3.86,1.83-5.22,4.33-4.45-3.89-3.64-17.55,1.91-21.01-4.82-1.81-4.71-5.23.84-5.12-3.19-4.52-3.94-8.22,1.07-12.07-5.09-4.41,1.51-8.9,5.73-3.82Z"/><path class="uuid-b3dc6a37-b364-44ed-9d16-d0749b2ba5b5" d="M1911.89,534.65c.19.57-.17,1.32,0,1.91.84,13.66-2.35,20.03-9.55,19.1-1.38-11.99,2.66-23.12,5.73-34.38-1.48,5.6,2.55,9.56,3.82,13.37Z"/><path class="uuid-16acabc1-9fa3-49b9-b1a5-d85d8e954640" d="M991.37,177.52l-.02,7.65c-4.43-.95-10.8-.59-15.26,0-1.32,3.18-3.87,5.73-7.64,7.64-.08-.32-3.54-3.76-3.82-3.82,8.89-20.08,8.88-6.93,14.27-6.37,2.82.3,9.29-3.86,12.46-5.09Z"/><path class="uuid-553ffff6-4566-4cc0-b023-781b06333937" d="M1885.15,912.78c3.11.43,5.27,1.96,7.64,3.82.05.63-.04,1.28,0,1.91-3.2-.97-5.39,3.74-5.73,3.82-1.45,5.82-7.61,5.26-9.55,0-5.1-2.76-5.09-6.82,0-9.55,2.12-5.38,5.59-5.53,7.64,0Z"/><path class="uuid-a4cd7125-b096-4676-a428-4bb01141e2f6" d="M1606.32,156.51c-3.91-.79-7.54-1.29-11.46-1.91,1.18-6.54,9-2.85,11.46,1.91Z"/><path class="uuid-d5d24674-8f5e-4138-9378-803f88c73195" d="M1892.79,937.61c.21-4.96.24-10.32,0-15.28,3.21,3.01,3.18,12.35,0,15.28Z"/><path class="uuid-d5d24674-8f5e-4138-9378-803f88c73195" d="M1892.79,939.52c-.11,1.89.16,3.84,0,5.73-5.83,1.18-3.59-3.09-3.8-7.64l3.8,1.91Z"/><path class="uuid-098bcef7-e7ec-48fc-8ff5-9481f1233072" d="M1869.87,339.85h-1.91c.05-2.18-.81-9.57.95-9.57,2.01,2.05.73,6.68.95,9.57Z"/><path class="uuid-b11b1bec-fa01-4aad-b794-75c051ac90c7" d="M263.75,792.46c7.02,8.45,11.23,18.94,12.65,31.47,45.99,24.04,91.15,49.03,135.46,74.98l.85,4.32c13.04,1.54,25.84,12.22,36.29,21.01,2.57,1.64,5.32,4.57,7.62,6.71l-4.35,2.43-174.49-100.72c-2-2.28-7.48.31-8.11-.17-1.41-1.09-8.54-29.65-9.74-34.3-.38-5.39.9-7.3,3.82-5.73Z"/><path class="uuid-cd932166-4c52-4928-9a6b-97461fb625c7" d="M238.92,691.25c3.46-.24,4.73,2.31,3.82,7.64,1.44,1.79,2.82,3.62,3.96,5.58,5.43,9.42,18.58,69.86,17.99,81.24-.12,2.26-.49,4.51-.93,6.76l-3.82,5.73c-9.02-34.74-16.14-70.2-24.83-105.04-1.67-.54-1.64-1.18,0-1.91.49-1.58,2.81-1.38,3.82,0Z"/><path class="uuid-ad5222e4-ea25-4c14-9aef-b3a071971bcc" d="M380.25,677.88c4.3-1.12,5.85,4.81,6.69,7.6,3.72,12.43,5.55,25.92,8.59,38.23-1.22-.38-2.77-1.79-3.82-1.91-4.27-.92-4.99-1.86-2.17-2.82l-1.65-6.73c-6.67-2.16-12.87-22.01-7.64-26.74-.39-2.27.24-5.19,0-7.64Z"/><path class="uuid-714316c9-e035-484d-ae9c-d51c7b41d3de" d="M865.33,1630.86v-15.28c3.28,3.2,3.14,12.08,0,15.28Z"/><path class="uuid-485f88dc-7170-4f76-97ed-791ad9d7eb1b" d="M697.27,872.68c-2.01-2.36-1.02,3.62-3.82-5.73,2.74.83,3.79,2.94,3.82,5.73Z"/><path class="uuid-14349ce1-68d4-462c-b659-11b088322d05" d="M1816.4,826.84c4.16.13,21.21-.56,22.91,1.93,1.44,2.11-3.94,5.44-2.99,7.61.65,1.48,14.71,13.33,18.27,17.19-.86,3.33-.86,7.15,0,11.46-2.88,2.37-6.12,4.03-9.72,4.97l-101.69,8.13c-94.8,5.22-179.54,42.68-253.46,100.61-6.13,4.81-34.54,28.06-35.31,31.44-.13.59,9.22,4.43,10.94,4.99,17.69-20.13,42.19-34.11,65.82-47.59,99.06-56.5,207.33-90.58,322.95-96.58-1.65-1.87-.99-3.7.47-5.96-1.39-4.69,1.71-6.37,5.73-3.82,3.23,3.99,6.22,6.24,9.55,11.46-3.58,4.23-3.28,6.19.9,5.88l2.92,3.67c4.61,5.67-3.39,8.56-5.73,1.91-3.83,1.97-7.83,3.94-12.17,4.42-70.35,7.68-127.13,14.19-194.9,38.12-62.36,22.02-129.62,56.01-179.95,97.69l-6.39,1.09c-6.01,1.11-6.01,1.75,0,1.91,4.33-3.05,10.67-1.2,19.03,5.55,44.66-28.22,91.59-51.83,140.81-70.84l6.31.36c4.1,3.81-4.03,16.37-9.55,15.28l-3.87,5.45c-39.6,15.2-78.35,37.37-114.88,60.21,4.91,2.35,6.93,5.29,6.07,8.82l1.07,4c-10.44,8.03,6.59,5.88,2.75-4,1.88-7.45,7.56-13.33,17.02-17.64,10.02-6.82,25.12-17.08,36.45-16.73-6.25,11.23-18.86,18.85-26.74,28.65-7.51,4.39-11.32,9.48-11.46,15.28-1.38,2.01-5.62,10.25-7.64,13.37-46.4-22.74-90.21-51.05-131.87-81.57-1.21-2.09-1.9-4.37-1.48-6.81,1.2-6.97,29.03-27.96,35.95-33.85,2.69-.69,5.23-.69,7.64,0,44.64-35.81,93.76-68.06,148.44-86.03l-1.38-1.82c-2.92.38-4.19-.26-3.82-1.91,35.59-13.52,69.24-23.69,106.95-30.56,5.13-.75,7.97.28,8.51,3.1-13.01,3.21-26.03,5.99-39.06,8.36-13.75,4.97-13.75,5.61,0,1.91,34.68-12.36,71.98-15.79,108.41-17.09-.17-1.36.46-2.62,1.46-2.69,15.16-1.1,31.42-1.02,46.73.69Z"/><path class="uuid-14349ce1-68d4-462c-b659-11b088322d05" d="M1877.51,922.33c2.84-.52,6.95.63,9.55,0,1.73,6.13-1.43,12.76-1.91,17.19q-2.67-2.49,0,0c-.74,6.88.38,14.13-1.91,21.01-5.11,9.41-8.34,19.85-13.74,29.23-38.45,66.86-99.51,84.18-169.62,103.48-20,5.51-39.97,11.42-61.08,10.54l7.63,7.6c-7.3-1.39-20.13,3.73-24.83-3.8.5-1.1-.34-4.12,0-5.73-2.79-4.68,2.94-10.37,7.64-7.64.81-1.31,1.99-2.49,3.58-2.46,38.66.64,86.74-15.44,123.65-28.58,25.31-9.01,50.45-18.82,68.68-39.35-57.5,24.13-119.87,46.77-183.04,58.13l-7.15-1.1c-4.87-2.93-1.82-9.62,3.82-9.55l5.76-4.22c70-20.59,141.25-42.85,205.32-74.91l4.73,2.74c.05,6.96.69,6.96,1.91,0l-3.14-2.97c7.16-12.53,13.52-25.36,19.1-38.51-8.57,12.03-20.08,19.27-33.65,24.88l-187.07,63.41-3.41-2.88c-5.24-2.32-3.61-10.28,1.91-11.46.81-2.35,2.01-4.1,3.61-5.24l182.9-61.58c12.84-9.61,25.15-19.97,36.93-31.08-.63-3.97.64-6.35,3.82-7.14l-5.49,3.59c-71.96,14.39-143.38,32.44-210.37,61.2-2.69.18-5.21-.44-7.59-1.77-5.31-2.01-5.23-7.51,0-9.55,3.14-3.41,6.7-6.33,10.84-8.44,27.86-14.25,69.5-26.16,100.25-34.86,36.54-10.34,73.35-17.44,109.35-22.4,1.62-.22,2.58.95,3.01,2.68.31,2.77.19,6.69,0,9.55Z"/><path class="uuid-c073420e-06fa-467c-9f5e-b676d6d39ca3" d="M1631.15,977.71c-1.87,3.88-1.28,10.16-5.73,13.37-6.51,5.31-16.69,13.03-30.19,20.88-7.87,4.58-13.87,7.45-16.85,8.9-11.97,5.83-30.06,15.35-56.1,31.33-1.11,4.89-1.83,4.53-3.82,0l-13.33-8.59c34.26-22.96,71.17-41.89,108.46-59.56l17.55-6.32Z"/><path class="uuid-57efe81e-6182-4f66-b116-9d2b29c30d22" d="M1520.37,1319.57c3.28,3-12.51,12.23-14.27,13.4-4.84,3.22-50.48,32.74-52.55,30.51s.44-4.58,2.33-6.3c9.37-8.49,44.07-28.41,56.59-35.03,1.79-.94,6.16-4.18,7.9-2.58Z"/><path class="uuid-01d5180a-debf-417c-ad09-19737339303d" d="M1801.12,1214.52c5.01,4.14-4.9,37.46-9.54,32.46-.99-1.07,4.38-25.28,5.72-28.64.97-2.43,3.72-3.57,3.82-3.82Z"/><path class="uuid-4edceced-7753-43a5-aa76-b389f6ac4192" d="M1549.03,1046.46c-2.4,2.98-9.17,11.95-11.46,15.28l-7.63-5.71,19.09-9.57Z"/><path d="M1226.28,565.2c1.48-.46,3.25-.69,4.09.38,15.7,19.92,26.22,13.47,38.66-6.91,12.64-17.59,49.59-6.57,43.18,16.08l4.24,2.03c.37.72,2.05,14.39,1.49,15.16,20.18,21.19,30.36-7,49.35-4.45,11.94,1.6,15.34,8.25,19.4,17.82,4.38,9.3,3.75,15.03-1.91,17.19l3.51,2.59c-3.3,22.41,15.07,24.48,31.96,20.49,5.87-.99,9.33.87,10.37,5.57,3.99-3.16,7.18-.61,9.55,7.64.83,7.73,1.1,15.38,1.91,22.92-.46,6.4-4.35,14.92-11.46,13.37-.06,13.41.12,20.63,11.46,30.56,3.38-4.71,16.81-.5,15.28,5.73,6.8-4.05,12.35,5.99,14.27,12.05,6.22,19.62-9.3,31.34-25.6,37.97-11.16,13.98-3.96,24.9,10.22,32.89l-.8,4.94c7.28.24,8.56,5.97,3.82,17.19-.97,9.93-10.39,19.62-20.27,20.96-3.72.51-7.23-1.12-10.59-.81-11.35,1.04-19.51,12.66-18.8,23.77,10.7,13.04,17.29,33.25.67,44.47-7.44,5.02-23.31,10.69-27.4,1.37-6.41-3.17-14.61-3.08-21.01,0,.17,4.01-3.87,7.37-7.64,7.64-6.79,12.33-1.4,18.36-5.3,30.03-4.14,12.42-19.69,14.88-30.91,10.93-12.44-4.37-16.36-27.87-38.28-12.32l-8.8,22.23c-1.46,2.7-3.32,3.38-6.47,2.6-8.23,6.68-18.34,9.51-28.07,4.23-14.95-8.12-10.74-32.33-32.55-34.39-17.22-1.63-17.22,22.65-43.35,18.56-28.28-4.42-6-42.9-28.3-51.89-18.58-7.49-27.43,12.11-45.97.14-12.83-8.28-11.28-19.81-7.01-32.14-3.75-3.96-1.3-7.19,3.82-7.64,2.92-10.27,2.21-17.22-7.53-23.97s-17.79-.42-28.2-6.2c-11.49-6.39-16.49-19.75-9.86-31.64,4.86-8.73,17.04-10.91,18.72-21.36,2.43-15.15-.21-18.58-11.34-25.68-4.14,4.35-11.62.05-11.46-5.73-8.62-7.02-5.92-17.17-7.64-24.83-2.4-4.41-.03-10.77,5.73-9.55-2.16-5.91,6.66-10.75,11.46-7.64l11.72-6.54c2.96-4.05,6.06-5.69,9.29-4.92,3.83-10.54,2-16.03-3.82-24.83-11.7,0-17.47-28.36-5.73-32.47,3.17-.77,8.44-7.85,14.77-9.12,12.59-2.54,23.7,7.47,36.14-4.89,13.85-13.76-2.92-27.69,2.93-41.87,3.39-8.23,9.74-13.9,18.74-14.78,12.12-1.19,13.94,2.99,22.92,7.64l3.57-2.49c19.94,9.21,25.08-9.35,27.41-25.74,2.24-6.71,10.36-18.26,16.76-11.87,13.19-4.47,20.44.02,28.65,9.55Z"/><path class="uuid-14349ce1-68d4-462c-b659-11b088322d05" d="M1795.39,483.08c2.13-.58,4.13.02,6,1.8l18.85,24.15c11.47,11.28,21.11,19.3,27.91-1.29l4.52-1.74c4.53,4.36,6.08,6.18,9.55,11.46,3.4,24.83-15.97,34.63-34.88,18.99-10.85-10.49-22.08-20.34-33.68-29.53-20.41,46.79-36.94,97.12-40.7,148.56-6.52,28.11-17.52,36.79-46.02,33.38-6.17-2.16-24.7,20.41-23.7,21.73,24.42,9.48,47.24,22.49,68.48,39.05,77.05,46.62,64.27-25.39,29.97-64.8-3.23-9.42,5.73-12.18,13.47-13.67l45.9-5.18c20.15-4.76,44.55-12.44,51.72-33.95.54-3.85,1.51-7.61,1.91-11.46,14.43,4.53,11.13,19.6,3.81,29.59-15.87,21.66-46.92,27.48-71.83,31.3-8.71,1.33-19.83-1.66-27.43,5,21.2,21.36,39.86,92.67-6.73,92.77-17.85.04-45.16-15.91-60.74-25.34-13.01-7.87-43.22-34.63-57.52-30.3-6.67,27.24-24.79,64.59-51.99,76.21-6.47,2.76-16.74,3.39-19.75,5.08-4.19,2.35-11.83,15.27-22.91,21.02-36.86,19.13-90.44,11.64-94.55-37.26l-25.79,47.74c.62-6.27-.2-11.98-3.82-17.19l-1.74-3.57c1.45-4.08,25.86-48.48,28.23-50.11,15.52-10.66,17.81,18.57,17.82,28.5,6.39,37.15,59.99,31.45,82.48,13-35.53-19.3-49.3-56.99-50.62-95.49-1.23-16.75-20.21-29.71-35.67-31.52l-17.66,34.92c-4.08,7.39-12,19.97-20.92,16.42-4.95-2.85-10.16-3.45-15.28-5.73-10.9-8.92-11.94-18-11.46-30.56,2.94-4.9,8.09-8.67,11.46-13.37,1.19,11.06,1.92,21.56,14.75,24.46,18.23,4.13,16.15-10.97,21.19-21.94,14.75-32.13,42.02-52.99,58.51-8.17,10.12,27.51,7.42,57.65,20.11,84.93,22.19,47.72,67.53,38.93,92.06-1.56,9.18-15.15,6.07-20.24,10.04-33.88,1.12-3.83,5.93-7.69,7.55-11.55,5.33-12.7,9.08-35.9,25.42-39.53,13.2-2.93,31.55,4.6,41.09-10.47,3.13-4.95,11.97-43.26,14.33-52.51,5.86-23.04,8.78-43.98,16.83-67.2,3.58-10.34,20.25-53.84,25.54-60,2.14-2.49,4.22-.59,5.89-1.19Z"/><path class="uuid-14349ce1-68d4-462c-b659-11b088322d05" d="M1879.42,891.77c-1.34,2.03-3.06,4.49-5.73,5.73,5.54.72,6.34,6.07,1.91,9.55l-6.58,3.42c-72.39,13.59-151.43,28.99-214.95,61.51-.87-6.07-2.14-15.25-9.55-13.37l.13-4.38c69.14-27.41,146.2-48.54,222.22-60.06-2.42-4.66-2.06-8.01,1.1-10.04,2.02-.08,5.23.87,5.73-1.91-1.67-.54-1.64-1.18,0-1.91,2.48,4.57,3.64,6.12,5.73,11.46Z"/><path class="uuid-908d4d5c-505f-49cd-a068-fed2c3a2e531" d="M1816.4,826.84c-12.6-.39-26.59-.51-39.17,0-2.32.09-7.1-1.44-6.66,1.89,12.62.05,26.43.52,38.92,2.15,2.06.27,8.93.74,8.8,3.58-15.07-.46-29.79-2.21-44.96-1.98-10.52.16-25.56,1.15-36.18,2.02-24.14,1.99-53.75,6.22-77.36,11.44-1.67-.54-1.64-1.18,0-1.91,12.49-3.86,24.77-9.15,38.19-9.57l-7.63-1.89c39.06-7.12,75.42-8.09,115.57-7.67,3.23.03,8.49-1.22,10.48,1.94Z"/><path class="uuid-fbf48922-4d70-485a-a835-5719c9f2450d" d="M1583.4,863.13l3.82,1.91-1.19,2.51c-53.47,18.41-102.41,50.25-145.86,85.34-2.57,1.62-2.86,8.79-7.64,0,47.74-40.6,91.87-67.35,150.87-89.76Z"/><path class="uuid-a88a6a4b-1f05-4d3e-a28c-416eb80ff370" d="M1272.11,1040.74c-.58.5-6.35.14-7.76-.83-5.59-3.86.49-40.11,1.93-48.21.44-2.48-1.81-4.19-1.8-4.43.07-1.44,3.48-4.24,4.2-6.27,3.38-9.55,1.89-12.03,11.08-18.55.85,11.46-4.76,24.01-5.7,35.36-.57,6.97,1.18,40.26-1.94,42.94Z"/><path class="uuid-32aa17ea-48a7-48b3-8b31-3ce1d79ec338" d="M1354.23,933.79c.63-1.14.29-3.31,1.76-4.92,2.16-2.37,4.32-1.82,5.87-2.72,5.97-3.17,14.9-3.2,21.01,0,12.92.73,23.41,5.81,32.17-8.87,10.34-17.33-4.59-23.83-5.43-36.96,15.93,12.97,18.62,29.15,2.91,43.97-15.28,14.42-38.96,12.6-58.29,9.5Z"/><path class="uuid-e56d9a97-b381-4af3-a021-adc6319ab268" d="M1900.43,567.11c.71-4.62-.83-5.84,1.91-11.46.7-1.43,3.45-3.18,4.64-5.82,1.96-4.37.29-10.44,4.91-13.28,4.58,15.55,6.95,23.51-11.46,30.56Z"/><path class="uuid-4db1fca4-ce7d-47fb-abad-2c720c3b12cf" d="M1881.33,895.59c1.86,5.62,3.2,11.29,3.82,17.19-2.16-.3-5.34-.12-7.64,0-5.05-.8-5.92-2.3-1.91-5.73-.49-3.19-1.76-5.97-1.91-9.55.08-4.1,5.47-4.97,7.64-1.91Z"/><path class="uuid-edfd680c-37e1-43e1-a396-9f0cac6e081f" d="M1854.59,853.58c3,3.26,3.83,5.29,5.73,7.64-1.27,1.62-3.75,3.58-5.73,3.82-1.39-1.74-10.68-8.06-9.54-9.53l9.54-1.93Z"/><path class="uuid-d99d5440-29e6-480c-8cce-b352d35748f3" d="M1869.87,872.68c1.86,2.91,2.48,5.17,3.82,7.64v1.91c-6.85.9-12.37-2.21-11.45-9.54h7.63Z"/><path class="uuid-14349ce1-68d4-462c-b659-11b088322d05" d="M1879.42,891.77c.43,1.1,1.36,2.16,1.91,3.82l-7.64,1.91c-.26-6.14-.93-6.28,5.73-5.73Z"/><path class="uuid-14349ce1-68d4-462c-b659-11b088322d05" d="M1004.74,601.49l1.13,4.26c21.1,13.25,22.21,32.88,23.39,55.82-4.36,20.59-5.86,40.89-4.5,60.88,4.75,4.32,6.99,8.56,6.71,12.72-1.97,2.07-2.39,7.66-5.73,9.55-1.51-6.69-23-21.72-30.12-24.3-53.96-19.55-99.46,30.78-141.91,55.66-16.97,9.95-70.75,38.29-87.67,42.18-27.71,6.38-26.12-20.9-23.19-40.21,2.45-16.16,18.78-57.63,8.99-69.78-1.03-1.28-15.1-12.1-16.35-12.45-9.61-2.73-22.99,12.26-28.35,19.63-9.81,13.49-25.36,59.24-37.11,64.09-7.44,3.07-15.17,2.33-17.75-6.09-7.14-23.28,16.61-54.28,19.96-77.13-9.93-7.18-15.26-9.22-25.54-1.2-3.54,2.76-18.16,21.42-18.2,5.67.24-1.16-.23-2.65,0-3.82,22.97-38.93,72.38-42.08,52.72,17.09-4.88,8.56-29.62,68.9-6.04,35.65,9.6-26.49,41.42-90.67,77.8-66.22,25.49,17.13,11.51,71.65,2.95,95.37-3.25,18.22-2.6,25.29,17.95,19.4,45.65-17.97,88.56-42.16,128.74-72.57,31.01-19.28,68.52-33.03,103.65-16.15l.71-13.61c8.82-40.02,7.86-80.29-40.55-88.53l-1.81-4.01c11.12-6.13,28.74-7.43,40.11-1.91Z"/><path class="uuid-3278ef7e-7dd6-4931-93d8-e19edfb2a5e1" d="M1044.85,775.28c-3.94,16.24-8.79,29.18-20.96,41.11-43.6,42.73-117.51,44.98-147.1,100.22-2.55-.06-5.11.08-7.65,0,2.94-27.21,33.56-42.63,55.68-54.14,39.43-20.52,106.69-40.22,108.57-92.91,1.3,1.06,8.38,3.76,11.46,5.73Z"/><path class="uuid-14349ce1-68d4-462c-b659-11b088322d05" d="M1083.04,884.13c-1.5,5.27-3.53,6.8-3.82,7.64-16.09.8-60.3-.63-50.57,24.78,9.4,24.55,62.32,68.39,84.04,85.93,6.86,5.53,35.4,24.14,38.2,28.64.89,1.43,1.23,2.05.89,3.86l-13.36-1.9c-1.33-.65-3.82-1.12-5.73-1.91-18.81-16.57-39.73-30.8-58.3-47.69-45.76-41.62-108.05-106.08,8.64-99.36Z"/><path class="uuid-14349ce1-68d4-462c-b659-11b088322d05" d="M1027.66,160.33c3.15-1.47,5.94-4.06,9.54-3.81-1.4,23.67,33.96,18.29,30.14,44.38-5.95,40.67-89.79,16.3-55.79,66.25,18.92,27.8,44.9,37.76,59.06,76.54,6.57,18,12.37,61.25-19.13,47.77-11.12-4.76-61.47-49.99-69.64-42.05-.51,3.77.67,7.07,1.84,10.56,10.49,31.34,67.96,98.15,22.37,123.45-11.32,6.28-31.44,9.35-44.27,9.21-18.06-.19-81.13-20.57-80.92,12.42.02,3.82,3.12,7.59,3.42,11.61.8,10.45-.45,20.97,2.08,31.35,11.22-11.16,20.09-16.7,36.82-12.97,10.35,2.31,20.02,17.9,33.33,20.15,28.65,4.84,67.99-10.95,84.53,23.38-3.03,5.4-8.37,5.3-11.46,0-20.67-25.93-55.41-7.62-82.54-15.81-18.64-5.63-26.65-29.52-48.27-12.83-4.77,3.68-19.66,30.78-22.06,10.59-2.8-23.57,5.27-52.62-17.06-70.79-32.89-26.78-65.57,4.54-97.44,12.45-3.83-2.71-3.98-11.37,1.91-11.46,10.63-8.9,23.61-15.41,36.9-19.22-18.19-9.29-22.25-25.82-13.98-43.8-2.68-6.21,8.29-10.04,13.37-7.64-2.36,9.42-6.19,21.01-2.98,30.68,2.11,6.38,10.46,7.72,14.49,12.24,2.14,2.4,3.55,8.06,4.03,8.37,3.1,2.01,10.22-1.77,14.06-1.64,16.28.57,35.15,6.46,43.95,21,2.7.68,5.85-5.81,9.1-8.06,28.94-19.99,74.01,10.7,112.67-5.73,27.33-11.62,18.41-34.28,8.75-55.64-7.44-16.45-64.18-104.99-6.07-77.96,12.24,5.7,52.23,39.17,57.3,40.04,5.55.95,11.19-7.18,11.48-12.29,1.03-18.23-19.1-50-30.89-63.73-15.51-18.07-50.24-40.9-41.73-68.42,6.98-22.57,57.43-16.42,62.9-36.54,4.35-16-32.58-21.55-29.8-42.07Z"/><path class="uuid-1128fde5-0892-42b5-ac6a-aae092b19f7b" d="M1041.03,578.57c12.5-.3,36.37-3.46,46.68-1.79,6.92,1.12,14.99,7.75,22.06,9.45-15.31,15.8-39.1,12.08-59.2,13.34.26,5.64-6.67,6.93-9.55,1.91-8.66,6.44-27.11,5.71-36.29,0-13.44.42-26.68,1.7-40.11,1.91-.87,5.26-14.1,7.9-15.28,1.91-7.45,3.02-14.12,4.79-21.01,0-27.05,6.55-58.65,8.88-85.94,3.82-2.42,5.39-7.08,5.3-9.55,0-30.68,6.79-62.45,8.27-93.58,3.82-9.46,6.35-22.31,6.42-32.47,1.91-2.66,5.99-14.15,5.52-17.19,0-5.86-.91-9.63-18.41-3.82-21.01.21-2.52.74-5.51,2.37-4.36,5.35,3.77,7.66,5.09,14.82,2.45,2.83-4.77,4.81-4.77,7.64,0,3-5.19,6.54-5.15,9.55,0,6.98-.23,13.45-1.72,21.01-1.91,4.46-4.76,9.41-5.66,13.37,0,23.27-6.86,50.76-8.9,74.48-3.82,2.42-5.39,7.08-5.3,9.55,0,63.63-2.43,127.45-5.3,190.98-7.64,3.81-.14,7.65.09,11.46,0Z"/><path class="uuid-4cf6511a-5f0b-4648-b564-4b62f52b02dc" d="M1050.58,599.58c3.48,18.59-11.01,33.07-9.57,50.61.74,8.97,4.07,10.87,13.39,8.59-5.04,15.49-2.09,20.56,5.73,32.47,5.31,8.83,8.01,14.13,3.82,24.83-4.6,7.68-11.69,12.83-21.01,11.46l-.76-4.85c9.05-9.88,8.61-22.33,2.34-33.53-17.94-24.47-23.18-46.51-8.45-74.56.2-6.11,1.86-10.48,4.97-13.1,3.06-.15,6.95-1.75,9.55-1.91Z"/><path class="uuid-bcbf181d-5d9e-4ce8-9d64-a365bce98ac2" d="M1358.05,265.37c4.49,2.42,7.43,7.98,11.46,11.46l4.67-1.11c12.03,9.22,24.46,5.59,37.29-10.9,15.87-14.6,40.97-2.21,45.84,16.66-.92,22.78,14.14,35.92,35.8,26.25,17.1-3.55,33.14,13.84,33.1,30.12-.01,5.37-.25,14.7-7.75,11.55-2.21,1-3.49,2.91-3.82,5.73l2.51,3.73c-8.01,16.54,5.82,27.44,20.12,33.24,4.72,3.29,13.19,9.28,7.92,14.6,3.4,7.51,3.48,10.89,1.91,19.1-2.32,3.75-5.77,7.96-7.64,11.46-3.26,5.16-9.22,11.86-15.28,7.64-1.91,4.43-6.47,14.52-11.46,15.28-.82,5.76,2.54,11.2,6.42,15.83l-.69,5.17c5.14,10.92,5.84,21.47-1.92,31.5-14.43,18.65-34.18-.01-51.45,11.57s-6.26,37.3-23.02,44.78c-4.58,2.04-12.17,2.37-17.19,1.91-19.82-1.8-17.3-21.84-39.09-21.09-21.26.73-20.47,26.98-48.76,21.09-8.91,5.39-17.62-8.28-17.19-17.19l-3.71-2.47c1.28-26.31-18.23-30.12-39.42-25.98-15.09,1.07-28.51-11.35-29.49-26.25-.34-5.14,1.31-16.85,7.69-15.96-4.97-3.4.4-9.71,5.73-9.55l-2.96-3.55c2.92-14.05-6.39-23.41-19.72-26.46-13.67-5.82-18.6-23.52-14.4-36.97,1.55-4.96,4.66-13.14,10.34-9.41-1.87-6.98,9.72-9.89,15.28-7.64l.27-4.77c11.93-7.98,12.08-19.88.43-35.69-2.31-6.02-5.49-15.57,1.21-18.74,3.48-2.89,4.61-8.37,7.64-11.46-2.82-8.67,11.41-11.63,18.59-11.02,24.64,7.59,38.08-.39,39.6-26.7,2.35-11.81,11.68-19.81,23.24-21.99,6.01-1.13,18.56-1.63,17.88,6.23Z"/><path class="uuid-ef410187-db61-4461-8f0b-bf542be4f41b" d="M1852.68,506c-12.77,45.32-44.06-5.36-57.29-22.92,1.32-.47,2.52-1.38,3.82-1.91,20.95,6.08,37.33,9.29,53.47,24.83Z"/><path class="uuid-4cf6511a-5f0b-4648-b564-4b62f52b02dc" d="M1386.7,605.31c1.15,2.72,1.77,7.21,2.03,7.49,1.08,1.13,26.04-.53,31.27.27,22.16,3.42,18.42,29.42,20.17,45.71-3.38-1.34-6.82-6.41-9.55-7.64l-4.17-3.19c-1.54-22.81-17.49-27.6-37.48-22.46l-4.18-3c.82-5.64,3.05-11.03,1.91-17.19Z"/><path class="uuid-1f9477f2-e6ce-473c-9edb-0b5c3c01ce2b" d="M1337.04,570.93c-7.02,6.63-10.5,15.83-19.1,21.01-8-8.4-3.82-9.43-5.73-17.19.99-6.3,2.22-12.63,3.68-18.99l3.95-2.02c2.9,5.81,10.66,15.83,17.19,17.19Z"/><path class="uuid-4cf6511a-5f0b-4648-b564-4b62f52b02dc" d="M1518.47,481.17c-1.11-2.37-5.97-4.93-7.23-10.98s.3-6.08,1.5-10.03c4.94-2.84,8.76-7.93,11.46-15.28,5.23-3.58,9.78-4.93,15.28-7.64-1.5,2.8-2.06,8.17-4.1,12.14-5.5,10.7-11.69,20.97-16.91,31.78Z"/><path class="uuid-d5d24674-8f5e-4138-9378-803f88c73195" d="M1251.1,330.3c.76,3.1-.67,7.84.45,11.94,5.04,18.37,23.8,30.61-2.36,47.26l-6.66.38c-11.15-7.31-49.88-25-58.69-9.03-19.16,34.73,45.34,82.15,70.98,97.69l.1,4.54c-4.89,12.02-6.38,19.99,2.81,30.61,16.41,18.98,40.08-5.6,56.38,16.19,6.13,8.19,6.27,13.87,5.75,23.86-.44,8.27-1.56,14.7-7.64,21.01-2.79-11.32-9.74-20.26-22.23-20.88-20.86-1.02-18.03,14.01-30.27,22.8-12.86,9.24-22.22,4.19-31.61-6.69-1.44-1.66-1.4-4.28-1.83-4.78,5.48-2.61,16.91-3.05,20.07-9.54,9.7-19.91-17.34-45.42-30.52-57.36-29.14-26.38-66.53-45.26-81.63-84.52-16.5-42.92-2.15-169.19,69.88-134.82,12.55,5.99,43.86,38.49,47.02,51.33Z"/><path class="uuid-d5d24674-8f5e-4138-9378-803f88c73195" d="M1649.58,262.21c12.65,12.15,6.1,46.18,15.17,65.99,8.17,17.83,7.29,21.21,11.94,39.62,3.44,13.61,11.35,27.86,13.16,42.22,4.81,38.07-16.24,107.36-43.46,135.08-2.12,2.16-18.38,14.37-20,14.37-6.99,0-24.33-19.38-23.88-27.57.33-6.02,17-29.97,20.71-38.62,12.79-29.86,18.26-78.68-15.23-96.9-19.13-10.41-17.26.21-24.05-25.6-1.85-7.04-8.67-36.31-8.16-41.4.35-3.55,4-5.65,4.78-8.62,2.64-10.11,2.65-18.72,7.83-28.45,8.41-15.81,44.1-46.52,61.18-30.12Z"/><path class="uuid-d5d24674-8f5e-4138-9378-803f88c73195" d="M1369.51,276.83c-.1-8.73,5.21-16,7.11-24.4,3.19-14.13.8-40.23,19.11-43.91,41.59-8.36,111.43,16.72,139.87,48.32,32.3,35.89,29.06,88.27,44.05,131.57l-16.11,5.11-18.33,13.18c-7.39-16.31-21.52-11.98-30.24-26.1-5.98-9.68-4.92-15.53-.32-25.46.25-3.12,1.52-5.03,3.82-5.73.54-1.18,2.79-2.1,3.43-5.06,3.04-14-7.39-31.39-21.76-33.08-13.02-1.54-18.9,10.15-35.01-1.14-14.94-10.47-8.16-21.19-13.03-32.8-2.97-7.08-15.47-14.76-22.9-15.36-22.18-1.8-29.89,40.57-59.7,14.88Z"/><path class="uuid-d5d24674-8f5e-4138-9378-803f88c73195" d="M1258.74,318.84c-4.02.91-4.1-2.27-5.81-4.59-17.1-23.23-29.72-40.67-59.11-49.83,37.04-39.33,93.71-86.77,151.65-79.1,8.53,1.13,22.34,6.6,23.92,16.17,2.77,16.75.07,42.78-6.12,58.69-1.17,2.99-.51,6.17-5.22,5.19-8.91-4.8-19.29-3.62-27.71,1.89-17.84,11.66-3.32,34.24-25.65,45.01-16.86,8.13-29.48-10.16-45.94,6.58Z"/><path class="uuid-d5d24674-8f5e-4138-9378-803f88c73195" d="M1197.63,555.65c-20.29,6.88-10.73,27.78-21.92,38.24-8.73,8.16-16.69,6.6-25.82,1.87-14.33-29.82-48.02-48.05-77.01-61.44-8.28-3.83-40.36-14.31-44.18-18.83-7.97-9.43,2.26-22.04,8.57-29.48,8.93-10.52,14.35-15.7,29.04-13.9,33.24,4.06,100.75,55.59,128.92,77.37,2.72,2.1,5.8,2.13,2.41,6.18Z"/><path class="uuid-14349ce1-68d4-462c-b659-11b088322d05" d="M976.1,185.16c3.38,20.47-2.17,42.48.2,63.78,1.6,14.39,18.87,53.17,16.2,62.31-3.72,12.76-39.82,13.47-51.29,15.69-22.61,4.38-22.64,22.47-17.05,40.97,6.68,22.12,48.86,67.85,5.18,73.21-26.67,3.27-54.32-7.93-74.49-24.92-7.11-5.98-22.18-27.53-28.78-28.63-18.48-3.08-19.09,19.67-23.78,30.58-5.36,3.36-12.59,3.62-11.46-3.82,4.26-10.29,12.48-34.64,24.34-37.71,23.77-6.16,31.17,19.38,45.41,31.95,12.68,11.19,38.35,22.2,55.27,23.02,40.58,1.96,13.42-26.25,5.12-45.22-7.43-16.99-15.55-38.34-4.9-55.91,12.87-21.23,61.45-9.71,65.48-24.43,1.15-4.2-12.54-42.6-14.17-52.01-.88-5.1-2.78-15.67-2.83-20.25-.11-10.96,6.44-31.13,3.89-40.97-.53-7.61,1.93-6.89,7.64-7.64Z"/><path class="uuid-8c0d6529-79d8-4903-89c3-06542edcb39f" d="M790.85,414.33c3.37,1.24,6.6,4.74,11.46,3.82-.41.96-1.21,1.31-1.91,1.91-2.83,2.44-8.98,4.28-13.37,7.64l-1.64,6.11c-12.76,14.24-18.46,32.25-17.11,54.03l-4.17,2.88c-.4,3.25-1.41,7.15-1.91,11.46-.55,4.75,1.09,14.23-3.8,15.27-.29-3.12.34-6.44-.02-9.54-7.52-12.71-8.77-27.07-9.55-42.02-5.32-14.64-6.9-18.9-21.01-26.74-4.77-2.65-11.58-6.99-17.19-5.73-6.33.44-4.2-1.2-.5-3.36,11.58-6.76,16.46-9.03,23.41-21.47,3.52-6.29,5.78-12.17,7.64-19.1-.91-9.66.36-17.94,3.82-24.83.29-4.69,1.56-7.23,3.82-7.64,4.85,28.32,14.37,47.08,42.02,57.29Z"/><path class="uuid-14349ce1-68d4-462c-b659-11b088322d05" d="M720.19,591.94c-3.18.11-6.37-.06-9.55,0l-3.65-3.64c1.64-44.63-16.9-87.91-51.12-29.93l-4.43,1.1c-4.88,1.33-3.28-3.2-3.82-3.82-3.89-7.3,4.84-18.22,9.59-23.83,10.85-12.8,22.83-20.76,39.86-13.21,24.64,10.91,24.19,50.81,23.12,73.33Z"/><path class="uuid-14349ce1-68d4-462c-b659-11b088322d05" d="M838.59,586.21c-3.17.12-6.37-.12-9.55,0l-4.23-2.83c-15.03-45.45-43.8-24.12-64.51,3.92l-5.74,2.73c-4.44.16-8.92-.11-13.37,0,25.73-43.7,85.12-78.25,97.4-3.82Z"/><path class="uuid-6d260ef1-ce77-4a69-a94b-41a91c99db72" d="M758.38,507.91c-1.12-6.83-6.88-5.84-9.1-8.06-4.81-4.79-1.94-26.79-.45-33.95,5.02,13.8,7.88,27.43,9.55,42.02Z"/><path class="uuid-89efbabe-bbdf-4b62-8276-9a0d6bc574e3" d="M748.83,357.04l-3.82,7.64c-2-4.05-2-9.14,0-15.28.6-1.66,1.3-2.54,1.91-3.82.51,3.84,1.26,7.64,1.91,11.46Z"/><path class="uuid-d5d24674-8f5e-4138-9378-803f88c73195" d="M964.64,603.4c12.24.71,31.09,9.71,38.98,19.27,23.22,28.11,3.68,61.1,6.84,93.41-62.15-35.38-122.69,28.45-174.4,57.62-15.43,8.71-62.37,34.45-78.23,29.82-17.29-5.05,1.68-46.52,3.92-58.29,5.25-27.61,2.75-74.93-38.11-59.12-27.31,10.57-35.28,52.98-49.58,72.64-3.17,4.36-5.6,6.85-11.27,4.24-1.95-1.52-1.88-3.41-1.76-5.64,1.1-21.33,32.51-57.93,16.92-80.19-13.41-19.15-38.09,14.12-49.42,19.82,1.48-7.59,1.04-14.54,3.82-22.92,2.33-7.04,3.31-2.03,7.06-4.42.68-.43,10.99-10.77,11.42-11.45.91-1.41.36-4.17,1.26-6.41.26-.63,2.72-.67,3.11-2.04.73-2.61-.38-5.75.06-8.15-2.35-3.21-1.39-4.42,1.91-1.91,4.72-3.02,12.44-2.97,17.19,0,6.3-1,11.39-2.27,15.28-3.82-6.39-1.77-9.21-21.69,0-21.01,5.67-.31,11.54.45,17.19,0,5.09.19,8.81.48,9.04,6.31-2.06,29.6,14.05,5.4,19.19-6.67l4.23-1.54c31.21-1.08,62.37-2.59,93.58-3.82,1.77-.03,3.09.67,3.89,2.2,2.25,21.91,11.51,75.12,42.07,45.99l34.13-32.32c10.27-9.35,22.36-17.41,36.4-19.69,5.42.04,10.07-2.21,15.28-1.91Z"/><path class="uuid-d5d24674-8f5e-4138-9378-803f88c73195" d="M710.64,591.94c-2.54.04-5.11.08-7.64,0-10.51,3.21-14.99.54-17.19-5.73-4.39-1.35-5.88-8.04-1.53-8.94-7.27,2.55-14.36.3-21.39-2.52-.19,3.11-6.64,2.91-7.64,0-1.44-2.81-2.71-5.36-3.82-7.64.37-2.33-.52-5.59,0-7.64,2.42-9.59,22.52-33.53,33.42-33.52,24.44,0,26.91,48.82,25.78,65.99Z"/><path class="uuid-ed210d02-042e-45df-a4cd-1434befee24a" d="M655.25,576.66c1.71.35,1.64,1,0,1.91,5.61,4.1,7.17,18.21,1.91,22.92.95,7.77.95,15.41,0,22.92.08,6.19,1.41,10.44,4,12.76l-4,2.52c-.01.13-1.5-.33-1.91,1.91-7.04-5.35-3.23-19.52-3.74-27.84-.15-2.46-1.98-4.37-1.99-4.62-1.23-10.43-2.47-23.53,1.91-32.47.61-5.07,2.37-4.85,3.82,0Z"/><path class="uuid-a980559f-48dc-49f8-931d-df1afb79a97b" d="M651.43,574.75c1.65.64,1.65,1.27,0,1.91-.87,10.68-2.38,20.98-1.91,32.47-3.32-7.82-2.19-19.28-1.91-27.78.12-3.68-1.95-7.66,3.82-6.6Z"/><path class="uuid-f0d56b97-414b-4461-a6c2-0e4d3abab393" d="M651.43,567.11c5.8-1.19,3.51,2.86,3.82,7.64,1.72.35,1.65,1,0,1.91h-3.82c.05-.63-.06-1.28,0-1.91.24-2.46-.37-5.32,0-7.64Z"/><path class="uuid-d5d24674-8f5e-4138-9378-803f88c73195" d="M1892.79,632.04c-.03.22,2.05,1.41,1.63,4.21-2.72,18.29-36.92,30.72-52.72,33.5-9.98,1.76-53.16,2.72-56.95,10.03-2.11,4.05,12.15,19.67,15.27,24.98,17.96,30.58,23.18,78.51-27.29,59.76-34.05-12.66-58.1-43.57-93.83-50.37-3.6-4.11,17.43-26,21.05-27.64,9.94-4.51,24.36,3.59,36.34-5.68,16.02-12.38,14.51-46.07,17.66-64.46,3.88-22.61,12.58-49.56,20.41-71.26,1.99-5.51,15.38-40.65,17.16-42.06,2.68-2.14,7.18,2.45,9.42,4.09,12.8,9.35,30.14,34.57,46.81,33.12,11.12-.97,9.11-15.42,14.49-22.81,11.14,16.97,12.43,28.85,17.19,47.74l-.86,4.73c-27.74,1.22-113.92,12.65-41.79,39.56l50.19,13.53,2,5.2c1.7,1.44,1.6,9.15,3.82,3.82Z"/><path class="uuid-c073420e-06fa-467c-9f5e-b676d6d39ca3" d="M1881.33,574.75c3.42,15.78,7.41,26.73,7.64,43.92l-3.58,2.73c-14.68-3.41-34.95-9.44-48.93-14.91-57.92-22.64,15.34-33.52,39.9-34.79l4.97,3.04Z"/><path class="uuid-14349ce1-68d4-462c-b659-11b088322d05" d="M1881.33,574.75c-15.81,2.9-34.95,3.28-50.05,8.2-4.19,1.36-14.76,3.69-12.84,9.8,2.57,8.18,60.31,21.57,70.53,25.93.04,3.18-.03,6.37,0,9.55-4.41-3.76-48.14-12.7-58.62-16.82-9.47-3.72-33.46-14.67-23.64-28.21,5.3-7.3,42.82-14.69,52.89-15.85,6.48-.75,14.44,1.64,19.82-2.14.97,3.83,1.2,6.29,1.91,9.55Z"/><path class="uuid-d989857c-e19a-490a-9c29-3e5f418e9297" d="M745.01,364.68c-.33,9.82-1.29,15.42-3.82,24.83-4.4-11.33-.19-28.93,3.82-40.11-.12,5.08.17,10.2,0,15.28Z"/><path class="uuid-a91f13da-3e4e-4938-a1b1-a40ee4cf7998" d="M357.33,727.53c-1.27.07-2.55-.05-3.82,0-1.19-5.04-13.8-14.73-15.26-18.17-1.07-2.52.41-3.32,2.87-2.87,5.56,1.01,16.72,14.54,16.21,21.04Z"/><path class="uuid-cc8b6616-7cbe-492c-af07-327f8558aa5b" d="M1867.96,884.13l3.83,13.35c-60.94,8.76-121.01,23.19-179.09,43.43-12.45,4.34-38,12.04-48.18,17.71-2.37,1.32-2.42,2.14-3.82,3.82-50.42,18.51-97.46,45.69-143.21,73.66-9.02,3.48-14.01-8.1-22.94-8.73-1.64-.54-1.61-1.18,0-1.91,31.58-33.79,96.34-63.5,139.05-83.44,78.66-36.72,167.79-54.32,254.36-57.89Z"/><path class="uuid-d5d24674-8f5e-4138-9378-803f88c73195" d="M1843.13,855.46c-21.25,1.66-42.74,4.22-63.99,5.73-9.97.71-20.64-.83-30.51.04-114.97,10.13-225.93,59.94-306.51,142.34l-24.85-15.39c-.61-2.48,1.58-3.33,2.89-4.72,71.58-75.89,213.7-134.9,316.92-141.42,20.84-1.32,70.63-2.84,89.72.18,6.86,1.09,12.47,7.83,16.34,13.24Z"/><path class="uuid-cc8b6616-7cbe-492c-af07-327f8558aa5b" d="M1854.59,865.04c2.21,2.78,4.44,5.61,3.81,9.54-88.91,6.12-175.95,23.19-256.62,61.35-36.32,17.18-91.19,44.48-121.52,69.45-3.27,2.69-12.07,13.57-14.58,14.06-.86.17-15.43-6.68-15.95-7.38-1.4-1.88.82-3.42,2.03-4.63,53.65-53.53,131.77-100.14,205.33-119.33,65-16.96,131.71-14.94,197.51-23.07Z"/><path class="uuid-090fa647-0937-4223-a229-74015066608a" d="M1587.22,865.04c1.19-.29,8.33-1.17,7.63,1.89-28.86,8.93-57.33,22.73-83.39,37.89-24.93,14.5-47,32.79-71.29,48.07l19.26-17.98c29.81-21.86,92.97-61.39,127.79-69.87Z"/><path class="uuid-f75bc329-0260-486e-b676-70fcf54d5a2d" d="M1522.29,1052.19c.41.16,6.54,4.95,5.72,6.66-4.1,5.6-18.23,10.62-15.36-1.6.09-.38,5.46-4.93,5.82-5.06.49-.18,3.36-.18,3.82,0Z"/><path class="uuid-4a274a64-b871-4bdd-b346-8d67aba5cfd6" d="M1492.91,1038.93l10.25,4.67c-7.36,10.33-19.35,6.63-10.25-4.67Z"/><path class="uuid-34644920-8cac-4a1e-8574-0cbd3e1ddc6b" d="M1474.55,1025.46c-.32.34.32,1.58,0,1.91-15.37,16.02-19.1-15.37,0-1.91Z"/><path class="uuid-9cf3ebf1-83c9-4aee-9c9d-206d623fc00f" d="M1659.8,844.03v1.91c-5.83,1.29-14.41,7-21.03,4.77,6.33-3.94,14.08-4.54,21.03-6.68Z"/><path class="uuid-d5d24674-8f5e-4138-9378-803f88c73195" d="M1877.51,922.33c-.21,3.17.85,6.5-.97,9.51-14.56,9.57-23.38,25.84-39.73,32.87l-186.57,62.65c2.1-12.95,3.63-28.89,3.82-42.02,21.63-5.82,41.87-16.33,63.11-23.79,53.58-18.82,104.64-29.13,160.34-39.24Z"/><path class="uuid-cc8b6616-7cbe-492c-af07-327f8558aa5b" d="M1856.5,994.9c-.54,1.67-1.18,1.64-1.91,0-13.55,2.88-26.02,11.74-38.82,17.52-56.84,25.65-116.96,42.46-176.98,58.87,3.35-9.09,7.59-23.08,9.55-32.47l189-64.05c7.55-3.61,15.44-7.05,21.98-12.39,3.66-2.98,12.45-14.99,13.43-15.23,2.36-.59,4.2,1.29,3.99,3.95-.92,11.75-19.93,38.84-20.25,43.79Z"/><path class="uuid-d5d24674-8f5e-4138-9378-803f88c73195" d="M1634.97,1080.84c48.47-9.88,95.88-25.44,142.61-41.68l63.63-26.13c-11.34,11-21.6,23.21-34.89,31.95-29.93,19.69-130.88,50.08-166.6,51.28-3.67.12-7.28-.05-10.48-2.05.96-1.77,4.33-10.19,5.73-13.37Z"/><path class="uuid-5c1059bf-14dd-4c1c-bbca-1f4b13a9bb47" d="M1885.15,939.52c-.24.36-6.14,1.92-7.62,3.82-3.18-21.21,12.6-11.32,7.62-3.82Z"/><path class="uuid-99cbb867-dcda-4b30-8bf4-bcc300cde4a9" d="M1856.5,994.9c-.07,1.13,3.13,3.81,1.08,7.62-1.78,3.32-7.44,4.1-10.61,5.75l7.62-13.37h1.91Z"/><path class="uuid-b6ed1ec8-be92-4747-8049-e1fcb2cec610" d="M1875.6,907.05c.11.7,1.55,2.48,1.91,5.73-10.98.58-29.13,4.11-40.61,6.18-62.99,11.35-123.78,33.04-182.83,56.84-.11-1.25.17-2.6,0-3.82-.65-5.24.58-5.6,4.64-7.78,20.62-11.06,63.03-23.02,86.63-29.86,42.45-12.3,86.33-21.82,130.26-27.3Z"/><path class="uuid-d5d24674-8f5e-4138-9378-803f88c73195" d="M1457.36,731.35c5.34-3.8,8.7-5.47,13.04-10.83,6.48-8.03,19.16-41.11,23.26-43.6,8.53-5.17,33.97,13.09,37.98,21.21,5.76,11.68,3.95,25.85,6.38,37.54,6.44,31.05,20.6,56.83,51.08,69.2-15.58,22.97-74.17,28.83-87.9,3.91-1.51-2.74-4.43-10.82-5.16-13.94-2.02-8.68,1.04-29.93-10.7-27.3-3.23.72-23.15,46.68-29.89,51.66-5.83-8.4-19.31-8.92-18.45-24.14,1.29-22.6,14.75-17.2,25.13-27.43,10.94-10.77,8.49-28.66-4.78-36.29Z"/><path class="uuid-d5d24674-8f5e-4138-9378-803f88c73195" d="M1228.19,704.61c22.38,2.57,45.4,8.33,66.84,15.28,32.97,28.85,34.25,73.77,3.82,105.04-6.01,4.97-20.2,1.42-21.96-5.73-.18,1.49-.66,3.73-1.74,3.82-5.76.5-48.03.96-50.84,0l-2.81-3.82c-2.46,7.41-20.86,7.64-27.69,3.82-9.42-10.4-14.17-18.8-17.19-32.47-2.11-6.48,1.13-8.65,9.72-6.49,31.26,4.32,87.39-16.38,40.46-45.76l-29.1-12.16-.07-4.33c12.29-11.45,14.53-12.76,30.56-17.19Z"/><path class="uuid-d5d24674-8f5e-4138-9378-803f88c73195" d="M1041.03,601.49c2.63,15.54-11.58,32.62-11.48,46.82.17,24.56,42.18,49.2,13.39,79.23-2.54,2.64-8.93,4.99-11.46,7.64-5.62-5.96-10.48-7.59-11.46-16.2-3.38-29.84,13.86-61.49.78-90.57-4.14-9.2-15.56-21.34-25.59-23.12l9.54-3.8c11.97-.38,24.45.59,36.29,0Z"/><path class="uuid-953ff35f-854a-406e-af0e-b36615ead53a" d="M1174.71,777.19c-.53-18.86,2.31-30.45,13.37-45.83,8.78-5.67,41.98,8.43,47.69,15.13,20.03,23.54-14.37,32.98-33.24,34.56-7.94.67-23.13,1.84-27.82-3.86Z"/><path class="uuid-3278ef7e-7dd6-4931-93d8-e19edfb2a5e1" d="M1197.63,721.8c18.82,10.14,58.3,15.32,48.8,45.94-5.84,18.82-47.94,21.26-64.07,19.91-3.48-.29-6.58-3.42-5.74,2.91-1.2-5.45-1.73-7.01-1.91-13.37,17.56-.56,36.36,2.64,52.61-5.63,7.48-3.81,12.39-8.58,9.57-17.38-3.31-10.33-37.93-20.77-48.82-22.82,3.4-4.74,5.74-6,9.55-9.55Z"/><path class="uuid-65ab4da6-cbaa-4e74-b737-b0a036cb21cc" d="M1287.39,834.48c-29.96,19.51-56.44,17.03-84.03-3.82,3.22-3.4,8.08-4.76,14.6-4.09,10.37-4.55,65.37-4.24,71.36,3.56.72.94-.79,3.04-1.94,4.35Z"/><path class="uuid-ef410187-db61-4461-8f0b-bf542be4f41b" d="M1430.62,651.14c-12.16-5.49-23.22,3.95-35.09-2.15-11.94-6.14-12.37-15.36-10.74-26.49,27.9-6.43,43.28-1.8,45.83,28.65Z"/><path class="uuid-3278ef7e-7dd6-4931-93d8-e19edfb2a5e1" d="M1298.85,824.93c-4.36,4.48-6.15,6.09-11.46,9.55-1.34-4.73-5.23-3.28-8.56-3.86-7.92-1.38-21.11-3.82-28.66-3.92-15.04-.18-31.39,5.53-46.81,3.96-4.21-3.18-4.75-2.34-9.55-7.64l27.69-3.82h55.38c4.26,0,15.93,6.65,21.96,5.73Z"/><path class="uuid-93687f1a-9fb0-465f-878a-0c6dc24158bf" d="M1295.03,719.89c-22.89-1.03-45.67-6.9-66.84-15.28,27.92-7.71,44.92-3.91,66.84,15.28Z"/><path class="uuid-c9a97792-55b3-4958-8d23-019ad8692522" d="M1442.08,725.62c-13.27-5.91-19.55-17.09-11.46-30.56,6.21,2.64,3,10.32,4.32,15.73,1.09,4.47,6.55,9.62,7.14,14.82Z"/><path class="uuid-72f40531-9700-4d2f-959e-e6f2fc7e5978" d="M1382.88,926.15c-6.95-.39-14.05.28-21.01,0,.46-.27.86-2.78,3.17-3.43,4.6-1.3,16.08-1.95,17.84,3.43Z"/><path class="uuid-88aa8dcb-fd38-480c-a280-5aea6298d782" d="M1063.95,716.07c-.73-5.43,1.13-12.79-.05-17.78-.31-1.33-6-1.96-3.77-7.05,6.49,9.89,11.82,11.47,3.82,24.83Z"/><path class="uuid-b61dd61c-ec54-47b1-98f4-6164e98e91cb" d="M284.76,693.16l1.91,15.28c.02.64,0,1.27,0,1.91l1.91,15.28c.04,4.45-.01,8.92,0,13.37l1.91,22.92c.02,1.91-.02,3.82,0,5.73l1.91,13.37c.12,11.43-.08,22.94-.01,34.37-4.93,6.5-3.76-13.53-3.81-15.27l-1.91-22.92c-.02-1.91.02-3.82,0-5.73l-1.91-13.37c-.06-5.08.09-10.2,0-15.28-.19-14.12-1.47-28.12-3.82-42.02.2-3.86-1.46-9.98,3.82-7.64Z"/><path class="uuid-0d061316-bffa-436a-8a23-1bba682b40b0" d="M284.76,742.81l-3.82-42.02c4.56,13.51,3.57,28.02,3.82,42.02Z"/><path class="uuid-0cd31d0a-e51e-4495-baf0-09e0fb410444" d="M290.49,761.91c-3.52-5.69-1.89-15.7-1.91-22.92,3.56,5.71,1.83,15.67,1.91,22.92Z"/><path class="uuid-0cd31d0a-e51e-4495-baf0-09e0fb410444" d="M288.58,800.1c-3.56-5.71-1.83-15.67-1.91-22.92,3.65,5.76,1.71,15.61,1.91,22.92Z"/><path class="uuid-0d061316-bffa-436a-8a23-1bba682b40b0" d="M286.67,708.43c-3.82-3.3-1.3-10.5-1.91-15.28,3.43,1.52,1.78,11.59,1.91,15.28Z"/><path class="uuid-0d061316-bffa-436a-8a23-1bba682b40b0" d="M288.58,725.62c-3.42-3.18-1.84-10.48-1.91-15.28,3.41,3.17,1.86,10.49,1.91,15.28Z"/><path class="uuid-0cd31d0a-e51e-4495-baf0-09e0fb410444" d="M286.67,771.46c-3.32-2.6-1.86-9.18-1.91-13.37,3.32,2.6,1.86,9.18,1.91,13.37Z"/><path class="uuid-0cd31d0a-e51e-4495-baf0-09e0fb410444" d="M292.4,781.01c-3.32-2.6-1.86-9.18-1.91-13.37,3.32,2.6,1.86,9.18,1.91,13.37Z"/><path class="uuid-ef410187-db61-4461-8f0b-bf542be4f41b" d="M764.11,490.72c3.26-26.57-.55-45.07,22.92-63.02,2.6,5.96-.66,12.88,0,20.05,1.4,15,7.89,12.89,15.94,20.34,8.22,7.62-7.36,8.23-14.43,11.73-5.8,2.87-11.32,6.61-16.96,9.78-1.85,1.04-6.22,5.17-7.47,1.13Z"/><path class="uuid-d5d24674-8f5e-4138-9378-803f88c73195" d="M928.35,605.31l.43,4.22c-14.02,12.22-27.76,24.88-41.21,37.98-17.34,14.05-30.55,21.59-42.31-3.39-3.69-7.84-9.53-29.58-2.85-34.99,28.51-1.05,57.13-3.35,85.94-3.82Z"/><path class="uuid-c073420e-06fa-467c-9f5e-b676d6d39ca3" d="M829.04,586.21c-24.8.93-49.56,2.95-74.48,3.82,4.84-12.52,32.24-37.71,44.84-37.99,13.83-.31,28.99,21.22,29.64,34.17Z"/><path class="uuid-8c0d6529-79d8-4903-89c3-06542edcb39f" d="M662.89,574.75c7.62,0,15.31,0,22.93-.01.14,3.8-.2,7.67,0,11.47,2.7,1.38,3.42,7.3,0,7.64.61,7.03,3.38,15.27,3.82,21.01.06.75-2.14,4.01-1.99,6.67.27,4.96,2.07,9.35,1.99,14.34-.03,3.15-9.98,2.81-11.46,0-16.13,4.63-23.65,4.12-19.1-11.46-1.24-7.46-1.88-15.1-1.91-22.92-.85-7.66-1.75-14.56-1.91-22.92,2.83-1.42,5.37-2.69,7.64-3.82Z"/><path class="uuid-14349ce1-68d4-462c-b659-11b088322d05" d="M949.36,605.31c-9.09,5.99-18.89,10.62-27.65,17.23-14.43,10.9-43.38,47.04-59.44,47.63-20.43.75-29.29-45.92-29.41-61.04,3.17-.12,6.37.12,9.55,0,.11,11.57,5.14,47.22,20.01,47.54,18.01.39,49.73-42.09,65.93-51.36,6.98-.11,14.03-.05,21.01,0Z"/><path class="uuid-3278ef7e-7dd6-4931-93d8-e19edfb2a5e1" d="M739.28,612.95c-1.01,8.7-14.45,28.36-23.67,26.86-5.44-.88.41-24.96-8.79-24.95,10.67-.86,21.24-1.52,32.47-1.91Z"/><path class="uuid-b16b83de-9341-4291-91eb-bc68a7e3e39f" d="M685.81,586.21c5.84-2.12,2.54,5.41,4.87,5.86,3.13.6,8.55-.24,12.32-.13-4.12,5.07-11.94-.83-17.19,1.91-.22-2.51.13-5.11,0-7.64Z"/><path class="uuid-d5d24674-8f5e-4138-9378-803f88c73195" d="M1440.17,462.07l-3.87-2.5c.7-16.63,1.9-54.74-19.49-59.3-6.18-1.32-7.32.49-10.34,5.58-4.47,20-7.36,40.43-8.66,61.3-1.54,9.66-5.24,16.25-11.12,19.75-46.04-.18-77.53-38.82-68.75-84.03,11.17-15.57,22.63-30.85,34.38-45.83,69.01-39.46,138.46,44.28,87.85,105.04Z"/><path class="uuid-14349ce1-68d4-462c-b659-11b088322d05" d="M1249.19,389.5c-4.65,2.96-11.63,4.72-15.28,7.64-10.49-9.96-27.03,24.45-26.36,28.67.98,6.17,43.31,39.42,52.37,43.45l.73,4.27c-1.29,3.9-4.75,7.14-5.73,9.55-27.58-16.71-90.58-62.29-76.33-100.21,9.94-26.46,54.86-3.58,70.6,6.63Z"/><path class="uuid-14349ce1-68d4-462c-b659-11b088322d05" d="M1440.17,462.07c-3.55,4.26-5.11,6.04-9.55,9.55l-2.51-.85c.27-12.38-.39-24.87-1.97-37.49l-14.22-5.66c-1.74,20.66-4.42,39.78-8.03,57.37-6.89,1.48-9.63,1.94-17.19,1.91,3.43-9.72,8.02-19.41,9.35-29.8,1.99-15.59-1.98-77.81,28.72-56.96,19,12.91,14.85,41.96,15.41,61.93Z"/><path class="uuid-c073420e-06fa-467c-9f5e-b676d6d39ca3" d="M1233.92,397.14c-11.15,8.92-10.16,31.41.91,40.15,6.32,4.99,15.26,4.55,20.98,11.48,6.15,7.45,7.84,15.69,4.85,24.76-10.43-2.17-55.63-40.56-56.91-47.04-.94-4.8,20.93-50.87,30.17-29.35Z"/><path class="uuid-d5d24674-8f5e-4138-9378-803f88c73195" d="M1403.89,484.99c-5.91.86-3.7-2.16-3-5.85,3.57-18.84,7.47-37.92,6.83-57.16,3.22,1.07,20.47,7.82,21.18,8.84,5.01,7.18,2.04,31.92,1.73,40.81-9.91,7.85-13.85,10.6-26.74,13.37Z"/><path class="uuid-8e951a3c-a290-4bab-8079-07fc33272753" d="M1352.32,357.04c-10.17,16.28-15.82,36.58-34.38,45.83,4.37-22.51,15.12-34.82,34.38-45.83Z"/><path class="uuid-f921e143-775e-4c39-921f-63d3c7b6044b" d="M1524.2,444.89c3.84,1.15,0,5.71-.94,7.66-2.39,5.01-4.54,10.44-8.61,14.31l-1.91-6.7c2.42-7.96,4.57-10.56,11.46-15.28Z"/><path class="uuid-98b67690-0e50-4ac8-8acd-792635d055b8" d="M1518.47,349.4c-1.54,3.38-3.65,5.37-3.82,5.73-.11-4.49-1.27-6.64,3.82-5.73Z"/><path class="uuid-87af4f0e-38a7-415b-ba70-67a2c1292b27" d="M659.07,624.4c.12,3.81-.1,7.66,0,11.47,6.35-.01,12.76-.01,19.11-.01,2.9,1.35,1.63,2.62-3.82,3.82-5.71.12-11.48-.08-17.19,0,.52-4.73-.11-10.34,0-15.28.54-1.67,1.18-1.64,1.91,0Z"/><path class="uuid-78749b33-cd60-44a4-9764-80d3da8c2793" d="M689.63,635.86c-.02,1.27.08,2.55.01,3.81-5.08.11-10.21-.1-15.29,0l3.82-3.82h11.46Z"/><path class="uuid-c3eaa9b3-2c1d-4733-a955-b696e8cdfa16" d="M662.89,574.75c1.19,5.73-2.83,3.58-7.64,3.82-.01-.64.02-1.27,0-1.91s.04-1.28,0-1.91h7.64Z"/><path class="uuid-e14a9c4b-dde4-4b21-b335-19b1b710e792" d="M659.07,624.4h-1.91c.17-7.62-.12-15.3,0-22.92.85,7.64,1.64,14.64,1.91,22.92Z"/><path class="uuid-fbd1897f-7410-433c-9c04-aa0910751794" d="M727.83,614.87c-1.25,4.24-5.51,10.62-7.62,4.74s2.65-5.01,7.62-4.74Z"/><path class="uuid-94b972aa-29a7-4da1-b00f-6fb67ade4127" d="M1589.75,1108.01c1.89,2.69,11.89,16.24,23.09,14.61,35.52-5.19,54.04-158.69,34.59-164.99-17.77-5.75-90.28,103.88-57.68,150.38Z"/><path d="M1098.9,1027.02c4.19-8.2,41.67,7.98,105.74,11.34,57.85,3.03,105.92-6.04,138.44-14.61,19.81,19.17,40.9,38.71,63.3,58.44,25.14,22.13,49.85,42.66,73.9,61.67-53.39,14.23-106.77,28.45-160.16,42.68-189.07-115.95-225.79-150.58-221.22-159.52Z"/><path d="M903.07,205.24c109.93,14.7,156.34-52.97,291.51-78.92,71.44-13.71,128.85-6.08,243.67,9.18,139.29,18.51,243.36,54.35,359.37,95,141.36,49.53,186.43,77.85,188.32,74.13C1991.53,293.68,1631.26-6.36,1194.59.1c-203.04,3-432.57,72.42-432.75,130.22-.1,33.83,78.59,66.54,141.23,74.91Z"/></svg>