<?xml version="1.0" encoding="UTF-8"?><svg id="uuid-0cefc536-5436-4c66-86e6-2fe4f49b20a2" xmlns="http://www.w3.org/2000/svg" viewBox="0 0 1779.18 1709.65"><defs><style>.uuid-59126c3c-7409-4e16-b058-dae62507bfb4{fill:#ffeb4d;}.uuid-e173bf1a-bb76-40fe-aef1-a9efbf7c8522{fill:#b4b4b3;}.uuid-684115b1-2b0a-4e3b-bc28-5c0fb6b13512{fill:#ffd100;}.uuid-687915b7-c2cc-454b-a191-0be64a5de314{fill:#e4e5e7;}.uuid-5d3af5b7-2800-457f-8909-6eefa8a8ee75{fill:#0a1227;}.uuid-7e93cf56-477c-49f9-ba1a-4dacae164bbd{fill:#bfc1c7;}.uuid-3eef23c9-33eb-451f-a4e4-f7d36f6a4a7b{fill:#c9cbcf;}.uuid-c7853919-9f4b-44c5-af66-5a5f768b3e79{fill:#a2a5ad;}.uuid-f04648d1-507b-45d3-8bc3-903eaf1be40c{fill:#010101;}.uuid-bbf875b7-2619-44b4-887f-a7210c0b09af{fill:#010000;}.uuid-cb65c0c4-3478-4e38-a768-6aa948f4806a{fill:#171712;}.uuid-7ba48207-31bc-44c8-a001-7726f39d1238{fill:#fff07d;}.uuid-d5fb8a74-5c70-40f6-a3aa-1702880f1710{fill:#030304;}.uuid-5c6a1f0a-beed-4c03-a6c0-c5851f8e510c{fill:#cdcdcc;}.uuid-f7a24526-3428-428e-984d-ec70906e7b75{fill:#adadab;}.uuid-ddc4f21b-2d87-4759-8103-e64d22dc8647{fill:#020203;}.uuid-f1695f7e-bd12-493c-b574-9f3239d93161{fill:#fff07c;}.uuid-9dc77886-1c9e-4317-89ea-a404273ab5cd{fill:#e2e3e5;}.uuid-a2198685-1158-40f8-addc-2251e4850fb5{fill:#1c1c17;}.uuid-d87edede-6167-49bb-9bab-f2a78e85293b{fill:#fff189;}.uuid-c6cbb840-da25-4d25-b77d-296fb7ca56e0{fill:#c4c6cb;}.uuid-ba6f7e17-f95b-4de6-b6e3-1cdb042baa13{fill:#12120d;}.uuid-696740bc-f9ac-4245-9a29-0c1a87917eb1{fill:#100f0a;}.uuid-c977a7d1-b327-41f3-87e0-3277a3e34fe8{fill:#767a86;}.uuid-ece058e1-185d-4e5d-b3d3-595bcb12202c{fill:#01050e;}.uuid-4584a264-e668-4800-907b-9ae56b03ebc5{fill:#090504;}.uuid-c9549798-1993-413c-a567-284d799d82ca{fill:#1f1e1a;}.uuid-ec095e27-0432-46f2-99a1-3c8b31157bc5{fill:#bdbfc5;}.uuid-53be71a9-3581-4560-826b-736ccc917032{fill:#030101;}.uuid-2732e639-72e0-494d-bb89-3ea8e9177e26{fill:#5a5a57;}.uuid-6bdcb33e-90ea-4311-ab02-8261a0541520{fill:#292824;}.uuid-7c043823-55dc-4893-ac16-9ee59656af44{fill:#949491;}.uuid-6709f05c-4395-497a-9a0d-cba35c68f673{fill:#999996;}.uuid-bf029864-3b73-4f7c-8400-658d829d87be{fill:#030102;}.uuid-0325f759-4334-4a84-bead-69c5e604aeb0{fill:#b8bac0;}.uuid-d2b3dfdb-a60b-4f1a-8106-023f0410208c{fill:#d0d0cf;}.uuid-25fd544e-6fba-4bd7-8272-6dcc94d60470{fill:#555552;}.uuid-0d42c29c-a28a-46e2-b3bc-7d0e9fac3605{fill:#010102;}.uuid-f837cc2a-4b80-443d-8340-7a90f458e5df{fill:#796f6b;}.uuid-6900c133-9785-4d0a-a335-5c0ae599f15f{fill:#050202;}.uuid-dd8c1d33-ddb5-49a9-b648-9221ce59b0ec{fill:#4749c0;}.uuid-f97b49c6-81de-4a23-8219-7399a5e473e2{fill:#a7aab1;}.uuid-d2efafe0-fc5d-48c1-9932-c79c97f373d3{fill:#15140f;}.uuid-fa4cb3fe-aeb8-4499-86b1-7d32bb43f52f{fill:#000001;}.uuid-129bd6bf-2a2a-4cbf-844b-ea3d59ec588a{fill:#848893;}.uuid-e966aa29-80e7-48b0-8136-abf534e30f6a{fill:#2b2b26;}.uuid-afb7a704-486a-4731-a41c-ae9ce8bb2b32{fill:#7b7f8a;}.uuid-76a205ba-8849-4b11-adcb-1d346dd34665{fill:#030203;}.uuid-037230c4-04ea-4879-a7db-ddbafbe874dd{fill:#030103;}.uuid-cf181293-c699-4cbe-940f-5012f91f9b40{fill:#787c88;}.uuid-1a0a15fb-40f6-447e-8494-98e190018be9{fill:#3c96e5;}.uuid-f8f92b8d-8d52-44ac-8400-c675a743b70e{fill:#8c8f99;}.uuid-550efa01-7c12-4267-86ed-495443509002{fill:#020204;}.uuid-67222e08-d113-4e1a-8556-6fb145ed67d7{fill:#060500;}.uuid-eb9f29c2-9708-4d69-a7e9-5951855fab0b{fill:#010103;}.uuid-d8f8afd2-b5a2-40f3-adfe-1afc31fd3eca{fill:#050205;}.uuid-f593d9b9-ed0c-4dde-aecf-450b371fd1de{fill:#110303;}.uuid-f16974b5-386d-481e-8c46-80b8ee7b5351{fill:#020202;}.uuid-f0468058-ca3b-4d60-bf7d-7f9c79753af1{fill:#020102;}.uuid-7c1bb937-659b-463e-a2fa-46633e224a35{fill:#0a0201;}.uuid-c9dda1fa-a6f6-4bbb-8a9b-7b6da681e56c{fill:#fff;}.uuid-d08f8bf9-8a56-41af-a184-27a082627a03{fill:#b5b8be;}.uuid-7ce4df89-ab2b-4f23-aaaf-bdef4e684963{fill:#040204;}.uuid-51bb0a5b-b8be-4cc4-a779-7a8e747c07b3{fill:#878b95;}.uuid-0adaecff-c0ca-439e-bd35-c4518aaba38a{fill:#c2c4c9;}.uuid-be2f5b93-951d-42f0-b765-a6d2a15fc3e7{fill:#9b9b99;}.uuid-fefcb660-06f4-4793-925d-a1b3ef6beeb0{fill:#9397a0;}.uuid-b2141427-da49-4ede-9ca9-b40bdfbd6294{fill:#acaeb6;}.uuid-ecc1692a-fb3d-4e3d-b001-ca86e3b7ab2b{fill:#140506;}.uuid-1b19911d-4dfd-41ad-81bc-3ba06d0c45d9{fill:#130404;}.uuid-834b9e44-6d12-4aeb-93ac-454b6f964c39{fill:#21211c;}.uuid-5588ecd4-ab08-4420-8c99-0cac9a1fb5bc{fill:#0b0506;}.uuid-46d8fdf8-c952-469a-9182-d69bf7ed6d18{fill:#1a1914;}.uuid-818ca17d-370c-4105-baa2-da992ef5fa49{fill:#aeb1b8;}.uuid-ffa50905-d525-4fd9-9750-94fd63ea222e{fill:#020000;}.uuid-f64d4f96-4039-45df-bdb6-e105a4f04332{fill:#7d818d;}.uuid-87f6eb6c-005a-4152-8a83-08a10802a713{fill:#8f8f8c;}.uuid-f1c49a84-54f3-42fe-aabb-a1296d87fdc1{fill:#080803;}.uuid-c3899996-3013-44ca-816c-48540c6a9a8f{fill:#fff399;}.uuid-29943ba7-1ef6-4645-b0d4-db73f47cfd96{fill:#9e9e9c;}.uuid-fa414dab-4850-42c8-a964-c403507d9f07{fill:#ffea46;}.uuid-55e24fad-4d0a-4c0f-b6f5-ec26c195858e{fill:#42332f;}.uuid-f4498e41-e99a-4766-8dd8-a0acd66f1c22{fill:#130505;}.uuid-105f4275-d34e-42a7-affc-c73913371a4d{fill:#0a090b;}.uuid-dcb5f9d9-33b2-4c97-9c7e-1a1fa7ccb4d5{fill:#9fa2ab;}.uuid-c2bd9175-2aaa-48cf-aa36-80f4a85b623b{fill:#0a0304;}.uuid-9b9543e1-a617-490f-9a30-37fc789d519b{fill:#020005;}.uuid-5fc2ac23-af14-40a2-8d05-452fd547efc9{fill:#8e929c;}.uuid-b92b46d7-fc7c-461e-a1d1-483bcb306d5a{fill:#040304;}.uuid-10eb7820-cb00-4327-8576-2758ea8ec61c{fill:#0d0d08;}.uuid-c36170f6-d4fb-4982-919a-fad3afb04d0a{fill:#d8d9dc;}.uuid-20b47ec6-6b3b-4c17-ba48-12281f52c545{fill:#a4a7af;}.uuid-5e821435-0709-4476-ad9f-15961d4a4b0a{fill:#010104;}.uuid-3d3dd673-1878-459b-8a1e-d1854a99bd65{fill:#b3b5bc;}.uuid-cb964084-6d19-461e-a3dc-99b7268482d3{fill:#8c8c8a;}.uuid-daa5fb49-25e9-463c-ba4c-f19387042da5{fill:#0b0a05;}.uuid-5ca7a423-330d-4b2e-8d91-2e12243d418c{fill:#b1b3ba;}.uuid-f079fc7a-9f4c-464b-bd75-f0d2ebb3a356{fill:#110706;}.uuid-20792df7-3474-4f53-bbb3-06a47596d837{fill:#050100;}.uuid-f1892b3c-81c2-4e66-866f-523c07a2a22a{fill:#120505;}.uuid-d485da14-0150-4259-8d4c-3f3b0036a8e2{fill:#fff078;}.uuid-e71af5a0-7b8d-4bbd-a8c7-0b7e78eef939{fill:#9699a2;}.uuid-8724083b-6e8b-4006-adea-c62506bdf17c{fill:#fff07a;}.uuid-5167ecbe-c0c8-45ea-a329-d391fc72e219{fill:#c7c8cd;}.uuid-7f54addf-8038-4617-9982-09826342fbc0{fill:#80848f;}.uuid-3398893e-f282-4ec1-b444-f8248447ad1e{fill:#02040c;}.uuid-1c9ffa25-2910-4427-b65c-906e66b12b72{fill:#91949e;}</style></defs><path class="uuid-687915b7-c2cc-454b-a191-0be64a5de314" d="M333.24,247.57l-.48,5.43c-17.58,14.5-36.44,31.11-39.79,54.95l-4.24,3.49c-1.57,6.84-1.57,13.94,0,21.29l4.65,3.11c18.44,54.8,78.79,76.97,130.42,89.87l4.29,5.72-1.66,4.91c-41.14,17.51-57.22,51.91-31.44,90.2l4.35,43.13c12.91,65.08,70.85,72.02,127.06,66.99l4.27,3.8,7.89,2.61c21.53,16.24,42.85,32.79,63.96,49.64,46.17,45.62,14.89,81.65-23.36,117.27-5.33,6.71-9.18,14.52-11.05,22.92l-4.54,3.03c-.79,6.45-.88,12.9,0,19.35l4.77,3.63c8.3,29.87,31.59,52.06,54.29,71.78l.94,5.89,1.95,5.32c-14.77,36.68-28.37,74.46-36.19,113.28l-4.47,3.33c3.42,3.09,2.82,5.31-1.94,5.81.61,1.53.92,3.35-.17,4.43-44.69,44.3-72.52,94.16-97.86,149.77-13.2,6.3-25.19,14.31-35.96,24.01-23.12,28.72-11.58,58.67.45,88.88,3.93-.23,4.71,5.6,1.94,7.74-1.41,3.63-1.41,7.51,0,11.61,2.77,1.44,6,1.44,9.68,0,2.59-4.88,3.88-5.59,5.81,0,.79.58,1.43,1.87,1.94,3.87,4.17,2.5,4.1,15.92,0,19.35-.56,2.44-21.65,8.18-22.76,7.58l-2.41-3.71c-2.88,1.49-5.46,2.78-7.74,3.87l-2.44,4.08c-33.54,6.89-68.77,17.2-101.99,28.77-11.99,4.18-23.8,8.98-35.03,14.86l-5.7-1.26c-17.19-18.99-26.99-56.72-25.12-82.23,2.54-34.62,28.6-86.04-10.32-109.75-28.19-17.18-90.74.8-127.62-5.93-106.86-19.48-131.92-206.77-71.09-281.08,7.5-9.16,39.65-34.14,50.28-35.85-.06-.8-.02-1.53.35-1.97,1.69-2.02,49.12.11,52.73.89.43.09.78.54,1.11,1.08.76-1.68,2.19-3.31,3.82-2.89,21.78,5.57,15,45.07,6.26,59.31-15.58,34.22-32.11,68.02-49.59,101.38-.7,6.33-3.01,10.51-6.93,12.52-.55,1.69-1.2,1.67-1.94,0-1.65,6.29-1.69,13.06,0,19.35.55-1.69,1.2-1.67,1.94,0,11.75,9.02,24.84,7.22,39.16,4.45l3.42,3.29c2.12-1.82,5.34-3.11,9.68-3.87l2.85-4.5c43.16-15.93,83.1-38.84,119.84-68.72,1.63-.71,3.95-.81,6.98-.32-2.52-5.17,7.29-11.25,11.61-7.74-.46-6.02,3.87-9.85,9.68-7.74,2.37-.95,4.31-2.24,5.81-3.87-6.58-6.4,9.37-17.8,13.55-9.68,1.5-.66,3.14-.84,4.51.12,12.84,8.99,14.53-3.78,11.53-14.64l3.32-2.9c-1.07-3.42-1.23-6.4-.47-8.93l50.93-58.51c17.12-20.87,34.68-43.29,39.99-70.27l4.38-3.58c.31-1.18.59-2.01,1.94-1.94,1.93-6.37,1-12.89,0-19.35-.9,1.29-1.55.65-1.94-1.94-3.56-2.25-7.04-5.46-10.43-9.64-6.25-1.1-9.55-3.7-9.89-7.78-.41,1.51-1.02,3.69-2.26,3.87-12.86,1.89-49.03,1.27-62.64,0l-2.84-3.87c-.21,1.6-1.2,3.65-2.29,3.37-41.28-10.48-29.83-47.87-19.72-77.98,12.89-41.23-34.21-58.79-66.11-66.21l-1.88-4.34c-4.65-.03-9.17-.68-13.55-1.94-1.93,5.32-5.84,5.38-7.74,0-1.53-.33-2.17-.97-1.94-1.94-17.13-1.88-34.54-2-52.23-.35l-1.96,2.29c-2.44,3.76-5.29,3.75-7.74,0l-11.61,1.94c-.8.69-2.09,1.34-3.87,1.94l-4.66,4.67c-34.52,6.43-68.47,17.69-99.24,34.72l-6.42-.68c-43.97-22.52-37.47-90.98-28.55-132.1,28.36-130.81,137.88-246.49,256.26-303.09,14.12-6.75,29.15-11.3,43.26-17.71Z"/><path class="uuid-1a0a15fb-40f6-447e-8494-98e190018be9" d="M1134.53,514.67c-47.77,6.01-46.08-34.5-9.96-53.05,8.11,12.13,14.67,12.28,28.25,7.33l3,3.13c16.39,2.11,76.46,67.17,74.72,74.52-.24,1-.68,1.96-1.17,2.9l6.42,2.83c9.94,15.63,18.26,32.37,23.01,50.37l-2.33,6.81c2.03,1.83,2.88,4.96,0,5.81,1.89,1.04,3.18,3.62,3.87,7.74,3.9.46,3.72,2.38,0,3.87,3.02.69,2.87,2.47,0,3.87,1.22,3.88,2.51,7.75,3.87,11.61,6.39,2.7,10.07,23.09,3.87,27.1.91,6.1,2.2,11.26,3.87,15.48,3.71.58,3.49,2.11,0,3.87,2.85,1.73,3.29,6.34,0,7.74.69,6.18,1.98,11.34,3.87,15.48,5.29,4.3,5.23,9.22,0,13.55,1.06,6.29,2.35,12.1,3.87,17.42,7.09,11.19,7.66,30.29,7.99,44.25.48,20.19.68,42.22-.47,62.3l-3.66,9.58c-4.86,12.7-6.17,20.26,3.87,30.97l3.82,2.95c9.17,30.34,44.24,43.56,73.45,43.17h76.04s5.4,4.2,5.4,4.2c2.08,1.04,4.66,2.33,7.74,3.87,7.97-7.53,24.68,5.73,32.02,12.1,14.11,12.25,25.93,30.08,33.63,46.97,2.96,6.48,7.64,20.37,4.04,26.09,2.36,2.66,2.72,5.36,0,7.74,1.48,1.1,2.77,3.68,3.87,7.74,3.05,1.32,3.07,4.9,0,5.81,1.21,4.22,2.5,7.45,3.87,9.68,1.07,1.58,2.08,3.2,2.85,4.91,5.44,12.12,5.34,71.75,4.97,89.25-.04,1.71-.65,3.41-1.31,5.16s-1.63,3.51-2.64,5.19c-.96,6.96-2.25,13.41-3.87,19.35l3.3,6.29c-2.61,21.28-5.56,42.81-11.5,63.46-.6,2.1-5.07,7.43-7.29,7.67-.66,3.76-1.95,6.34-3.87,7.74.65,1.53,1.23,3.08,1.54,4.68,3.92,20.37-38.4,92.42-50.9,113.58-5.08,8.61-29.66,47.24-36.58,48.69-.95.2-2-.08-3.09-.5-1.24,2.45-3.82,5.03-7.74,7.74-9.31,3.91-17.45,17.55-25.11,24.25-65.45,57.39-165.9,97.3-253.6,99.62-6.49,1.26-13.06,1.6-19.72,1.01l2.3.92c-11.78,3.24-28.86,3.24-40.64,0l-.61-4.04,85.28-56.5c39.25-29.14,81.91-61.37,99.94-108.29l5.07-3.42c-2.93-2.54-.73-9.96,3.87-9.68,2.42-2.94,5-4.88,7.74-5.81,1.85-9.55,2.48-19.22,1.89-28.92l1.98-2.05c-.55-3.26.09-4.55,1.94-3.87,4.13,1.03,7.17,4.3,9.11,9.81.93-7.59,2.41-14.73,4.44-21.42l-1.94-9.68c-3.96-6.68-4.6-12.49-1.94-17.42,2.13-2.72,2.26-4.92,1.26-10.52l2.61-1.09c.55-1.69,1.2-1.67,1.94,0l1.94-9.68c-1.71-.36-1.64-1.02,0-1.94-3.67-1.09-3.67-2.78,0-3.87-.88-6.16-2.17-11.32-3.87-15.48-1.73-.19-3.67-.9-3.91-2.45-3.03-19.55-18.22-32.17-37.28-37.92-.91-5.42-3.81-10.01-8.68-13.78-6-17.37-14.49-32.67-25.74-48.08-19.46-26.66-41.2-51.27-64.45-74.7l-3.16-8.87c-4.3-.71-5.59-2-3.87-3.87-2.6.57-3.4-1.23-3.87-3.87l-2.78-.46c-1.75-20.73-6.64-41.57-14.67-62.52-13.5-62.73-38.47-124.99-70.46-179.71l-1.21-6.5c-16.43-12.83-34.38-24.9-55.88-25.27l-2.08-4.24c-1.5-1.7-3.43-1.7-5.81,0-15.37.77-31.33-5.23-43.17-15.45-8.59.28-17.05-12.91-21.23-20.18-7.13-12.42-9.75-19.39-10.73-34.33-5.18-7.55-5.3-12.61-.36-15.2-3.16-4.23-3.52-11.52,0-15.48l-.14-4.37c9.43-6.65,17.33-14.66,22.76-24.78l4.49.12,8.41-8.89c35.37-17.99,70.4-36.99,103.13-59,13.89-9.34,25.07-19.31,33.81-32.74,23.78-2.96,47.17-8.86,69.09-19.07l2.35,1.64c3.41-5.35,7.53-10.77,12.37-16.25-12.56-4.07-25.35-7.42-38.35-10.04-.16-2.13-1.56-3.39-3.05-4.68Z"/><path class="uuid-b2141427-da49-4ede-9ca9-b40bdfbd6294" d="M1480.98,534.03l4.08,2.69c1.18,16.29,2.77,35.27,23.02,26.34,2.42,1.31,3.25,4.14,5.49,5.6,8.4,5.48,19.29,9.57,27.94,11.88,1.67.45,1.31,3.42,2.74,3.77,7.37,1.79,31.86.27,41.25.04,10.17-.9,12.75-1.54,7.74-1.94,11.38-2.35,29.82-4,40.64,0-.54.72.75,1.37,3.87,1.94,32.97,2.26,70.31,43.9,87.9,71.77,16.54,26.21,30.19,59.84,37.78,86.44,16.37,57.39,20.57,123.83,9.8,182.43-1.42,2.15-2.07,5.37-1.94,9.68-3.81,17.76-7.98,31.77-15.48,48.39-2.25,1.05-3.54,2.98-3.87,5.81-.26.51.27,1.44,0,1.94-2.32.95-3.62,2.88-3.87,5.81-12.32,20.18-18.53,26.29-36.77,40.64-3.01.25-4.95,1.54-5.81,3.87-42.02,31.65-100.19,73.77-106.45,129.68-.65,6.93-1.3,14.03-1.94,21.29,3.7,38,22.04,44.94,42.28,70.94,3.42,4.4,6.84,11.29,8.04,16.15,1.38,5.73,1.38,11.67,0,17.42-1.12,5.12-1.48,6.82-3.87,11.61-2.29,1.01-3.58,2.95-3.87,5.81-41.71,64.03-145.8,101.41-214.84,125.81-5.26,1.64-5.82-.13-1.94-3.87,13.76-14.17,31.49-41.86,42.65-60.5,19.64-32.81,37.73-68.13,46.38-105.95,1.77-1.56,3.06-4.14,3.87-7.74,1.14-9.37,3.35-7.38,3.79-9.12,5.4-21,9.92-47.08,11.69-68.3,1.77-5.95,3.06-12.4,3.87-19.35.58-36.64-1.96-68.95-3.87-104.52-2.96-1.08-3.08-4.89,0-5.81-1.16-3.64-2.45-6.87-3.87-9.68-3.08-1.22-2.91-6.41,0-7.74-1.65-2.57-2.94-5.15-3.87-7.74-2.65-5.28-4.73-18.33-7.99-25.48-10.27-22.46-34.46-56.39-61.68-59.68-2.68-1.17-5.26-2.46-7.74-3.87-35.79-2.63-82.36,3.37-114.77-3.93-1.32-.3-1.23-3.04-2.88-3.63-17.65-6.31-28.56-12.59-37.45-30.02-2.02-3.97-4.28-8.01-3.61-12.75,8.79-7.59,14.98-26.27-1.37-27.51l-2.5-3.45c-.92-25.4,1.21-51.14.08-76.53-.57-12.81-3.33-25.75-3.95-39.6-1.4-5.37-2.69-11.18-3.87-17.42-.1-4.51.06-9.04,0-13.55-2.86-2.15-3.24-5.89,0-7.74-.69-6.19-1.98-11.36-3.87-15.48-.04-1.29.07-2.59,0-3.87-1.65-4.26-2.94-9.43-3.87-15.48-.53-11.05-2.65-17-3.87-27.1-2.19-2.31-3.1-5.92,0-7.74-.98-3.18-2.27-5.76-3.87-7.74-.09-1.28.07-2.59,0-3.87-1.54-2.72-2.94-6.23,0-7.74-1.74-.74-3.03-2.68-3.87-5.81-5-22.63-14.83-41.25-27.1-60l.19-4.2c30.45-11.01,59.65-32.62,81.86-55.11,2.24-2.35,5.3-2.76,8.29-2.63,27.19-25.93,51.73-55.62,68.49-87.53,1.14-2.17,2.92-2.91,5.06-3.57,4.21-10.97,7.54-22.15,9.98-33.56l4.19-3.09,3.87-3.87c1.94,4.05,6.51,8.87,8.75,13.51,22.39,46.47,29.36,97.86,49.87,145.61,2.06,4.8,10.33,15.7,11.05,18.94Z"/><path class="uuid-684115b1-2b0a-4e3b-bc28-5c0fb6b13512" d="M1155.82,30.8c3.79.67,6.37,1.96,7.74,3.87,14.87,3.7,31.54,9.04,38.71,23.23,1.98,4.39,3.37,9.57,0,13.55-.98,2.08,2.48,7.19-3.87,5.81l-4.32-.26c-17.52-19.52-19.61,3.87-9.68,17.65l-1.48,3.9c1.68,6.6-6.33,6.3-5.81,13.55-15.66,2.12-16.45,12.65-2.37,31.57,4.34.98,9,.78,13.98-.61,4.79,3.04,9.72,4.61,15.48,3.87,5.56-.72,8.16,5.09,5.81,9.68,3.4,1.46,6.26,1.19,9.68,0-1.74-4.61,2.91-9.48,7.74-9.68,13.49-2.69,32.41-4.27,46.35-2.14.77.12,1.42,1.02,2.04,2.14,12.9,2.09,22.02,6.01,18.83,21.69-.37,1.83-8.9,16.33-10.46,18.48-10.77,14.83-43.92,44.39-46.96,61.55-.69,3.91-.86,17.11-.07,20.77.17.82,10.21,10.7,11.74,11.85,18.39,13.84,61.49,17.86,84.99,20.48,4.14,1.69,9.31,2.98,15.48,3.87,12.58,1.07,30.33,4.76,41.14,11.66,1.56.99,15.93,14.87,16.38,15.92,1.41,3.31.37,7.56.54,11.13,2.49,6.52,2.49,11.69,0,15.48-1.24,17.16-8.27,26.68-11.63,42.57l-3.83-3.85c1.15,8.68-8.93,14.53-7.78,23.21l-3.83-3.85c2.68,8.27-4.61,8.39-7.13,12.22-13.43,20.37-31.4,43.52-51.56,60.69-1.34,1.14-5.12.1-6.53,1.25-6.03,4.92-10.93,16.93-19.95,14.88l3.85,3.83c-8.27-2.68-8.39,4.61-12.22,7.13-10.94,7.21-25.08,13.86-34.83,23.23l-22.61,8.37c-12.76-19.49-40.55-49.77-58.81-64.99-3.38-2.82-15.42-5.98-14.74-12.42l-2.76-3.54c1.5-8.45-4.62-12.51-18.34-12.2-.6-6.23-1.1-7.47-1.5-3.74l-4.5.12c-2.51,1.98-4.49,3.37-7.59,2.86-5.44-.91-43.23-22.57-51.21-27.53l-3.13-6.29-4.81-4.67-1-22.43c-5.41-.37-6.42-4.77-1.94-7.74l-1.94-11.61-5.46-3.11c-39.96-74.05-132.18-108.49-209.35-129.52l-3.89-4.79-9.68-1.94c-1.8,5.58-14.28,3.88-15.48-1.94,3.52-.47,1.58-1.11-5.81-1.94-15.4,1.04-31.05,1.01-46.45,0-2.94.66-5.52,1.31-7.74,1.94-.07,5.65-14.21,8.86-17.42,3.87-2.32-.77-7.61-2.27-5.81,0l-3.92,4.73c-40.69,9.31-83.68,25.58-110.27,59.22l-5.81,1.86-4.79-1.53c-4.34-17.54-13.2-42.26-31.23-47.99-18.41-19.42-44.95-27.65-70.07-35.04l-2.29-4.47c9.87-.7-3.3-1.64.04-5.77,1.83-2.26,11.66-6.08,13.98-7.86,35.82-27.61,72.37-55.95,111.47-77.1,28.21-15.26,84.62-44.41,114.51-50.56,3.36-.68,5.94-1.97,7.74-3.87,1.24-.18,2.62.14,3.87,0,3.44-.76,6.03-2.05,7.74-3.87,1.24-.17,2.62.14,3.87,0,3.44-.76,6.03-2.05,7.74-3.87,1.24-.17,2.62.14,3.87,0,3.47-.73,6.05-2.02,7.74-3.87,20.65-5.21,41.01-11.22,61.94-15.48,2.67-1.8,6.54-3.09,11.61-3.87,1.93-.06,3.87.04,5.81,0,2.01-2,4.93-2.92,5.81,0,3.18-.98,5.76-2.27,7.74-3.87,69.62-8.5,133.4-19.87,206.1-15.45,28.49,1.73,26.81,3.49,72.61,11.58Z"/><path class="uuid-684115b1-2b0a-4e3b-bc28-5c0fb6b13512" d="M468.73,1374.02c5.32,5.29,9.84,5.94,13.55,1.94.62-5.14,2.4-4.92,3.87,0,2.58,2.8,4.23,6.97,4.95,12.53,5.25-.18,8.12,1.45,8.6,4.89,2.55-2,4.44-3.46,7.33-1.32,37.67,38.69,91.9,60.83,145.82,66.51l7.5,4.48c1.69.55,1.67,1.2,0,1.94,5.94.78,11.74,1.42,17.42,1.94l6.04-3.47c8.52.16,29.29,1.98,36.81,4.29,2.95.9,13.28,18.58,9.41,22.41,1.71.58,1.69,1.22,0,1.94,4.03.66,7.91,1.3,11.61,1.94l5.13-3.38c20.3,3.91,40.73,6.39,61.29,7.42l5.19,3.7,2.18-4.03,36.85-4.57,3.55,2.79c3.6-2.04,12.03-2.83,13.55,1.94,5.16,1.63,10.5,2.04,16.02,1.25l1.4,2.62,5.81,1.94c10.16-1.7,21.1-1.28,32.83,1.24,12.28-.8,23.27.72,32.97,4.56,3.52-.55,7.39-1.2,11.61-1.94-1.69-.55-1.67-1.2,0-1.94,4.64-6.22,25.55-10.11,30.97-3.87,3.84-.67,7.07-1.31,9.68-1.94-1.69-.55-1.67-1.2,0-1.94,3.4-12.84,9.2-23.16,17.42-30.97-3.36-2.03-1.68-2.71,1.94-3.87,2.83-4.95,4.91-4.94,7.74,0,4.42-.68,8.93-1.33,13.55-1.94-1.35-.85-.7-1.49,1.94-1.94,4.75-4.09,10.38-6.1,15.62-2.27,23.32-3.97,46.6-8.94,69.82-14.93,8.44.35,16.48-1.75,22.33-7.89,28.51-11.13,54.4-27.63,74.95-49.44l5.02.98c4.48-4.21,10.38,5.14,12.95,9.41,5.3-1.66,8.72-.93,10.27,2.2,1.43-5.03,2.5-5.02,3.87,0-16.01,59.51-103.97,117.64-156.36,150.31-3.93,2.45-31.33,21.41-33.32,21.94-24.56,6.65-79.75,41.99-110,55.88-18.17,8.34-90.42,32.64-99.03,38.96-1.67,1.33-3.6,2.62-5.81,3.87-23.61,5.2-52.6,16.6-77.42,23.23-2.92.67-5.5,1.96-7.74,3.87-34.77,8.75-89.86,19.97-124.33,11.1-27.11-6.97-26.6-30.21-38.9-50.17-5.55-9.01-20.88-17.97-31.24-19.05-27.17-2.83-72.21,34.24-105.53,38.77-11.4,4.77-29.6,3.45-42.58,0-11.43-1.33-21.77-5.53-32.9-7.74l-5.81-3.87c-.31-.22-4.75.2-7.53-1.09-49.1-22.8-106.63-65.4-132.37-113.59-8.23-15.4-13.66-30.53-14.93-47.89-3.41-2.17-3.41-9.4,0-11.61,1.96-27.49,25.99-48.92,48.39-61.94,26.1-15.17,73.48-28.77,101.26-34.86,1.08-.24,17.04-7.44,18.12-7.68,6.43-1.45,19.4-3.55,25.78-3.91,2.88-1.49,5.46-2.78,7.74-3.87,11.24-.62,10.42-3.2,12.95-3.83,3.59-.88,8.37.41,12.21-.04Z"/><path class="uuid-1a0a15fb-40f6-447e-8494-98e190018be9" d="M195.83,657.9c.36-1.73,1.01-1.66,1.94,0,5.79-1.57,11.67-1.61,17.42,0,6.24-1.56,13.04-1.61,19.35,0,5.5-1.56,11.86-1.76,17.42,0,2.57.07,5.18-.14,7.74,0,4.37,1.28,8.88,1.93,13.55,1.94,24.98,4.94,69.02,20.38,73.44,49.48,4.41,29.08-25.41,61.99-3.21,85.47.38.4,8.21,5.97,8.71,6.19,1.27.55,10.47,4.03,11.06,4.03h67.74c.64,0,11.03,4.06,11.97,4.56.48.25,7.45,7.22,7.73,7.68,1.26,2.1.25,4.32.62,5.18,1.37,7.23,1.91,15.89,0,23.23-4.73,46.94-63.87,98.32-91.4,133.65-1.99,2.56-3.37,4.03-3.44,7.64l-4.32-.67c-16.54-23.72-21.41-2.18-12.16,14.81l-2.87,3.28c-6.62.19-11.57,4.12-13.55,9.68-.77,2.3-3.47,3.3-5.81,3.87-3.77,3.81-5.86,4.76-9.68,7.74l-4.26-1.54c-12.06-54.35-39.72-27.4-8.77,5.22l1.42,4.06c-30.9,22.72-92.27,67.28-129.68,73.55-4.3.82-7.52,2.11-9.68,3.87-10.62,2.02-40.87,8.04-42.58-7.74-1.86-5.61-1.84-13.74,0-19.35,2.2-21.47,21.48-48.4,30.73-67.43,8.5-17.48,32.8-64.54,30.84-82.06-.86-7.72-6.88-19.52-15.12-20.84-1.69-.55-1.67-1.2,0-1.94-17.14-.88-34.56-1.52-52.26-1.94-.44,2.84-2.1,2.34-3.87,0-43.19-3.98-99.94-59.19-102.58-102.58-3.01-10.02-3.07-20.91,0-30.97,2.23-30.18,35.4-60.34,60-75.48,29.12-17.93,75.4-33.49,110.32-38.71,3.67-1.1,7.54-1.75,11.61-1.94.64-1.04,1.94-1.69,3.87-1.94,2.58-.05,5.16.02,7.74,0Z"/><path class="uuid-1a0a15fb-40f6-447e-8494-98e190018be9" d="M501.63,214.67c16.47,3.34,41.71,13.46,56.44,21.52,9.35,5.12,10.78,9.31,17.71,14.63,1.48,1.14,5.05.11,6.53,1.25,3.29,2.54,15.99,19.57,18.1,23.4,4.76,8.68,5.64,19.3,9.61,28.23l1.46,4.9c-7.53,13.67-14.88,30.53-13.15,45.84l-3.8,3.46-1.17,5.1c-41.85,32.35-84.47,64.56-139.33,64.92-9.38,3.44-18.03,4.62-25.95,3.52-19.37-7.68-40.21-10.6-59.42-18.96-32.78-14.27-73.09-42.8-79.93-79.75-1.56-7.33-1.56-14.42,0-21.29,1.94-28.59,23.84-46.73,44.52-63.87,34.73-15.76,55.72-32.74,96.77-34.84,11.36-.86,14.59-1.5,9.68-1.94,19.97-3.25,41.69-.24,61.94,3.87Z"/><path class="uuid-bf029864-3b73-4f7c-8400-658d829d87be" d="M1236.03,47.53c46.14,28.7,121.44,83.53,112.03,103.05-4.31,8.95-21.22-.36-80.85,2.64-49.67,2.5-77.19,10.93-94.74-6.49-7.05-7-9.93-15.63-11.27-21.67-3.42-19.19,10.22-29.25,13-44.76,6.64-37.02-54.71-70.51-49.67-78.74,4.32-7.05,53.92,10.16,111.5,45.98Z"/><path class="uuid-f16974b5-386d-481e-8c46-80b8ee7b5351" d="M1518.31,540.43c11.79-15.93,32.97,15.4,21.81,26.59-14.07,14.09-28.36-17.74-21.81-26.59Z"/><path class="uuid-9dc77886-1c9e-4317-89ea-a404273ab5cd" d="M108.73,909.51c17.58.48,35,1.12,52.26,1.94v1.94c-8.49-1.35-45.72-1.36-54.19,0l-1.94-3.87c1.27.12,2.59-.08,3.87,0Z"/><path class="uuid-51bb0a5b-b8be-4cc4-a779-7a8e747c07b3" d="M1136.47,1567.57c-3.78,3.43-12.02,1.99-17.42,1.94-3.25-.03-12.43,1.71-13.54-1.92,10.29-.23,20.67.25,30.96-.02Z"/><path class="uuid-f7a24526-3428-428e-984d-ec70906e7b75" d="M1411.3,355.96l-.02,7.73h-1.89s-1.96-3.86-1.96-3.86c.35-4.79.23-10.64,0-15.48,2.86,3.09,1.88,7.47,3.87,11.61Z"/><path class="uuid-818ca17d-370c-4105-baa2-da992ef5fa49" d="M1599.05,1170.8c-.76,6.78,2.16,16.03-1.94,21.29-.72-7.4.5-15.69.02-23.23l1.92,1.93Z"/><path class="uuid-b2141427-da49-4ede-9ca9-b40bdfbd6294" d="M1422.92,1435.96l1.94,3.87c-2.61.92-6.95,2.73-9.68,3.87-.83-4.79,6.67-6.63,7.74-7.74Z"/><path class="uuid-3d3dd673-1878-459b-8a1e-d1854a99bd65" d="M1647.43,1296.6v-17.42c.73,2.93,2.14,3.84,2.15,8.7s-1.56,6.02-2.15,8.71Z"/><path class="uuid-129bd6bf-2a2a-4cbf-844b-ea3d59ec588a" d="M439.7,210.8c10.48,2.18-3.71,1.63-9.68,1.94,1.67-3.4,6.77-1.46,9.68-1.94Z"/><path class="uuid-3d3dd673-1878-459b-8a1e-d1854a99bd65" d="M1773.24,924.99c-.63,3.43-1.21,6.31-1.94,9.68-.6-6.26.44-20.03,1.94-9.68Z"/><path class="uuid-b2141427-da49-4ede-9ca9-b40bdfbd6294" d="M1593.24,582.41c9.85,1.85-1.61,1.79-7.74,1.94,1.41-3.14,5.45-1.46,7.74-1.94Z"/><path class="uuid-0325f759-4334-4a84-bead-69c5e604aeb0" d="M1711.3,1037.25c-2.59,2.04-4.41,2.82-5.81,3.87-.98-4.78,1.64-4.24,5.81-3.87Z"/><path class="uuid-7e93cf56-477c-49f9-ba1a-4dacae164bbd" d="M1751.95,990.8c-1.76,3.29-2.86,4.14-3.87,5.81-.2-4.46-1.2-6.77,3.87-5.81Z"/><path class="uuid-ec095e27-0432-46f2-99a1-3c8b31157bc5" d="M1755.82,983.06c-1.71,3.79-3.43,4.95-3.87,5.81-.08-4.58-1.3-6.71,3.87-5.81Z"/><path class="uuid-0adaecff-c0ca-439e-bd35-c4518aaba38a" d="M1643.56,1308.22c-1.85,3.71-2.5,3.7-3.87,5.81-.08-4.58-1.3-6.71,3.87-5.81Z"/><path class="uuid-b2141427-da49-4ede-9ca9-b40bdfbd6294" d="M1633.88,582.41c1.36.5,2.94.37,3.87,1.94-3.19-.22-6.47.18-9.67-.02-.7-3.17,2.82-1.68,5.8-1.92Z"/><path class="uuid-c3899996-3013-44ca-816c-48540c6a9a8f" d="M869.37,1664.34c-2.13,1.56,4.47,1.61-5.81,3.87.83-2.8,2.96-3.85,5.81-3.87Z"/><path d="M1035.82,410.15l4.07,3.69c-3.77,22.51-9.37,44.9-16.82,67.16l15.77-27.33,4.73-.94c4.39-6.71,6.07-2.73,3.87,3.87l2.49,4.17-12.86,30.63c-8.01,23.35-8.3,28.02,14.26,39.08,18.46,4.47,32.96,12.96,43.5,25.45,20.68-3.49,41.14-8.91,60.76-16.52l4.11,2.34c6.49-3.72,9.64-1.53,3.87,3.87-9.83,5.43-27.37,11.93-38.3,14.92-6.51,1.78-29.57,4.63-32.03,6.21-2.09,1.35-2.79,6.26-5.12,8.89-12.02,13.5-29.47,24.89-44.7,34.67-30.89,19.84-64.37,35.94-96.62,53.38-1.27-.74-3.1-1.94-2.85-2.97,1.5-6.07,9.83-28.79,14.03-31.19,21.46,6.15,26.5-34.38,14.48-40.72-6.88-1.96-12.32-3.76-18.27-8-4.41-3.14-18.91-18.91-15.13-23.57-6.18-.59-8.75-6.09-5.81-11.61l-4.9-.12c-25-42.54-54.22-53.02-93.82-20.46-9.45,4.84-27.95,10.53-34.83,1.23-4.25,3.89-4.07,23.32-2.64,28.9,5.18,2.14,3.56,5.55-1.23,7.87,7.72,3.33.35,21.26-8.6,21.11-29.09-7.7-25.91,52.19,1.26,45.6l3.69,2.81c4.34,21.73,15.77,41.59,33,55.68,7.85,7.99,8.64,31.78-2.26,35.44-1.74,2.87-3.3,5.3-6.08,7.14-22.86,15.18-75.98,30.01-103.36,26.5-13.81-1.77-37.77-7.99-41.52-22.04-5.86-7.46-.95-7.62,5.81-3.87,3.75-1.6,8.13-.45,13.14,3.47,6.82,1.29,10.82,4.01,12.02,8.14l8.59,1.3c4.78-1.86,7.08-1,6.9,2.58,1.97-3.47,8.22-1.97,11.61,0,3.52-.44,2.23-1.73-3.87-3.87-.16,2.99-3.03,2.86-3.87,0-5.23.97-7.17-.32-5.81-3.87-.88.73-1.78,1.33-2.73,1.45-7.59.95-21.73-17.42-26.05-23.83-11.88-24.88-28.37-43.97-49.46-57.27-.42,3.72-2.08,5.76-4.99,6.1,2.58,6.74,3.2,16.06-3.87,7.74l-4.75-2.17c-2.52-19.51-5.72-21.53-24.31-24.54-20.58-2.53-41.26-3.35-62.02-2.46l-7.63-3.74c-43.31.49-87.18,7.57-118.02-31.98-22.73-29.15-16.44-49.7-21.44-81.14-1.13-7.1-10.16-16.6-12.1-26.64-6.58-34.01,20.4-57.57,48.98-69.27,27.39-11.21,46.91-8.15,71.67-14.46,29.2-7.44,68.77-45,94.78-59.09.89-5.35,4.05-7.83,6.9-2.93l2.78-4.81c-1.75-.36-1.68-1.02,0-1.94,21.59-15.15,43.67-30.51,66.24-46.07,16.22-10.24,53.37-32.22,71.69-31.94,2.65.04,5.05,1.05,7.23,2.53,3.96-1.56,8.47-2.21,13.55-1.94.98-1.06,1.99-2.06,3.16-2.85,10.26-6.92,71.76,1.3,87.55,3.83,57.44,9.2,141.35,50.34,172.61,100.45,6.06,9.72,16.5,28.22,9.58,37.92Z"/><path class="uuid-c9dda1fa-a6f6-4bbb-8a9b-7b6da681e56c" d="M747.44,793.38c1.42.04,2.6.21,2.95.85,3.88,7.04,16.89,47.65,17.45,55.31.34,4.71-.4,7.5-2.98,11.58,6.15,6.8-4.78,18.07-11.13,22.97-26.65,12.27-29.65,30.44-31.21,57.24l-4.11,3.02-17.93,44.14-5.29,2.31c.36,1.54.65,3.07.68,4.62s.03,2.94-.5,4.12c-20.64,46.05-41.41,92.13-66.48,135.95-.6,1.05-1.79,1.78-3.08,2.55s-2.71,1.31-4.17,1.79c-.13,3.35-1.42,5.29-3.87,5.81,5.38,4.58-3.07,13.91-7.74,7.74-3.57,6.33-7.44,8.91-11.61,7.74-1.53,6.39-24.43,5.88-27.1,0,2.69,2.02,2.59,4.56-.32,7.64,3.38,18.09-.22,26.49-10.8,25.19-3.67,16.54-10.3,17.12-19.91,1.75l-1.7.27c4.17,13.43,3.47,25.69-2.11,36.77,5.19.86,7.46,7.84,3.87,11.61v1.94c-.85,5.13-2.31,4.87-3.87,0-.62,1.67-1.27,1.66-1.94,0-.81,19.55-1.45,38.91-1.94,58.06,4.21.93,2.06,9.44-1.94,9.68,1,2.6,1.32,4.48.82,7.15-1.43,7.62-17.98,48.25-22.63,50.37-.99.45-2.15.55-3.35.55,4.12,13.43-15.25,7.5-3.87,1.94-2.96-.64-2.94-4.82,0-5.81-2.61-4.65,1.82-14.75,5.81-17.42.21-3.71-.44-5-1.94-3.87-.21,5.99-2.55,15.01-7.74,17.42,2.22,3.1,2.22,5.04,0,5.81,1.75,3.38-.48,15.96-6.85,13.28-1.55-.65-8.04-28.67-.89-30.7l1.62-30.04c-2.87-4.1-2.12-6.99,2.26-8.67-1.54-1.95-2.83-5.18-3.87-9.68l-1.63,11.05c3.23,1.33,1.18,3.07-2.24,4.44,2.32,9.09,2.97,24.04-3.87,30.97-1.4,3.62-2.05,7.49-1.94,11.61,3.94,1.91,1.95,2.86-1.94,3.87,8.69,17.21-15.26,13.5-3.87-1.94-1.6-20.72-1.6-41.36,0-61.94l-3.24,1.64c-2.1,10.31-5.39,23.03-9.88,38.15l-2.36.86c-1.12.16-2.03.21-2.19-.12-2.02-3.95-.82-20.48.26-25.04-2.14-4.21-3.67-10.52,0-13.55,1.27-4.37,1.91-8.88,1.94-13.55-3.05-10.22,4.99-26.03,11.61-34.84-2.45-2.93-.1-9.7,3.87-9.68-2.94-1.85-1.88-8.09,1.94-7.74,1.78-3.27-.54-5.88-3.87-3.87,2.58,2.09,1.67,7.41-1.94,7.74,1.31,5.92.02,9.8-3.87,11.61-1.04,8.8-3.72,17.9-8.04,27.3-.99,6.77-2.82,12.51-5.5,17.22-.8,4.64-1.45,9.16-1.94,13.55,2.83,4.52,2.81,16.77-1.94,19.35-24.92-31.21-25.28-80.19,10.44-103.75,5.89-3.88,16.08-6.03,21.34-10.69,3.89-3.45,23.12-48.48,28.47-58.11,15.34-27.6,37.35-57.32,57.95-81.38,3.54-4.13,10.23-11.04,15.34-13.17,3.24,2.17,3.89.23,1.94-5.81,4.84-32.33,25.49-91.16,38.71-121.93l-.5-5.3c12.43-31.01,27.91-60.64,46.47-88.91,9.76-21.52,20.56-41.48,46.29-44.94,9.13-5.6,22.88-13.63,31.61-4.07Z"/><path class="uuid-129bd6bf-2a2a-4cbf-844b-ea3d59ec588a" d="M629.37,673.38l3.14.89c9.75,20.88,22.6,39.54,38.56,55.95l.88,5.09c45.39,38.03,104.7,10.28,150.97-11.61l3.02,3.9c-7.95,25.62-23.38,59.28-53.4,61.51-3.34,5.84-17.94,7.38-19.29.39l-5.81,3.87c-4.96.65-11.52-1.04-16.1.04-.89.21-13.36,7.47-14.25,7.68-6.92,1.57-15.49,4.03-21.3,8.39-12.91,9.69-16.61,24.81-24.46,37.47-17.79,28.69-35.01,59.98-47.76,89.65-24.61-20.88-53.72-48.17-60-81.29-.86-6.42-.79-12.92,0-19.35,6.26-37.4,38.17-44.06,52.31-74.46,27.93-60.04-54.3-86.56-85.21-121.02,24.39-.28,65.04-1.96,87.16,6.71,9.28,3.64,8.24,17.79,11.55,26.19Z"/><path class="uuid-0d42c29c-a28a-46e2-b3bc-7d0e9fac3605" d="M334.68,1024c11.71-2.14,18.52,18.01,22.14,27.4,4.19,10.85,10.7,28.43-9.01,24.52-6.76-1.34-13.81-19.32-16.51-26.1-3.33-8.38-11.23-23.16,3.37-25.82Z"/><path class="uuid-ddc4f21b-2d87-4759-8103-e64d22dc8647" d="M308.08,1025.64c-4.93,3.84-8.79,5.67-11.61,7.74-12.84.39-25.04-36.15-16.31-42.43,15.96-11.48,26,24.15,27.92,34.69Z"/><path class="uuid-c2bd9175-2aaa-48cf-aa36-80f4a85b623b" d="M474.53,1302.41c-1.73,20.3-1.73,40.95,0,61.94.48,2.94-.35,6.58.01,9.67,6.67,1.46,2.67-3.91,3.86-7.73,2.54-3.4,3.83-3.4,3.87,0,2.92,1.96,3.13,7.91,0,9.68-2.38,12.49-11.78,6.81-13.55-1.94-1.01-4.99.23-13.58,0-19.35-.73-5.98-1.33-12.01-1.78-18.11l-2.09.69c.77,4.42,1.32,13.16-3.87,13.55-.74,1.62-3.8,7.45-4.86,7.74-5.5.06-3.97-4.81-4.81-7.74-1.46-4.11-1.46-7.98,0-11.61-.21-1.95-1.97-4.01-1.94-7.74.04-4.25,1.85-12.67,1.94-19.35.55-1.69,1.2-1.67,1.94,0,2.84-2.03,3.42,3.4,1.94,5.81.87,8.18,1.52,16.95,1.87,25.33.06,1.33-.28,3.55-.71,4.88-.1.32-.24-6.22,2.71-5.05,1.89-6.17,7.88-41.38,9.71-42.57.73-.47,5.98-.71,5.78,1.93Z"/><path class="uuid-76a205ba-8849-4b11-adcb-1d346dd34665" d="M337.12,1004.35c-1.23-2.6-5.84-17.87-5.97-20.36-.88-17.54,20.03-14.77,25.32,2.94.69,2.31,2.1,12.07,1.91,14.33-.96,11.12-15.56,15.09-21.26,3.09Z"/><path class="uuid-f0468058-ca3b-4d60-bf7d-7f9c79753af1" d="M396.57,1033.77c3.46-1.03,6.88-.87,10.19.62,9.66,4.34,15.17,46.26-5.71,36.74-5.92-2.7-12.51-23.43-11.73-28.93.45-3.2,4.24-7.54,7.25-8.43Z"/><path class="uuid-0d42c29c-a28a-46e2-b3bc-7d0e9fac3605" d="M322.98,1105.35c21.63-6.65,31.4,40.68,8.7,35.13-10.32-2.52-6.85-8.5-9.38-14.22-1.44-3.26-6.34-5.33-6.34-10.63,0-3.44,3.68-9.26,7.02-10.29Z"/><path class="uuid-d5fb8a74-5c70-40f6-a3aa-1702880f1710" d="M269.87,1092.86c-5.26-4.93-6.85-20.97,2.42-22.72,26.79-5.07,15.36,39.41-2.42,22.72Z"/><path class="uuid-9dc77886-1c9e-4317-89ea-a404273ab5cd" d="M250.02,655.96c-4.55,1.32-11.03,1.61-15.48,0-6.44,1.36-12.94,1.39-19.35,0-5.52.51-11.32,1.16-17.42,1.94-.65,0-1.29,0-1.94,0-1.08-5.86,2.96-3.72,6.69-3.87,12.19-.48,24.68-.16,36.89-.03,3.27.03,8.61-1.24,10.62,1.97Z"/><path class="uuid-a2198685-1158-40f8-addc-2251e4850fb5" d="M584.86,1058.54c5.87,2.66,7.61,9.67,7.73,15.47-4.21,4.14-9.38-7.73-9.67-9.67-.32-2.19,1.72-4.39,1.94-5.81Z"/><path class="uuid-c9549798-1993-413c-a567-284d799d82ca" d="M468.73,1354.67c-1.87-.52-1.83-2.23-1.94-3.87l-2.6-.6c.98-4.32,1.2-8.64.67-12.95.76-2.33.63-7.82,3.85-7.73.28,8.35-.31,16.81.02,25.15Z"/><path class="uuid-6709f05c-4395-497a-9a0d-cba35c68f673" d="M466.79,1350.8h-5.81c1.66-3.61,2.54-9.5,3.87-13.55,3.54,2.71,1.66,9.26,1.94,13.55Z"/><path class="uuid-5ca7a423-330d-4b2e-8d91-2e12243d418c" d="M453.24,824.35c.98,6.38,1.97,13.02,0,19.35-.43.75-1.31,1.32-1.94,1.94.74-7.39-.52-15.69,0-23.23.27.62,1.77,1.29,1.94,1.94Z"/><path class="uuid-129bd6bf-2a2a-4cbf-844b-ea3d59ec588a" d="M288.73,332.74c-1.17-6.33-4.87-15.38,0-21.29-.48,7.02.33,14.25,0,21.29Z"/><path class="uuid-9dc77886-1c9e-4317-89ea-a404273ab5cd" d="M453.24,843.7v-19.35c1.87,7.16,4.2,12.13,0,19.35Z"/><path class="uuid-0325f759-4334-4a84-bead-69c5e604aeb0" d="M114.54,1103.06h-1.94c-1.72-6.27-1.67-13.07,0-19.35h1.94c-.53,5.15-.56,14.23,0,19.35Z"/><path class="uuid-9dc77886-1c9e-4317-89ea-a404273ab5cd" d="M112.6,1103.06c-3.21-3.91-3.31-15.07,0-19.35v19.35Z"/><path class="uuid-129bd6bf-2a2a-4cbf-844b-ea3d59ec588a" d="M563.57,855.31c-2-10.55-1.71-9.16,0-19.35v19.35Z"/><path class="uuid-5167ecbe-c0c8-45ea-a329-d391fc72e219" d="M250.02,655.96c.88.08,1.74,1.03,1.94,1.94-5.79-.16-11.63.11-17.42,0-1.69-.55-1.67-1.2,0-1.94,5.01.04,10.64-.46,15.48,0Z"/><path class="uuid-d87edede-6167-49bb-9bab-f2a78e85293b" d="M443.57,1377.89c1.21,5.84-2.89,3.6-7.74,3.87-1.21-5.84,2.89-3.6,7.74-3.87Z"/><path class="uuid-d08f8bf9-8a56-41af-a184-27a082627a03" d="M166.79,1106.93c-2.57,3.9-6,3.17-9.68,3.87-1.43-6.54,4.73-3.04,9.68-3.87Z"/><path class="uuid-c6cbb840-da25-4d25-b77d-296fb7ca56e0" d="M273.24,659.83c-4.24-.46-10.81,1.74-13.55-1.94,6.2.34,8.29.89,13.55,1.94Z"/><path class="uuid-105f4275-d34e-42a7-affc-c73913371a4d" d="M451.31,1350.8c-.95-3.27-4.87-8.19,0-11.61.41,3.73-.28,7.82,0,11.61Z"/><path class="uuid-3eef23c9-33eb-451f-a4e4-f7d36f6a4a7b" d="M188.08,657.9c-.93,1.58-2.52,1.43-3.87,1.94-2.9.89-5.48.89-7.74,0,2.11-3.27,7.96-1.87,11.61-1.94Z"/><path class="uuid-818ca17d-370c-4105-baa2-da992ef5fa49" d="M176.47,659.83c2.55-.22,5.18.15,7.74,0-5.72,2.14-6.63,1.19-11.61,1.94.52-1.9,2.23-1.8,3.87-1.94Z"/><path class="uuid-c36170f6-d4fb-4982-919a-fad3afb04d0a" d="M323.57,1014.02c-1.14,3.22,2.34,4.69-5.81,3.87,1.61-1.63,1.89-4.32,5.81-3.87Z"/><path class="uuid-c9dda1fa-a6f6-4bbb-8a9b-7b6da681e56c" d="M933.24,545.64c2.19,5.89-2.4,7.95-13.77,6.18l-23.08,1.48c-3.49,8.32,3.61,9.07,21.29,2.25,9.14-3.16,16.26-2.6,21.36,1.7,3.05,4.22,14.81,18.47,18.4,21.28,9.95,7.79,22.13,2.54,24.27,18.31,1.54,11.28.85,28.12-10.33,34.34-6.23,3.47-12.24,1.37-12.78,1.75-1.34.95-8.82,25.39-11.81,30.76-.61,1.09-7.88,12.29-8.36,12.94-2.5,3.33-15.53,14.89-18.73,16.09-2.42,5.25-3.62,10.83,0,15.48.29,11.56,3.37,10.89,3.83,12.93,1.63,7.21,2.51,16.91,3.94,24.42.33,1.72,18,26.35,19.93,27.83,1.47,1.12,4.89.12,6.51,1.25,15.03,10.5,15.4,11.77,34.66,14.71,3.71.57,4.75,0,6.6,4.01,3.43,3.01,2.64,10.52-1.94,11.61l-3.96,6.1c-12.26-1.51-26.08-2.79-38.62-.3.3.88-.35,1.52-1.94,1.94-7.97,2.08-16.07,3.32-24.3,3.7,15.88-1.27,31.72-1.85,47.52-1.77,1.87-1.9,5.09-2.55,9.68-1.94,1.9-1.6,5.72-1.45,7.74,0v1.94c.98.23,1.91.52,2.67,1.05,2.07,1.42-5.57,40.61-10.42,43.47,3.49,12.59-12.25,27.62-21.66,35.92-45.52,40.16-104.11,46.21-153.8,9.04-15.28-11.43-37.4-33.11-35.51-52.7-1.38-.42-2.52-.94-2.82-1.76-3.55-9.69-7.81-23.74-10.2-33.78-.21-.9.47-2,1.4-3.17,1.47-1.53,4.24-1.48,5.81,0,3.14-.88,4.43-.23,3.87,1.94l9.68,1.94c.88-2.79,2.13-2.18,3.87,0l2.28-1.85,42.17,1.76c-10.39-.48-20.69-1.75-30.9-3.78-1.69-.55-1.67-1.2,0-1.94-12.5-.68-24.75-1.32-36.77-1.94-5.5-.1-11.65-16.3-5.81-19.35,1.98.52,12.05.46,14.17-.04,1.45-.34,1.17-3.49,2.64-3.81,5.1-1.12,12.6-1.43,17.44-4.51,18.62-11.87,31.3-39.51,35.44-57.45.99-4.31,3.21-8.69,3.71-12.74,2.61-21.18-6.52-19.43-17.21-32.79-6.24-7.79-12.61-18.86-16.44-28.08-1.27-3.06-4.25-16.77-4.91-17.39-.23-.22-3.68,1.99-6.29,1.61-19.62-2.86-24.3-36.44-12-49.88,8.65-9.45,15.47-1.91,20.25-4.83,4.19-2.56,5.23-12.1,5.79-16.55,7.55-4.68,16.8-5.72,27.76-3.1,18.31,5.01,25.72,4.15,22.24-2.58-15.4-1.37-30.94-.89-46.6,1.45-2.76-2.75-4.92-30.69.46-32.54,34.74,4.73,36.98-12.51,62.5-21.69,36.1-12.98,52.99,16.72,71.04,41.05Z"/><path class="uuid-c9dda1fa-a6f6-4bbb-8a9b-7b6da681e56c" d="M1000.98,793.38l25.7,3.96c9.18,7.71,28.3,14.14,35.61,23.75,1.12,1.48.12,4.89,1.25,6.51,5.8,8.32,7.03,7.95,11.64,19.34,9.87,24.42,24.44,50.93,34,75.71,10.51,27.24,17.55,51.59,23.44,78.45,3.23,14.73,11.6,36.85,15.42,52.97.93,3.92-.96,16.63.04,18.03l1.65,2.06c-3.83,3.21-4.38,5.1-1.65,5.68,2.74-2.63,4.81-1.87,7.74,0,35.09,36.46,63.64,65.87,88.38,109.04,2.82,4.92,6.2,17.43,9.02,21.95.88,1.41,6.13,4.11,6.54,5.03,1.07,2.41.13,6.63.64,7.13.59.57,12.13,2.85,14.81,4.56,1.15.74,18.6,18.18,19.34,19.34.91,1.42.39,4.22,1.28,6.5.25.64,2.79.67,3.15,2.04.8,3.02-.26,6.96.06,10.22,1.69,4.23,2.98,9.39,3.87,15.48.02,1.28.05,2.59,0,3.87-2.66,2.56-3.95,6.43-3.87,11.61-.35,5.46,2.39,13.25-3.87,11.61-3.03-.06-2.78-2.67,0-3.87-2.35-3.94-4.52.35-3.87,3.87,3.31,1.7,3.84,10.49,0,11.61,2.94,1.89,3.3,7.92,0,9.68,2.04,6.94,2.33,13.46-3.87,5.81-5.31-2.55-8.28-8.02-8.91-16.39.44,15.72.19,31.51-.77,47.36,1.33.41,1.25,1.07,0,1.94-.7,4.06-1.34,7.93-1.94,11.61-2.65.89-4.46-.91-5.43-5.39-9.6-39.1-11.68-44.19-6.24-15.29,1.53,7.73.26,13.33-3.82,16.81,2.03,6.73,1.39,9.96-1.94,9.68-3.68-.3-6.09-3.46-7.23-9.47l-2.45,1.73c-.04,4.03-1.54,2.81-3.87,0-1.3-.21-2.57-.5-3.71-1.05-5.03-2.46-21.35-41.13-24.58-49.56-.35-.91.28-2.19,1.19-3.58-1.48.07-2.71,0-3.08-.61-8.61-14.09-22.93-38.73-16.27-53.59.37-5.11,1.66-9.62,3.87-13.55-1.97-2.13-1.94-6.62.1-13.48-3.08-2.73-4.41-5.33-3.97-7.81-1.9-.1-3.19.55-3.87,1.94,9.49,2.78,10.15,11.05,2,24.8.49,10.59.17,20.92-.96,30.97-30.72,15.07-61.56,29.72-92.51,43.95l-1.43,2.86c-1.69,5.66-5.98,5.25-7.74,0l-3.46-2.48c14.97-77.32,22.45-115.98,22.45-115.98l4.24-1.53c.67-5.86,12.39-5.6,13.55,0,8.22-1.78,16.88-1.34,25.16,0l3.22-1.91c10.83,1.5,14.92-.45,12.26-5.84-.88,2.61-4.53,2.35-6.9,1.32-8.01-3.48-36.62-35.23-39.69-44.44-4.32-1.1-6.02-2.94-3.73-7.21-1.73-.64-3.02-1.93-3.87-3.87l-4.16-1.07c-5.04-6.63-8.87-13.25-11.5-19.86l-10.83-13.79c-22.6-55.69-44.83-111.27-66.69-166.72-.99-3.5-2.66-9.64.28-11.46l-2.69-.23c-1.63-7.16-3.32-12.24-5.05-15.25l-4.05-1.09-4.28-24.38c-12.18-8.57-34.11-29.59-22.64-44.21,2.39-19.82,7.29-41.68,11.85-62.02.45-2.01,1.37-3.3,3.64-3.78Z"/><path class="uuid-76a205ba-8849-4b11-adcb-1d346dd34665" d="M1128.73,452.74c5.92-9.63,6.54-15.94,16.51-25.11,5.88-5.4,44.32-30.04,49.29-25.21l-2,6.69c-21.42,8.85-48.83,22.05-56.04,45.56,8.35-3.79,20.38.81,21.23,10.84.27,3.2-1.73,5.09-1.89,6.58-13.1,3.98-26.55,8.58-31.93-7.73-9.31,6.85-31.41,29.04-19.48,40.76,4.53,4.44,22.84,7.51,30.12,9.56,9.25,6.02,1.63,7.49-7.74,3.87-6.23,7.84-24.26.49-30.75-5.71-20.68-19.76,11.17-56.59,32.69-60.1Z"/><path class="uuid-7c1bb937-659b-463e-a2fa-46633e224a35" d="M1275.82,1379.83c.76-3.64,1.4-7.51,1.94-11.61-.01-.64.04-1.29,0-1.94.55-1.69,1.2-1.67,1.94,0,1.85,4.77,1.85,9.93,0,15.48-1.51,3.89.59,10.97-7.74,5.81-2.71.97-5.3,4.19-7.74,9.68-15.06,3.42-11.47,1.9-18.45-7.72-1.45-1.99-4.39-3.29-4.78-3.89l-6.14-2.62c-8.37-15.91-15.82-32.25-22.35-49.02l1.39-6.42c-2.66-7.25-1.16-11.05,3.87-3.87,8.86,19.57,15.33,35.71,27.1,54.19,2.69,2.09,3.98,2.09,3.87,0-1.99-7.63-6.58-16.18-7.66-22.36-.69-3.96-.84-5.52,3.76-4.73,4.68,10.59,8.33,24.87,13.58,34.83,3.22-.35,3.87-3.58,1.94-9.68-.37-5.43.41-10.97-.03-16.43l-6.96-45.35,4.06-4.02,18.42,69.67Z"/><path class="uuid-eb9f29c2-9708-4d69-a7e9-5951855fab0b" d="M1220.97,801.45c21.28-7.35,33.31,36.26,16.18,41.49-4.74,1.44-6.92-.2-9.75-4.05-.78-1.07-10.16-22.19-10.77-24.17-1.32-4.3-.47-11.61,4.34-13.27Z"/><path class="uuid-5e821435-0709-4476-ad9f-15961d4a4b0a" d="M1257.82,801.52c3.13-.94,9.45-1.13,12.24.54,4.16,2.5,15.98,29.6,2.43,33.55-16.03,4.68-27.7-30.18-14.67-34.09Z"/><path class="uuid-5588ecd4-ab08-4420-8c99-0cac9a1fb5bc" d="M1277.76,1366.28c-1.14-20.58-2.42-41.37-3.86-61.94h5.79c.77,10.34,4.49,20.98,7.75,30.98,2.89,1.92,5.47,3.21,7.74,3.87-.49-7.06-1.78-13.51-3.87-19.35-.4-3.57.3-9.65,0-11.61-1.39-6.19.94-11.18,3.87-3.87.2,1.22-.2,2.65,0,3.87.87,5.21,1.47,12.04,1.94,17.42l1.94,9.68c1.24,19.25-.65,43.38-13.55,11.61-1.76-1.01-3.05-3.59-3.87-7.74-.55,8.41-.51,17.02.1,25.83l-2.04,1.26h-1.94Z"/><path class="uuid-550efa01-7c12-4267-86ed-495443509002" d="M1287.43,890.15c-14.79-.2-14.98-28.27-3.87-30.97,21.59-5.24,20.95,31.2,3.87,30.97Z"/><path class="uuid-3398893e-f282-4ec1-b444-f8248447ad1e" d="M1134.53,514.67c6.34,1.78,43,9.91,44.33,11.79,4.74,6.72-10.56,16.56-15.29,19.18.46-4.11.24-4.34-3.87-3.87-1.23-2.68-.18-5.55,3.14-8.6l-31.98-8.06c-3.62-1.1-5.28-2.48-4.06-6.56,3.22.02,6.46,0,9.68-.02l-1.94-3.85Z"/><path d="M995.18,793.38c.55-1.86,1.19-7.26,2.92-7.75,4.17-1.18,3.34,4.51,2.88,7.75-2.75,19.38-10.07,47.08-15.48,65.81-1.21,5.05-2.21,5.01-3.87,0,2.68-7.48,8.76-37.6,7.74-44.52-.03-3.77.14-6.88,3.87-9.68.77-4.22.44-6.58,1.94-11.61Z"/><path class="uuid-5d3af5b7-2800-457f-8909-6eefa8a8ee75" d="M1283.56,1350.8c1.18,11.49.23,20.38-3.87,30.97,0-5.15,0-10.33,0-15.48,0-4.46-1.3-26.8,1.94-27.1,1.92,3.15,2.56,7.83,1.94,11.61Z"/><path class="uuid-ba6f7e17-f95b-4de6-b6e3-1cdb042baa13" d="M1148.08,1072.09c.12.17,2.53-.66,3.42.47s.17,3.08.45,3.4c1,1.86-.3,3.15-3.87,3.87-2.51,2.71-7.62,10.45-11.63,6.75l11.63-14.5Z"/><path class="uuid-fa414dab-4850-42c8-a964-c403507d9f07" d="M1271.95,1387.57c.06,2.35-3.26,7.4-3.87,9.68-1.24.17-2.76-.25-3.87,0l1.96-21.28c2.41.04,5.77,10.77,5.79,11.6Z"/><path class="uuid-dcb5f9d9-33b2-4c97-9c7e-1a1fa7ccb4d5" d="M1535.18,1164.99c-.1,6.28,2.59,21.3-3.87,19.35.54-6.49-2.13-14.85,3.87-19.35Z"/><path class="uuid-5fc2ac23-af14-40a2-8d05-452fd547efc9" d="M1279.69,743.06c-6.41,1.96-3.74-11.35-3.87-17.42,6.17,2.52,3.61,11.56,3.87,17.42Z"/><path class="uuid-c9dda1fa-a6f6-4bbb-8a9b-7b6da681e56c" d="M919.69,692.73c.09,5.15-.13,10.33,0,15.48-5.85,3.22-4.42-14.76-3.87-15.5.33-.44,2.88.38,3.87.01Z"/><path class="uuid-1c9ffa25-2910-4427-b65c-906e66b12b72" d="M1271.95,684.99c-6.45,1.87-3.59-9.55-3.87-15.48,5.24,3.6,3.59,10.11,3.87,15.48Z"/><path class="uuid-5fc2ac23-af14-40a2-8d05-452fd547efc9" d="M1275.82,704.35c.07,2.58-.03,5.16,0,7.74-6.34,1.92-3.72-9.61-3.87-15.48,2.3-.73,3.59,1.85,3.87,7.74Z"/><path class="uuid-f97b49c6-81de-4a23-8219-7399a5e473e2" d="M1271.95,688.86c6.34-1.91,3.71,9.61,3.87,15.48l-3.87-7.74c-.07-2.58.08-5.17,0-7.74Z"/><path class="uuid-cf181293-c699-4cbe-940f-5012f91f9b40" d="M1285.5,1346.93l-1.94,3.87c-.23-2.24-3.85-7.31-1.94-11.61,4.53.66,2.94,5.45,3.87,7.74Z"/><path class="uuid-5fc2ac23-af14-40a2-8d05-452fd547efc9" d="M1264.21,634.67c.13,2.54-.3,5.24,0,7.74-5.35-1.75-3.6-7.27-3.87-11.61,1.51-2.86,2.8-1.57,3.87,3.87Z"/><path class="uuid-fefcb660-06f4-4793-925d-a1b3ef6beeb0" d="M1531.3,1054.67c.07,1.93-.1,3.88,0,5.81-5.99,1.46-3.66-4.49-3.87-9.68,1.55-3.05,2.84-1.76,3.87,3.87Z"/><path class="uuid-c7853919-9f4b-44c5-af66-5a5f768b3e79" d="M1527.43,1044.99c6.47.97,3.59,2.05,3.87,9.68l-3.87-3.87c-.08-1.93.08-3.88,0-5.81Z"/><path class="uuid-f8f92b8d-8d52-44ac-8400-c675a743b70e" d="M1527.43,1037.25c.14,2.57-.1,5.17,0,7.74-1.15-.17-3.62.33-3.87.01-.36-.47,0-5.97,0-7.75.62-5.14,2.4-4.92,3.87,0Z"/><path class="uuid-c7853919-9f4b-44c5-af66-5a5f768b3e79" d="M1523.56,1029.51c.59,1.18,3.22-3.8,3.87,7.74h-3.87c0-2.58,0-5.16,0-7.74Z"/><path class="uuid-e71af5a0-7b8d-4bbd-a8c7-0b7e78eef939" d="M1446.14,940.48c3.9.29,8.46-1.91,7.74,3.87-4.71-.57-8.95,2.25-7.74-3.87Z"/><path class="uuid-87f6eb6c-005a-4152-8a83-08a10802a713" d="M1151.95,1075.96c.21.25,2.96,2.93,3.87,3.87h-7.74c1.13-1.23,1.6-3.36,3.87-3.87Z"/><path class="uuid-1c9ffa25-2910-4427-b65c-906e66b12b72" d="M1260.34,615.32c.36,2.3-.13,5.24,0,7.74-2.9-1.82-3.41-4.66-3.87-7.74-.2-3.86,2.49-3.27,3.87,0Z"/><path class="uuid-dcb5f9d9-33b2-4c97-9c7e-1a1fa7ccb4d5" d="M1260.34,626.93c5.82-1.21,3.62,2.88,3.87,7.74l-3.87-3.87c-.08-1.28.09-2.59,0-3.87Z"/><path class="uuid-1c9ffa25-2910-4427-b65c-906e66b12b72" d="M1515.82,1261.76c-.57,4.71,2.25,8.95-3.87,7.74.7-3.04.79-5.91,3.87-7.74Z"/><path class="uuid-51bb0a5b-b8be-4cc4-a779-7a8e747c07b3" d="M1300.98,1296.6c.11-3.1-1.2-8.02,1.94-9.68-.18,3.22,1.33,8.5-1.94,9.68Z"/><path class="uuid-20b47ec6-6b3b-4c17-ba48-12281f52c545" d="M1260.34,615.32h-3.87c-.27-1.82.37-4.15,0-5.81,3.21.95,3.41,2.91,3.87,5.81Z"/><path class="uuid-ecc1692a-fb3d-4e3d-b001-ca86e3b7ab2b" d="M1299.05,1335.31c-3.14-1.65-1.82-6.58-1.94-9.68.16,1.9,1.65,5.28,1.94,9.68Z"/><path class="uuid-7ce4df89-ab2b-4f23-aaaf-bdef4e684963" d="M1559.73,592.69c1.64,1.83,9.57,19.69,9.96,22.16,1.58,9.84-9.2,14.43-17.66,12.09-1.54-.43-13.04-25.36-12.73-27.63,1.2-8.87,13.25-14.63,20.43-6.62Z"/><path class="uuid-037230c4-04ea-4879-a7db-ddbafbe874dd" d="M1511.47,580.8c16.9-2.93,31.36,42.48,7.35,38.41-8.49-1.44-23.88-35.55-7.35-38.41Z"/><path class="uuid-037230c4-04ea-4879-a7db-ddbafbe874dd" d="M1427.97,387.59c259.54,191.38,324.52,243.74,322.24,246.96-2.73,3.85-94.43-71.61-152.35-41.19-28.81,15.13-29.35,46.01-50.16,47.24-34.11,2.02-65.35-78.99-83.88-126.95-19.48-50.42-29.93-94.48-35.85-126.06Z"/><path class="uuid-d8f8afd2-b5a2-40f3-adfe-1afc31fd3eca" d="M1310.13,828.53c13.04-1.97,24.11,28.93,6.43,31.77s-20.9-29.59-6.43-31.77Z"/><path class="uuid-129bd6bf-2a2a-4cbf-844b-ea3d59ec588a" d="M1066.79,421.77c15.56,9.19,35.48,19.29,53.89,28.74,2.28,1.17,3.27,3.95,8.05,2.23-3.84,6.24-16.81,11.06-23.18,18.43-22.6,26.15-13.08,47.11,21.25,47.38,10.54,7.56,30.07,6.55,40.68,12.54,3.69,2.09-6.35,9.91-7.78,10.68-5.79,3.14-25.26,9.07-32.5,11.05-6.24,1.71-29.26,7.52-33.88,6.47-.75-.17-6.37-8.64-10.41-11.39-13.45-9.14-56.75-15.26-54.78-37.85,1.3-14.92,13.48-38.67,19.3-53.45.06-6.82,1.92-14,5.59-21.55.91-7.83,3.57-13.55,7.96-17.16,1.94.38,4.86,1.86,5.81,3.87Z"/><path class="uuid-53be71a9-3581-4560-826b-736ccc917032" d="M760.98,234.03c15.02-2.17,31.42-2.13,46.45,0,1.43-1.66,4.05-1.17,5.81,0,3.47.22,10.84,1.42,15.48,1.94,3.05,1.3,6.27,1.95,9.68,1.94,69.87,14.36,191.92,66.88,218.71,137.42l1.94,11.61c.62,2.55,1.37,5.29,1.94,7.74,1.04,8.07,1.04,15.81,0,23.23-1.8,14.84-8.44,25.75-13.55,38.71.46-4.11.24-4.34-3.87-3.87-2.16-5.17-1.29-11.79,2.61-19.86.44-8.37,2.8-14,7.07-16.91-1.35-6.65-1.33-14.4,0-21.29l-4.25-2.02c-14.79-66.21-96.03-103.88-155.41-125.52-18.28-4.86-35.38-11.38-51.31-19.56-3.61-.01-6.84-.66-9.68-1.94-3.21,4.96-13.68,3.78-15.48-1.94-3.33-.68-6.55-1.32-9.68-1.94-11.53,1.3-23.31,1.33-34.84,0-3.71.55-7.59,1.2-11.61,1.94-1.21,5.29-12.91,7.22-15.48,1.94l-9.68,1.94c-1.08,5.46-5.59,6.11-13.55,1.94-1.97,1.47-4.55,2.11-7.74,1.94l-2.9,4.78c-36.74,10.56-79.21,25.33-96.5,62.34l-5.11,2.56c-2.03,4.76-3.96,9.28-5.81,13.55,1.13,2.57,1.02,6.88-1.94,7.74-.26,4.32.38,6.9,1.94,7.74.16.86,3.25,2.72,1.94,5.8-4.28-.25-7.74-.16-11.62,1.94-.89-17.09,6.19-39.8,15.48-54.19,23.56-36.48,78.93-58.04,120-65.81,1.24-1.38,3.18-1.38,5.81,0,4.66-.75,13.25-3.53,17.42-3.87,1.94-1.48,5.82-1.48,7.74,0Z"/><path class="uuid-d485da14-0150-4259-8d4c-3f3b0036a8e2" d="M807.44,232.09c1.69.55,1.67,1.2,0,1.94-14.45-.67-32.03-.76-46.45,0-1.69-.55-1.67-1.2,0-1.94,15.35-.37,31.1-.39,46.45,0Z"/><path class="uuid-8724083b-6e8b-4006-adea-c62506bdf17c" d="M1060.98,394.67c2,8.71.52,15.36,1.97,21.89.36,1.64,5.19,1.32,3.84,5.2-1.67-.99-5.1-.27-5.81-3.87.88-7.24-.62-15.78,0-23.23Z"/><path class="uuid-7ba48207-31bc-44c8-a001-7726f39d1238" d="M1059.05,386.93c-.85-3.5-3.47-6.83-1.94-11.61,1.5,3.94,3.06,6.43,1.94,11.61Z"/><path class="uuid-8724083b-6e8b-4006-adea-c62506bdf17c" d="M807.44,232.09c3.86.1,7.75-.09,11.6.02.7,3.17-2.82,1.68-5.8,1.92-1.92-.12-3.88.09-5.81,0v-1.94Z"/><path class="uuid-8724083b-6e8b-4006-adea-c62506bdf17c" d="M760.98,232.09v1.94c-2.56.13-5.19-.21-7.74,0-9.84-1.85,1.6-1.79,7.74-1.94Z"/><path class="uuid-8724083b-6e8b-4006-adea-c62506bdf17c" d="M838.4,237.9c-3.1-.11-8.02,1.2-9.68-1.94,4.56.51,6.15,1.21,9.68,1.94Z"/><path class="uuid-d485da14-0150-4259-8d4c-3f3b0036a8e2" d="M735.82,237.9c-1.8.29-4.06-.33-5.81,0-9.48-.09.79-5.04,5.81,0Z"/><path class="uuid-c9dda1fa-a6f6-4bbb-8a9b-7b6da681e56c" d="M571.31,1312.09c20.07,7.85,40,16.96,59.78,27.33,6.3,1.93,12.22,3.91,17.64,7.51l4.16-1.49c43.51,23.82,88.42,47.2,134.76,70.14l8.18,6.84c3.66,4.7-1.55,3.98-5.81,1.94-1.97,4.63-16.52,3.01-17.42-1.94-3.11,1.2-6.56,1.38-7.74-1.94l-6.45.44-39.43-19.19c-14.36-9.85-30.06,3.77-16.09,15.68l.04,3.06c2.97,4.61,5.55,5.9,7.74,3.87-9.88-6.04-21.84-24.79-3.23-26.13,5.82-.42,44.52,18.95,52.35,23.19.72.39,1.02,1.55,1.21,2.94.63-2.85,3.12-2.86,3.87,0,7.11,1.1,14.35,2.08,21.71,2.94l1.52,2.86c9.29-.48,18.17.66,27.24,2.05,3.04-4.53,7.41-4.32,12.43-3.5l42.11,6.9,3.38,4.22c3.25,2.28,4.41,6.81,3.49,13.59,8.68,25.58-16.36,21.41-33.72,15.37-27.41-.58-32.89,1.24-26.5,29.57l-3.27,3.4c-27.95,1.39-46.08-5.51-71.61-7.74-1.69-.55-1.67-1.2,0-1.94-4.05-.71-7.93-1.36-11.61-1.94-5.78-6.89-5.71-12.84-10.9-19.1-14.35-.8-26.8-3.37-41.36-4.12-1.69-.55-1.67-1.2,0-1.94-2.84-.67-8.65-1.32-17.42-1.94-51.22-3.28-101.71-22.72-141.7-54.31-7.5-5.92-8.9-13.21-18.94-15.37-2.58-4.57,4.14-16.48,9.68-15.48l-.08-6.1c9.21-15.85,16.8-32.58,22.06-50.17l3.19-1.8c-3.31-4.65,2.75-20.72,5.77-22.67,1.65-1.06,29.91,11.04,31,14.93Z"/><path class="uuid-c9dda1fa-a6f6-4bbb-8a9b-7b6da681e56c" d="M1213.89,1327.57c8.33,18.34,16.12,41,27.1,58.06-7.26,5.29-14.19,14.01-20.86,19.27-45.23,35.68-108.22,53.28-166.89,54.28l-9.68,1.94c-1.71.77-3.64,1.42-5.81,1.94-2.58,0-5.17-.08-7.74,0-6.33,3.44-19.15,7.05-25.16,3.87q-2.8-3.18,0,0c.39,2.29-2.19,3.58-7.74,3.87-4.87,5.48-19.48,6.68-27.14,6l-3.83,1.74c-5.52,3.74-17.16,7.03-23.23,3.87-3.7-2.63-4.99-2.63-3.87,0-3.77,4.93-17.49,6.67-23.23,3.87-3.69,4.31-18.66,7.29-23.23,3.87-3.56-2.76-9.6-3.27-13.55,0l-1.25,2.71c-7.18,1.22-14.5,2.25-21.97,3.09-2.01,2.12-36.79,5.52-42.58,5.81-1.51-7.45-5.58-28.09.76-33.11,3.76-2.98,23.76-4.02,29.32-3.72,7.34.39,21.51,6.47,24.74,5.91.56-.1,6-6.55,9.01-6.81-5.52-6.96-4.83-16.07-3.83-24.21l4.36-3.67c17.07.14,32.99-6.66,48.28-13.61l5.43,1.8c3.15,1.01,6.71,1.14,10.67.38,5.23,5.45,6.84,2.74,4.82-8.12,3.67-8.15,14.49-13.79,23.23-11.61,7.37-.75,10.94,20.63-.4,19.54l5.3,5.43c1.62,13.09,11.76,12.64,17.15,1.91,1.05-.63,22.15.97,23.87,1.53,2.97.98,14.05,12.24,4.4,14.16q-4.28,3.13,0,0c4.28-15.12,25.01-19.05,34.29-6.16,3.7-10.67,11.82-10.81,19.55-3.77,9.07-15.1,36-7.06,48.62.17,7.36-4.23,15.85-4.79,25.47-1.68,5.99-2.44,4.84-14.34-.52-17.3-10.79-21.51,23.43-24.12,33.46-10.67-8.12-31.06.13-43.73,24.74-38,7.53,4.39,4.65-14.36,3.89-14.98-19.65,4.48-40.73-8.25-28.26-29.28,2.2-3.71,4.17-6.12,8.94-6.01-.25-5.08,4.57-10.19,5.22-4.71-14.48,4.47-15.81.76-16.69-10.85-3.73-3.16,15.17-12.73,16.29-12.57,6.25.86,19.86,28.64,18.55,35.8Z"/><path class="uuid-c9dda1fa-a6f6-4bbb-8a9b-7b6da681e56c" d="M1028.08,1466.92c-3.52,8.31-7.64,16.53-11.02,24.88-.75,1.86-.23,5.39-.73,5.97-.59.69-4.09-.07-5.67.12-3.08.66-6.3,1.31-9.68,1.94,1.69.55,1.67,1.2,0,1.94-11.97.37-19.62,3.11-30.97,3.87-3.51.57-7.38,1.22-11.61,1.94,1.69.55,1.67,1.2,0,1.94-21.5.78-45.33-.72-65.81-5.81-1.39-.69-3.32-1.34-5.81-1.94-5.86-.35-13.36,1.75-17.42-3.87,6.03-4.25,13.61-6,22.72-5.24,10.21-2.57,20.05-3.4,29.53-2.5,10.61-5.68,24.82-7.24,36.77-5.81l9.68-1.94c.12-2.99,2.99-2.76,3.87,0,6.6-7.95,22.34-9.32,32.9-9.68,2.58-5.82,17.42-7.53,23.23-5.81Z"/><path class="uuid-f079fc7a-9f4c-464b-bd75-f0d2ebb3a356" d="M486.15,1319.83c.19-3.7,2.3-4.86,5.32-2.68l-1.45,35.58c.29,9.66-.01,19.42,1.96,29.02l5.79-11.6c2.18.56,3.47,1.85,3.87,3.87.35.58-4.01,10.91,3.87-1.94,5.63-5.47,6.19.09,3.87,5.81-3.02,5.23-4.94,10.88-9.68,15.48-3.86-.83-9.63.26-11.75-2.68-3.07-4.24-1.55-9.92-1.8-14.74-1.37-3.33-2.66-6.56-3.87-9.68-1.27-.13-2.59.09-3.87,0,.41-1.33,1.71-2.77,1.94-3.87-.11-4.2.54-8.07,1.94-11.61,1.56-9.99,2.36-20.91,3.87-30.97Z"/><path class="uuid-d2efafe0-fc5d-48c1-9932-c79c97f373d3" d="M915.82,1486.28c2.23.83,4.17,2.12,5.81,3.87-17.56,2.65-34.12,6.52-52.26,7.74-4.01.27-11.1,1.19-13.55-1.94.32-.34-1.05-3.44,1.2-3.97,3.95-.93,16.15-1.2,22.03-1.84,2.14-3.18,11.12-3.15,13.55,0,7.02-.7,16.03-2.98,23.23-3.87Z"/><path class="uuid-696740bc-f9ac-4245-9a29-0c1a87917eb1" d="M1030.02,1463.05c-.59,1.31-1.38,2.55-1.94,3.87-7.32,3.18-16.03,3.85-23.23,5.81-3.69.19-6.28-.46-7.74-1.94,2.11-1.37,5.44-3.17,7.74-3.87,9.79-2.98,15.98-3.58,25.16-3.87Z"/><path class="uuid-87f6eb6c-005a-4152-8a83-08a10802a713" d="M482.28,1366.28c1.26.13,2.6-.15,3.87-.01.16,3.21-.16,6.48,0,9.69h-3.87c.54-2.82-.37-6.64,0-9.68Z"/><path class="uuid-e173bf1a-bb76-40fe-aef1-a9efbf7c8522" d="M1043.56,1461.12c2.35-1.2,5.65-1.85,7.74,0-5.19,2.97-7.78,1.92-13.55,1.94.94-2.55,3.69-1.82,5.81-1.94Z"/><path class="uuid-5c6a1f0a-beed-4c03-a6c0-c5851f8e510c" d="M970.02,1507.57c-1.8,3.41-7.98,1.8-11.61,1.94v-1.94c3.51-1.42,8.48-1.77,11.61,0Z"/><path class="uuid-c9dda1fa-a6f6-4bbb-8a9b-7b6da681e56c" d="M970.02,1505.63v1.94h-11.61c2.16-3.4,7.95-1.69,11.61-1.94Z"/><path class="uuid-d2b3dfdb-a60b-4f1a-8106-023f0410208c" d="M1010.66,1499.83l1.94,1.92c-3.85.13-7.76-.1-11.61.02v-1.94c2.87-1.35,7.19-1.71,9.68,0Z"/><path class="uuid-c9dda1fa-a6f6-4bbb-8a9b-7b6da681e56c" d="M1053.24,1459.18c-.61.62-1.19,1.51-1.94,1.94-2.57.09-5.17-.14-7.74,0,1.63-3.09,6.57-1.88,9.68-1.94Z"/><path class="uuid-c9dda1fa-a6f6-4bbb-8a9b-7b6da681e56c" d="M1010.66,1497.89v1.94h-9.68c1.68-3.32,6.67-1.57,9.68-1.94Z"/><path class="uuid-29943ba7-1ef6-4645-b0d4-db73f47cfd96" d="M886.79,1501.76c5.89.35,15.13.18,5.81,1.94-1.87-.46-4.46.62-5.81-1.94Z"/><path class="uuid-5ca7a423-330d-4b2e-8d91-2e12243d418c" d="M160.99,911.44c-17-1.19-35.83,2.5-52.26-1.94,15.34.91,32.6-1.52,47.55-.1,1.81.17,4.5-.39,4.71,2.03Z"/><path class="uuid-b2141427-da49-4ede-9ca9-b40bdfbd6294" d="M234.54,655.96v1.94c-6.43-.12-12.92,0-19.35,0-1.69-.55-1.67-1.2,0-1.94,6.43-.05,12.92-.05,19.35,0Z"/><path class="uuid-5167ecbe-c0c8-45ea-a329-d391fc72e219" d="M215.18,655.96v1.94c-5.8,0-11.62-.03-17.42,0,3.82-3.51,11.96-1.9,17.42-1.94Z"/><path class="uuid-8724083b-6e8b-4006-adea-c62506bdf17c" d="M760.98,243.7c3.7-1.5,8.04-1.72,11.61,0,11.45-1.76,23.39-1.79,34.84,0,2.77-1.72,6.67-1.43,9.68,0,7.04.27,9.36,1.05,15.48,1.94,2.56,1.28,5.79,1.93,9.68,1.94,28.91,6.83,56.31,16.47,83.06,28.2,42.57,18.67,102.94,51.01,121.11,95.69,2.43,5.96,6.08,17.1,6.8,23.2-.42,6.73-1.06,13.18-1.94,19.35-3.19,6.46-14.55,3.45-15.48-3.87-6.13-66.53-108.9-117.26-166.05-131.04-32.29-7.79-73.79-11.28-106.85-8.31-6.35-.12-10.87.52-13.55,1.94-58.78,10.47-88.64,44.35-135.39,72.68-3.42,2.07-5.23,3.79-9.77,2.8-2.57-.96-2.31-2.43,0-3.87-1.06-1.79-.24-3.69,1.94-3.87,2.52-2.86,2.51-5.63,1.94-9.68-2.62-2.32-.23-7.05,1.94-9.68,13.88-40.63,66.46-59.72,104.52-69.68,9.74-.6,12.32-1.25,7.74-1.94,6.09-1.46,9.43-1.2,13.55-1.94l9.68-1.94c6.05-.72,7.55-1.7,15.48-1.94Z"/><path class="uuid-129bd6bf-2a2a-4cbf-844b-ea3d59ec588a" d="M716.47,739.19c4.2,7.65-8.2,5.13-13.55,3.87-10.83-3.15-15.87-4.74-25.16-11.61-1.83-.97-3.75-1.06-5.76-.4-8.03-6.88-14.51-15.22-20.5-23.87-8.46-12.2-17.82-27.46-18.25-41.53l.99-11.64c42.51,12.81,48.35,68.72,82.24,85.19Z"/><path class="uuid-9dc77886-1c9e-4317-89ea-a404273ab5cd" d="M449.37,431.45c7.57-2.6,13.38-2.6,17.42,0-28.77,13.17-53.57,25.64-66.16,56.75-3.32,8.22-3.44,18.83-9.31,24.54-9.32-19.2-6.34-35.75,6.92-52.09,9.82-12.1,35.93-27.43,51.13-29.2Z"/><path class="uuid-129bd6bf-2a2a-4cbf-844b-ea3d59ec588a" d="M1051.31,414.03c1.04-1,1.69-.36,1.94,1.94-.87,10.49-5.33,27.08-9.68,36.77-6.8,15.16-20.83,29.62-21.31,48.38-2.72.28-3.6-7.37-3.67-8.98-1.23-28.06,19.72-55.12,17.24-81.98,5.78,3.42,9.54,3.14,15.48,3.87Z"/><path class="uuid-d2efafe0-fc5d-48c1-9932-c79c97f373d3" d="M799.69,526.28c-4.38,8.32-.84,19.9-1.92,29.03,10.94-1.2,39.67-4.74,49.07-1.66,5.13,1.68,2.79,10.76,3.16,15.21-17.76-4.72-35.76-6.83-54.18-5.8,1.52-12.2-1.03-25.9.01-38.7,2.42-.86,3.64,1.9,3.86,1.93Z"/><path class="uuid-ba6f7e17-f95b-4de6-b6e3-1cdb042baa13" d="M939.05,557.25c-13.83-.21-27.63,3.51-40.6,6.87-8.33,2.15-5.55-9.07-5.86-14.62,11.73-.18,21.78-1.89,33.75-1.58,2.99.08,5.45,2.7,6.9-2.28,3.38,4.55,4.29,9.51,5.81,11.61Z"/><path class="uuid-ece058e1-185d-4e5d-b3d3-595bcb12202c" d="M677.76,731.44c-4.58-.08-6.71-1.3-5.81,3.87-17.48-14.64-34.17-40.64-42.58-61.94,5.81,1.21,3.63-2.87,3.87-7.74,11.23,23.19,23.2,50.03,44.52,65.81Z"/><path class="uuid-c977a7d1-b327-41f3-87e0-3277a3e34fe8" d="M449.37,431.45c10.72-4.38,22.4-6.27,33.85-7.77l-16.43,7.77c-5.62.44-11.94-.64-17.42,0Z"/><path class="uuid-afb7a704-486a-4731-a41c-ae9ce8bb2b32" d="M722.28,743.06c-.55,1.68-1.84,2.97-3.87,3.87-7.36-.61-9.39-2.1-15.48-3.87,4.86-.09,11.62,1.68,13.55-3.87,2.16,1.05,4.42,1.68,5.81,3.87Z"/><path class="uuid-129bd6bf-2a2a-4cbf-844b-ea3d59ec588a" d="M722.28,743.06c1.12-.14,2.76-.15,3.87,0,3.46.78,4.75,2.07,3.87,3.87-3.44.29-8.17.28-11.61,0-.57-5.35.25-3.42,3.87-3.87Z"/><path class="uuid-f64d4f96-4039-45df-bdb6-e105a4f04332" d="M604.21,344.35c.23,1.19-.28,2.77,0,3.87.15.59-.12,1.3,0,1.94l-1.96,3.85h-1.89c-1.79-4.64,1.34-8.56,1.92-11.6,2.43-2.51,3.1-1.35,1.94,1.94Z"/><path class="uuid-f1695f7e-bd12-493c-b574-9f3239d93161" d="M762.92,270.8c-2.76.25-10.39,1.37-13.55,1.94-11.34-1.98,7.41-2.29,13.55-1.94Z"/><path class="uuid-afb7a704-486a-4731-a41c-ae9ce8bb2b32" d="M726.15,743.06c3.03.4,7.01-.18,7.74,3.85-1.27.11-2.59-.09-3.87.02l-3.87-3.87Z"/><path d="M981.63,859.19h3.87c-2.91,10.06,6.64,24.85,13.49,32,3.24,3.38,11.21,7.41,12.63,10.6,1.48,3.33,4.21,21.9,4.86,27.08l2.07,3.91c2.03,30.24,1.08,62.08-2.07,92.87l3.06,5.82c-.67,15.08-3.49,48.17-17.45,54.26-4.85,3.07-25.51,11.35-28.19,5.72l-3.95,4.3c-11.08.96-22.17-.33-32.72-3.58-35.35-17.66-65.06-13.17-101.26.64-23.19,6.35-50.2,1.32-70.6-6.24l-2.43,1.01c-11.27-4.41-22.62-9.11-34.07-14.09-7.11-15.35-10.69-32.38-10.73-51.09-2.15-6.31-2.05-11.68.28-16.1-5-12.7-5.4-33.24-4.27-47.48.42-5.35,1.55-9.65,4.27-14.45.57-9.3,3.61-35.04,7.35-42.01,6.72-12.53,23.58-16.86,32.37-27.63,4.39-5.37,4.25-8.62,6.73-13.59,1.42-5.27,3.35-8.49,5.81-9.68,15.72,45.11,69.11,78.4,116.89,73.35,34.23-3.62,82.06-32.02,94.07-65.6Z"/><path class="uuid-687915b7-c2cc-454b-a191-0be64a5de314" d="M718.4,1006.28c5.89,12.5,4.6,54.03,12.1,63.38,5.43,6.77,28.09,6.28,32.42,17.91l4.91,2.54,5.16,30.33c4,10.3,9.34,27.61,3.48,36.8l-4.17,9.06c-19.68,19.87-38.34,40.7-55.99,62.47-33.11-2.13-68.21-5.03-100.49-11.53-6.81,7.99-30.87,6.41-38.71,0-7.45.14-13.25-1.15-17.42-3.87l3.93-9.28c15.95-16.7,31.41-33.61,46.39-50.72,5.81-2.29,4.04-2.12,7.74-7.74,2.4-.83,3.69-2.77,3.87-5.81,26.33-41.36,51.54-102.35,73.55-149.03,6.42-3.88,21.8,8.19,23.23,15.48Z"/><path class="uuid-c9dda1fa-a6f6-4bbb-8a9b-7b6da681e56c" d="M610.02,1153.38c-.24,3.49-1.78,6.01-3.86,8.71-14.3,18.59-29.6,34.98-46.47,51.29,3.54,2.82,9.34,4.11,17.42,3.87,13.1.24,26.58,2.04,38.71,0,2.32,3.19,4.61,6.57,5.55,10.46,6.34,26.16,15.02,62.07,17.72,88.13.42,4.01-.69,7.97-1.98,11.74,3.96,1.09,3.75,13.46.79,14.43-3.59,1.18-55.46-26.08-62.72-31.85-9.38-1.8-21.31-6.18-27.1-13.55-1.81-1.18-2.46-2.47-1.94-3.87-.08-3.03.56-4.96,1.94-5.81,4.51-19.1-.58-33.61-7.28-51.42l-4.33-2.77c-.93-7.48,1.19-15.54.98-22.33-.16-5.02-5.35-10.78-2.07-16.49,4.53-6.28,15.03,2.45,12.72,8.61,7.81,4.84,7.09-11.69,7.72-12.38s10.89.76,11.63.03c.84-.83-.65-18.5-.15-22.36.05-.39,3.62-6.68,4.01-6.68h27.1c.75,0,2.41-4.12,11.61-7.74Z"/><path class="uuid-51bb0a5b-b8be-4cc4-a779-7a8e747c07b3" d="M718.4,944.35c-1.24,20.28.91,41.55,0,61.94l-23.23-15.48c5.29-11.23,9.96-25.87,16.15-38.05l7.08-8.4Z"/><path class="uuid-696740bc-f9ac-4245-9a29-0c1a87917eb1" d="M548.08,1286.93c-2.07.79-2.71-1.14-1.94-5.81l-3.12-3.61c1.03-10.94.13-21.99-2.68-33.16-1.16-3.85-3.42-7.99-3.87-11.61,8.12-2.1,13.65-22.89,21.24-14.53-1.37,5.55-12.28,12.02-13.21,15.89s6.7,19.31,7.42,26.73c1.11,11.48.07,16.02-3.84,26.11Z"/><path d="M747.44,793.38c-4.96-16.89,4.23-4.29,5.81-3.87-1.35,7.25,4.04,13.64,5.81,19.35,1.72.52,1.69,1.17,0,1.94,1.72.52,1.69,1.17,0,1.94,3.93,12.44,7.47,26.82,11.61,38.71-.7,3.76-4.85,7.76-5.81,9.68,1.34-3.39,1.71-6.04,1.17-9.7-2.41-16.08-13.59-41.04-18.58-58.04Z"/><path class="uuid-daa5fb49-25e9-463c-ba4c-f19387042da5" d="M534.53,1319.83c-6.85,22.41-13.47,37.82-25.16,58.06-.03-2.82-1.1-4.97-3.87-5.81,10.18-16.6,21.07-38.99,25.16-58.06,2.67-2.79,3.96-.85,3.87,5.81Z"/><path class="uuid-f1892b3c-81c2-4e66-866f-523c07a2a22a" d="M540.34,1290.8c2.09-1.49,4.67.44,7.74,5.81,9.25,4.35,18.01,9.15,27.1,13.55,2.22,2.38.93,3.02-3.87,1.94-4.45-2.09-27.38-12.26-29.74-11.48-4.06,1.34-5.73,14.96-7.03,19.23l-3.87-5.81c.77-3.61,1.58-5.29,1.94-9.68.55-1.69,1.2-1.67,1.94,0,1.14-3.68,1.79-7.55,1.94-11.61.22-1.58.87-2.23,1.94-1.94.65-1.73,1.3-1.73,1.94,0Z"/><path class="uuid-f1c49a84-54f3-42fe-aabb-a1296d87fdc1" d="M466.79,1254.02l3.87,1.94c-4,11.29-9.16,23.2-11.61,34.84-.04,4.64-.69,9.16-1.94,13.55-.25,4.46-.01,9.07,0,13.55-.55,1.69-1.2,1.67-1.94,0-.15-3.18-1.93-5.5-1.94-5.81-1.75-4.36-1.56-9.18,0-13.55.45-18.32,7.46-28.18,13.55-44.52Z"/><path class="uuid-c9dda1fa-a6f6-4bbb-8a9b-7b6da681e56c" d="M546.15,1281.12c.86,4.13.22,6.07-1.94,5.81.69,4.44.88,6-3.87,3.87-.41-.12-1.51-.11-1.94,0-.83-9.28-.86-18.69-.08-28.21l2.02-.82c-2.98-3.81-3.08-11.74,0-15.48v-1.94c4.29,14.24,10.26,19.67,5.81,36.77Z"/><path class="uuid-c9549798-1993-413c-a567-284d799d82ca" d="M515.18,1337.25h-5.81v-33.87c0-2.87,5.81-2.87,5.81,0v33.87Z"/><path class="uuid-daa5fb49-25e9-463c-ba4c-f19387042da5" d="M490.02,1304.34c3.66-1.26,1.35,13.91,1.8,7.83l2.07,1.85-3.87,38.71c-.26-8.7.34-17.5,0-26.22-.15-3.72,1.99-7.77-3.87-6.69.74-4.91.92-11.44,3.87-15.48Z"/><path class="uuid-c9549798-1993-413c-a567-284d799d82ca" d="M474.53,1364.34c-2.72-16.76-2.18-34.04-1.97-51.32.04-3.27-1.24-8.6,1.97-10.62v61.94Z"/><path class="uuid-c9dda1fa-a6f6-4bbb-8a9b-7b6da681e56c" d="M534.53,1304.34h-1.94c1.52-18.9-2.74-39.63,1.94-58.06,1.51,19.27,1.51,38.63,0,58.06Z"/><path class="uuid-ba6f7e17-f95b-4de6-b6e3-1cdb042baa13" d="M536.47,1261.76c1.62,9.81,3.04,21.11,0,30.97-.13,3.63,1.48,9.81-1.94,11.61,2.35-10.4-3.14-51.79,0-58.06.09-.19,1.28.11,1.94,0,3.13,2.1,3.06,13.04,0,15.48Z"/><path class="uuid-daa5fb49-25e9-463c-ba4c-f19387042da5" d="M507.44,1350.8c-1.7,7.28-3.94,11.37-5.81,17.42-1.42,2.96-2.71,1.67-3.87-3.87,2.03-6.13,4.49-11.8,7.74-17.42,2.36-1.97,3-.68,1.94,3.87Z"/><path class="uuid-4584a264-e668-4800-907b-9ae56b03ebc5" d="M470.66,1242.41c1.9.29,3.19,1.58,3.87,3.87-1.09,3.26-2.72,6.43-3.87,9.68-3.96,2.47-4.2,3.23-3.87-1.94,1.33-3.56,2.06-7.02,3.87-11.61Z"/><path class="uuid-6bdcb33e-90ea-4311-ab02-8261a0541520" d="M459.05,1343.05c-.53,1.74-1.51,6.26-3.85,5.8-.39-10.27.47-20.7-.02-30.96h1.94c.02,7.95-1.64,18.72,1.94,25.16Z"/><path class="uuid-6900c133-9785-4d0a-a335-5c0ae599f15f" d="M540.34,1246.28c-.13,5.15.19,10.34,0,15.48-1.26,4.2-2.64,4.31-3.87,0v-15.48c1.21-.2,2.62.13,3.87,0Z"/><path class="uuid-9b9543e1-a617-490f-9a30-37fc789d519b" d="M472.6,1234.67c4.57-2.65,6.34-.83,3.87,3.87-.74,2.54-1.1,5.25-1.94,7.74-4.11.46-4.34.24-3.87-3.87.78-1.99.04-5.23,1.94-7.74Z"/><polygon class="uuid-f079fc7a-9f4c-464b-bd75-f0d2ebb3a356" points="490.02 1304.34 493.88 1304.35 493.89 1314.02 490.04 1315.96 490.02 1304.34"/><path class="uuid-f04648d1-507b-45d3-8bc3-903eaf1be40c" d="M501.63,1368.22c-.45,1.45.3,4.05,0,5.81-.18-.29-5.35.87-3.87-3.87.31-1.73-.46-4.42,0-5.81l3.87,3.87Z"/><path class="uuid-ffa50905-d525-4fd9-9750-94fd63ea222e" d="M505.5,1346.93c.22-.39-.1-8.35,3.86-3.86,1.97,2.23-1.63,6.45-1.92,7.73l-1.94-3.87Z"/><path class="uuid-6bdcb33e-90ea-4311-ab02-8261a0541520" d="M457.12,1304.34c.35-6.21.78-8.07,1.94-13.55-.46,4.24,1.74,10.81-1.94,13.55Z"/><path class="uuid-6bdcb33e-90ea-4311-ab02-8261a0541520" d="M453.24,1312.09h-1.94c.05-4.25-1.44-10.91,1.94-13.55-.11,4.49-.11,9.06,0,13.55Z"/><path class="uuid-d2efafe0-fc5d-48c1-9932-c79c97f373d3" d="M480.34,1362.41c.28-3.65-1.49-9.44,1.94-11.61-.7,4.47-1.02,7.23-1.94,11.61Z"/><path class="uuid-d2b3dfdb-a60b-4f1a-8106-023f0410208c" d="M621.63,1139.83c.2,4.46,1.2,6.77-3.87,5.81,1.25-1.89,2.71-3.99,3.87-5.81Z"/><path class="uuid-e966aa29-80e7-48b0-8136-abf534e30f6a" d="M472.6,1234.67c1.36-1.8,4.27-3.35,5.8-1.93,1.91,1.78-1.74,5.17-1.93,5.8.46-4.11.24-4.34-3.87-3.87Z"/><path class="uuid-696740bc-f9ac-4245-9a29-0c1a87917eb1" d="M910,702.42c1.43,32.88-40.96,45.47-63.7,25.96-4.9-4.21-18.14-26.64-7.27-25.7,2.65.23,13.93,7.03,18.77,8.39,21.18,5.96,32.75-1.95,52.19-8.65Z"/><path class="uuid-f837cc2a-4b80-443d-8340-7a90f458e5df" d="M942.92,595.96c-9.03,6.51-19.36,9.09-30.97,7.74-2.8,3.31-18.5,2.75-17.42-3.87,5.57-14.44,26.54-22.26,41.21-18.93,8.98,2.04,10.06,7.32,7.18,15.06Z"/><path class="uuid-f837cc2a-4b80-443d-8340-7a90f458e5df" d="M850.02,599.83c.56,2.38-2.66,3.67-9.68,3.87-11.44,3.7-30.27-1.28-40.64-7.74-.89-8.69-.73-13.82,8.83-15.34,17.95-2.86,31.59,5.22,41.49,19.22Z"/><path class="uuid-55e24fad-4d0a-4c0f-b6f5-ec26c195858e" d="M896.47,663.7c-.37.83-1.66,1.47-3.87,1.94-1.99,2.92-5.72,2.88-7.74,0-6.92,1.53-14.34,1.73-21.29,0-2.67,3.6-13.72,2.54-15.48-1.94,5.8-.1,7.63-6.35,11.76-8.57,9.57-5.15,32.48-3.53,36.63,8.57Z"/><path class="uuid-cb65c0c4-3478-4e38-a768-6aa948f4806a" d="M948.73,812.73c6.69-1.74,19.27-3.34,23.23,1.94-24.98,2.42-54.76,10.15-78.42,1.96-2.17-.75-7.01-1.07-6.73-3.88,20.61.02,41.31-.1,61.93-.02Z"/><path class="uuid-cb65c0c4-3478-4e38-a768-6aa948f4806a" d="M795.82,812.73c21.26-.07,42.6.04,63.86.02-.38,3.07-7.09,4.08-9.68,4.81-20.1,5.69-46.56,1.1-67.73-.96-3.18-.92-5.23-1.68-1.94-3.87,4.99-1.58,10.57-1.52,15.48,0Z"/><path class="uuid-55e24fad-4d0a-4c0f-b6f5-ec26c195858e" d="M857.76,671.44c10.21,1.68,20.75,1.64,30.97,0,1.09-1.66,5.88-1.39,7.74,0,.86,4.73-4.74,6.16-5.81,7.74-5.68,7.53-23.98,5.77-29.47,2.34l-3.43,1.54c-3.09-3.15-4.01-7.82-5.81-11.61.61-1.59,4.34-1.19,5.81,0Z"/><path class="uuid-daa5fb49-25e9-463c-ba4c-f19387042da5" d="M840.34,603.7c7.37-2.55,10.6-1.91,9.68,1.94-9.32,5.02-40.71,1.23-49.12-5.65-1.98-1.62-1.01-2.19-1.2-4.02,14.13,1.42,26.1,6.77,40.64,7.74Z"/><path class="uuid-d2efafe0-fc5d-48c1-9932-c79c97f373d3" d="M882.91,793.39c.75,12.3-18.63,16.1-25.13,6.74l25.13-6.74Z"/><path class="uuid-834b9e44-6d12-4aeb-93ac-454b6f964c39" d="M890.66,679.19c-2.34,3.47,4.14,6.22-10.66,7.71-7.24.73-17.04,1.47-22.24-3.84-.86-6.44,2.32-3.2,5.82-2.94,9.23.7,17.99,1.95,27.08-.93Z"/><path class="uuid-daa5fb49-25e9-463c-ba4c-f19387042da5" d="M942.92,595.96c-3.24,8.71-16.03,10.75-25.16,11.61-2.06-1.18-4-2.47-5.81-3.87l30.97-7.74Z"/><path class="uuid-67222e08-d113-4e1a-8556-6fb145ed67d7" d="M848.08,663.7c5.1.59,8.91,1.76,15.48,1.94,7.25.74,14.35,1.39,21.29,1.94,1.69.55,1.67,1.2,0,1.94-11.25,1.7-23.62,1.9-34.84,0-5.31-.3-11.96,1.47-11.6-5.8,3.15.23,6.56-.37,9.67-.01Z"/><path class="uuid-f4498e41-e99a-4766-8dd8-a0acd66f1c22" d="M911.95,603.7c2.53.28,5.2-.22,7.74.02l-1.93,3.85c-8.04.76-16.99-.54-25.17,0-1.25-3.71,1.04-5.41,1.94-7.73,4.72,3.29,11.87,3.26,17.42,3.87Z"/><path class="uuid-29943ba7-1ef6-4645-b0d4-db73f47cfd96" d="M993.24,804.99c-.62,3.41-1.13,7.23-3.87,9.68-.1-.69.2-1.52,0-1.94-3.78-.72-7.65-1.37-11.61-1.94l-1.21,1.99c-8.84-.88-17.47-1.55-25.89-1.99,10.53-5.24,26.68.39,37.38-1.97,1.63-.36,1.31-5.19,5.2-3.84Z"/><path class="uuid-696740bc-f9ac-4245-9a29-0c1a87917eb1" d="M884.86,669.51c2.35-3.02,9.18-2.92,11.61,0v1.94h-7.74c-10.3,1.62-20.69,1.64-30.97,0h-5.81c-.29-.6-1.48-1.2-1.94-1.94,11.12.64,23.59.18,34.84,0Z"/><path class="uuid-6bdcb33e-90ea-4311-ab02-8261a0541520" d="M882.91,638.57c-2.98,5.27-15.41,5.57-19.33.93,5.88-4.37,12.89-3.12,19.33-.93Z"/><path class="uuid-2732e639-72e0-494d-bb89-3ea8e9177e26" d="M977.76,810.8l3.87,1.94c-1.67,3.27-6.62,1.64-9.68,1.94-5.76-3.57-15.91-1.91-23.23-1.94.21-.93,1.03-1.8,1.94-1.94,7.14-1.04,19.36-.25,27.1,0Z"/><path class="uuid-29943ba7-1ef6-4645-b0d4-db73f47cfd96" d="M795.82,810.8c-8.21.65-16.82,1.3-25.83,1.94l-1.26-1.94c-3.65,1.38-6.88,1.38-9.68,0-.18-.59.18-1.35,0-1.94,11.75,1.14,25.72-2.47,36.77,1.94Z"/><path class="uuid-fa4cb3fe-aeb8-4499-86b1-7d32bb43f52f" d="M892.6,665.64c9.5-3.65,20.33.2,7.74,3.87-1.25.15-2.6-.07-3.87,0-3.84.21-7.76-.06-11.61,0v-1.94c-1.69-.55-1.67-1.2,0-1.94,2.58.03,5.16-.07,7.74,0Z"/><path class="uuid-25fd544e-6fba-4bd7-8272-6dcc94d60470" d="M795.82,810.8v1.94c-5.15.02-10.34-.11-15.48,0-1.76,1.59-4.99,2.24-9.68,1.94h-1.94c-2.12-.51-3.41-1.81-3.87-1.94-.31-1.07.98-1.72,3.87-1.94h27.1Z"/><path class="uuid-d2efafe0-fc5d-48c1-9932-c79c97f373d3" d="M900.34,669.51l3.85-1.96v-1.89c-3.84-.11-7.74.08-11.6-.02.48-1.95,2.27-1.72,3.87-1.94,3.67-.49,10.82-2.57,11.6,1,1.03,4.69-5.01,4.48-7.73,4.81Z"/><path class="uuid-696740bc-f9ac-4245-9a29-0c1a87917eb1" d="M850.02,605.64c-1.66-3.2-6.59-1.73-9.68-1.94l9.68-3.87c1.65,2.33,7.32,1.87,0,5.81Z"/><path class="uuid-cb65c0c4-3478-4e38-a768-6aa948f4806a" d="M780.34,812.73l1.94,3.87c-1.27-.12-2.6.1-3.87,0l-7.74-1.94c1.63-3.1,6.57-1.87,9.68-1.94Z"/><path class="uuid-c9549798-1993-413c-a567-284d799d82ca" d="M989.37,812.73c-2.57-.13-5.19.19-7.74,0-1.64-.12-3.35-.06-3.87-1.94,3.48.11,7-.4,10.48.21,1.37.15.85,1.16,1.13,1.73Z"/><path class="uuid-46d8fdf8-c952-469a-9182-d69bf7ed6d18" d="M768.73,810.8l-3.87,1.94c-1.54-.42-4.02.28-5.81,0-.19-.59.18-1.35,0-1.94h9.68Z"/><path class="uuid-29943ba7-1ef6-4645-b0d4-db73f47cfd96" d="M778.4,816.6c-5-.39-5.71-.97-9.68-1.94h1.94l7.74,1.94Z"/><path d="M962.27,1157.25c1.24-.74,3.14-1.72,3.94-.98,20.23,18.67,39.07,41.92,53.87,65.06l92.89-9.88c5.11.63,7.97,3.66,4.14,7.74l-23.23,120c4.39,3.44-2.44,7.93-6.15,9.9-32.89,17.41-66.04,34.55-99.32,51.21-2.75,1.38-5.81,2.17-8.91,2.96-3.11.79-6.29,1.31-9.49,1.74-7.73,3.72-15.56,8.03-23.23,11.61,1.17,6.33-10.54,10.96-15.48,7.74-18.56,8.35-37.09,17.13-58.06,15.48-15.51-1.22-36.53-6.99-51.58-7.75-3.52-.18-2.2,3.52-3.91,3.91-4.54,1.03-23.66-4.67-29.67-5.84-1.38-4.2,1.2-4.84,7.74-1.94.4-1.33.88-2.42,1.61-2.63.8-.23,3.62.42,4.86.77,2.78.78-7.33.51-6.47-3.95-27.9-13.56-56.02-27-83.6-41.24-10.04-5.18-59.41-29.1-63.5-34.24-1.59-1.54-5.56-3.04-11.91-4.51,3.69-4.12,5.07-10.41.3-14.85-5.69-36.95-15.99-73.27-21.29-110.32.4-.07,2.32-2.96,4.45-1.88l94.26,10.42c19.35-23.98,38.84-48.06,61.93-68.53l10.74-1.27c53.92,12.8,110.42,12.98,164.31.04l10.75,1.23Z"/><path class="uuid-129bd6bf-2a2a-4cbf-844b-ea3d59ec588a" d="M1024.21,944.35c2.08,9.82,10.84,25.68,14.83,35.47,7.77,19.02,12.83,37.64,20.66,56.81,9.21,22.56,17.52,46.23,27.1,69.68,6.74,16.5,8.48,15.08,18.08,28.33,1.13,1.55.12,4.95,1.25,6.52,4.66,6.48,8.77,3.73,10.99,16.1,1.52,3.59,2.81,4.88,3.87,3.87,3.24,4.66,6.54,3.16,7.43,4.22.98,1.18-.26,4.72.9,6.83,1.31,2.4,36.2,37.53,38.68,38.69,1.55.73,2.72.34,3.33.58,7.81,7.15-12.21,7.91-15.48,3.87-7.58.55-15.33,1.2-23.23,1.94.83.72.19,1.36-1.94,1.94h-13.55l-2.78-4.05-95.42,10.55c-2.21-.88-16.4-24.31-19.91-28.72-5.27-6.64-36.13-37.08-36.74-39.72l-4.11-1.97c1.56-20.78,4.75-46.63,15.73-63.84,4.32-.55,31.35-10.1,33.06-12.9,5.69-17.17,6.79-35.36,9.52-52.91,3.32-27.4,3.13-55.18,2.76-82.55,1.41-3.93,3.59-2.72,4.98,1.26Z"/><path class="uuid-c9dda1fa-a6f6-4bbb-8a9b-7b6da681e56c" d="M1179.05,1304.34c6.68-1.94,2.4,9.33,6.77,9.63,5.72.4,3.32-11.43,10.3-2.17.18.24,4.63.51,2.08,3.99-.23.31-3.11-.44-3.67,1.58-.5,1.82.62,5.43-.1,6.2-.6.64-4.46-.2-6.27.43-5.89,2.04-7.97,25.01,1.51,26.81,4.55.86,21.76-1.49,23.96,2.17,1.31,2.18-.35,13.78,2.33,17.89-6.35,7.37-27.91-1.36-32.15,5-2.91,4.37.61,30.71,2.98,36.84-7.9,2.47-10-5.52-14.96-7.27-9.19-3.24-28.85-1.97-20.93,11.18,3.27,5.42,14.07.74,12.67,7.71l-7.77.02c-2.37,8.9,4.55,5.91,3.9,11.6-6.3-2.79-8.24,3.71-9.08,3.9-6.15,1.43-23.45-7.23-25.8,3.83l-1.89.02-1.94-3.87-3.88,3.86c2.28-10.77-26.47-11-33.82-9.62-13.14,2.46,2.12,24.68-14.58,21.22,14.64-13.16-12.61-30.39-9.69-7.71-9.87.65-5.43-9.67-18.34-9.88-1.86-.03-12.03,1.85-12.43,2.34-3.28,4.07,6.23,7.14-7.93,7.53-.08,1.28.12,2.59.01,3.87h-11.62c-1.79-6.25,7.57-3.76,11.6-3.87.69-10.34-.54-5.73-5-8.47-.86-.53-.95-2.88-2.21-3.14-3.34-.7-6.58,1.23-9.34,1.01-3.35-.27-6.56-3.08-10.07-1.65-3.96,1.62-1.86,7.01-5.55,8.27-1.99.68-12.62-1.59-14.38-2.8-2.24-1.54-.57-5.11-1.69-7.89-1.99-4.93-8.42-4.54-5.96-12.41h7.77s-3.89-15.49-3.89-15.49c39.01-18.77,77.2-39.76,115.86-59.3,3.3-1.67,7.53-6.33,8.01-6.5,1.78-.65,5.79.61,7.74,0,.3-1.39.71-2.57,1.51-2.96,9.7-4.82,68.56-33.58,72.53-33.15,1.16.13,2.28.64,3.38,1.27Z"/><path class="uuid-1b19911d-4dfd-41ad-81bc-3ba06d0c45d9" d="M1198.4,1234.67c2.1,2.09,6.61,3.7,7.5,7.19.44,1.74-2.79,10.63-3.62,14.1-2.2,3.94-3.5,8.45-3.87,13.55-.47,20.49,11.12,36.01,19.35,54.19-4.11-.46-4.34-.24-3.87,3.87-5.28-11.62-8.94-21.97-17.38-32.08-2.61-1.56-14.45,7.46-17.46,8.85-23.32,10.77-54.21,27.56-77.42,34.84-3.36-4.03-.58-4.24,2.51-6.2,26.22-16.7,61.48-26.83,88.65-42.96,2.67-9.18.24-18.75,1.98-28.93,2.13-12.4,9.43-13.41-.24-24.48-2.1-5.08.19-5.73,3.87-1.94Z"/><path class="uuid-ecc1692a-fb3d-4e3d-b001-ca86e3b7ab2b" d="M1291.31,1308.22c-.62-4.02-3.5-15.35-4.85-19.34-2-5.91-22.76-48.08-20.3-50.32.5-.46,6.54-1.08,6.31,2.41,7.36,21.82,18.98,40.44,22.72,63.38-4.11-.46-4.34-.24-3.87,3.87Z"/><path class="uuid-e71af5a0-7b8d-4bbd-a8c7-0b7e78eef939" d="M1016.47,928.86c6.51-1.38,2.52,3.29,3.94,6.24,2.09,4.36,1.92.34,3.8,9.24-5.84-1.08-3.75,2.96-3.87,6.69-.92,27.66.38,47.33-3.87,74.6,2.47-31.1,3.9-65.71,0-96.77Z"/><path class="uuid-ba6f7e17-f95b-4de6-b6e3-1cdb042baa13" d="M1237.11,1310.15l1.94,9.68c.22,3.83,0,7.77,0,11.61,1.68,3.79,1.46,7.73,0,11.61-.28.32-3.7,2.16-3.85,1.94-.16-3.21.15-6.47-.02-9.68l-1.94-11.61c-.34-4.02-3.23-21.28,3.87-13.55Z"/><path class="uuid-be2f5b93-951d-42f0-b765-a6d2a15fc3e7" d="M1171.31,1211.44c4.02,1.54,4.6-2.25,3.88,7.73-6.44.11-12.93-.11-19.36,0-1.69-.55-1.67-1.2,0-1.94-1.69-.55-1.67-1.2,0-1.94,5.88-.16,17.4,2.47,15.48-3.87Z"/><path class="uuid-29943ba7-1ef6-4645-b0d4-db73f47cfd96" d="M1295.18,1339.18c-.29,3.82.92,8.41-3.85,9.68,1.21-5.58-2.5-9.27-3.89-13.55,5.17.9,3.95-1.23,3.87-5.81,2.64.54,3.93,3.77,3.87,9.68Z"/><path class="uuid-daa5fb49-25e9-463c-ba4c-f19387042da5" d="M1198.4,1234.67l-3.87,1.94c-1.09-1.24-10.69-7.09-7.73-9.67,4.02-3.51,9.77,5.91,11.6,7.73Z"/><path class="uuid-ecc1692a-fb3d-4e3d-b001-ca86e3b7ab2b" d="M1291.31,1319.83c6.01-2.32,4.3,13.73,3.87,19.35-.91-2.51-3.55-7.56-3.87-9.68-.45-3,.35-6.59,0-9.68Z"/><path class="uuid-dcb5f9d9-33b2-4c97-9c7e-1a1fa7ccb4d5" d="M1155.82,1217.25v1.94c-8.36.15-16.79,0-25.16,0,.2-.91,1.06-1.85,1.94-1.94,7.5-1.74,15.95-1.75,23.23,0Z"/><path class="uuid-daa5fb49-25e9-463c-ba4c-f19387042da5" d="M1198.4,1269.51c.11-4.86-1.7-11.62,3.87-13.55-1.06,4.43-1.15,10.05-3.87,13.55Z"/><path class="uuid-7c043823-55dc-4893-ac16-9ee59656af44" d="M1248.72,1377.89c.52,1.98,3.23,4.32,1.92,7.74-3.66-.87-4.15-5.17-5.79-7.74h3.87Z"/><path class="uuid-25fd544e-6fba-4bd7-8272-6dcc94d60470" d="M1260.34,1375.96c.13,1.85,3.95,8.97,1.92,13.55-2.15-.08-3-2.25-3.85-3.87,3.14-1.65,1.82-6.58,1.94-9.68Z"/><path class="uuid-5588ecd4-ab08-4420-8c99-0cac9a1fb5bc" d="M1275.82,1379.83c.28-3.65-1.49-9.44,1.94-11.61.07,3.53.02,7.09-.02,10.64l-1.92.98Z"/><path class="uuid-a2198685-1158-40f8-addc-2251e4850fb5" d="M1239.05,1343.05c0-3.87,0-7.74,0-11.61,3.54,2.83,2.79,8.48,0,11.61Z"/><path class="uuid-a2198685-1158-40f8-addc-2251e4850fb5" d="M1235.18,1335.31c-3.23-3.41-1.6-7.68-1.94-11.61,3.36,2.15,1.75,7.95,1.94,11.61Z"/><path class="uuid-51bb0a5b-b8be-4cc4-a779-7a8e747c07b3" d="M1117.11,1157.25c5.8-1.31,3.18,2.88,3.87,3.87l-1.96,3.85h-1.89c-.33-2.46.4-5.41-.02-7.72Z"/><path class="uuid-a2198685-1158-40f8-addc-2251e4850fb5" d="M1239.05,1319.83c-3.14-1.65-1.82-6.58-1.94-9.68,3.14,3.42,1.71,5.63,1.94,9.68Z"/><path class="uuid-7f54addf-8038-4617-9982-09826342fbc0" d="M1138.4,460.48c2.85.72,4.79,2.01,5.81,3.87-.41.91,1.11,3.51-1.14,3.99-6.33,1.37-15.68-6.09-4.67-7.86Z"/><path class="uuid-59126c3c-7409-4e16-b058-dae62507bfb4" d="M1138.4,460.48c2.37-.38,5.25.24,7.73.01.93,3.01-1.7,3.37-1.93,3.86-2.82-.03-4.97-1.1-5.81-3.87Z"/><path class="uuid-8724083b-6e8b-4006-adea-c62506bdf17c" d="M807.44,241.77c1.69.55,1.67,1.2,0,1.94-11.52-.29-23.31-.25-34.84,0-1.69-.55-1.67-1.2,0-1.94,11.56-.16,23.28-.19,34.84,0Z"/><path class="uuid-51bb0a5b-b8be-4cc4-a779-7a8e747c07b3" d="M608.08,330.8c1.06,2.78,1.4,5.75-1.94,5.81-1.52,2.12-2.17,1.48-1.94-1.94,1.31-4.61.26-10.85,5.81-13.55-1.09,3.19-1.24,6.44-1.94,9.68Z"/><path class="uuid-d485da14-0150-4259-8d4c-3f3b0036a8e2" d="M1053.24,415.96c-.74-.36-1.58-1.89-1.94-1.94.83-6.08-2.19-14.76,1.94-19.35.67,5.65.48,15.48,0,21.29Z"/><path class="uuid-cf181293-c699-4cbe-940f-5012f91f9b40" d="M606.15,336.61c2.87,1.05,2.72,2.47,0,3.87-.24,1.6-.44,2.94-1.94,3.87-.08-.39-1.59-1.16-1.94-1.94.65-3.47,1.06-4.66,1.94-7.74l1.94,1.94Z"/><path class="uuid-d485da14-0150-4259-8d4c-3f3b0036a8e2" d="M772.6,241.77v1.94c-3.87.08-7.75-.11-11.61,0,2.11-3.25,7.96-1.88,11.61-1.94Z"/><path class="uuid-d485da14-0150-4259-8d4c-3f3b0036a8e2" d="M842.27,247.57l-11.61-.02,1.94-1.92c4.23.61,5.79,1.02,9.68,1.94Z"/><path class="uuid-d485da14-0150-4259-8d4c-3f3b0036a8e2" d="M722.28,249.51c9.73,1.17-1.39,2.69-7.74,1.94,2.67-.7,5.03-1.29,7.74-1.94Z"/><path class="uuid-d485da14-0150-4259-8d4c-3f3b0036a8e2" d="M745.5,245.64l-9.68,1.94c2.83-.51,5.36-1.42,9.68-1.94Z"/><path class="uuid-8724083b-6e8b-4006-adea-c62506bdf17c" d="M817.11,243.7c-3.22-.12-6.46.08-9.68,0v-1.94c3.11.05,8.05-1.15,9.68,1.94Z"/><path class="uuid-f593d9b9-ed0c-4dde-aecf-450b371fd1de" d="M764.86,1420.47c-.49,1.65-1.79,2.94-3.87,3.87-14.64-2.9-44.51-24.12-55.17-23.42-4.27.28-5.59,6.84-4.59,10.45,1.47,5.32,9.92,3.53,9.44,12.97-3.18,4.44-5.77,3.15-7.74-3.87-8.08-5.08-9.55-4.81-7.86-16.54.5-3.46,7.42-8.39,10.84-8.51,13.11-.46,43.44,20.3,58.95,25.04Z"/><path class="uuid-daa5fb49-25e9-463c-ba4c-f19387042da5" d="M575.18,1310.15c20.19,9.78,41.5,17.71,61.01,29,5.27,1.57,1.39-8.58.93-11.58,7.88-1.55,2.06,13.88,3.86,15.49.74.67,6.04-.96,7.6.2.85.63-.15,3.28.15,3.66-27.84-4.21-52.19-22.99-77.42-34.84l3.87-1.94Z"/><path class="uuid-daa5fb49-25e9-463c-ba4c-f19387042da5" d="M702.92,1420.47c1.68,1.06,5.74,3.1,7.74,3.87-.7,13.78,2.4,7.1,5.04,15.44,1.76,5.56-2.24,12.89,4.62,18.45-12.82,3.28-8.16-10.46-10.04-17.06-1-3.52-6.08-5.07-7.07-8.55-1.22-4.3,2.04-8.29-.29-12.15Z"/><path class="uuid-cb65c0c4-3478-4e38-a768-6aa948f4806a" d="M790.02,1424.34c5.61.09,7.55,1.38,5.81,3.87-2.83.14-5.52-.51-7.74,1.94-7.18-1.39-16.86-.36-23.23-5.81.85-1.37,3.43-2.02,7.74-1.94,5.11,1.09,12.15,1.88,17.42,1.94Z"/><path class="uuid-cb964084-6d19-461e-a3dc-99b7268482d3" d="M795.82,1422.41c2.97,1.44,8.56,1.09,9.68,5.79-3.21.15-6.47-.14-9.68.02l-5.81-3.87c2.18.02,4.75.49,5.81-1.94Z"/><path class="uuid-bbf875b7-2619-44b4-887f-a7210c0b09af" d="M764.86,1420.47c2.52.77,5.17,1.39,7.74,1.94-1.26,2.73-5.27,2.1-7.74,1.94-1.27-.09-2.75.22-3.87,0-.46-4.11-.24-4.34,3.87-3.87Z"/><path class="uuid-c9dda1fa-a6f6-4bbb-8a9b-7b6da681e56c" d="M908.08,1474.67c-4.06-.13-13.35,2.4-11.63-3.86,9.52,2.65,15.16-10.78,15.64-18.43.23-3.7-2.52-12.05-2.08-12.5.71-.73,16.14-5.27,17.41-3.93-1.26,5.03.58,10.44,6.5,9.34,5.24-.98,4.73-8.92,5.14-9.32,4.05-4.04,5,6.8,6.06,7.46,1.64,1.03,11.53.69,13.42-.58,1.23-.82,2.19-11.38,5.64-6.88.61.8-.33,12.86.11,16.33.54,4.38,6.79,12.96-.01,17.62-5.62,3.85-11.01-2.5-16.54-3.16-3.27-.4-6.81,1.28-9.68,1.03-12.9-1.14-24.86-6.61-29.99,6.89,4.35.14,17.3-2.63,15.47,3.86-10.66-2.61-12.55,6.51-23.21,3.87-1.75-6.91,5.95-2.55,7.75-3.86.43-.31-.34-3.02-.02-3.87Z"/><path class="uuid-c9dda1fa-a6f6-4bbb-8a9b-7b6da681e56c" d="M946.79,1416.6c5.58,1.23,3.7,5.8,4.58,7.35.17.3,5.71.18,3.09,4.22-.37.57-5.66-1.5-3.8,3.91l7.73,3.87c-10.74,4.67-13.32-6.12-15.96-7.14-4.63-1.8-12.22,2.46-11.13-4.46,4.11-1.85,10.29-5.32,15.48-7.74Z"/><path class="uuid-20792df7-3474-4f53-bbb3-06a47596d837" d="M966.15,1478.54c4.67.31,4.41,2.29,0,3.87-2.31.69-4.89,1.33-7.74,1.94-12.38,2.15-24.44,3.95-36.77,5.81-4.58.08-6.71,1.3-5.81-3.87,8.31-1.03,16.49-2.72,23.23-3.87-.08-3.35,2.32-2.72,3.87,0,7.38-1.43,15.6-1.9,23.23-3.87Z"/><path class="uuid-696740bc-f9ac-4245-9a29-0c1a87917eb1" d="M997.11,1470.8c2.37-.29,6.55-.7,7.74,1.94-10.6,2.88-22.05,7.85-32.9,9.68-2.3-1.24-4.24-2.53-5.81-3.87.23-.06.94-2.8,3.21-3.48,3.23-.97,22.43-3.6,27.75-4.26Z"/><path class="uuid-c9dda1fa-a6f6-4bbb-8a9b-7b6da681e56c" d="M1202.23,1323.74c.27.18,3.77,4.9,3.83,5.22,1.23,6.04-1.76,12.08.07,17.94-6.79,1.55-2.84-5.99-3.91-10.27-.25-1.01-6.57-2.09-3.84-11.97-.2-1.63,3.34-1.25,3.84-.93Z"/><path class="uuid-c9dda1fa-a6f6-4bbb-8a9b-7b6da681e56c" d="M1228.78,1385.16c-2.69-.23-8.64,11.03-11.02,8.21-.83-.99,2.76-8.6,3.86-10.25,1.15-1.74,6.36-1.01,3.72-5.12-.41-.64-5.56,1.37-3.7-3.97,7.67-1.55,9.31,5.32,7.15,11.13Z"/><path class="uuid-c9dda1fa-a6f6-4bbb-8a9b-7b6da681e56c" d="M1004.85,1466.92c-8.32.68,1.18-9.08-9.67-8.7,4.32-4.92,11.63-2.46,17.4-2.9-.08,8.85-10.72-2.05-7.73,11.6Z"/><path class="uuid-c9dda1fa-a6f6-4bbb-8a9b-7b6da681e56c" d="M1062.93,1451.45c-.29,1.64.46,5.05-.03,5.8-.53.81-16.2-3.84-19.34-1.95-1.17-7.77,14.68-2.33,19.37-3.85Z"/><path class="uuid-c9dda1fa-a6f6-4bbb-8a9b-7b6da681e56c" d="M1037.75,1447.58l-9.66,11.59c-1.55-5.84,3.13-12.46,9.66-11.59Z"/><path class="uuid-c9dda1fa-a6f6-4bbb-8a9b-7b6da681e56c" d="M1097.43,1444.03c.28.19,1.5,4.21,2.27,5.46l-13.54-4.83c1.8-1.64,9.91-1.54,11.27-.63Z"/><path class="uuid-c9dda1fa-a6f6-4bbb-8a9b-7b6da681e56c" d="M877.12,1482.4v-7.72c7.71.04,7.61,7.73,0,7.72Z"/><path class="uuid-c9dda1fa-a6f6-4bbb-8a9b-7b6da681e56c" d="M939.05,1482.41c-11.77-.88,4.45-9.46,3.87,0-1.19.23-2.66-.21-3.87,0Z"/><path class="uuid-c9dda1fa-a6f6-4bbb-8a9b-7b6da681e56c" d="M989.36,1466.93c.26.23-.09,2.64,0,3.86h-7.71s0-3.86,0-3.86c1.9.3,7.13-.52,7.72,0Z"/><path class="uuid-c9dda1fa-a6f6-4bbb-8a9b-7b6da681e56c" d="M1175.18,1428.2h-7.73s0-3.84,0-3.84c3.61-.5,6.7,0,7.73,3.84Z"/><path class="uuid-c9dda1fa-a6f6-4bbb-8a9b-7b6da681e56c" d="M830.66,1474.69c-1.04,3.85-4.12,4.34-7.73,3.84v-3.85s7.73,0,7.73,0Z"/><path class="uuid-c9dda1fa-a6f6-4bbb-8a9b-7b6da681e56c" d="M954.52,1474.68v3.85c-2.85.63-4.02-.85-5.79-2.9l5.79-.95Z"/><path class="uuid-b92b46d7-fc7c-461e-a1d1-483bcb306d5a" d="M966.15,1478.54c.72-.54,5.82.34,7.74.02l-1.94,3.85c-1.19.2-2.61-.12-3.87,0-.64.77-1.29.77-1.94,0,.2-1.07-.29-3.66,0-3.87Z"/><path class="uuid-c9549798-1993-413c-a567-284d799d82ca" d="M966.15,1482.41c.64-.03,1.3.06,1.94,0-1.66,3.42-6.8,1.43-9.68,1.94,1.36-2.95,5.2-1.82,7.74-1.94Z"/><rect class="uuid-d485da14-0150-4259-8d4c-3f3b0036a8e2" x="772.6" y="266.93" width="42.58" height="1.94"/><path class="uuid-dd8c1d33-ddb5-49a9-b648-9221ce59b0ec" d="M608.08,330.8c3.47,2.91,3.55,11.18-1.94,9.68.18-1.23-.24-2.72,0-3.87.46-2.24,1.58-4.15,1.94-5.81Z"/><path class="uuid-c9dda1fa-a6f6-4bbb-8a9b-7b6da681e56c" d="M973.89,1091.44c3.4,7.58-3.74,12.08-4.02,14.38-1.83,14.89-4.48,24.33-7.55,37.27-.53,2.26-.56,11.9-.04,14.16-60.45,16.5-125.31,16.25-185.81,0-1.47-8.77-2.37-19.44-3.99-27.94-.63-3.31-2.8-5.72-3.31-8.3-2.11-10.71-2.23-22.65-6.24-33.43-.85-5.98,2.17-3.83,5.92-3.03,18.74,3.99,33.09,8.93,53.13,6.91,22.18-2.23,49.2-16.96,71.66-15.6,29.18,1.76,43.9,20.2,80.26,15.59Z"/><path class="uuid-c9dda1fa-a6f6-4bbb-8a9b-7b6da681e56c" d="M577.11,1217.25c-6.43-.12-12.92.09-19.35-.01-1.03-3.67,1.2-3.16,1.93-3.86l17.42,3.87Z"/><path class="uuid-c9dda1fa-a6f6-4bbb-8a9b-7b6da681e56c" d="M584.86,1172.71h-5.8s0-3.84,0-3.84c2.67-.6,5.15,1.04,5.8,3.84Z"/><path class="uuid-f1892b3c-81c2-4e66-866f-523c07a2a22a" d="M548.08,1286.93c-.57,1.47.73,4.56-1.94,5.81-3.38-.18-3.79-3.06-1.94-5.81.14-.27,1.74-5.07,1.94-5.81l1.94,5.81Z"/><path class="uuid-67222e08-d113-4e1a-8556-6fb145ed67d7" d="M540.34,1261.76c-.09,2.45-1.84,5.44-1.94,8.66-.19,5.95,3.63,12.92,0,20.38-.37.09-1.13,1.62-1.94,1.94.37-10.25,0-20.7,0-30.97h3.87Z"/><path class="uuid-67222e08-d113-4e1a-8556-6fb145ed67d7" d="M546.15,1292.73c.48,1.33,1.39,2.55,1.94,3.87-3.82-1.8-6.95-5.57-7.74-5.81,1.04-1.24,3.22-2.58,3.87-3.87,1.23,1.73,1.26,3.94,1.94,5.81Z"/><path class="uuid-10eb7820-cb00-4327-8576-2758ea8ec61c" d="M884.86,665.64v1.94c-6.71-.9-16.05,2.26-21.29-1.94,7.07.18,14.21-.07,21.29,0Z"/><path class="uuid-55e24fad-4d0a-4c0f-b6f5-ec26c195858e" d="M888.73,671.44c-8.25,3.27-23.12,3.22-30.97,0h30.97Z"/><path class="uuid-51bb0a5b-b8be-4cc4-a779-7a8e747c07b3" d="M1155.82,1215.31v1.94c-7.55.5-15.81-.71-23.23,0,5.84-3.7,15.82-1.74,23.23-1.94Z"/></svg>